<?xml version="1.0" standalone="no"?>
<!DOCTYPE svg PUBLIC "-//W3C//DTD SVG 20010904//EN"
 "http://www.w3.org/TR/2001/REC-SVG-20010904/DTD/svg10.dtd">
<svg version="1.0" xmlns="http://www.w3.org/2000/svg"
 width="700.000000pt" height="700.000000pt" viewBox="0 0 700.000000 700.000000"
 preserveAspectRatio="xMidYMid meet">
<metadata>
Created by potrace 1.14, written by Peter Selinger 2001-2017
</metadata>
<g transform="translate(0.000000,700.000000) scale(0.100000,-0.100000)"
fill="#000000" stroke="none">
<path d="M0 3500 l0 -3500 3500 0 3500 0 0 3500 0 3500 -3500 0 -3500 0 0
-3500z m3770 1801 c659 -107 1204 -548 1433 -1161 85 -229 116 -414 111 -670
-2 -102 -5 -196 -8 -210 -2 -14 -7 -42 -11 -64 -29 -168 -80 -326 -160 -491
-177 -366 -473 -662 -840 -841 -266 -129 -521 -184 -825 -179 -215 3 -348 25
-541 89 -541 177 -973 607 -1154 1149 -36 109 -43 138 -71 292 -24 133 -24
515 1 587 2 7 6 27 9 43 3 17 7 39 10 50 2 11 9 41 15 66 32 141 139 381 232
525 297 455 779 757 1312 820 28 4 53 8 55 9 9 8 368 -4 432 -14z"/>
</g>
</svg>
