<?xml version="1.0" encoding="utf-8"?>
<!-- Generator: Adobe Illustrator 27.5.0, SVG Export Plug-In . SVG Version: 6.00 Build 0)  -->
<svg version="1.1" id="Layer_1" xmlns="http://www.w3.org/2000/svg" xmlns:xlink="http://www.w3.org/1999/xlink" x="0px" y="0px"
	 viewBox="0 0 731.7 626" style="enable-background:new 0 0 731.7 626;" xml:space="preserve">
<style type="text/css">
	.st0{fill:#231706;}
	.st1{fill:#354660;}
	.st2{fill:#7DAFFF;}
	.st3{fill:#FFDC7A;}
	.st4{fill:#012428;}
	.st5{fill:#022709;}
	.st6{fill:#DB7AFC;}
	.st7{fill:#A4E880;}
	.st8{fill:#EACE7F;}
	.st9{fill:#7C4C37;}
	.st10{fill:#8FE5DF;}
	.st11{opacity:0.2;fill:#8FE5DF;}
	.st12{opacity:0.2;fill:#366B66;}
	.st13{fill:#366B66;}
	.st14{fill:#5E461E;}
	.st15{opacity:0.2;fill:#FF7DCA;}
	.st16{fill:#110702;}
	.st17{fill:#FFFFFF;}
	.st18{fill:#118259;}
	.st19{fill:#1BAA7B;}
	.st20{fill:#2D221D;}
	.st21{fill:#3F3D58;}
</style>
<g>
	<polygon class="st0" points="853.2,667.9 853.2,168.8 468.4,-216 468.4,335 	"/>
</g>
<g>
	<polygon class="st1" points="814.4,579 814.4,180.3 507.1,-127.1 507.1,313.1 	"/>
</g>
<g>
	<polygon points="782.4,505.5 782.4,189.8 539.1,-53.6 539.1,294.9 	"/>
</g>
<circle class="st2" cx="229.8" cy="393.9" r="284.7"/>
<circle class="st3" cx="333.9" cy="262.2" r="284.7"/>
<g>
	<polygon points="731.7,388.8 731.7,204.9 589.9,63.1 589.9,266.1 	"/>
</g>
<path class="st4" d="M714.4,324.4c-2.6,1-5.5-0.3-6.4-2.9c-0.5-1.4-0.4-2.9,0.3-4.2l-0.1-1.4c-0.1-0.1-0.2-0.2-0.2-0.3
	c-4.9-5.6-13.4-6.2-19-1.4c-2.7,2.3-4.3,5.6-4.6,9.1c-0.9,10.5-2.8,21.5-0.8,31.7c0.9,4.5,2.5,8.9,4.9,12.8
	C673,351,661.3,331,654.3,309.2c-1.8-5.5-3.2-11-4.4-16.6c-0.9-4.6-1.7-9.3-2.2-13.9c-2.8-25.4,0.4-51.1,9.5-74.9
	c6-6.4,10-14.4,11.3-23.1c0.5-3.1,0.5-6.3,0.1-9.4c-0.8,0.4-7.2-11.5-6.8-12.5c-1.7-1.4-4.1-1.6-5.9-2.9c-9-6.5-17.2-2.2-17.9,10.8
	c-8.1,8-5.6,16.1,2.8,21.9c5.3,3.7,8,10.2,13,14.4c-0.2,0.5-0.4,1.1-0.6,1.6c-3.6,10-6.3,20.3-7.9,30.8
	c-2.2-10.5-6.8-20.3-13.5-28.6c-6.5-7.7-15.8-12.9-24.4-18.6c-10.2-6.9-23.9,2-21.4,14.1c0,0.1,0,0.2,0.1,0.4
	c1.1,0.2,2.1,0.5,3.2,0.8c3.6,1,5.7,4.8,4.7,8.4c-0.5,1.8-1.8,3.4-3.5,4.2l-0.1,0.1c1.4,3.1,3,6.2,4.8,9.1
	c1.9,32.6,22.2,38.1,46.4,30.9c0.6,0.1,1.2,0.2,1.8,0.3c-0.4,14.4,1.1,28.7,4.4,42.7c2,8.2,4.6,16.3,7.9,24.1l-0.1-0.3
	c-4.6-8.4-12-14.9-20.9-18.5c-13.1-5.2-28.8-3.6-42.3-6.8c-4.2-1.1-8.4,1.4-9.5,5.5c-0.5,1.8-0.3,3.7,0.5,5.3c0,0.1,0.1,0.2,0.1,0.3
	c1.9,0.1,3.8,0.4,5.6,0.8c1.1,0.2,2.1,0.5,3.2,0.8c3.6,1,5.7,4.8,4.7,8.4c-0.5,1.8-1.8,3.4-3.5,4.2l-0.1,0.1c-0.1,0-0.2,0.1-0.3,0.1
	c5.1,5.9,11.1,10.9,17.8,14.7c13.3,24.7,35,20.4,54.9,5.6l0,0c5.9,9.9,12.8,19.1,20.6,27.5l37.9-12.2c0-0.5,0-0.9,0-1.4
	c-3.4,1.4-7,2.3-10.7,2.8c1.7-4.4,3.4-8.7,5.1-13.1c0-0.1,0.1-0.2,0.1-0.3c0.9-2.2,1.7-4.4,2.6-6.7l0,0
	C719.7,334.5,717.4,329.3,714.4,324.4L714.4,324.4z"/>
<path class="st5" d="M726.8,386.2c-2.4,0.1-4.4-1.7-4.6-4.2c-0.1-1.3,0.5-2.5,1.4-3.4l0.3-1.2c0-0.1-0.1-0.2-0.1-0.3
	c-2.5-6-9.4-8.7-15.3-6.2c-2.8,1.2-5.1,3.5-6.3,6.3c-3.5,8.5-8,17-9.1,26c-0.5,4-0.3,8,0.6,11.9c-8.3-18.1-12.6-37.8-12.6-57.7
	c0-5,0.3-10,0.8-15c0.5-4.1,1.1-8.1,1.9-12.1c4.4-21.8,14-42.2,27.9-59.5c6.7-3.7,12.1-9.3,15.5-16.1c1.2-2.5,2.1-5.1,2.6-7.8
	c-0.8,0.1-2.9-11.4-2.3-12.1c-1.1-1.6-2.9-2.4-4.1-4c-5.7-7.8-13.6-6.4-17.7,4.1c-8.8,4.4-8.9,11.8-3.5,18.9
	c3.4,4.5,3.9,10.6,6.9,15.4c-0.3,0.4-0.6,0.8-0.9,1.2c-5.7,7.3-10.6,15.1-14.8,23.4c1-9.2-0.2-18.6-3.5-27.3
	c-3.4-8.1-9.7-14.9-15.2-21.9c-6.7-8.4-20.3-4.7-21.5,5.9c0,0.1,0,0.2,0,0.3c0.8,0.5,1.6,1,2.4,1.5c2.7,1.8,3.4,5.5,1.6,8.2
	c-0.9,1.4-2.4,2.3-4,2.6l-0.1,0c0.3,3,0.8,5.9,1.6,8.8c-7.1,27.5,8.2,37.5,30.2,38c0.5,0.2,1,0.5,1.4,0.7
	c-4.2,11.8-6.8,24.1-7.8,36.6c-0.6,7.4-0.5,14.7,0.1,22.1l0-0.3c-1.6-8.2-5.9-15.6-12.3-20.9c-9.5-7.8-22.9-10.7-33.2-17
	c-3.2-2-7.4-1.1-9.4,2c-0.9,1.4-1.2,3-1,4.6c0,0.1,0,0.2,0,0.3c1.5,0.6,3,1.3,4.5,2.1c0.8,0.5,1.6,1,2.4,1.5
	c2.7,1.8,3.4,5.5,1.6,8.2c-0.9,1.4-2.4,2.3-4,2.6l-0.1,0c-0.1,0-0.2,0-0.2,0c2.6,6.2,6.3,12,10.8,17c4.4,24,23.5,26.3,44,19.3h0
	c2.2,9.7,5.5,19.2,9.7,28.3h34.6c0.1-0.4,0.2-0.8,0.3-1.2c-3.2,0.2-6.4,0-9.6-0.6c2.6-3.2,5.1-6.3,7.7-9.5c0.1-0.1,0.1-0.1,0.2-0.2
	c1.3-1.6,2.6-3.2,3.9-4.8l0,0C728.6,396,728,391,726.8,386.2L726.8,386.2z"/>
<path class="st6" d="M707.1,380.3c-2.3-0.5-3.8-2.7-3.4-5.1c0.2-1.2,1-2.3,2.1-2.9l0.6-1.1c0-0.1,0-0.2,0-0.3
	c-1-6.3-6.9-10.6-13.2-9.6c-3,0.5-5.7,2.1-7.5,4.5c-5.4,7.3-11.7,14.4-14.9,22.7c-1.4,3.7-2.2,7.6-2.3,11.5
	c-3.6-19.3-3.1-39.1,1.6-58.1c1.2-4.8,2.6-9.5,4.3-14.1c1.4-3.8,3-7.5,4.7-11.1c9.4-19.7,23.4-36.9,40.8-50.2
	c7.3-1.9,13.8-6,18.7-11.7c1.8-2.1,3.2-4.4,4.3-6.8c-0.7-0.1,0-11.6,0.7-12.1c-0.6-1.8-2.2-3-3-4.8c-3.6-8.8-11.5-9.4-17.9-0.3
	c-9.5,2.1-11.3,9.2-7.8,17.2c2.2,5.1,1.2,11.1,2.9,16.4c-0.4,0.3-0.8,0.6-1.2,0.9c-7.1,5.6-13.7,11.9-19.6,18.8
	c3.2-8.6,4.2-17.8,3.1-26.9c-1.3-8.5-5.7-16.5-9.3-24.6c-4.4-9.6-18.3-9.4-21.9,0.5c0,0.1-0.1,0.2-0.1,0.3c0.7,0.6,1.3,1.3,2,2
	c2.2,2.4,2,6.1-0.4,8.2c-1.2,1.1-2.8,1.6-4.4,1.5l-0.1,0c-0.4,2.9-0.6,5.8-0.6,8.8c-13.3,24.6-1.1,37.8,19.8,43.4
	c0.4,0.4,0.8,0.7,1.2,1c-6.8,10.3-12.2,21.4-16.1,33.1c-2.3,6.9-4,14-5.2,21.1l0-0.3c0.4-8.2-2-16.3-6.8-22.9
	c-7.2-9.7-19.3-15.6-27.6-24.1c-2.5-2.7-6.8-2.8-9.4-0.3c-1.1,1.1-1.9,2.5-2.1,4.1c0,0.1,0,0.2,0,0.3c1.3,1,2.6,2,3.7,3.1
	c0.7,0.6,1.3,1.3,2,2c2.2,2.4,2,6.1-0.4,8.2c-1.2,1.1-2.8,1.6-4.4,1.5l-0.1,0c-0.1,0-0.2,0-0.2,0c1,6.6,3.1,12.9,6.3,18.8
	c-1.5,24,16.2,30.7,37.4,28.9l0,0c-0.2,9.8,0.7,19.7,2.5,29.3l33.1,8.2c0.2-0.3,0.4-0.7,0.6-1c-3.1-0.6-6.1-1.5-9-2.8
	c3.2-2.4,6.4-4.8,9.6-7.2c0.1,0,0.1-0.1,0.2-0.1c1.6-1.2,3.3-2.4,4.9-3.7l0,0C706.5,390,707.1,385.2,707.1,380.3L707.1,380.3z"/>
<path class="st7" d="M690,330.7c-2.4,0.1-4.4-1.7-4.5-4.1c-0.1-1.3,0.4-2.5,1.4-3.3l0.3-1.2c0-0.1-0.1-0.2-0.1-0.3
	c-2.5-5.9-9.2-8.6-15.1-6.1c-2.8,1.2-5,3.4-6.1,6.2c-3.5,8.4-7.9,16.7-9,25.6c-0.5,3.9-0.3,7.9,0.6,11.7
	c-8.2-17.8-12.4-37.1-12.4-56.7c0-4.9,0.3-9.8,0.8-14.7c0.5-4,1.1-8,1.9-11.9c4.4-21.4,13.8-41.5,27.4-58.5
	c6.6-3.6,11.9-9.1,15.3-15.9c1.2-2.4,2.1-5,2.5-7.7c-0.7,0.1-2.8-11.2-2.2-11.9c-1-1.6-2.9-2.4-4-3.9c-5.6-7.6-13.4-6.3-17.4,4.1
	c-8.7,4.4-8.7,11.6-3.4,18.6c3.4,4.4,3.8,10.4,6.8,15.2c-0.3,0.4-0.6,0.8-0.9,1.2c-5.6,7.2-10.4,14.9-14.5,23
	c1-9.1-0.2-18.3-3.4-26.8c-3.3-8-9.5-14.7-14.9-21.6c-6.5-8.3-20-4.7-21.1,5.8c0,0.1,0,0.2,0,0.3c0.8,0.5,1.6,0.9,2.4,1.5
	c2.7,1.8,3.4,5.4,1.6,8.1c-0.9,1.4-2.3,2.3-3.9,2.5l-0.1,0c0.3,2.9,0.8,5.8,1.5,8.6c-7,27,8.1,36.9,29.7,37.3
	c0.5,0.2,0.9,0.5,1.4,0.7c-4.1,11.6-6.7,23.7-7.6,35.9c-0.6,7.2-0.5,14.5,0.1,21.7l0-0.3c-1.6-8-5.8-15.3-12.1-20.5
	c-9.3-7.7-22.5-10.5-32.6-16.7c-3.1-2-7.2-1.1-9.2,2c-0.9,1.3-1.2,2.9-1,4.5c0,0.1,0,0.2,0,0.3c1.5,0.6,3,1.3,4.4,2.1
	c0.8,0.5,1.6,0.9,2.4,1.5c2.7,1.8,3.4,5.4,1.6,8.1c-0.9,1.4-2.3,2.3-3.9,2.5l-0.1,0c-0.1,0-0.2,0-0.2,0c2.6,6.1,6.2,11.8,10.6,16.7
	c4.4,23.6,23.1,25.8,43.2,19h0c2.2,9.6,5.4,18.9,9.5,27.8l34,0c0.1-0.4,0.2-0.8,0.3-1.1c-3.1,0.2-6.3,0-9.4-0.6
	c2.5-3.1,5-6.2,7.6-9.3c0.1-0.1,0.1-0.1,0.2-0.2c1.3-1.6,2.6-3.2,3.9-4.7l0,0C691.7,340.3,691.1,335.4,690,330.7L690,330.7z"/>
<path class="st8" d="M710.5,371.7c-2.4,0.1-4.4-1.7-4.5-4.1c-0.1-1.3,0.4-2.5,1.4-3.3l0.3-1.2c0-0.1-0.1-0.2-0.1-0.3
	c-2.5-5.9-9.2-8.6-15.1-6.1c-2.8,1.2-5,3.4-6.1,6.2c-3.5,8.4-7.9,16.7-9,25.6c-0.5,3.9-0.3,7.9,0.6,11.7
	c-8.2-17.8-12.4-37.1-12.4-56.7c0-4.9,0.3-9.8,0.8-14.7c0.5-4,1.1-8,1.9-11.9c4.4-21.4,13.8-41.5,27.4-58.5
	c6.6-3.6,11.9-9.1,15.3-15.9c1.2-2.4,2.1-5,2.5-7.7c-0.7,0.1-2.8-11.2-2.2-11.9c-1-1.6-2.9-2.4-4-3.9c-5.6-7.6-13.4-6.3-17.4,4.1
	c-8.7,4.4-8.7,11.6-3.4,18.6c3.4,4.4,3.8,10.4,6.8,15.2c-0.3,0.4-0.6,0.8-0.9,1.2c-5.6,7.2-10.4,14.9-14.5,23
	c1-9.1-0.2-18.3-3.4-26.8c-3.3-8-9.5-14.7-14.9-21.6c-6.5-8.3-20-4.7-21.1,5.8c0,0.1,0,0.2,0,0.3c0.8,0.5,1.6,0.9,2.4,1.5
	c2.7,1.8,3.4,5.4,1.6,8.1c-0.9,1.4-2.3,2.3-3.9,2.5l-0.1,0c0.3,2.9,0.8,5.8,1.5,8.6c-7,27,8.1,36.9,29.7,37.3
	c0.5,0.2,0.9,0.5,1.4,0.7c-4.1,11.6-6.7,23.7-7.6,35.9c-0.6,7.2-0.5,14.5,0.1,21.7l0-0.3c-1.6-8-5.8-15.3-12.1-20.5
	c-9.3-7.7-22.5-10.5-32.6-16.7c-3.1-2-7.2-1.1-9.2,2c-0.9,1.3-1.2,2.9-1,4.5c0,0.1,0,0.2,0,0.3c1.5,0.6,3,1.3,4.4,2.1
	c0.8,0.5,1.6,0.9,2.4,1.5c2.7,1.8,3.4,5.4,1.6,8.1c-0.9,1.4-2.3,2.3-3.9,2.5l-0.1,0c-0.1,0-0.2,0-0.2,0c2.6,6.1,6.2,11.8,10.6,16.7
	c4.4,23.6,23.1,25.8,43.2,19h0c2.2,9.6,5.4,18.9,9.5,27.8l34,0c0.1-0.4,0.2-0.8,0.3-1.1c-3.2,0.2-6.3,0-9.4-0.6
	c2.5-3.1,5-6.2,7.6-9.3c0.1-0.1,0.1-0.1,0.2-0.2c1.3-1.6,2.6-3.2,3.9-4.7l0,0C712.2,381.3,711.7,376.4,710.5,371.7L710.5,371.7z"/>
<circle class="st9" cx="283.4" cy="211.7" r="284.7"/>
<circle class="st10" cx="221.1" cy="149.5" r="222.4"/>
<circle class="st11" cx="221.1" cy="171.3" r="222.4"/>
<circle class="st12" cx="272.3" cy="423.6" r="222.4"/>
<circle class="st13" cx="260.5" cy="402.2" r="222.4"/>
<g>
	<path class="st14" d="M492.1-158.7l337.3,337.3V616L492.1,324.2V-158.7 M468.4-216v551l384.8,332.9V168.8L468.4-216L468.4-216z"/>
</g>
<circle class="st15" cx="550.7" cy="282.2" r="284.7"/>
<path id="uuid-439d0637-f8cd-4da9-8264-2bd9be0e325e-722" class="st16" d="M376.8,311.7c2.6,10.5-0.9,20.4-7.8,22
	c-6.9,1.6-14.7-5.5-17.3-16c-1.1-4.2-1.2-8.6-0.1-12.8L341,260.3l21.9-4.5l8,44.5C373.8,303.6,375.8,307.5,376.8,311.7L376.8,311.7
	L376.8,311.7z"/>
<polygon class="st16" points="285.1,566.9 286.4,596.1 285.1,604.2 289.8,613.7 326.9,617.7 328.9,600.2 309.4,590.1 308.8,573.5 
	"/>
<path class="st17" d="M324.2,611l-2,2.7l-38.9-11.2c0,0,1.8,17.3,1.8,20.6s64.1,3.4,73.7,2s6.5-10.1,6.5-10.1l-40-18.9L324.2,611
	L324.2,611L324.2,611z"/>
<polygon class="st16" points="188.4,545.4 180.4,573.5 176.5,580.7 177.9,591.2 211.8,606.9 219.3,590.9 204,575.1 213.6,550.2 "/>
<path class="st17" d="M211.4,599.7l-2.8,1.9l-33.2-23c0,0-3.9,16.9-4.9,20.1s59.6,23.7,69.2,25.5s9.4-7.5,9.4-7.5l-31.8-30.7
	L211.4,599.7L211.4,599.7z"/>
<polygon class="st16" points="287.7,84 289.1,107 246.2,109.1 259.5,78.8 "/>
<path class="st5" d="M290.2,103.5c-11.5,5.1-29.9,3.7-50.8,0l-3.3,144.6c0,0,65.3,13.1,87.7-11.1l-11.8-118.1L290.2,103.5
	L290.2,103.5L290.2,103.5L290.2,103.5z"/>
<polygon class="st18" points="316.8,240.6 224.6,249.7 179.1,558.5 214,558.5 273.7,346.9 278.4,586.7 310.3,586.7 337.5,293.1 "/>
<path class="st19" d="M252.5,94.7l-31,18.3c-11.7,6.9-17.3,21-13.4,34l23.9,81.8c0,0-39,67-26.3,72.9c28.5,13.3,70.9,10,70.9,10
	l-9.5-160.3L252.5,94.7L252.5,94.7L252.5,94.7C252.5,94.7,252.5,94.7,252.5,94.7z"/>
<path class="st19" d="M288.9,102.9l35,13.6l8.3,101l23.2,81.4c-39.2,14.3-35.6,7.6-35.6,7.6l-6.5-140.4L288.9,102.9L288.9,102.9
	C288.9,102.9,288.9,102.9,288.9,102.9z"/>
<path class="st19" d="M340,297.2l-0.1-0.5l-35.8-165.6c-1-4.6,0.3-9.3,3.5-12.7s7.8-5.1,12.5-4.4c5.8,0.8,10.4,5.1,11.8,10.7
	l39.3,161.6L340,297.2L340,297.2L340,297.2z"/>
<circle class="st16" cx="269.1" cy="55.2" r="34.9"/>
<path class="st20" d="M285.6,10.1c7.7,2.7,12.1,4.2,16.1,8.1c6.8,6.5,7.9,15.3,9,23.4c0.8,6.4,1.9,14.6-1.9,24
	c-1.3,3.2-7.4,17.5-19.2,19.3c-2.3,0.3-7.8,0.4-6.2-0.7c14.5-10.7,20.7-17.2,20.2-33.7c-0.3-10.3-16-21.3-25.3-23.3
	c-3.9-0.8-9.1-0.1-12.9,3c-7.8,6.4-7.5,33-15.7,38.5c-3.4,2.3-1.1-13.8-3.5-11.2c-4.7,5.1-1.7,13-0.8,16c4,14.2,11.6,15.6,15.5,27.8
	c4.2,13.1-1.1,25.5-2.4,28.4c-2.2,5.1-6,13.8-14.6,18c-11,5.3-19.6-1.6-24.7,4.3c-2.9,3.3-1.3,6.8-6.4,17.2c-1.7,3.4-2.5,5.1-3.3,5
	c-3.5-0.3-9.2-28.4,0-54.7c3.9-11,7.6-21.8,17.8-30.2c5.4-4.5,9.9-6.1,11.1-11.3c1.8-7.4-5.8-10.6-7.3-22.3c-1-8-1.8-19.5,1.1-26.9
	c2.7-6.9,5-13,11.1-18.4C244.7,9.2,256.5,0.3,269,0C274.8-0.1,279,7.7,285.6,10.1L285.6,10.1C285.6,10.1,285.6,10.1,285.6,10.1z"/>
<path class="st21" d="M0,624.4c0,0.7,0.5,1.2,1.2,1.2h729.3c0.7,0,1.2-0.5,1.2-1.2s-0.5-1.2-1.2-1.2H1.2C0.5,623.2,0,623.7,0,624.4z
	"/>
<path id="uuid-f2df242a-48f3-480d-b6d2-ac40662a02c5-723" class="st16" d="M287.3,211.9c10.8-1.1,20,3.7,20.7,10.8
	s-7.5,13.8-18.3,14.9c-4.3,0.5-8.6-0.1-12.7-1.6l-45.7,4.2l-1.4-22.3l45.2-1.8C278.9,213.7,283,212.3,287.3,211.9L287.3,211.9
	L287.3,211.9z"/>
<path class="st19" d="M231.7,114L231.7,114c-11.1-1.6-21.4,5.7-23.7,16.6c-8,38.1-22.4,119.3,0.2,120.6c29.5,1.8,57.9-5.3,57.9-5.3
	l-7.1-40.8l-23-2.4l13.6-63.4C252.1,127.4,243.9,115.8,231.7,114L231.7,114z"/>
<g>
	<path d="M511.9,179.4L511.9,179.4c-0.7,17.6,0.6,36.7,0,56.8c0,2.4-1.9,4.4-4.2,4.4h-47.4c-1.9,0-3.5-1.3-4-3.1l-117-22.5
		c-0.1,1.6-1.5,2.9-3,2.9h-12.4v6.6c0,2.1-1.6,3.8-3.7,3.8h-23.7c-2,0-3.7-1.7-3.7-3.8v-49.2c0-1.7,1-3.1,2.5-3.6
		c-0.2-0.4-0.4-0.9-0.4-1.3c0-1.8,2-3.2,4.5-3.2s4.5,1.4,4.5,3.2c0,0.4-0.1,0.7-0.3,1.1h2.3v-8.4c0-1.3,1-2.4,2.3-2.4h7.1
		c1.3,0,2.3,1.1,2.3,2.4v8.4h2.5c2,0,3.7,1.7,3.7,3.8v9.5h12.4c1.4,0,2.6,1,3,2.4L456,180v-0.6c0-2.4,1.9-4.4,4.2-4.4h47.4
		C509.9,175,511.8,177,511.9,179.4L511.9,179.4L511.9,179.4z"/>
</g>
</svg>
