<?xml version="1.0" encoding="utf-8"?>
<!-- Generator: Adobe Illustrator 27.5.0, SVG Export Plug-In . SVG Version: 6.00 Build 0)  -->
<svg version="1.1" id="Layer_1" xmlns="http://www.w3.org/2000/svg" xmlns:xlink="http://www.w3.org/1999/xlink" x="0px" y="0px"
	 viewBox="0 0 630.6 469.2" style="enable-background:new 0 0 630.6 469.2;" xml:space="preserve">
<style type="text/css">
	.st0{fill:#3F3D56;}
	.st1{fill:#729E3F;}
	.st2{fill:#336600;}
	.st3{fill:#FFFFFF;}
	.st4{fill:#E56423;}
	.st5{fill:#EF263F;}
	.st6{fill:#664C4C;}
	.st7{fill:#FFB6B6;}
	.st8{fill:#4A6AED;}
	.st9{fill:#BEEA5E;}
	.st10{fill:#66441C;}
	.st11{fill:#F4C6C6;}
	.st12{fill:#CC8215;}
	.st13{fill:#846666;}
	.st14{fill:#022709;}
</style>
<path class="st0" d="M236,78.9c18.6,15.5,39.2,2.5,59.1,1.5c9.2-0.5,18.4,1.8,27.4,3.4c8.6,1.6,17.2,3.9,25,7.7
	c8.6,4.1,15.9,10.5,21.1,18.4c1,1.6,2.6,0.4,2.6-1.5c-0.1-20.6-9-18.9-18.3-17.4c-8.8,1.4-16.3-7.3-25.1-9.2
	c-9.1-1.8-18.3-3.1-27.6-3.9c-10.1-1-20.1-1.7-30.2-2c-11.3-0.4-22.7-0.4-34,0C234.1,75.9,234.1,78.9,236,78.9z"/>
<path class="st1" d="M173.4,244.4c0.6,0.6,0.5,1.6-0.1,2.1c-0.6,0.5-1.5,0.5-2,0c-12.3-10.5-24.5-21-36.8-31.5c0,0,0,0,0,0
	c-0.9-0.6-1.7-1.3-2.4-2.1c-11.4-1.3-24-5.7-35.8-7.6c-10.5,1.6-20.9,3.4-31.5,4.8c-9.2,1.3-18.4,1.9-27.7,2
	c-7.5,0-5.4-19.3-12.2-22.9c-7.1-3.7-21.3,8.3-23.2,0.8c-0.9-3.8-1.5-7.7-1.8-11.6v-24.4c1-10.6,17.9-7.3,25.9-14.8
	C38,128,42,101.9,57.5,101.6c18.4-0.4,36.8,0.4,55,2.4c14.9,1.6,30.6,3.2,44.4,9.6c5.9,2.7,11.5,18.5,15.5,23.6
	c4.6,6,7.3,13.3,7.5,20.9c0.7,16.1-6.6,30.8-10.6,46C165.8,217.3,163.9,233.2,173.4,244.4z"/>
<path class="st2" d="M135.9,216.6c12.4,10.7,24.9,21.3,37.3,32c0.6,0.6,1.6,0.5,2.1-0.1c0.5-0.6,0.5-1.5,0-2
	c-9.5-11.2-7.6-27.1-4.1-40.3c4-15.2,11.3-29.9,10.6-46c-0.2-7.6-2.9-14.9-7.5-20.9c-4.2-5-9.5-9-15.5-11.6
	c-13.8-6.4-29.4-7.9-44.4-9.6c-18.3-2-36.6-2.8-55-2.4c-15.4,0.3-33.5,0.6-45.5,11.7c-11,10.1-12.5,26.1-12.4,40.1
	c0.1,8.1,0.2,16.5,2.2,24.5c1.8,7.5,5.8,14.8,12.9,18.5C23.4,214,31.5,214,39,214c9.3,0,18.5-0.7,27.7-2c18.3-2.4,36.5-6.3,55-7.4
	c4.5-0.3,9.1-0.4,13.6-0.3c1.9,0,1.9-3,0-3c-18-0.4-35.8,2.7-53.5,5.5c-17.1,2.7-34.6,5.3-52,3.9c-3.8-0.2-7.6-1-11-2.6
	c-3.4-1.6-6.2-4.1-8.3-7.3c-4.5-7-5.4-15.9-5.8-24.1c-0.4-7.1-0.4-14.2,0.2-21.3c0.7-6.9,2.3-13.9,5.9-19.8
	c8.4-13.6,25.3-19.2,39.7-16.8c16.2,2.7,28.7,15.7,53.5,1.1c7.8-4.6,18,1.8,26.9,3.1c6.7,0.9,13.3,2.4,19.7,4.5
	c6.2,1.9,11.9,4.9,16.9,9c5.3,4.4,8.9,10.5,10.4,17.2c3.4,15.5-3.4,30.9-7.9,45.4c-4,12.9-7.5,28-2,41c1.3,3,3,5.8,5.1,8.3l2.1-2.1
	c-12.4-10.7-24.9-21.3-37.3-32C136.6,213.2,134.4,215.3,135.9,216.6z"/>
<path class="st3" d="M82.9,146.8H37.7c-0.9,0-1.6-0.7-1.6-1.6s0.7-1.6,1.6-1.6c0,0,0,0,0,0h45.2c0.9,0,1.6,0.7,1.6,1.6
	C84.5,146.1,83.8,146.8,82.9,146.8z"/>
<path class="st3" d="M82.9,180.2H37.7c-0.9,0-1.6-0.7-1.6-1.6s0.7-1.6,1.6-1.6c0,0,0,0,0,0h45.2c0.9,0,1.6,0.7,1.6,1.6
	C84.5,179.5,83.8,180.1,82.9,180.2z"/>
<path class="st3" d="M119.7,163.5H37.7c-0.9,0-1.6-0.7-1.6-1.6s0.7-1.6,1.6-1.6c0,0,0,0,0,0h81.9c0.9,0,1.6,0.7,1.6,1.6
	C121.2,162.8,120.5,163.5,119.7,163.5z"/>
<path class="st4" d="M223.4,320.4c0.6,0.6,0.5,1.6-0.1,2.1c-0.6,0.5-1.5,0.5-2,0c-12.3-10.5-24.5-21-36.8-31.5c0,0,0,0,0,0
	c-0.9-0.6-1.7-1.3-2.4-2.1c-11.4-1.3-24-5.7-35.8-7.6c-10.5,1.6-22.9,13.4-33.5,14.8c-9.2,1.3-18.4,1.9-27.7,2
	c-7.5,0-5.4-24.3-12.2-27.9c-7.1-3.7-19.3,3.3-21.2-4.2c-0.9-3.8-5.5-7.7-5.8-11.6v-24.4c1-10.6,8-21.1,16-28.5
	c12-11.1,30.1-11.4,45.5-11.7c18.4-0.4,36.8,0.4,55,2.4c14.9,1.6,30.6,3.2,44.4,9.6c6,2.6,11.3,6.6,15.5,11.6
	c4.6,6,7.3,13.3,7.5,20.9c0.7,16.1-6.6,30.8-10.6,46C215.8,293.3,213.9,309.2,223.4,320.4z"/>
<path class="st5" d="M185.9,292.6c12.4,10.7,24.9,21.3,37.3,32c0.6,0.6,1.6,0.5,2.1-0.1c0.5-0.6,0.5-1.5,0-2
	c-9.5-11.2-7.6-27.1-4.1-40.3c4-15.2,11.3-29.9,10.6-46c-0.2-7.6-2.9-14.9-7.5-20.9c-4.2-5-9.5-9-15.5-11.6
	c-13.8-6.4-29.4-7.9-44.4-9.6c-18.3-2-36.6-2.8-55-2.4c-15.4,0.3-33.5,0.6-45.5,11.7c-11,10.1-12.5,26.1-12.4,40.1
	c0.1,8.1,0.2,16.5,2.2,24.5c1.8,7.5,5.8,14.8,12.9,18.5C73.4,290,81.5,290,89,290c9.3,0,18.5-0.7,27.7-2c18.3-2.4,36.5-6.3,55-7.4
	c4.5-0.3,9.1-0.4,13.6-0.3c1.9,0,1.9-3,0-3c-18-0.4-35.8,2.7-53.5,5.5c-17.1,2.7-34.6,5.3-52,3.9c-3.8-0.2-7.6-1-11-2.6
	c-3.4-1.6-6.2-4.1-8.3-7.3c-4.5-7-5.4-15.9-5.8-24.1c-0.4-7.1-0.4-14.2,0.2-21.3c0.7-6.9,2.3-13.9,5.9-19.8
	c8.4-13.6,27.4-24.7,39.7-16.8c14,9.1,32,9.5,53.5,1.1c8.4-3.3,18,1.8,26.9,3.1c6.7,0.9,13.3,2.4,19.7,4.5c6.2,1.9,11.9,4.9,16.9,9
	c5.3,4.4,8.9,10.5,10.4,17.2c3.4,15.5-3.4,30.9-7.9,45.4c-4,12.9-7.5,28-2,41c1.3,3,3,5.8,5.1,8.3l2.1-2.1
	c-12.4-10.7-24.9-21.3-37.3-32C186.6,289.2,184.4,291.3,185.9,292.6z"/>
<path class="st3" d="M132.9,222.8H87.7c-0.9,0-1.6-0.7-1.6-1.6s0.7-1.6,1.6-1.6c0,0,0,0,0,0h45.2c0.9,0,1.6,0.7,1.6,1.6
	C134.5,222.1,133.8,222.8,132.9,222.8z"/>
<path class="st3" d="M132.9,256.2H87.7c-0.9,0-1.6-0.7-1.6-1.6s0.7-1.6,1.6-1.6c0,0,0,0,0,0h45.2c0.9,0,1.6,0.7,1.6,1.6
	C134.5,255.5,133.8,256.1,132.9,256.2z"/>
<path class="st3" d="M169.7,239.5H87.7c-0.9,0-1.6-0.7-1.6-1.6s0.7-1.6,1.6-1.6c0,0,0,0,0,0h81.9c0.9,0,1.6,0.7,1.6,1.6
	C171.2,238.8,170.5,239.5,169.7,239.5z"/>
<path class="st6" d="M469.9,375.9H343.5c-2.4,0-4.4-2-4.4-4.4s2-4.4,4.4-4.4h126.4c2.4,0,4.4,2,4.4,4.4S472.3,375.9,469.9,375.9z"/>
<path class="st6" d="M469.9,469.2H343.5c-2.4,0-4.4-2-4.4-4.4s2-4.4,4.4-4.4h126.4c2.4,0,4.4,2,4.4,4.4S472.3,469.2,469.9,469.2z"/>
<path class="st6" d="M572.5,422.6h-229c-2.4,0-4.4-2-4.4-4.4s2-4.4,4.4-4.4h229c2.4,0,4.4,2,4.4,4.4S575,422.6,572.5,422.6z"/>
<polygon class="st7" points="272.2,417.7 279.4,424.4 309.4,399.3 298.8,389.3 "/>
<path class="st8" d="M285.3,446.9l-4-18.6l4.8-5.1l-2.6-2.2l-8.1-6.7l-2-1.7l-18.6,16.7l5.4,5.1l5.7-4.2l-2.3,7.4l14.3,13.4
	c1.8,1.7,4.6,1.6,6.2-0.2C285.2,449.8,285.6,448.3,285.3,446.9L285.3,446.9z"/>
<polygon class="st7" points="237.2,443.8 246.9,445.3 257.4,407.5 243,405.3 "/>
<path class="st8" d="M264.6,460.4l-13.9-13l1.1-7l-3.4-0.3l-10.5-1l-2.6-0.2l-5.8,24.3l7.3,1.1l2.4-6.7l2.3,7.4l19.4,2.9
	c2.4,0.4,4.7-1.3,5-3.7C266.1,462.8,265.6,461.4,264.6,460.4z"/>
<path class="st9" d="M331,175.8l28,50.1c0,0-1.2,103,2.5,106.8s7.1,7.2,3.7,7.2s-2.3,24.3-2.3,24.3l-62,48l-15-12l37.6-46.4
	l-20.8-95.1c0,0-14.9,89.9-17.6,92.6s-4.3,2.7-1.5,5.4s0,8.8,0,8.8l-29.5,61.2l-16-2c0,0,2.8-50,12.4-71.4V251.8
	c-0.7,8.7,33.3-79.3,12.5-72.7C269.7,177,331,175.8,331,175.8z"/>
<path class="st10" d="M318.1,56.5H295l-3.3,13.1L274,74.5c0,0-8.8,58.3-1.4,63s2.2,19.4,2.2,19.4s-18.4,19.9-16.2,22.8
	s6.7-1.5,1.5,3.6s-8.1,4.4-6.6,5.9c0.9,0.9,1.6,2,2.1,3.3l-6.3,16.5c0,0,33.7,6.7,50.6-2.9s54.4,8.8,54.4,8.8s-1.9-9.7-3.5-11.1
	s-5.4,2.2-2.7-2.6s4.8-2.5,2.6-4.7s-11.8-31.6-11.8-31.6s-7.4-16.2,0.7-22.8s11.2-28.3,11.2-28.3L341,74.5l-16.2-3.6L318.1,56.5z"/>
<path class="st11" d="M226.7,206.7l5.6-22.2l-12.3-4.9l-5,23.7c-3.4,2.5-4.1,7.3-1.6,10.7c2.5,3.4,7.3,4.1,10.7,1.6
	C226.8,213.6,227.9,209.9,226.7,206.7L226.7,206.7z"/>
<path class="st10" d="M280.6,73l-0.4-0.1c-6.9-1.2-14,1.1-18.9,6.1c-6.3,6.5-34.3,54.5-33.3,62.6c0.9,7.5,1.3,5.8-2.1,9.7
	s-4.7-2-4.8,6s3,7.9-0.2,9.8s-5.4,0.6-4.8,6s-0.3,6.8-0.5,8.7s-4.8,13.9-4.8,13.9s13.7,3.7,19.2,9.2c0,0,0.6-13.6,3.4-14.8
	s5.4-0.6,4.6-4.1s-4.8-5,0.1-4.9s12.5-26,12.5-26l32.9-60L280.6,73z"/>
<path class="st11" d="M354.8,217.7l1-22.9l13.2-1.3l-1.9,24.2c2.6,3.4,1.9,8.2-1.5,10.7c-3.4,2.6-8.2,1.9-10.7-1.5
	C352.7,224.3,352.7,220.5,354.8,217.7L354.8,217.7z"/>
<path class="st10" d="M341,74.2l0.4,0c7,0.8,13.1,5,16.3,11.2c4.2,8,17.5,62,14.2,69.4c-3,6.9-2.9,5.2-0.7,9.9s5.1-0.6,2.9,7.1
	s-5.1,6.7-2.6,9.5s5,2.1,2.9,7.1s-1.6,6.6-2,8.5s0.7,14.7,0.7,14.7s-14.1-0.4-21,3.3c0,0,3.3-13.2,0.9-15.2s-5-2.1-3.2-5.2
	s6-3.5,1.3-4.8s-4.6-28.5-4.6-28.5L332,94.5L341,74.2z"/>
<path class="st12" d="M254.1,41c-0.2,7.9,2.8,15.5,7,22.2c1.4-3.9,3.4-7.6,5.9-10.9c-1.2,7.4,0.1,14.9,3.6,21.4
	c0.1,0.1,0.3,0.2,0.4,0.2c3.5,2.1,7.8,2.9,11.6,1.4c-7.7-8.3-8.7-22.1-2.2-31.4c1.8-2.6,4.2-5,5.3-8c1.8-4.8,0.1-10.1-1-15.1
	c-1-4.7-1.2-10.2,1.9-13.6c-0.7-1-1.8-1.5-3-1.4c-1.9,0.3-3.3,1.9-4.2,3.7c-0.9,1.7-1.5,3.6-2.7,5.1c-2.3,2.8-6.2,3.5-9.6,4.9
	C259,23.2,254.3,32.2,254.1,41z"/>
<path class="st12" d="M321.6,36.5c-0.5-1.6,2.7,8.2,1.2,8.4c-6.9,0.8-16.5,4.9-21.3,6.9c-0.2,0-0.4-0.1-0.6-0.1
	c-0.5-0.1-1-0.1-1.5-0.2C288,49.3,283.7,32,283.7,31.9c0-0.8,1.9-22.1,4.8-22.5c0.8-0.1,1.5-0.1,2.3-0.1h7.3c1.5-0.3,3-0.5,4.6-0.7
	h0c14.7-1.1,26.3,7.8,25.2,18.7c0,0,0,0,0,0c-0.3,0.5-0.6,0.9-0.8,1.3c-0.2,0.4-0.4,0.8-0.6,1.1c-1.3,2.8,2.1,6.3-0.2,6.9
	c-3,0.9,8,29.4-4,29.4C328.1,67.9,322.9,40.9,321.6,36.5z"/>
<circle class="st11" cx="308.5" cy="36" r="17.3"/>
<path class="st12" d="M327.9,28.3c-0.3,0.2-0.6,0.3-0.9,0.4c-0.3,0.1-0.6,0.3-0.9,0.4c-5.8,2.6-10.5,2.9-13.4-0.9
	c-0.1-2-0.5-3.9-1.3-5.8c0.1,2-0.4,4.1-1.5,5.8h-5.8c-5.9,3.9-9,4.3-4.9,17.3c1.1,3.6,5.7,24.5,3.9,27.6c-0.5-0.1-6-23-6.5-23.1
	c-11.3-2.1-18.4-20.7-17.5-21.7c0-3,0.7-5.9,2-8.6c1.7-3.4,4.3-6.2,7.5-8.2c1.9-0.9,3.9-1.7,6-2.3c0.1,0,0.1,0,0.1,0
	c0.6-0.2,1.3-0.3,1.9-0.5c1.3-0.3,2.7-0.5,4-0.6c0.1,0,0.2,0,0.3,0c0.5,0,1.1,0.1,1.5,0.4c0,0,0,0,0,0c0.3,0.2,0.6,0.5,0.9,0.8
	c0.4,0.5,0.6,1.2,0.6,1.8h6.4c0.2,0,0.5,0,0.7,0c8.9,0.3,16,7.3,16.6,16.1C327.9,27.7,327.9,28,327.9,28.3z"/>
<circle class="st12" cx="290.2" cy="11.4" r="11.4"/>
<path class="st13" d="M398.3,354.3c1.3,0.1,2.3-0.9,2.4-2.2c0-0.7-0.2-1.3-0.7-1.8l-0.2-0.6c0,0,0-0.1,0.1-0.1
	c1.3-3.1,4.9-4.5,8-3.2c1.5,0.6,2.6,1.8,3.3,3.3c1.8,4.4,4.2,8.9,4.8,13.5c0.3,2.1,0.1,4.2-0.3,6.2c4.3-9.4,6.6-19.7,6.6-30
	c0-2.6-0.1-5.2-0.4-7.8c-0.2-2.1-0.6-4.2-1-6.3c-2.3-11.3-7.3-22-14.5-31c-3.5-1.9-6.3-4.8-8.1-8.4c-0.6-1.3-1.1-2.6-1.3-4.1
	c0.4,0.1,1.5-5.9,1.2-6.3c0.5-0.8,1.5-1.2,2.1-2.1c3-4,7.1-3.3,9.2,2.2c4.6,2.3,4.6,6.1,1.8,9.8c-1.8,2.3-2,5.5-3.6,8
	c0.2,0.2,0.3,0.4,0.5,0.6c3,3.8,5.5,7.9,7.7,12.2c-0.5-4.8,0.1-9.7,1.8-14.2c1.7-4.2,5-7.8,7.9-11.4c2.1-2.7,6.1-3.2,8.8-1.1
	c1.3,1,2.2,2.5,2.4,4.2c0,0.1,0,0.1,0,0.2c-0.4,0.2-0.8,0.5-1.3,0.8c-1.4,0.9-1.8,2.9-0.8,4.3c0.5,0.7,1.2,1.2,2.1,1.3l0.1,0
	c-0.2,1.5-0.4,3.1-0.8,4.6c3.7,14.3-4.3,19.5-15.7,19.8c-0.3,0.1-0.5,0.3-0.7,0.4c2.2,6.1,3.5,12.5,4,19c0.3,3.8,0.3,7.7-0.1,11.5
	l0-0.1c0.8-4.3,3.1-8.1,6.4-10.9c4.9-4.1,11.9-5.6,17.3-8.8c1.6-1.1,3.8-0.6,4.9,1.1c0.5,0.7,0.6,1.5,0.5,2.4l0,0.1
	c-0.8,0.3-1.6,0.7-2.3,1.1c-0.4,0.2-0.8,0.5-1.3,0.8c-1.4,0.9-1.8,2.9-0.8,4.3c0.5,0.7,1.2,1.2,2.1,1.3l0.1,0c0,0,0.1,0,0.1,0
	c-1.4,3.2-3.3,6.2-5.6,8.8c-2.3,12.5-12.3,13.7-22.9,10h0c-1.2,5.1-2.9,10-5,14.7h-18c-0.1-0.2-0.1-0.4-0.2-0.6c1.7,0.1,3.3,0,5-0.3
	c-1.3-1.6-2.7-3.3-4-4.9c0,0-0.1-0.1-0.1-0.1c-0.7-0.8-1.4-1.7-2-2.5l0,0C397.4,359.4,397.7,356.8,398.3,354.3L398.3,354.3z"/>
<path class="st14" d="M135,467.8c0,0.7,0.5,1.2,1.2,1.2c0,0,0,0,0,0h493.3c0.7,0,1.2-0.5,1.2-1.2s-0.5-1.2-1.2-1.2H136.2
	C135.5,466.6,135,467.1,135,467.8C135,467.8,135,467.8,135,467.8z"/>
<path class="st14" d="M358.4,212.4c1.4,1.5-0.7,3.4-2.3,2.1c-13.5-10.5-27.1-21-40.6-31.5c0,0,0,0-0.1,0c-0.9-0.6-1.8-1.3-2.7-2.1
	c-12.6-1.3-26.4-5.7-39.6-7.6c-11.6,1.6-23.1,3.4-34.7,4.8c-10.1,1.3-20.3,1.9-30.5,2c-8.3,0-17.3-0.1-24.8-3.6
	c-7.8-3.7-12.2-11-14.2-18.4c-1-3.8-1.6-7.7-1.9-11.6v-24.4c1.1-10.6,4.3-21.1,13.2-28.5c13.3-11.1,33.2-11.4,50.2-11.7
	c20.3-0.4,40.6,0.4,60.8,2.4c16.4,1.6,33.7,3.2,49,9.6c6.5,2.7,12.7,6.5,17.2,11.6c5.1,5.8,8,13.2,8.3,20.8
	c0.8,16.1-7.3,30.8-11.7,45.9C350,185.4,347.8,201.3,358.4,212.4z"/>
<path class="st3" d="M257.9,108.8h-45.2c-0.9,0-1.6-0.7-1.6-1.6s0.7-1.6,1.6-1.6c0,0,0,0,0,0h45.2c0.9,0,1.6,0.7,1.6,1.6
	C259.5,108.1,258.8,108.8,257.9,108.8z"/>
<path class="st3" d="M257.9,142.2h-45.2c-0.9,0-1.6-0.7-1.6-1.6s0.7-1.6,1.6-1.6c0,0,0,0,0,0h45.2c0.9,0,1.6,0.7,1.6,1.6
	C259.5,141.5,258.8,142.1,257.9,142.2z"/>
<path class="st3" d="M294.7,125.5h-81.9c-0.9,0-1.6-0.7-1.6-1.6s0.7-1.6,1.6-1.6c0,0,0,0,0,0h81.9c0.9,0,1.6,0.7,1.6,1.6
	C296.2,124.8,295.5,125.5,294.7,125.5z"/>
<path class="st0" d="M368.6,109.9c4.2,6.7,6.6,14.4,5.8,22.3c-0.6,6.8-3.4,13.3-6.5,19.4c-3.2,6.3-6.7,12.4-9.3,19
	c-2.9,7.2-3.9,14.9-3.1,22.6c0.5,5,1.5,9.9,2.5,14.8l2.9,15l2.5-1.5l-41.5-35.9c-1.5-1.3-3.6,0.9-2.1,2.1l41.5,35.9
	c0.6,0.6,1.6,0.5,2.1-0.1c0.3-0.4,0.5-0.9,0.4-1.4c-1.7-8.8-3.7-17.6-4.9-26.5c-0.7-4.5-0.8-9-0.3-13.5c0.5-3.4,1.4-6.8,2.7-10
	c5-13,14.3-24.4,16.1-38.5c1.1-8.9-1.4-17.7-6.1-25.1C370.2,106.8,367.6,108.3,368.6,109.9L368.6,109.9z"/>
<path class="st0" d="M324.5,172.4l-61.3,7.3l-30.7,3.6c-9.3,1.1-19.1,2.7-28.4,0.7c-15.7-3.3-25.5-17.5-28.5-32.5
	c-1.9-9.3-1.2-19,0.4-28.3c0.9-4.9,2-9.8,3.2-14.7c1.1-4.3,1.9-9,3.8-13.1c3-6.7,9-11.7,16.1-13.6c2.2-0.5,4.4-0.7,6.7-0.9
	c2.5-0.3,5-0.5,7.6-0.7c5.1-0.4,10.1-0.8,15.2-1c2.5-0.1,5.1-0.2,7.6-0.3c1.9-0.1,1.9-3.1,0-3c-10.5,0.4-21.1,1.1-31.6,2.2
	c-4.3,0.4-8.2,1.1-12.1,3.1c-3.3,1.7-6.3,4.2-8.6,7.1c-2.4,3.1-4.1,6.6-5.2,10.3c-1.4,5-2.6,10-3.8,15c-2.3,10.1-4,20.6-3.2,31
	c1.1,15.4,8.5,31.9,22.8,39.2c8.5,4.3,18.1,4.5,27.4,3.7c10.3-0.9,20.6-2.4,31-3.6l63.8-7.5l7.9-0.9
	C326.4,175.2,326.4,172.2,324.5,172.4L324.5,172.4z"/>
</svg>
