<?xml version="1.0" encoding="utf-8"?>
<!-- Generator: Adobe Illustrator 27.5.0, SVG Export Plug-In . SVG Version: 6.00 Build 0)  -->
<svg version="1.1" id="Layer_1" xmlns="http://www.w3.org/2000/svg" xmlns:xlink="http://www.w3.org/1999/xlink" x="0px" y="0px"
	 viewBox="0 0 1920 1080" style="enable-background:new 0 0 1920 1080;" xml:space="preserve">
<style type="text/css">
	.st0{fill:#FF6584;}
	.st1{fill:#B4DD85;}
	.st2{fill:#739150;}
	.st3{fill:#A2CC72;}
	.st4{fill:#ADD182;}
	.st5{fill:#C7EF97;}
	.st6{fill:#F2F2F2;}
	.st7{fill:#C5E2A3;}
	.st8{fill:#2F2E41;}
	.st9{fill:#3F3D56;}
	.st10{fill:#009966;}
	.st11{fill:#6C63FF;}
	.st12{fill:#E2C6AF;}
	.st13{fill:#FF6699;}
	.st14{fill:#2D1306;}
	.st15{fill:#314719;}
	.st16{fill:#3F382D;}
	.st17{fill:#D3447A;}
	.st18{fill:#E5558C;}
	.st19{fill:#2828DD;}
	.st20{fill:#593E1B;}
	.st21{fill:#25063D;}
	.st22{fill:#E8C58B;}
	.st23{fill:#022709;}
	.st24{fill:#99CC33;}
	.st25{fill:#9E8123;}
	.st26{fill:#336600;}
	.st27{fill:#FCCC97;}
	.st28{fill:#307733;}
	.st29{fill:#FFFFFF;}
	.st30{fill:#E6E6E6;}
	.st31{fill:#93CE4E;}
	.st32{fill:#64932E;}
	.st33{fill:#B79E8B;}
	.st34{fill:#AD937D;}
	.st35{fill:#C4AE99;}
	.st36{fill:#F9DFCA;}
	.st37{fill:#FCD6BE;}
	.st38{fill:#EDBA94;}
	.st39{fill:#684B33;}
	.st40{fill:#FF9999;}
	.st41{fill:#E4E4E4;}
	.st42{fill:#D39C8C;}
	.st43{fill:#3C2D3F;}
	.st44{fill:#6666FF;}
	.st45{fill:#AF2E94;}
	.st46{opacity:0.2;enable-background:new    ;}
	.st47{fill:#F2DD1C;}
	.st48{fill:#1E5B21;}
	.st49{fill:#CC6600;}
	.st50{fill:#66CC00;}
	.st51{fill:#FF0066;}
	.st52{fill:#682F2F;}
	.st53{fill:#351A01;}
	.st54{fill:#FF00FF;}
	.st55{fill:url(#SVGID_1_);}
	.st56{fill:#FFB6B6;}
	.st57{fill:none;stroke:#0000FF;stroke-miterlimit:10;}
	.st58{fill:none;stroke:#000000;stroke-miterlimit:10;}
	.st59{fill:none;stroke:#000099;stroke-miterlimit:10;}
	.st60{fill:none;stroke:#EDE2C8;stroke-width:0.9308;stroke-miterlimit:10;}
	.st61{fill:none;stroke:#DDA028;stroke-width:0.8865;stroke-miterlimit:10;}
	.st62{display:none;}
	.st63{display:inline;fill:#FF00FF;}
	.st64{display:none;fill:#FF00FF;}
	.st65{fill:#330906;}
	.st66{fill:#FBFCD2;}
	.st67{fill:#F3F9A0;}
	.st68{fill:#3A843E;}
	.st69{fill:#164F1E;}
	.st70{fill:#25662B;}
	.st71{fill:#5B2F2F;}
	.st72{fill:#33A3A0;}
	.st73{fill:#E0AF61;}
	.st74{fill:#1F1FEA;}
	.st75{fill:#FFFF00;}
	.st76{fill:#124919;}
	.st77{fill:#ECFF64;}
	.st78{fill:#CC66CC;}
</style>
<g>
	<g>
		<path class="st0" d="M977.4,262.6c0,16.5-6.2,32.5-17.5,44.6c-0.9,0.9-1.8,1.8-2.7,2.7c-33.9-26.1-69.5-50-106.6-71.5
			c0.5-1.2,0.9-2.3,1.5-3.4c15.3-32.9,54.3-47.2,87.2-31.9C962.5,213.8,977.4,237.1,977.4,262.6L977.4,262.6z"/>
		<path class="st1" d="M1030.7,396.3l-0.1,0.7c-43.2-3-86.4-6-129.6-8.9c-31.2-2.2-63.5-4.6-91.1-19.4
			c-10.5-5.6-20.7-13.1-32.5-13.6c-14.7-0.7-27.6,9.6-37.7,20.4c-59.7,63.6-77,160.8-144,216.7c42.2-104.2,92.7-204.8,150.8-301
			c10.7-17.8,23.5-36.8,43.4-42.6c19-5.5,38.5,2.5,56,12.9c3.8,2.2,7.4,4.6,11,6.9c27,17.7,53.5,36,79.6,55
			C968.7,346.7,1000,371,1030.7,396.3z"/>
		<path class="st2" d="M1170.3,531.2c-46.2-65.2-99.8-124.7-159.8-177.4c-17.3-15.2-35-29.8-53.3-43.8
			c-33.9-26.1-69.5-50-106.6-71.5c-12.1-7-24.4-13.8-36.9-20.3c-9.7-5-19.9-9.6-31.1-8.9c-7.8,0.7-15.2,3.5-21.5,8.3
			c-13.7,10-22.7,25.6-30.2,40.5c-6.5,13-12.6,26.4-18.8,39.6c-2.6,5.6-5.3,11.2-8,16.8c-9.5,19.6-19.3,39-29.2,58.4
			c-12.8,24.9-26.1,49.7-39.7,74.2c-28.5,51.4-58.6,102.1-90.3,151.9c-46.6,73.1-96.4,144-149.6,212.7c-6.5,8.4-9.2,10.4-15.8,18.7
			c-1.5,2-4.2-0.8-2.7-2.7c55.1-69.7,103.1-135.4,151.5-209.9c36.5-56.2,70.9-113.6,103.4-172.2c10.4-18.8,20.6-37.7,30.6-56.8
			c16.2-30.8,31.8-62,46.8-93.4c4-8.3,7.9-16.6,11.8-24.9c12.3-26.4,30.3-65.8,65-65.2c10.2,0.2,19.7,4.3,28.6,8.9
			c9.1,4.7,18,9.7,27,14.7c3.6,2,7.1,4.1,10.7,6.1c14,8.1,27.8,16.6,41.4,25.5c22.7,14.7,44.8,30.3,66.3,46.8
			c10.2,7.8,20.3,15.8,30.2,24c62.1,51.4,118,109.9,166.4,174.4c5.8,7.8,11.6,15.6,17.2,23.6
			C1175.1,531.2,1171.8,533.2,1170.3,531.2z"/>
		<path class="st3" d="M1013.9,334.3c2-2.2,4-4.5,6.1-6.7c16-17.7,33.2-35.2,55.2-45.4c10.5-5,21.9-7.6,33.5-7.8
			c12,0.3,23.8,2.9,34.8,7.6c5.2,2.1,10.4,4.5,15.4,7c5.8,2.9,11.4,6,17.1,9.1c10.6,5.9,21,12,31.3,18.3
			c20.5,12.7,40.4,26.3,59.6,40.9c10,7.6,19.7,15.4,29.3,23.5c8.9,7.5,17.6,15.2,26.1,23.1c1.8,1.7,4.5-1,2.7-2.7
			c-2.2-2.1-4.5-4.2-6.8-6.2c-6.4-5.8-13-11.5-19.6-17.1c-12.1-10.2-24.5-20-37.2-29.4c-19.8-14.6-40.2-28.3-61.4-41
			c-10.6-6.3-21.3-12.4-32.1-18.2c-3.3-1.7-6.6-3.5-9.9-5.1c-7.6-3.8-15.5-7.1-23.6-9.6c-11.5-3.7-23.7-4.9-35.7-3.5
			c-11.6,1.7-22.8,5.6-32.9,11.4c-21.6,12.1-38.3,30.7-54.6,48.9C1009.6,333.4,1012.3,336.2,1013.9,334.3z"/>
		<path class="st4" d="M571.7,517.8L520,498.9l-25.7-9.4c-8.3-3.3-16.8-6.3-25.4-8.7c-7.5-2.1-15.5-2-22.9,0.3
			c-6.6,2.5-12.7,6.2-17.9,11.1c-5.3,4.9-10.2,10.1-14.7,15.7c-5.6,6.7-11.1,13.5-16.6,20.3c-22.8,27.9-45.5,56-68.1,84.1
			c-22.5,28.2-44.9,56.5-67.2,84.9c-22.3,28.5-44.4,57.1-66.4,85.8c-2.7,3.5-5.4,7-8.1,10.6c-1.5,1.9-4.8,0-3.3-1.9
			c22.1-29,44.4-57.9,66.9-86.7s45.2-57.6,68-86.1c22.8-28.6,45.8-57.1,68.9-85.4c5.8-7.1,11.5-14.1,17.3-21.2
			c4.9-5.9,9.7-12,15-17.5c9.8-10.2,22.1-19.1,36.8-19.4c8.6-0.1,17,2.6,25,5.5c8.6,3.1,17.3,6.3,25.9,9.5l52.1,19l13,4.8
			C575,514.9,574,518.6,571.7,517.8L571.7,517.8z"/>
		<path class="st5" d="M1082,304.5c26.3-13.5,59.9-10.9,84.1,6c-46.1,7.9-91.6,18.6-136.5,31.8
			C1048.2,331.5,1062.8,314.4,1082,304.5z"/>
		<path class="st6" d="M1166.3,310.5l5.1,4.1c-1.7-1.4-3.5-2.8-5.3-4.1C1166.1,310.5,1166.2,310.5,1166.3,310.5z"/>
		<path class="st7" d="M430,518c5.1-6.2,10.6-12.7,18.2-15.2l7.1,0.3c-54.1,95.6-127.2,179.2-214.8,245.6
			C303.7,671.7,366.9,594.9,430,518z"/>
	</g>
	<g>
		<path class="st6" d="M1349.8,744.5c-1.2-25.5-5.8-50.6-13.7-74.8l0,0c-1.7-5.3-3.6-10.6-5.7-15.8c-0.8-2-1.6-3.9-2.4-5.9
			c-6.4-15.3-14.2-29.9-23.2-43.8c-3.2-4.9-6.6-9.8-10.1-14.5c-8.3-11.1-17.3-21.6-27.1-31.4c-4-4-8.1-7.9-12.3-11.6
			c-0.6-0.5-1.2-1.1-1.8-1.6c-15.1-13.2-31.5-24.7-49.1-34.4c-0.3-0.2-0.5-0.3-0.7-0.4c-3.6-2-7.2-3.8-10.9-5.6
			c-0.4-0.2-0.7-0.4-1.1-0.6c-3.1-1.5-6.3-3-9.5-4.4c-0.5-0.2-1-0.5-1.5-0.7l0,0c-0.9-0.4-1.8-0.8-2.7-1.2c-0.2-0.1-0.5-0.2-0.7-0.3
			l0,0c-32.4-13.6-67.1-21-102.3-21.8c-2.3-0.1-4.5-0.1-6.8-0.1h-61.1c-4.7,0-9.5,0.6-14,1.9c-0.1,0-0.2,0.1-0.3,0.1
			c-23.1,6.5-39.1,27.5-39.1,51.5v232.2c0,2.6,1.1,5,3.1,6.6l0,0c1.5,1.3,3.4,1.9,5.4,1.9h376.1c6.6,0,12-5.4,12-12
			C1350.1,753.4,1350,749,1349.8,744.5z"/>
		<path class="st8" d="M1210.1,709.4c0,20.9-4.7,41.5-14,60.2H962c-4.6,0-8.2-3.7-8.2-8.2V644.2c36-66.2,118.8-90.7,185-54.8
			C1182.8,613.4,1210.1,659.4,1210.1,709.4L1210.1,709.4z"/>
		<path class="st9" d="M1349.8,687.6v70.3c0,6.5-5.2,11.7-11.7,11.7l0,0H961.5c-4.5,0-8.2-3.7-8.2-8.2v-0.1
			c0-58.5,182-108.4,233.8-127.8C1247.3,611,1315,633.6,1349.8,687.6L1349.8,687.6z"/>
		<ellipse class="st0" cx="1287.8" cy="556.4" rx="34" ry="34"/>
		<path class="st10" d="M1110.2,564.2c0,4.7-0.2,9.2-0.6,13.5c-5.1,56-42.3,76-87.5,76c-1.1,0-2.3,0-3.4,0c-2.3,0-4.5-0.2-6.7-0.3
			c-20.3-1.4-38.5-7.4-52.2-19.5c-2.3-2.1-4.5-4.3-6.6-6.7c-12.1-14.1-19.3-34.6-19.3-63c0-46.1,42.6-100.9,68.5-130.1
			c4.8-5.4,11.6-8.6,18.9-8.8h0.3c7.6-0.1,14.9,3.1,20,8.8c11.8,13.2,22.8,27.1,33,41.6C1093.5,503,1110.2,535.3,1110.2,564.2z"/>
		<polygon class="st9" points="1019,643.5 1051.2,598.5 1018.9,648.5 1018.8,653.6 1018.1,697.9 1017.8,714.2 1008.9,714.2 
			1009.5,702.4 1012.1,653.3 1015.6,587 1015.6,586.5 1015.6,586.4 1015.6,585.9 1015.9,580.1 983.6,530.1 1016,575.4 1016.1,576.7 
			1018.7,526.6 992.5,477.7 991,474.9 992.8,477.6 1019.1,517.8 1019.5,502.8 1020.2,475.7 1021.5,425.4 1021.8,425.4 1021.5,475.7 
			1021.4,495.8 1038.5,475.7 1049,463.3 1040.3,475.7 1021.3,502.9 1020.5,547.8 1046.3,504.7 1020.4,554.4 1020,579.3 
			1057.4,519.4 1022.8,582.8 1019.9,588 		"/>
		<path class="st11" d="M1253.8,533.8c0,4-0.2,7.7-0.5,11.3c-4.2,44.7-34.1,60.6-70.3,60.6c-0.9,0-1.8,0-2.7,0
			c-1.8,0-3.6-0.1-5.4-0.3c-5.3-0.3-10.5-1.2-15.7-2.4c-12.8-3.2-23.9-9.3-32.1-19.3c-9.4-11.3-15-27.6-15-50
			c0-16.6,6.9-34.7,16.3-51.6c10.3-18.5,23.8-35.7,34.7-48.4c4.8-5.6,11.8-8.9,19.2-9h0.3c7.7-0.1,15.1,3.2,20.1,9
			C1223.8,458.1,1253.8,499,1253.8,533.8z"/>
		<polygon class="st9" points="1180.4,597.6 1206.3,561.4 1180.3,601.6 1180.3,605.8 1180,623.9 1179.8,636.1 1179.5,654.5 
			1172.3,654.5 1173.2,638.4 1174.3,617.2 1174.9,605.5 1177.8,552.1 1177.8,551.7 1177.8,551.7 1178,546.6 1151.9,506.3 
			1178,542.8 1178.1,543.9 1180.2,503.6 1177,497.6 1177,497.6 1157.9,462 1180.5,496.5 1182.4,424.8 1182.6,424.8 1182.3,478.8 
			1204.5,452.7 1182.2,484.5 1182,499.7 1181.6,520.6 1191.5,504.1 1202.4,486 1192.6,504.7 1181.6,525.9 1181.2,546 1203.5,510.3 
			1211.3,497.8 1204.2,510.8 1181.1,553 		"/>
		<path class="st11" d="M1399.8,609.1c0,35.9-21.4,48.5-47.7,48.5c-0.6,0-1.2,0-1.8,0c-1.2,0-2.4-0.1-3.6-0.2
			c-5.6-0.3-11.1-1.5-16.3-3.4c-15.4-5.9-25.9-19.6-25.9-44.8c0-1.6,0.1-3.2,0.3-4.8c0.9-8.1,3.9-16.5,7.9-24.6
			c2.3-4.6,4.9-9.2,7.7-13.5c3.6-5.6,7.5-10.9,11.2-15.7c4.8-6.1,12.1-9.8,20-9.9c0.1,0,0.2,0,0.3,0c8.1-0.1,15.8,3.6,20.8,9.9
			C1385.5,566.9,1399.8,589.4,1399.8,609.1z"/>
		<path class="st9" d="M1350.3,652l17.4-24.4l-17.5,27v2.8l-0.5,30.1v2.7h-4.8l0.5-9.1l1.3-23.9l1.9-35.9V621v-0.1l0.2-3.4
			l-17.5-27.1l17.6,24.6v0.7l1.4-27.1l-15-28l15.2,23.3l1.1-43.4c0.1,0,0.2,0,0.3,0l-0.2,31.5l14.9-17.6l-15,21.4l-0.4,24.3l14-23.3
			l-14,26.9l-0.2,13.5l20.2-32.5l-20.3,37.2L1350.3,652z"/>
		<path class="st11" d="M1048.2,675.3c-2.1,3.4-4.8,3.3-7.3,1.7c-2.5-1.5-3.7-4-1.6-7.3c2.1-3.4,9.3-4.8,9.3-4.8
			S1050.3,672,1048.2,675.3z"/>
		<path class="st11" d="M982.5,684.5c-2.1,3.4-4.8,3.3-7.3,1.7c-2.5-1.5-3.7-4-1.6-7.3c2.1-3.4,9.3-4.8,9.3-4.8
			S984.6,681.2,982.5,684.5z"/>
		<path class="st11" d="M1215.4,668.3c0.4,4-1.8,5.6-4.7,5.9c-2.9,0.3-5.4-0.9-5.8-4.8c-0.4-4,4.4-9.5,4.4-9.5
			S1215,664.4,1215.4,668.3z"/>
		<path class="st11" d="M1139.6,619.3c-2.1,3.4-4.8,3.3-7.3,1.7c-2.5-1.5-3.7-4-1.6-7.3c2.1-3.4,9.3-4.8,9.3-4.8
			S1141.8,615.9,1139.6,619.3z"/>
		<path class="st11" d="M1314.2,671.2c-2.1,3.4-4.8,3.3-7.3,1.7c-2.5-1.5-3.7-4-1.6-7.3c2.1-3.4,9.3-4.8,9.3-4.8
			S1316.3,667.8,1314.2,671.2z"/>
		<path class="st12" d="M1610.8,721.6c0,110.3-50.1,197.3-111.7,199.7c-80.4,3.1-185.5-77-111.7-199.7
			c56.8-94.5,50-199.7,111.7-199.7C1560.8,521.9,1610.8,611.3,1610.8,721.6z"/>
		<path class="st13" d="M1648.6,704.3c-10,12.4-23.6,27.1-38.4,36.8c-7,4.6-14.4,8.1-21.7,9.6c-38.4,8-56.6-12-62.5-40.2
			c-0.1-0.7-0.3-1.3-0.4-2c-0.3-1.3-0.5-2.6-0.6-3.9c-3.5-25.8,6.5-48.5,42.2-56c11.1-2.3,23.9-0.6,36.5,3.1
			c13.3,3.8,26.5,9.8,37.1,15.4c6.4,3.3,11,9.2,12.6,16.2c0,0.1,0,0.2,0.1,0.2C1655,690.9,1653.3,698.5,1648.6,704.3z"/>
		<path class="st9" d="M1609.5,692.5l-22.4,4.3l23.2,8l4.9,1.7l-4.9-1.4l-27-7.6l-14.5,2.8l39.3,14.4l-44.3-13.4l-32.3,6.2l30,13.2
			l-32.8-12.7l-3,0.6l-13.4,2.6l0,0l-14.2,2.7l-5.4,1l-2.1,0.4l-1.1-5.2l2.2-0.3l4.5-0.7l16.4-2.5l12.6-1.9l38.9-6l0.3-0.1h0.1
			l3.7-0.6l25.1-24.8l-22.4,24.3l-0.8,0.2l29.4-4.5l9.7-8.1l17-14.2l-16.7,16.7l-4.8,4.7l5.1-0.9l44-8c0,0.1,0,0.2,0.1,0.2
			l-36.1,7.3l22.2,12l-26.3-11.3L1609.5,692.5z"/>
		<path class="st14" d="M1515.5,626.3L1515.5,626.3c-0.3-1.1-0.8-2-1.4-2.8c-1.2-1.4-2.9-2.2-4.7-2.3c-0.1,0-0.1,0-0.2,0
			c-0.7,0-1.4,0.1-2.1,0.3c-2.5,0.8-4.3,3-4.6,5.6l-0.4,8.1l-1.2,24.5l-0.2,3.2l-1.9,39.4c-2,1.7-3.1,4.3-2.8,6.9
			c0.1,1.3,0.5,2.6,1.2,3.7c0.8,1.3,2,2.3,3.3,3c1.2,0.6,2.4,0.9,3.7,0.9c3.5,0,6.6-2.2,7.8-5.5c0-0.1,0-0.1,0.1-0.2l0,0
			c0.5-1.5,0.6-3,0.2-4.5c-0.2-0.6-0.4-1.2-0.7-1.8c-0.2-0.4-0.4-0.7-0.6-1.1l2.6-42.4l1.5-25.6l0.4-6.7v-0.3c0-0.3,0.1-0.7,0.1-1
			c0,0,0,0,0-0.1C1515.8,627.2,1515.6,626.7,1515.5,626.3z"/>
		<path class="st0" d="M1516.1,632.4c0-0.9-0.1-1.7-0.3-2.6c-0.1-0.3-0.1-0.5-0.2-0.8c-0.9-3.4-3.2-6.2-6.3-7.8
			c-2.5-1.4-5.5-1.8-8.3-1.3c-8,1.5-12.8,4.1-14.2,8c-1,2.7-0.5,6.3,0.8,10.1l0,0c1.1,3.2,2.5,6.3,4.2,9.3c0.3,0.6,0.6,1.1,0.9,1.6
			c2.1,3.6,4.3,7.1,6.7,10.4l0.1,0.1l1.3,0.2l1.7,0.2l11.1,1.4l0.7,0.1V661C1515.6,651.6,1516.2,642,1516.1,632.4z"/>
		<ellipse class="st15" cx="1467.3" cy="916.9" rx="99.5" ry="10.6"/>
		<polygon class="st14" points="1460.2,901.5 1449.6,901.5 1444.6,860.7 1460.2,860.7 		"/>
		<path class="st16" d="M1465.6,918.1l-1-11.8l-0.8-10l-3.6-0.2l-11.3-0.7l-1.8-0.1v7.2l-6.1,4.2l-3.2,2.2l-6.5,4.5
			c-2,1.4-2.5,4.2-1.1,6.2c0.8,1.2,2.2,1.9,3.7,1.9h19.9l2.8-5.8l0.6-1.3l0.3,1.6l0,0l1,5.5h7.5L1465.6,918.1z"/>
		<polygon class="st14" points="1508.8,893.1 1498.8,896.8 1479.8,860.5 1494.3,855 		"/>
		<path class="st16" d="M1520.2,907.9l-10-20.9l-3.4,1.1l-10.8,3.4l-1.7,0.5l2.5,6.7l-11,15.9c-1.4,2-0.9,4.8,1.1,6.2
			c0.3,0.2,0.6,0.4,0.9,0.5c0.9,0.4,2,0.4,2.9,0.1l0,0c0.1,0,0.2-0.1,0.3-0.1l18.6-7l0.6-6.9l0.1-1l0.6,1l3.2,5.2l7-2.7
			L1520.2,907.9z"/>
		<path class="st17" d="M1529.6,826.7c0.4,4-1.8,5.6-4.7,5.9c-2.9,0.3-5.4-0.9-5.8-4.8c-0.4-4,4.4-9.5,4.4-9.5
			S1529.2,822.7,1529.6,826.7z"/>
		<path class="st18" d="M1508.3,777.2c-2.1,3.4-4.8,3.3-7.3,1.7c-2.5-1.5-3.7-4-1.6-7.3c2.1-3.4,9.3-4.8,9.3-4.8
			S1510.4,773.8,1508.3,777.2z"/>
		<path class="st19" d="M1481.6,794.1c0,0,46.2,72.8,41.1,76c-5.1,3.3-46.6,16.1-50.3,13.5c-3.7-2.6-6.7-86.3-6.7-86.3L1481.6,794.1
			z"/>
		<path class="st19" d="M1453.4,681.7c6.8,0.3,34.7,4.3,34.1,5.4c-0.6,0.9-1.3,1.8-2,2.6c0,0,1.4,6.4,0.8,7.1s12.1,15.2,4.7,46.4
			s-6.6,52.8-6.6,52.8s3,91.6-5.6,93.4c-8.6,1.9-42.3,0.6-43.8-3c-1.6-3.6,4.9-115.9,4.9-115.9s0.7-56.5,2.4-63.3
			S1449.2,681.6,1453.4,681.7z"/>
		<circle class="st14" cx="1486.2" cy="583.1" r="21.3"/>
		<path class="st0" d="M1507.5,611.9c3,3,16,15.4,1.9,37.2c-14.1,21.9-23.1,37.8-23.1,37.8l-35.1-4.1l5.4-21.4
			c0,0-2.6-16.9,6.4-25.2c9-8.4,18.9-22.1,18.9-22.1l5.1-0.9C1486.8,613.1,1504.5,608.9,1507.5,611.9z"/>
		<path class="st14" d="M1496.9,643.5c0,0-49.6,38.2-52.8,24.8c-2.1-8.7,0.3-41.5,1.7-55.4l10,0.1c0,0-2.1,30.8,2.1,34.3
			c0,0,15.3-14.8,18.5-14.6C1479.8,632.9,1496.9,643.5,1496.9,643.5z"/>
		<path class="st0" d="M1507.5,619.7c0,0-6.7,31.3-26.6,36.4l-23.2-9.4c0,0,29.5-31.4,39.6-31.7
			C1507.5,614.6,1507.5,619.7,1507.5,619.7z"/>
		<circle class="st14" cx="1451.5" cy="609.7" r="8.1"/>
		<path class="st20" d="M1515.6,588c-0.1-5.3-0.1-10.6-1.3-15.7s-3.7-10-7.7-13.1c-4-3-9.7-3.8-13.9-0.9c-3.1-4-8.4-5.5-13.1-4.4
			s-8.8,4.5-11.6,8.6s-4.5,9.2-5.6,14.2c-0.4,1.8-0.6,4.1,0.9,5.1c1.1,0.8,2.6,0.3,3.9-0.2c3.5-1.4,6.9-2.8,10.4-4.2
			c3.5,4.8,8.5,9.1,7.8,15.2c-0.7,6-4.7,12.4-6.9,18c3-1.1,5.9-2.1,8.9-3.2c1-1.6,3.3-4.1,3.1-5.9c0.7,1.4,1.1,2.8,1.3,4.3l0,0
			l16.5-6c2-0.7,4-1.5,5.4-3.2C1515.5,594.4,1515.6,591.1,1515.6,588z"/>
	</g>
	<g>
		<path class="st21" d="M590.4,556.6c4.4,0.8,7.4,6.1,8.5,11.4c1.1,5.3,0.8,11,1.2,16.4s1.9,11.3,5.6,14.4c-3.8-0.7-7.3-3.8-9.1-8
			c0.3,2.2-0.4,4.4-2.1,5.8c-1.5,1.2-3.3,1.9-5.1,2.3l-14.8,3.8c-2.7,0.7-5.5,1.4-8.1,0.3c-3.3-1.4-5.4-5.5-7.1-9.4
			c-2.1-4.6-3.5-9.5-4.3-14.5c-0.7-5.1-0.2-10.6,1.9-15c2.4-4.9,6.9-8.6,12.2-10c4.9-1.3,10-1.1,15-0.8c2.8,0.2,5.8,0.4,8.3,2"/>
		<polygon class="st22" points="587.2,963.6 597.6,963.6 602.5,923.6 587.2,923.6 		"/>
		<path class="st8" d="M601,964.6v-7l-2.8,0.2l-11.1,0.7l-2.6,0.2l-1.9,23.6l-0.1,1.3h7.4l0.3-1.3l1.1-5.7l2.8,5.7l0.6,1.3h19.5
			c2.4,0,4.4-2,4.4-4.4C619.4,975.1,603.1,966.8,601,964.6z"/>
		<polygon class="st22" points="713.9,932.1 722.6,926.5 705.2,890.1 692.3,898.4 		"/>
		<path class="st8" d="M726,925.4l-3.8-5.9l-2.2,1.6l-9,6.5l-2.1,1.5l11,20.9l0.6,1.1l6.2-3.9l-0.5-1.2l-2.2-5.4l5.4,3.3l1.2,0.8
			l16.5-10.5c2-1.3,2.6-4,1.3-6C747.1,924.4,729,926.2,726,925.4z"/>
		<path class="st23" d="M942.1,600.9h-171c-2,0-3.7-1.7-3.7-3.7s1.7-3.7,3.7-3.7l0,0h171c2,0,3.7,1.7,3.7,3.7
			C945.8,599.3,944.1,600.9,942.1,600.9z"/>
		<path class="st23" d="M942.1,679.6h-171c-2,0-3.7-1.7-3.7-3.7s1.7-3.7,3.7-3.7h171c2,0,3.7,1.7,3.7,3.7
			C945.8,678,944.1,679.6,942.1,679.6z"/>
		<path class="st23" d="M1028.8,640.3H771.1c-2,0-3.7-1.7-3.7-3.7s1.7-3.7,3.7-3.7h257.6c2,0,3.7,1.7,3.7,3.7
			C1032.4,638.7,1030.8,640.3,1028.8,640.3L1028.8,640.3z"/>
		<path class="st9" d="M945.8,690.7c-0.5,0-0.8-0.3-0.8-0.8V662c0-0.5,0.3-0.8,0.8-0.8s0.8,0.3,0.8,0.8v27.9
			C946.6,690.3,946.2,690.7,945.8,690.7z"/>
		<path class="st24" d="M752.7,583c0-0.5,0.3-0.8,0.8-0.8h27.9c0.5,0,0.8,0.3,0.8,0.8s-0.3,0.8-0.8,0.8h-27.9
			C753.1,583.9,752.7,583.5,752.7,583z"/>
		<path class="st24" d="M767.5,612.1c-0.5,0-0.8-0.3-0.8-0.8v-27.9c0-0.5,0.3-0.8,0.8-0.8s0.8,0.3,0.8,0.8v27.9
			C768.4,611.6,768,612.1,767.5,612.1z"/>
		<path class="st25" d="M614.8,703.1l-59.2,10.3l0.5,9c0,0-11.4,38.8-5.3,50.6c6.1,11.8,10.6,42.5,10.6,42.5s-22.6,120,4.7,122.4
			c27.3,2.4,60-0.1,60-8s-20.9-153-20.9-153s35.2,77.1,41.9,77.1c6.7,0.1,6.7,0.1,6.7,5.9c0,5.9-8.4,1.3,0,9.9
			c8.4,8.6,20,46.2,30,45.8s56.3-27.9,56.2-34.6C739.9,874.3,614.8,703.1,614.8,703.1z"/>
		<path class="st26" d="M555.7,715.4l2.7-30.2l-12.8-47.4c0,0-2.7-23.6,5.1-25.4c7.8-1.8,10.5-1.9,10.5-1.9l5.2-9.9h17.5l8.8,8.4
			c0,0,11.7,7.5,11.7,10.9s12.5,69.8,10.5,71.3s-2.6,3.5,0.2,3.8s7.8-1.4,4.4,1.9c-2.2,2.3-3.8,5.1-4.6,8.1L555.7,715.4z"/>
		<path class="st27" d="M683.8,708.8c-0.8-4.4-5.1-7.2-9.5-6.4c-0.4,0.1-0.8,0.2-1.3,0.3l-27.5-29.2l-10,5.6l33,34.4
			c1.8,4,6.6,5.9,10.6,4C682.6,716.1,684.5,712.5,683.8,708.8L683.8,708.8z"/>
		<path class="st26" d="M576.6,609.1c0,0-4.9,18.8,2.7,25.4c7.6,6.5,13.5,13.6,17.3,15.1s22,23.5,25.6,23.6s1.7,4.6,6.9,5.9
			c5.2,1.3,6.6,1,6.9,2.4c0.3,1.4,15.1,15.9,15.1,15.9l10.7-9.7l-51.5-66C602.1,611.3,589.2,606.5,576.6,609.1L576.6,609.1z"/>
		<path class="st23" d="M702.9,702.9l-156.8,68.3c-1.8,0.8-4,0-4.9-1.9c-0.8-1.8,0-4,1.9-4.9l156.8-68.3c1.8-0.8,4,0,4.9,1.9
			C705.7,699.9,704.9,702.1,702.9,702.9L702.9,702.9L702.9,702.9z"/>
		<path class="st6" d="M770.6,978c0.6,0,1-0.4,1.1-1c0-0.3-0.1-0.6-0.3-0.8l-0.1-0.3v-0.1c0.6-1.4,2.2-2,3.6-1.4
			c0.7,0.3,1.2,0.8,1.4,1.5c0.8,2,1.8,4,2.1,6.1c0.1,0.9,0.1,1.8-0.2,2.8c1.9-4.2,2.9-8.8,2.9-13.5c0-1.2-0.1-2.3-0.2-3.5
			c-0.1-0.9-0.3-1.9-0.4-2.8c-1-5.1-3.3-9.9-6.5-13.9c-1.6-0.8-2.8-2.2-3.6-3.8c-0.3-0.6-0.5-1.2-0.6-1.8c0.3-0.9,0.5-1.8,0.5-2.8
			c0.3-0.3,0.7-0.6,0.9-0.9c1.3-1.8,3.2-1.5,4.2,1c2.1,1,2.1,2.8,0.8,4.4c-0.8,1.1-0.9,2.5-1.6,3.6c0.1,0.1,0.2,0.2,0.3,0.3
			c1.3,1.7,2.5,3.5,3.4,5.4c-0.3-2.2,0.1-4.4,0.8-6.4c0.8-1.9,2.3-3.5,3.5-5.1c0.9-1.3,2.8-1.4,3.9-0.5c0.6,0.4,1,1.2,1.1,1.8v0.1
			c-0.2,0.1-0.4,0.3-0.6,0.3c-0.7,0.4-0.8,1.3-0.4,1.9c0.3,0.3,0.6,0.5,0.9,0.6l0,0c-0.1,0.7-0.2,1.3-0.3,2.1c1.7,6.4-1.9,8.8-7,8.9
			c-0.1,0.1-0.3,0.1-0.3,0.2c1,2.8,1.6,5.6,1.8,8.5c0.2,1.8,0.1,3.4,0,5.2V974c0.3-1.9,1.4-3.6,2.8-4.9c2.3-1.8,5.4-2.5,7.8-3.9
			c0.8-0.5,1.8-0.3,2.2,0.5c0.2,0.3,0.3,0.7,0.3,1.1v0.1c-0.3,0.2-0.7,0.3-1,0.5c-0.2,0.1-0.4,0.3-0.6,0.3c-0.7,0.4-0.8,1.3-0.4,1.9
			c0.3,0.3,0.6,0.5,0.9,0.6l0,0h0.1c-0.6,1.4-1.5,2.8-2.5,3.9c-1,5.6-5.5,6.1-10.3,4.5l0,0c-0.5,2.3-1.3,4.5-2.3,6.6h-8
			c0-0.1-0.1-0.2-0.1-0.3c0.8,0.1,1.5,0,2.3-0.2c-0.6-0.8-1.2-1.5-1.8-2.2c0,0,0,0,0-0.1c-0.3-0.4-0.6-0.8-0.9-1.1l0,0
			C770.2,980.2,770.3,979,770.6,978L770.6,978z"/>
		<path class="st28" d="M501.5,986.3l326.1,0.3c0.6,0,1-0.4,1-1s-0.4-1-1-1l-326.1-0.3c-0.6,0-1,0.4-1,1
			C500.5,985.9,501,986.3,501.5,986.3L501.5,986.3z"/>
		
			<ellipse transform="matrix(0.3162 -0.9487 0.9487 0.3162 -153.5061 940.0264)" class="st22" cx="575.4" cy="576.5" rx="19.5" ry="19.5"/>
		<path class="st21" d="M566.7,577.7c0-1.7-2.7-1.9-3.7-0.6c-1,1.3-0.8,3.1-0.4,4.8c0.7,3.8,1.4,7.7,2.1,11.6
			c0.8,4.6,2,9.7,5.9,12.2c-2.9,1.3-6.2,2.6-9.4,2s-5.9-4.3-4.4-7.1c-0.8,2.2-1.6,4.4-3.4,5.9c-1.2,1-2.8,1.3-4.2,0.8
			c-2.8-1.1-1.4-5.1-2.7-7.9c-3.5-7.8-6.9-15.2-1.3-22.2c0.8-1,0.2-2.9,0.2-4.8c0-9.7,10-18.3,19.4-20.6c0.2-0.1,0.4-0.1,0.6-0.1
			c5.3-1,10.7,0.3,15.1,3.4c2.3-1.9,6-1.1,8.1,1.1c2.1,2.2,5.9,5.6,6.5,8.5s-0.6,5.8,0.8,8.4c-3.3,0.7-8.5-0.4-11-2.8
			c-1.6,3.1-5.6,3.6-9.1,3.7c-3.5,0.1-7.4,0.3-9.4,3.2"/>
		<path class="st23" d="M788.2,541.8c-22.1,0.5-44.2,0.9-66.3,1.5c-4.1,0.1-8.6,0.4-11.8,3.3c-3.2,2.9-3.7,7.5-3.8,11.5
			c-0.2,10.9,0.1,21.8,0.2,32.7l0.2,37.4c0,1.6,2.1,1.6,2.5,0c6.4-21.6,22-43.2-0.3-64.8c-2.9-2.8-0.6-8.9,1.3-12.7
			c1.9-4,6.2-4.9,10.2-5c5.2-0.3,10.3-0.3,15.5-0.3l16-0.3l36.3-0.8C789.8,544.3,789.8,541.8,788.2,541.8L788.2,541.8z"/>
		<path class="st6" d="M997.1,709c22.1-0.5,44.2-0.9,66.3-1.5c4.1-0.1,8.6-0.4,11.8-3.3c3.2-2.9,3.7-7.5,3.8-11.5
			c0.2-10.9-0.1-21.8-0.2-32.7c-0.1-12.5-0.2-24.9-0.2-37.4c0-1.6-2.3-1.6-2.5,0c-2.4,21.6-26,43.2,0.3,64.8
			c3.2,2.6,0.6,8.9-1.3,12.7c-1.9,4-6.2,4.9-10.2,5c-5.2,0.3-10.3,0.3-15.5,0.3l-16.1,0.3l-36.3,0.8
			C995.5,706.6,995.5,709.1,997.1,709L997.1,709z"/>
		<path class="st6" d="M837.2,942.4l-96.4-40c-2.6-1.1-3.8-4-2.8-6.6l0,0l22.7-54.7c1.1-2.6,4-3.8,6.6-2.8l121.6,50.5
			c2.6,1.1,3.8,4,2.8,6.6l0,0l-12.3,29.5C872.6,941.4,853.7,949.3,837.2,942.4L837.2,942.4z"/>
		<path class="st29" d="M831,936.4l-66.8-27.7c-13.1-5.5-19.4-20.6-14-33.8l4.4-10.4c5.5-13.1,20.6-19.4,33.8-14l77.2,32
			c13.1,5.5,19.4,20.6,14,33.8C871.7,935.2,850,944.1,831,936.4z"/>
		<path class="st30" d="M826.8,884.7l-38-15.7c-0.7-0.3-1-1-0.8-1.7s1-1,1.7-0.8l0,0l38,15.7c0.7,0.3,1,1.1,0.7,1.8
			C828.2,884.7,827.4,885.1,826.8,884.7z"/>
		<path class="st30" d="M816.1,910.6l-38-15.7c-0.7-0.3-1-1-0.8-1.7c0.3-0.7,1-1,1.7-0.8l0,0l38,15.7c0.7,0.3,1,1.1,0.7,1.7
			C817.5,910.5,816.7,910.8,816.1,910.6z"/>
		<path class="st6" d="M849.9,909.5L783.4,882c-0.7-0.3-1-1-0.8-1.7s1-1,1.7-0.8l0,0l66.4,27.5c0.7,0.3,1,1.1,0.7,1.8
			C851.3,909.4,850.5,909.8,849.9,909.5L849.9,909.5z"/>
		<path class="st31" d="M682.4,837.8l-96.4-40c-2.6-1.1-3.8-4-2.8-6.6l22.7-54.7c1.1-2.6,4-3.8,6.6-2.8L734,784.2
			c2.6,1.1,3.8,4,2.8,6.6l-12.3,29.5C717.8,836.8,698.9,844.7,682.4,837.8z"/>
		<path class="st32" d="M676.3,831.8l-66.8-27.7c-13.1-5.5-19.4-20.6-14-33.8l4.4-10.4c5.5-13.1,20.6-19.4,33.8-14l77.2,32
			c13.1,5.5,19.4,20.6,14,33.8C716.9,830.6,695.2,839.6,676.3,831.8z"/>
		<path class="st23" d="M672,780.2l-38-15.7c-0.7-0.3-1-1-0.7-1.7s1-1,1.7-0.7l38,15.7c0.7,0.3,1,1.1,0.7,1.7
			C673.4,780.2,672.7,780.5,672,780.2z"/>
		<path class="st23" d="M661.3,806l-38-15.7c-0.7-0.3-1-1-0.7-1.7s1-1,1.7-0.7l0,0l38,15.7c0.7,0.3,1,1,0.7,1.7
			C662.7,805.9,661.9,806.3,661.3,806z"/>
		<path class="st23" d="M695.1,804.9l-66.4-27.5c-0.7-0.3-1-1-0.7-1.7s1-1,1.7-0.7l66.4,27.5c0.7,0.3,1,1.1,0.7,1.7
			C696.5,804.8,695.7,805.2,695.1,804.9z"/>
		<path class="st27" d="M619.3,743.2c0.8-4.4-2-8.6-6.4-9.5c-0.4-0.1-0.8-0.2-1.3-0.2L597,696.2l-11.3,1.5l17.7,44.3
			c0.2,4.4,3.9,7.9,8.4,7.7C615.4,749.5,618.5,746.8,619.3,743.2z"/>
		<path class="st26" d="M557.1,610.6c0,0-11.5,15.6-7,24.5c4.5,9,7.4,17.7,10.4,20.4c3,2.8,11.6,30,15,31.5c3.3,1.4-0.2,4.9,4.2,7.9
			c4.4,3.1,5.8,3.4,5.4,4.8c-0.4,1.4,8,20.3,8,20.3l13.6-5l-28.9-100.7L557.1,610.6z"/>
	</g>
	<g>
		<path class="st29" d="M1289.3,745.3c-6.1,3.3-13.7,1.7-17.9-3.7c-0.4-0.5,0.4-1.2,0.8-0.7c3.9,5.1,11,6.6,16.7,3.4
			C1289.4,744,1289.9,744.9,1289.3,745.3L1289.3,745.3z"/>
		<path class="st29" d="M1311.8,763.5c2-6.6,1.5-13.6-1.5-19.8c-0.3-0.6,0.7-1,1-0.4c3.1,6.4,3.6,13.8,1.5,20.6
			C1312.5,764.5,1311.6,764.1,1311.8,763.5L1311.8,763.5z"/>
		<path class="st29" d="M1335.6,729c-6.8-1-11.9-6.8-12-13.8c0-0.3,0.2-0.5,0.5-0.5s0.5,0.2,0.5,0.5c0.1,6.4,4.8,11.9,11.2,12.8
			C1336.5,728.1,1336.3,729.1,1335.6,729L1335.6,729z"/>
		<path class="st33" d="M1542.5,890.9c-0.4,0.2-0.8,0.4-1.1,0.6c-5.1,2.5-10,5.5-14.7,8.8c-0.4,0.2-0.7,0.5-1.1,0.8
			c-11.1,8.1-20.6,18.2-28,29.7c-1.7,2.6-3.2,5.3-4.7,8c-1.1,2.1-2.1,4.3-3.1,6.5c-3.7,8.3-6.9,17.8-14.1,22.9
			c-0.8,0.6-1.6,1-2.4,1.5c-0.1,0-0.2,0.1-0.2,0.1c0-4.7-0.8-9.3-2.1-13.7c-0.2-0.7-0.5-1.5-0.7-2.2c-0.1-0.3-0.2-0.7-0.4-1
			c-0.9-2.3-2-4.6-3.2-6.8c-3.6-6.4-8.8-11.6-15.2-15.3c-1.8,4.5-4.1,8.8-6.9,12.8c2.1-4.4,4.4-8.7,6.9-12.9
			c0.1-0.1,0.1-0.2,0.2-0.3c0.4-0.6,0.8-1.3,1.2-1.9c6-9.9,13.7-18.8,22.6-26.1c6.2-5,13.2-8.9,20.6-11.8
			c14.8-5.6,31.1-6.4,45.4-0.1C1541.8,890.6,1542.2,890.7,1542.5,890.9z"/>
		<path class="st12" d="M1542.4,891.4c-0.3,0-0.7,0.1-1,0.1c-6.9,0.6-13.8,1.9-20.4,4c-0.3,0.1-0.7,0.2-1,0.3
			c-9.2,3-17.9,7.4-25.7,13c-0.1,0.1-0.2,0.1-0.2,0.2c-1.8,1.3-3.6,2.7-5.3,4.2c-3.3,2.7-6.2,5.9-8.5,9.4c-1.8,3-2.9,6.4-3.2,9.9
			c0,0.3-0.1,0.7-0.1,1s0,0.6,0,0.8c-0.1,2.7,0,5.4-0.2,8c-0.1,1.2-0.3,2.4-0.6,3.6c-0.6,2.3-1.9,4.3-3.6,6
			c-0.7,0.6-1.4,1.2-2.1,1.8c-0.1-0.3-0.2-0.7-0.4-1c0.8-0.5,1.5-1.1,2.1-1.8c1.2-1.2,2.1-2.7,2.7-4.3c0.4-1.3,0.7-2.6,0.9-3.9
			c0.3-2.6,0.2-5.3,0.2-7.9c0-0.7,0.1-1.3,0.1-2c0.2-3.4,1.2-6.7,2.7-9.6c2.1-3.7,4.9-7,8.1-9.7c2-1.8,4.1-3.5,6.3-5.1
			c0.3-0.2,0.6-0.4,0.9-0.6c14-9.9,30.4-15.9,47.5-17.3c0.3,0,0.6-0.1,1-0.1C1543.1,890.3,1543,891.3,1542.4,891.4z"/>
		<path class="st12" d="M1493.3,908.8c-3.7-5.9-2.6-13.5,2.6-18.1c0.5-0.4,1.2,0.3,0.7,0.8c-4.8,4.3-5.8,11.4-2.4,16.8
			C1494.6,908.8,1493.8,909.3,1493.3,908.8L1493.3,908.8z"/>
		<path class="st12" d="M1476.6,932.4c6.7,1.6,13.7,0.6,19.6-2.8c0.6-0.3,1.1,0.6,0.5,0.9c-6.2,3.5-13.5,4.5-20.4,2.9
			C1475.8,933.2,1476,932.2,1476.6,932.4z"/>
		<path class="st12" d="M1520.8,895.2c0.9,2.5,3.1,4.4,5.7,5c0.7,0.1,0.3,1.2-0.3,1c-2.9-0.7-5.3-2.7-6.3-5.5
			c-0.1-0.3,0-0.6,0.2-0.7C1520.4,894.8,1520.8,894.9,1520.8,895.2L1520.8,895.2z"/>
		<path class="st34" d="M1562.5,969.3c-0.4-0.1-0.8-0.2-1.2-0.2l0,0l0,0c-5.6-1.1-11.3-1.7-17-1.8l0,0c-0.4,0-0.9,0-1.3,0l0,0
			c-13.7-0.2-27.4,2.1-40.2,6.9l0,0c-5.1,1.9-10.1,4.2-14.9,6.9c-5.1,2.8-10.3,6.2-15.8,8.1c-1.1,0.4-2.2,0.7-3.3,1
			c0.3-0.6,0.5-1.1,0.8-1.7c1.8-4.2,2.9-8.7,3.4-13.3c0-0.4,0.1-0.8,0.1-1.2c0.1-1.4,0.2-2.9,0.2-4.3c0-4.7-0.8-9.3-2.1-13.7
			c-0.2-0.7-0.5-1.5-0.7-2.2c-0.1-0.3-0.2-0.7-0.4-1c-0.9-2.3-2-4.6-3.2-6.8c0.8-0.3,1.6-0.6,2.4-1c2.1-0.8,4.3-1.5,6.4-2.2l0,0
			c0.4-0.1,0.7-0.2,1.1-0.3c5.4-1.6,10.8-2.9,16.4-3.6c3-0.4,6.1-0.7,9.2-0.8c7.9-0.2,15.8,0.8,23.5,3c0,0,0,0,0.1,0
			c15.2,4.4,28.7,13.7,36.3,27.3C1562.2,968.6,1562.4,969,1562.5,969.3z"/>
		<path class="st12" d="M1562.1,969.6c-0.3-0.2-0.5-0.3-0.8-0.5l0,0c-5.9-3.7-12.2-6.8-18.7-9.1c-0.3-0.1-0.7-0.2-1-0.3
			c-9.1-3.2-18.7-4.9-28.4-5.1c-0.1,0-0.2,0-0.3,0c-2.2,0-4.5,0-6.7,0.1c-4.3,0.1-8.5,1-12.5,2.4c-3.3,1.3-6.2,3.3-8.5,5.9
			c-0.2,0.3-0.5,0.5-0.7,0.8c-0.2,0.2-0.4,0.4-0.5,0.7c-2.4,3-4.6,6.4-7.7,8.8c-0.2,0.1-0.4,0.3-0.6,0.4c-0.9,0.6-1.8,1.1-2.8,1.5
			c0-0.4,0.1-0.8,0.1-1.2c0.7-0.3,1.3-0.6,1.9-1c0.3-0.2,0.6-0.4,0.9-0.7c2.8-2.2,4.8-5.3,7-8.1c0.4-0.5,0.8-1,1.2-1.5
			c2.2-2.6,5-4.7,8.1-6.1c3.9-1.7,8.1-2.6,12.3-2.9c2.7-0.2,5.4-0.3,8.1-0.3c0.4,0,0.7,0,1.1,0c9.8,0.3,19.5,2.1,28.8,5.3
			c6.9,2.4,13.4,5.6,19.6,9.4c0.3,0.2,0.6,0.3,0.8,0.5C1563.4,969.2,1562.8,970,1562.1,969.6z"/>
		<path class="st12" d="M1512.5,954c0.6-6.9,6.1-12.4,13-12.9c0.7-0.1,0.8,1,0.1,1c-6.4,0.5-11.5,5.6-12,12
			C1513.5,954.8,1512.5,954.6,1512.5,954L1512.5,954z"/>
		<path class="st12" d="M1485,962.8c4.4,5.3,10.6,8.7,17.4,9.6c0.7,0.1,0.5,1.1-0.2,1c-7.1-0.9-13.5-4.5-18.1-10
			C1483.8,962.9,1484.5,962.2,1485,962.8L1485,962.8z"/>
		<path class="st12" d="M1542.8,959.7c-0.8,2.6-0.2,5.4,1.5,7.4c0.4,0.5-0.4,1.1-0.9,0.6c-1.9-2.3-2.6-5.4-1.7-8.2
			c0.1-0.3,0.3-0.5,0.6-0.4C1542.5,959.1,1542.8,959.4,1542.8,959.7z"/>
		<path class="st12" d="M1281.6,762.7c-13.7-19.6-18.6-46.7-7-67.7c9.8,24.1,27.8,43.9,50.8,56c8.9,4.6,19.3,8.9,23.2,18.1
			c2.5,5.7,1.8,12.4-0.4,18.2c-2.2,5.8-5.9,11-9.5,16l-0.2,1.5C1316.6,795.3,1295.3,782.3,1281.6,762.7z"/>
		<path class="st35" d="M1275.1,695.2c0.2,19.8,6.5,39,18.2,55c2.5,3.5,5.5,6.5,8.9,9.1c3.4,2.4,7.4,3.8,11.5,4.1
			c3.9,0.4,7.8,0.3,11.5,1.6c3.8,1.4,6.8,4.4,8.3,8.1c2,4.6,2.1,9.6,2.1,14.6c0,5.5-0.1,11.2,2.4,16.2c0.3,0.6-0.7,1-1,0.4
			c-4.3-8.8-1.1-18.8-3.6-27.9c-1.1-4.3-3.6-8.2-7.8-10c-3.7-1.6-7.8-1.5-11.7-1.9c-4-0.2-8-1.5-11.4-3.6c-3.5-2.4-6.6-5.3-9.2-8.7
			c-5.9-7.6-10.5-16-13.7-25c-3.7-10.3-5.7-21.1-5.8-32C1274,694.4,1275.1,694.5,1275.1,695.2L1275.1,695.2z"/>
		<path class="st35" d="M1354.2,680.1c-0.1,0.4-0.2,0.8-0.3,1.2c-1.4,5.5-2.4,11.1-2.9,16.8c0,0.4-0.1,0.9-0.1,1.3
			c-1.1,13.7,0.4,27.5,4.3,40.6c1.6,5.2,3.5,10.3,5.9,15.3c3.2,6.8,7.3,14,8.1,21.2c0.1,0.8,0.1,1.5,0.1,2.3l-28.9,26.2
			c-0.1,0-0.2,0.1-0.3,0.1l-1.1,1.1c-0.1-0.2-0.3-0.5-0.4-0.8c-0.1-0.1-0.2-0.3-0.2-0.4c-0.1-0.1-0.1-0.2-0.2-0.3v-0.1
			c-0.1-0.1-0.1-0.2-0.1-0.2c-0.8-1.4-1.5-2.9-2.3-4.3l0,0c-5.8-11.1-10.7-22.8-13.6-34.9c-0.1-0.4-0.2-0.7-0.3-1.1
			c-1.3-5.5-2.2-11-2.6-16.6c-0.2-3.1-0.3-6.1-0.2-9.2c0.3-7.9,1.8-15.8,4.5-23.2c5.4-14.9,15.5-27.8,29.6-34.5
			C1353.5,680.4,1353.8,680.3,1354.2,680.1z"/>
		<path class="st12" d="M1354.4,680.5c-11.8,15.9-18.3,35.1-18.5,54.9c-0.1,4.3,0.4,8.5,1.6,12.6c1.3,3.9,3.6,7.5,6.7,10.2
			c2.9,2.6,6.1,5,8.2,8.2c2.2,3.4,2.8,7.6,1.7,11.5c-1.2,4.9-4.1,9-7.1,12.9c-3.3,4.4-6.8,8.9-7.8,14.4c-0.1,0.7-1.2,0.4-1-0.2
			c1.9-9.6,10.4-15.7,14-24.5c1.7-4.1,2.1-8.7-0.2-12.7c-2-3.5-5.3-5.9-8.2-8.5c-3.1-2.6-5.5-6-7-9.7c-1.4-4-2.1-8.2-2.1-12.5
			c-0.1-9.6,1.3-19.1,4.1-28.2c3.2-10.4,8.2-20.3,14.7-29C1354.1,679.3,1354.8,680,1354.4,680.5L1354.4,680.5z"/>
		<path class="st12" d="M1342.6,757.1c5.5-4,9.4-10,10.7-16.7c0.1-0.7,1.2-0.4,1,0.2c-1.4,7-5.4,13.2-11.2,17.4
			C1342.6,758.4,1342.1,757.5,1342.6,757.1L1342.6,757.1z"/>
		<path class="st12" d="M1343.3,699.3c2.5,0.9,5.3,0.5,7.5-1.1c0.5-0.4,1.1,0.5,0.6,0.9c-2.4,1.8-5.5,2.2-8.3,1.2
			c-0.3-0.1-0.4-0.4-0.4-0.6C1342.8,699.4,1343,699.3,1343.3,699.3L1343.3,699.3z"/>
		<path class="st35" d="M1475.8,968.1c-0.3-5.5-1.4-11-3.4-16.1c-0.1-0.4-0.3-0.7-0.4-1.1c-0.8-2-1.8-4-2.9-5.9
			c-3.8-6.9-9.5-12.6-16.3-16.6c-0.1-0.1-0.3-0.1-0.4-0.2c2.1-6,2.8-12.3,2.1-18.6c-1.6-12.6-8.6-23.8-17.1-33
			c-15.8-17-37.9-27.1-53.2-44.4c-0.2-0.2-0.4-0.5-0.6-0.7s-0.4-0.5-0.6-0.7c-2-2.4-3.9-4.9-5.6-7.6c-2.9-4.5-5.3-9.4-7.2-14.4
			c-0.6-1.8-1.2-3.5-1.8-5.3c-0.5-1.8-1-3.5-1.4-5.3s-0.7-3.5-1-5.3s-0.5-3.5-0.6-5.3c-0.2-1.8-0.3-3.6-0.3-5.3
			c-0.2-8.7,0.9-17.4,3.4-25.7c0.1-0.3,0.2-0.6,0.3-0.9c0.1-0.3,0.2-0.6,0.3-0.9c0.1-0.3,0.2-0.5,0.2-0.8
			c4.1-12.3,11.5-22.7,20.5-31.8c5.7-5.7,11.8-11,17.7-16.5c0.2-0.2,0.4-0.4,0.6-0.6c0.2-0.2,0.5-0.4,0.7-0.6
			c3.7-3.5,7.3-7.2,10.6-11.1c1.9-2.3,3.7-4.7,5.4-7.1c1.2-1.7,2.2-3.5,3.2-5.3c1-1.7,1.8-3.5,2.6-5.3c0.8-1.7,1.4-3.5,2-5.3
			s1-3.5,1.4-5.3s0.6-3.5,0.8-5.3c0,0,0,0,0-0.1c0.8-9.2-1.9-18.3-7.7-25.4c-0.2-0.3-0.4-0.5-0.7-0.8c-0.2-0.3-0.5-0.5-0.7-0.8
			c-1.2-1.3-2.5-2.6-3.8-3.7c-14.6-12.4-33.7-14.4-51.4-20c-0.3-0.1-0.6-0.2-0.8-0.3c-0.3-0.1-0.6-0.2-0.9-0.3
			c-4.6-1.4-9-3.3-13.2-5.5c-0.1,0-0.1-0.1-0.2-0.1c-2.4-1.3-4.7-2.8-6.8-4.4c-2.1-1.6-4-3.4-5.8-5.3c-0.5-0.5-0.9-1-1.3-1.5
			c-1-1.2-2.6,0.2-2.1,1.5c0.1,0.1,0.1,0.3,0.2,0.4c1.4,1.8,3,3.4,4.7,5c2.2,2,4.7,3.8,7.2,5.3c5,2.9,10.3,5.3,15.9,7
			c0.3,0.1,0.6,0.2,0.9,0.3s0.6,0.2,0.9,0.3c10.7,3.3,22.1,5.5,32.2,9.2c7.7,2.9,15.4,6.8,21.2,12.7c0.2,0.2,0.5,0.5,0.7,0.7
			s0.5,0.5,0.7,0.8c1.4,1.6,2.7,3.3,3.8,5.1c3.5,6,4.9,13,4.2,19.9c-0.2,1.8-0.4,3.6-0.8,5.3c-0.4,1.8-0.9,3.6-1.5,5.3
			c-0.5,1.6-1.2,3.2-1.8,4.7c-0.1,0.2-0.2,0.4-0.3,0.6c-0.8,1.8-1.8,3.6-2.8,5.3c-1.1,1.8-2.2,3.6-3.4,5.3
			c-4.4,6-9.3,11.5-14.8,16.5c-0.2,0.2-0.4,0.4-0.7,0.6c-0.2,0.2-0.4,0.4-0.6,0.6c-9.7,9.1-20,17.7-27.9,28.3
			c-5,6.8-8.8,14.3-11.2,22.4c-0.1,0.3-0.2,0.6-0.3,0.9c-0.1,0.3-0.2,0.6-0.3,0.9c-2.4,8.4-3.5,17.1-3.3,25.8c0,1.8,0.1,3.6,0.3,5.3
			c0.2,1.8,0.4,3.6,0.6,5.3c0.1,0.9,0.3,1.8,0.4,2.6c0.2,0.9,0.3,1.8,0.5,2.7c0.4,1.8,0.8,3.6,1.3,5.3c0.5,1.8,1.1,3.6,1.7,5.3
			c2.2,6.1,5.1,11.9,8.7,17.3c1.4,2,2.8,3.9,4.3,5.8c0.2,0.2,0.4,0.5,0.6,0.7s0.4,0.5,0.6,0.7c6.1,7,13.3,12.9,20.7,18.5
			c19.6,14.6,44.3,29.7,49.2,55.8c1.1,6.5,0.6,13.1-1.5,19.3c-2.8-1.3-5.8-2.3-8.9-2.9c-9.5-1.7-19.3-0.3-28,3.9
			c-0.3,0.1-0.5,0.3-0.8,0.4c-0.3,0.2-0.6,0.3-0.8,0.4c-5.4,2.8-10,7.1-13.1,12.4c-0.9,1.7-1.7,3.5-2.3,5.3c-0.5,1.7-0.9,3.5-1,5.3
			c-0.1,0.8-0.1,1.7-0.1,2.5c0,0.9,0,1.9,0.1,2.8c0.2,1.8,0.7,3.6,1.4,5.3c0.7,1.8,1.8,3.4,3.1,4.8c0.2,0.2,0.4,0.4,0.6,0.5
			c3.9,3.3,9.2,4.5,14.1,3.1c1.3-0.3,2.7-0.8,3.9-1.4c0.4-0.2,0.8-0.4,1.2-0.6c0.4-0.2,0.8-0.4,1.2-0.6c3.4-2.1,6.6-4.5,9.4-7.4
			c4.7-4.7,9-9.8,12.9-15.2c0.6-0.8,1.1-1.6,1.7-2.4c2.8-4,5.1-8.3,6.9-12.8c6.3,3.6,11.6,8.9,15.2,15.3c1.3,2.2,2.3,4.4,3.2,6.8
			c0.1,0.3,0.3,0.7,0.4,1c0.3,0.7,0.5,1.5,0.7,2.2c1.4,4.5,2.1,9.1,2.1,13.7c0,1.4,0,2.9-0.2,4.3c0,0.4-0.1,0.8-0.1,1.2
			c-0.5,4.6-1.6,9.1-3.4,13.3c-0.2,0.6-0.5,1.2-0.8,1.7c-4.7,9.9-12.2,18.2-21.5,24c-4.8,3-10,5.4-15.4,7c-1.6,0.5-0.9,3.1,0.7,2.6
			c17.3-5.2,32.6-18,39.5-34.7c2-4.8,3.2-9.9,3.6-15c0-0.2,0-0.3,0-0.5c0-0.5,0.1-0.9,0.1-1.4
			C1475.9,970.9,1475.8,969.5,1475.8,968.1z M1441.2,943.6c-3.8,5.3-8,10.4-12.6,15c-2.1,2.2-4.4,4.1-6.8,5.9
			c-0.4,0.3-0.7,0.5-1.1,0.8c-0.4,0.2-0.8,0.5-1.1,0.7c-2.1,1.3-4.4,2.2-6.9,2.7c-3.1,0.6-6.4,0.1-9.1-1.6c-1.8-1.1-3.2-2.7-4.2-4.5
			c-0.1-0.2-0.2-0.3-0.2-0.5c-0.7-1.5-1.2-3.2-1.4-4.9c-0.2-1.8-0.2-3.6,0-5.3c0.2-1.5,0.5-3,0.9-4.4c0.1-0.3,0.2-0.6,0.3-0.9
			c0.7-1.9,1.6-3.7,2.6-5.3c2.9-4.3,6.9-7.9,11.5-10.4c0.3-0.2,0.5-0.3,0.8-0.4c0.3-0.1,0.5-0.3,0.8-0.4c2-1,4-1.8,6.1-2.4
			c9.3-2.8,19.3-2.2,28.2,1.8C1447.1,934.4,1444.4,939.2,1441.2,943.6z"/>
		<circle class="st36" cx="1334.1" cy="590" r="40"/>
		<path class="st37" d="M1334.1,549.1c-22.6,0-40.9,18.3-40.9,40.9s18.3,40.9,40.9,40.9c14.4,0,27.8-7.6,35.2-20
			c0.5-0.8,0.9-1.5,1.3-2.3c10.2-20.1,2.2-44.8-17.9-55C1346.9,550.6,1340.5,549.1,1334.1,549.1L1334.1,549.1z M1334.1,629.1
			c-21.6,0-39.2-17.5-39.2-39.1s17.5-39.2,39.1-39.2s39.2,17.5,39.2,39.1c0,6.3-1.5,12.5-4.4,18.1c-0.4,0.8-0.9,1.6-1.3,2.3
			C1360.4,622,1347.8,629.1,1334.1,629.1z"/>
		<path class="st12" d="M1353.6,582h-39.1c-1.5,0-2.7-1.2-2.7-2.7l0,0c0-1.5,1.2-2.7,2.7-2.7h39.1c1.5,0,2.7,1.2,2.7,2.7l0,0
			C1356.3,580.8,1355.1,582,1353.6,582z"/>
		<path class="st12" d="M1353.6,592.7h-39.1c-1.5,0-2.7-1.2-2.7-2.7l0,0c0-1.5,1.2-2.7,2.7-2.7h39.1c1.5,0,2.7,1.2,2.7,2.7l0,0
			C1356.3,591.5,1355.1,592.7,1353.6,592.7z"/>
		<path class="st12" d="M1353.6,603.3h-39.1c-1.5,0-2.7-1.2-2.7-2.7l0,0c0-1.5,1.2-2.7,2.7-2.7h39.1c1.5,0,2.7,1.2,2.7,2.7l0,0
			C1356.3,602.1,1355.1,603.3,1353.6,603.3z"/>
		<circle class="st35" cx="1366.1" cy="795.4" r="40"/>
		<path class="st38" d="M1369,754.6c-0.9-0.1-1.8-0.1-2.8-0.1h-0.1c-22.6,0-40.9,18.3-40.9,40.9s18.3,40.9,40.9,40.9
			c5.3,0,10.6-1,15.5-3.1c0.9-0.4,1.7-0.7,2.5-1.1c20.3-10,28.6-34.5,18.7-54.8C1396.4,764.3,1383.5,755.6,1369,754.6z
			 M1366.1,834.5c-21.6,0-39.1-17.5-39.1-39.1c0-21.5,17.3-38.9,38.7-39.1h0.4c0.8,0,1.6,0,2.4,0.1c21.6,1.3,38,19.8,36.7,41.4
			c-0.9,14.2-9.4,26.8-22.2,33c-0.8,0.4-1.7,0.8-2.5,1.1C1375.8,833.6,1371,834.5,1366.1,834.5z"/>
		<path class="st12" d="M1385.8,787.4h-39.1c-1.5,0-2.7-1.2-2.7-2.7l0,0c0-1.5,1.2-2.7,2.7-2.7h39.1c1.5,0,2.7,1.2,2.7,2.7l0,0
			C1388.3,786.2,1387.1,787.4,1385.8,787.4z"/>
		<path class="st12" d="M1385.8,798.1h-39.1c-1.5,0-2.7-1.2-2.7-2.7l0,0c0-1.5,1.2-2.7,2.7-2.7h39.1c1.5,0,2.7,1.2,2.7,2.7l0,0
			C1388.3,796.9,1387.1,798.1,1385.8,798.1z"/>
		<path class="st12" d="M1385.8,808.7h-39.1c-1.5,0-2.7-1.2-2.7-2.7l0,0c0-1.5,1.2-2.7,2.7-2.7h39.1c1.5,0,2.7,1.2,2.7,2.7l0,0
			C1388.3,807.5,1387.1,808.7,1385.8,808.7z"/>
		<circle class="st39" cx="1382.1" cy="954.6" r="40"/>
		<path class="st38" d="M1414.8,930c-0.5-0.7-1.1-1.4-1.6-2c-14.7-17.1-40.5-19.1-57.7-4.4s-19.1,40.5-4.4,57.7
			c14.7,17.1,40.5,19.1,57.7,4.4c5.4-4.6,9.5-10.5,11.9-17.2c0.5-1.3,0.9-2.6,1.2-3.9C1424.8,952.6,1422.2,939.9,1414.8,930z
			 M1382.1,993.7c-21.6,0-39.1-17.5-39.1-39.1s17.5-39.1,39.1-39.1c11.3,0,22,4.9,29.5,13.4c0.6,0.7,1.1,1.3,1.7,2
			c7.6,10,10,23.1,6.3,35.1c-0.4,1.2-0.8,2.5-1.3,3.7C1412.1,984.2,1397.9,993.7,1382.1,993.7z"/>
		<path class="st35" d="M1401.8,946.6h-39.1c-1.5,0-2.7-1.2-2.7-2.7l0,0c0-1.5,1.2-2.7,2.7-2.7h39.1c1.5,0,2.7,1.2,2.7,2.7l0,0
			C1404.3,945.4,1403.1,946.6,1401.8,946.6z"/>
		<path class="st35" d="M1401.8,957.2h-39.1c-1.5,0-2.7-1.2-2.7-2.7l0,0c0-1.5,1.2-2.7,2.7-2.7h39.1c1.5,0,2.7,1.2,2.7,2.7l0,0
			C1404.3,956,1403.1,957.2,1401.8,957.2z"/>
		<path class="st35" d="M1401.8,967.9h-39.1c-1.5,0-2.7-1.2-2.7-2.7l0,0c0-1.5,1.2-2.7,2.7-2.7h39.1c1.5,0,2.7,1.2,2.7,2.7l0,0
			C1404.3,966.7,1403.1,967.9,1401.8,967.9z"/>
		<circle class="st40" cx="1431.9" cy="672.7" r="40"/>
		<path class="st41" d="M1431.9,631.8c-2.1,0-4.1,0.2-6.1,0.5c-1,0.2-2.1,0.3-3.1,0.6c-22,5.1-35.7,27-30.7,49
			c2,8.6,6.6,16.2,13.3,21.9c0.7,0.6,1.4,1.1,2.1,1.7c18.1,13.5,43.7,9.8,57.2-8.3s9.8-43.7-8.3-57.2
			C1449.3,634.6,1440.8,631.8,1431.9,631.8L1431.9,631.8z M1431.9,711.8c-8.3,0-16.4-2.6-23.1-7.6c-0.7-0.5-1.4-1.1-2.1-1.7
			c-16.5-13.9-18.6-38.6-4.7-55.1c5.7-6.7,13.5-11.4,22.1-13.1c1-0.2,2-0.4,3-0.5c1.6-0.2,3.2-0.3,4.8-0.3
			c21.6,0,39.1,17.5,39.1,39.1S1453.5,711.8,1431.9,711.8L1431.9,711.8z"/>
		<path class="st29" d="M1451.5,664.7h-39.1c-1.5,0-2.7-1.2-2.7-2.7l0,0c0-1.5,1.2-2.7,2.7-2.7h39.1c1.5,0,2.7,1.2,2.7,2.7l0,0
			C1454.1,663.5,1452.9,664.7,1451.5,664.7z"/>
		<path class="st29" d="M1451.5,675.4h-39.1c-1.5,0-2.7-1.2-2.7-2.7l0,0c0-1.5,1.2-2.7,2.7-2.7h39.1c1.5,0,2.7,1.2,2.7,2.7l0,0
			C1454.1,674.2,1452.9,675.4,1451.5,675.4z"/>
		<path class="st29" d="M1451.5,686h-39.1c-1.5,0-2.7-1.2-2.7-2.7l0,0c0-1.5,1.2-2.7,2.7-2.7h39.1c1.5,0,2.7,1.2,2.7,2.7l0,0
			C1454.1,684.8,1452.9,686,1451.5,686z"/>
		<polygon class="st42" points="1662.5,1011.1 1652.2,1007.4 1661.6,966.1 1676.8,971.5 		"/>
		<path class="st43" d="M1663.8,1007.7l-10.7-3.8l-6.9-2.5c-7.1-2.6-14.9,1.1-17.5,8.2l0,0l-0.2,0.4l33.1,11.9l4.8-13.3
			L1663.8,1007.7z"/>
		<polygon class="st42" points="1825.8,996.5 1816.4,1002 1790.6,968.3 1804.5,960.2 		"/>
		<path class="st43" d="M1826.4,992l-2.4,1.4l-9.8,5.7l-6.3,3.7c-6.5,3.8-8.7,12.2-4.9,18.7l0,0l0.2,0.4l30.3-17.8L1826.4,992z"/>
		<circle class="st42" cx="1725" cy="639.2" r="21.8"/>
		<path class="st44" d="M1733.5,668.8l-4.6,1.3l-16,11.5l-17.4,20.4c0,0-6.2,11.7-3.9,24.9c2.3,13.2,7.5,40.8,7.5,40.8
			s42.5-0.3,44-2.6c1.6-2.3,2.1-13,2.1-13l6.2-69.3c0,0-7-11.7-10.9-11.7C1738,671.1,1735.5,670.3,1733.5,668.8z"/>
		<path class="st45" d="M1744,764.3c0,0-8.2,0.4-13.6,2c-5.5,1.6-32.8,0-32.8,0l-14.7,58.4l-28.7,164.6l22.2,4.4l39.1-119.2
			l19.6,37.3l61.4,67.6l16.9-10.7l-50.7-80l-11.3-61c0,0,10.1-34.3-3.9-55.3L1744,764.3z"/>
		<polygon class="st46" points="1728.5,708.8 1720.8,766.5 1712.6,766.9 		"/>
		<ellipse class="st8" cx="1696.9" cy="767.8" rx="4.4" ry="5.3"/>
		<path class="st42" d="M1719.1,841.4c3.5-3.5,3.5-9.1,0-12.6c-0.4-0.4-0.8-0.7-1.2-1l8.7-30.6l-15.7,5l-5.8,28.3
			c-2.6,4.2-1.2,9.8,3,12.3C1711.6,845,1716.2,844.4,1719.1,841.4L1719.1,841.4z"/>
		<path class="st44" d="M1736.6,673.1c0,0,10.5-4.5,16.9,6.9s-2.8,51.2-4.1,57.6c-1.3,6.5-29.3,88-29.3,88l-15.1-5.3L1736.6,673.1z"
			/>
		<path class="st47" d="M1752.1,603.5c1.9,2.8,2,6.5,0.3,9.5c-2.1-3.8-6.9-5.1-10.7-3c-3,1.7-4.5,5.1-3.9,8.4
			c-10.6-4.6-15.8-7.1-26.8-3.5c-2.5,0.7-4.9,1.9-7,3.3c-4.7,3.5-7,9.3-6.2,15.1c6.7-0.5,6.3,0.7,13,0.2l-0.3-0.7
			c5.5,10,4.6,22.3-2.3,31.4c-1,1.1-1.8,2.3-2.5,3.6s-0.6,2.9,0.2,4.2c0.7,0.7,1.5,1.2,2.4,1.5c8.4,2.8,17.5-1.7,20.4-10.1
			c0.1-0.2,0.1-0.5,0.2-0.7c-0.2,3.5,0,7.6,3,9.5c1.7,1.1,3.8,1,5.8,0.9c5.3-0.2,10.5-0.5,15.8-0.7c-2-1.1-2.7-3.7-2.5-6
			s1.3-4.4,2.1-6.5c4.7-11.8,1.1-24.4-5.4-35.3c5,0.2,12.2-5.3,12.7-10.3C1760.6,609.2,1757.1,604.5,1752.1,603.5z"/>
		<rect x="1240.3" y="1022.1" class="st48" width="646.2" height="2"/>
		<path class="st35" d="M1277.5,716.9c2.6-0.8,4.6-2.8,5.4-5.4c0.2-0.7,1.2-0.3,1,0.4c-0.9,2.8-3.1,5.1-5.9,6
			c-0.3,0.1-0.6,0-0.7-0.3C1277.1,717.4,1277.2,717.1,1277.5,716.9L1277.5,716.9z"/>
	</g>
	<g>
		<path class="st49" d="M1103.6,1068.8l-0.2-1.2c-6.5-43.9,6.7-88.5,35.9-121.9c8.2-9.2,17.5-17.3,27.7-24.2l0.9-0.6l0.5,1.6
			c1.5,4.2,6.1,6.4,10.3,4.9c3-1.1,5.1-3.8,5.4-7l0.7-9.3l1.1-0.5c10.5-5.2,23.1-3.5,31.8,4.3c9,7.7,12.5,20.2,8.6,31.5
			c-1.7,5.1-3.3,10.3-4.8,15.4c-5.3,17.4-10.7,35.4-20.6,50.4c-15.3,22.9-40.3,37.6-67.8,39.9L1103.6,1068.8z"/>
		<g>
			<g>
				<g>
					<path class="st50" d="M1113.2,1046.7c0.3-9.8,4.5-19.3,11.3-26.3c3.5-3.7,7.8-6.5,12.4-8.5c5-2.2,10.2-3.5,15.4-5
						c4.9-1.4,9.9-3,14.4-5.5c3.8-2.1,7.1-4.8,10-7.9c5.8-6.1,10.1-13.4,14.9-20.3c5.2-7.6,11.2-15.1,20-18.9
						c0.9-0.4,0.1-1.2-0.6-0.9c-16,6.8-22.6,24.7-33.2,37.2c-2.8,3.2-5.8,6.2-9.4,8.5c-4.6,3-9.8,4.8-15.1,6.3
						c-5.2,1.5-10.4,2.8-15.4,4.8c-4.7,1.9-9,4.5-12.8,7.9c-7.9,7.3-12.9,17.7-13.3,28.5C1111.8,1047.5,1113.1,1047.3,1113.2,1046.7
						L1113.2,1046.7z"/>
				</g>
			</g>
			<g>
				<g>
					<path class="st50" d="M1148.6,1005.1c-1.8-4.5,1.9-8.5,3.2-12.6c1.3-4.4-0.1-9-1.5-13.2c-0.1-0.4-1.6,0.1-1.4,0.4
						c1.4,4.4,2.9,9.3,1.2,13.9c-1.4,3.8-4.7,7.6-2.9,11.9C1147.3,1005.9,1148.8,1005.4,1148.6,1005.1L1148.6,1005.1z"/>
				</g>
			</g>
			<g>
				<g>
					<path class="st50" d="M1172.5,998.7c3.6,0,7.2,0.1,10.7,0.1c2.4,0,5.6,0.4,7.3-1.8c0.6-0.7-0.8-1-1.2-0.5c-0.8,1-2,1.1-3.1,1.2
						c-1.4,0.1-2.8,0-4.2,0c-3.1,0-6.2-0.1-9.4-0.1C1171.8,997.6,1171.5,998.7,1172.5,998.7L1172.5,998.7z"/>
				</g>
			</g>
			<g>
				<g>
					<path class="st50" d="M1187.9,978.8c-1.5-6.8-3.3-13.5-5.4-20.1c-0.1-0.3-1.5,0.1-1.4,0.4c2.1,6.6,3.9,13.3,5.4,20.1
						C1186.5,979.5,1188,979.1,1187.9,978.8L1187.9,978.8z"/>
				</g>
			</g>
			<g>
				<g>
					<path class="st50" d="M1194.8,967.3c4.1,0.5,8.2,0.2,12.2-0.7c-0.3,0-0.5,0-0.8-0.1c0.4,0.6,0.9,1.1,1.3,1.7
						c0.3,0.4,1.7-0.1,1.3-0.6c-0.4-0.6-0.9-1.1-1.3-1.7c-0.1-0.2-0.6-0.1-0.8-0.1c-3.6,0.8-7.4,1-11.1,0.6c-0.3,0-0.8,0-1,0.3
						C1194.4,967,1194.4,967.2,1194.8,967.3L1194.8,967.3z"/>
				</g>
			</g>
			<g>
				<g>
					<path class="st50" d="M1132.8,1015.5c5.6-1,10.6,2.4,15.8,3.8c2.5,0.7,5.1,0.7,7.7,0.6c3.1-0.2,6.2-0.5,9.2,0.8
						c0.4,0.2,1.8-0.5,1.1-0.7c-2.5-1.1-5.2-1.1-7.9-1c-3.2,0.2-6.4,0.4-9.5-0.5c-5.3-1.5-10.4-4.7-16.1-3.7
						C1132.2,1014.8,1131.8,1015.7,1132.8,1015.5L1132.8,1015.5z"/>
				</g>
			</g>
		</g>
		<path class="st51" d="M984.1,616.5c-2.5-3.8-5.2-7.8-9.4-9.5s-10.2,0.3-10.7,4.8c-0.4,3.4,2.1,6.2,4.1,9c1.9,2.8,3.2,7,0.7,9.2
			l-1.4,0.7c2.7,3.6,7,5.6,11.5,5.5c4.5-0.2,8.4-3.5,9.4-7.9C988.9,624.2,986.5,620.1,984.1,616.5z"/>
		<path class="st52" d="M769.5,711.8c1.1,6.7,7.5,11.3,14.2,10.2c0.7-0.1,1.4-0.3,2.1-0.5l28.1,33l7-21.8l-27.8-27.9
			c-2.7-6.3-10-9.2-16.4-6.5C771.6,700.6,768.6,706.2,769.5,711.8z"/>
		<path d="M882.8,703.6c0,0,14.2-23.6,27.6-16.9s3.1,30.1,3.1,30.1l-62.6,72.5c0,0-69.6-58.1-60.3-57.3s14.1-15.6,14.1-15.6l37.5,25
			l2.3-6.9l1.9,2.4l6.2-3.7L882.8,703.6z"/>
		<path class="st53" d="M1160.3,872l-47.9-21.1v-18.2l17.1-0.1c5.4,0,10.2-3.5,11.9-8.7l12-22.4c2.2-6.6-1.4-13.8-8-16
			c-1.3-0.4-2.6-0.7-4-0.7l-29,10.2v-16.9h36.4c5.9,0,11-4.1,12.3-9.8l8.3-35.9c1.6-6.8-2.7-13.6-9.5-15.2c-0.9-0.2-1.9-0.3-2.8-0.3
			h-44.6v-4.2c0-4.7-3.8-8.4-8.4-8.4c-4.7,0-8.4,3.8-8.4,8.4v4.2H796.4v-4.2c0-4.7-3.8-8.4-8.5-8.4s-8.4,3.8-8.4,8.4v4.2H744
			c-7,0-12.7,5.7-12.7,12.7c0,1,0.1,1.9,0.3,2.8l8.3,35.9c1.3,5.8,6.4,9.8,12.3,9.8h27.2V795l-19.8-10.2c-7,0-12.7,5.7-12.7,12.7
			c0,1.3,0.2,2.6,0.6,3.9l12.2,24.4c1.7,5.3,6.6,8.8,12.1,8.8h7.5v16.3L740.8,872c-7,0-12.7,5.7-12.7,12.7l0,0l0,0
			c0,7,5.7,12.7,12.7,12.7h38.7v164.2c0,4.7,3.8,8.4,8.5,8.4s8.4-3.8,8.4-8.4V897.3h299.1v165.8c0,4.7,3.8,8.4,8.5,8.4
			s8.4-3.8,8.4-8.4V897.3h47.9c7,0,12.7-5.7,12.7-12.7l0,0C1173,877.6,1167.3,872,1160.3,872L1160.3,872z M796.4,778.2h299.1V795
			H796.4V778.2z M796.4,850.8v-16.4l299.1-1.7v18.1L796.4,850.8z"/>
		<path class="st51" d="M908.8,626.7c4.4-10.1,13.2-17.6,23.8-20.3c11.7-3,28.8,1.6,37.6,8.2c16.1,12.2,20,53.9,8.9,67.1
			c-2.2-0.1-9.8-0.2-12-0.2l-3.1-8v7.9c-17.3-0.4-35.4-0.2-53.5,0.1C908.9,672.3,905.1,635.7,908.8,626.7z"/>
		<circle class="st52" cx="932.9" cy="646.7" r="25"/>
		<path class="st51" d="M915.7,614c14.8-9,34.2-4.3,43.2,10.5c3.1,5.1,4.7,11,4.6,17c-13.7,3.5-28.2,4.9-43.6,0.8l-3.5-8.6l-2.1,8.6
			c-4.7,3.3-9.3,3.3-13.7,0C900.3,630.9,906,620.1,915.7,614z"/>
		<polygon class="st52" points="832,1038.6 818,1034.5 827.1,978.3 847.8,984.3 		"/>
		<path d="M830.6,1067.2l-10-2.9l1-9.9l-7.3,8.1l-26.5-7.7c-3.3-1-5.2-4.4-4.2-7.7c0.6-2,2.1-3.5,4-4.2l25.4-8.5l2.8-9.5l21.9,7.8
			L830.6,1067.2z"/>
		<polygon class="st52" points="1005.1,1033.5 991.2,1038 967.2,986.4 987.7,979.7 		"/>
		<path d="M1019.9,1058l-9.9,3.2l-4.8-8.8l-1.5,10.8l-26.2,8.5c-3.3,1.1-6.8-0.7-7.8-4c-0.6-1.9-0.3-4.1,1-5.7l16.3-21.2l-3.1-9.4
			l22.5-5.8L1019.9,1058z"/>
		<path class="st54" d="M914.2,882.9l-8.6,37.2l64.5,81.9l24.7-12.6c-19.2-42.8-20.9-47.9-41.5-66.4l0.2-0.3
			c14.8-22.3,30.8-43.7,32.9-70.4c0.1-0.7-3.2-27.4-3.2-28.2c1.8-17.5-84.3-23-84.3-23s-14.6,25.8-36.4,45.6l-44.1,43.7l1.2,120.3
			l20.7,5c15.2-29,22.7-63.1,24.8-100.5l38.3-25.7L914.2,882.9z"/>
		<linearGradient id="SVGID_1_" gradientUnits="userSpaceOnUse" x1="881.0499" y1="817.8358" x2="984.0499" y2="817.8358">
			<stop  offset="0" style="stop-color:#FFFFFF"/>
			<stop  offset="3.916889e-03" style="stop-color:#F0F0F9"/>
			<stop  offset="1.832750e-02" style="stop-color:#BEBEE5"/>
			<stop  offset="3.382906e-02" style="stop-color:#9191D3"/>
			<stop  offset="5.007343e-02" style="stop-color:#6A6AC3"/>
			<stop  offset="6.722533e-02" style="stop-color:#4949B6"/>
			<stop  offset="8.557014e-02" style="stop-color:#2E2EAC"/>
			<stop  offset="0.1055" style="stop-color:#1A1AA3"/>
			<stop  offset="0.128" style="stop-color:#0B0B9D"/>
			<stop  offset="0.1548" style="stop-color:#03039A"/>
			<stop  offset="0.1981" style="stop-color:#000099"/>
			<stop  offset="0.6629" style="stop-color:#000000"/>
		</linearGradient>
		<path class="st55" d="M984,831.7c-71.2,6.7-94.1,0.8-103-5.2c11.1-13.7,17.9-25.5,17.9-25.5s86.2,5.5,84.3,23
			C983.1,824.2,983.5,827.5,984,831.7z"/>
		<path class="st52" d="M978,892.4c-4.2-4.7-3.8-11.9,0.9-16.1c0.5-0.4,1-0.9,1.6-1.2l-1.5-7.3l-17-85.2l19.7,7.5l12.9,76.9
			l2.1,12.5c3,5.6,0.9,12.6-4.7,15.5C987.3,897.4,981.5,896.3,978,892.4L978,892.4z"/>
		<path d="M956,698.7l12.9-8.8c0,0,11-0.2,12,19.7c0.9,19.9,3,58.7,3,58.7l14.5,89.3l-26.7,4.4l-15.5-96.3l-10.8-28.9L956,698.7z"/>
		<polygon class="st56" points="908.6,750.2 904.9,759.7 905.7,769.3 977.6,794.2 974.1,752.4 966,742.8 		"/>
		<path d="M885.8,820.4l2.3-23.4c0.5-2,2.2-3.4,4.2-3.5c1-11.2,5.1-59.3,5.3-61.4V732l1.9-39.9c0.1-3,2.5-5.4,5.5-5.6l9.9-0.6
			c0.3,0,0.5-0.2,0.5-0.5c0-4.6,3.7-8.3,8.3-8.3l0,0h29.2c3.9,0,7.2,2.9,7.7,6.8c0,0.3,0.3,0.5,0.5,0.5l0,0
			c6.9-0.1,12.8,4.7,14,11.5c4,23.2,12,76,8,105.3c-1.4,10.2,1.6,2.1,2.1,10.7c0.1,1.7-0.5,3.3-1.6,4.6c2.3,0.8,3.5,3.4,2.7,5.8
			l0.5-0.1c-0.6,2.5-3.2,4-5.7,3.4l0,0l-85.5-7.7C893.3,816.9,885.2,822.9,885.8,820.4z"/>
		<path class="st23" d="M1321.5,1070.9c0,1.1-0.9,2-2,2l0,0l-106.9,0.1h-26.7h-17.6h-19.4h-10.6h-29.5l-463.9,0.2h-3.5l-207.5,0.1
			h-3.4l-176.6,0.1h-3.4h-55.1c-1.1,0-2-0.9-2-2s0.9-2,2-2h55.7h3.4l176.6-0.1h3.4l205.9-0.1h3.5l175.4-0.1h2.3l284-0.2h29.4h13.5
			h21.3h18.2h28.6l102.9-0.1C1320.6,1068.8,1321.5,1069.7,1321.5,1070.9L1321.5,1070.9z"/>
		<path class="st57" d="M917,683.7c2.3,9.6,10.5,16.5,19.9,17c10.5,0.5,20.2-7.2,22.3-18.1"/>
		<path class="st58" d="M979,867.7c0.8,0.5,4.5,3.1,9.4,2.2c3.2-0.6,5.3-2.3,6.2-3.1"/>
		<path class="st59" d="M920.3,683.7c1.9,9.6,8.8,16.5,16.7,17c8.8,0.5,17-7.2,18.8-18.1"/>
		<path class="st60" d="M920.3,683.6c1.9,8.3,8.8,14.3,16.7,14.7c8.8,0.5,17-6.2,18.8-15.7"/>
		<path class="st61" d="M920.3,683.5c1.9,7.5,8.8,13,16.7,13.4c8.8,0.4,17-5.6,18.8-14.2"/>
		<g class="st62">
			<path class="st63" d="M876.3,822.2c5.5,6.9,20.3,20.1,133.2,6.9c30.9-3.6,46.4-5.5,46.7-8.2c1.3-14-171.4-55.9-186.7-22.7
				C865,807.6,874.7,820.2,876.3,822.2z"/>
			<path class="st63" d="M914.2,882.9l-8.6,37.2l64.5,81.9l24.7-12.6c-19.2-42.8-20.9-47.9-41.5-66.4l0.2-0.3
				c14.8-22.3,30.8-43.7,32.9-70.4c0.1-0.7-3.2-27.4-3.2-28.2c1.8-17.5-84.3-23-84.3-23s-14.6,25.8-36.4,45.6l-44.1,43.7l1.2,120.3
				l20.7,5c15.2-29,22.7-63.1,24.8-100.5l38.3-25.7L914.2,882.9z"/>
		</g>
		<path class="st64" d="M1056.2,820.8c-0.3,2.7-15.7,4.6-46.7,8.2c-9.1,1.1-17.6,2-25.4,2.7c-0.5-4.2-0.9-7.5-0.8-7.8
			c1.8-17.5-84.3-23-84.3-23s-6.7,11.8-17.8,25.6c-2.3-1.5-3.7-3.1-4.8-4.4c-1.5-1.9-11.2-14.6-6.9-24
			C884.7,764.9,1057.4,806.8,1056.2,820.8z"/>
		<path class="st64" d="M994.7,989.3L970,1002l-64.4-82l8.6-37.2l-10.8,6.5L865.1,915c-2.1,37.4-9.5,71.5-24.8,100.5l-20.7-5
			l-1.2-120.3l44.1-43.7c7-6.4,13.3-13.4,18.6-20c8.9,5.9,31.8,11.9,103,5.2c0.9,8.2,2.4,19.9,2.3,20.4
			c-2.2,26.7-18.1,48.1-32.9,70.4l-0.2,0.3C973.8,941.3,975.5,946.4,994.7,989.3z"/>
		<path class="st65" d="M831.8,1061.3l-1.2,5.9l-10-2.9l0.5-5.3L831.8,1061.3z"/>
		<path class="st65" d="M1017.6,1052.3l2.4,5.7l-9.9,3.2l-2.8-5.1L1017.6,1052.3z"/>
		<path d="M1019.4,1056.7l0.5,1.2l-9.9,3.2l-0.7-1.3L1019.4,1056.7z"/>
		<path d="M830.9,1065.7l-0.3,1.4l-10-2.9l0.1-1.5L830.9,1065.7z"/>
	</g>
	<g>
		<path class="st23" d="M269.5,661.9c18.6,15.5,39.2,2.5,59.1,1.5c9.2-0.5,18.4,1.8,27.4,3.4c8.6,1.6,17.2,3.9,25,7.7
			c8.6,4.1,15.9,10.5,21.1,18.4c1,1.6,2.6,0.4,2.6-1.5c-0.1-20.6-9-18.9-18.3-17.4c-8.8,1.4-16.3-7.3-25.1-9.2
			c-9.1-1.8-18.3-3.1-27.6-3.9c-10.1-1-20.1-1.7-30.2-2c-11.3-0.4-22.7-0.4-34,0C267.6,659,267.6,662,269.5,661.9z"/>
		<path class="st66" d="M206.9,827.5c0.6,0.6,0.5,1.6-0.1,2.1s-1.5,0.5-2,0c-12.3-10.5-24.5-21-36.8-31.5l0,0
			c-0.9-0.6-1.7-1.3-2.4-2.1c-11.4-1.3-24-5.7-35.8-7.6c-10.5,1.6-20.9,3.4-31.5,4.8c-9.2,1.3-18.4,1.9-27.7,2
			c-7.5,0-5.4-19.3-12.2-22.9c-7.1-3.7-21.3,8.3-23.2,0.8c-0.9-3.8-1.5-7.7-1.8-11.7V737c1-10.6,17.9-7.3,25.9-14.8
			c12-11.1,16.1-37.2,31.6-37.5c18.4-0.4,36.8,0.4,55,2.4c14.9,1.6,30.6,3.2,44.4,9.6c5.9,2.7,11.5,18.5,15.5,23.7
			c4.6,6,7.3,13.3,7.5,20.9c0.7,16.1-6.6,30.8-10.6,46C199.4,800.3,197.4,816.3,206.9,827.5z"/>
		<path class="st23" d="M169.4,799.6c12.4,10.7,24.9,21.3,37.3,32c0.6,0.6,1.6,0.5,2.1-0.1s0.5-1.5,0-2c-9.5-11.2-7.6-27.1-4.1-40.3
			c4-15.2,11.3-29.9,10.6-46c-0.2-7.6-2.9-14.9-7.5-20.9c-4.2-5-9.5-9-15.5-11.6c-13.8-6.4-29.4-7.9-44.4-9.6
			c-18.3-2-36.6-2.8-55-2.4c-15.4,0.3-33.5,0.6-45.5,11.7c-11,10.1-12.5,26.1-12.4,40.1c0.1,8.1,0.2,16.5,2.2,24.5
			c1.8,7.5,5.8,14.8,12.9,18.5c6.8,3.6,14.9,3.6,22.5,3.6c9.3,0,18.5-0.7,27.7-2c18.3-2.4,36.5-6.3,55-7.4c4.5-0.3,9.1-0.4,13.6-0.3
			c1.9,0,1.9-3,0-3c-18-0.4-35.8,2.7-53.5,5.5c-17.1,2.7-34.6,5.3-52,3.9c-3.8-0.2-7.6-1-11-2.6c-3.4-1.6-6.2-4.1-8.3-7.3
			c-4.5-7-5.4-15.9-5.8-24.1c-0.4-7.1-0.4-14.2,0.2-21.3c0.7-6.9,2.3-13.9,5.9-19.8c8.4-13.6,25.3-19.2,39.7-16.8
			c16.2,2.7,28.7,15.7,53.5,1.1c7.8-4.6,18,1.8,26.9,3.1c6.7,0.9,13.3,2.4,19.7,4.5c6.2,1.9,11.9,4.9,16.9,9
			c5.3,4.4,8.9,10.5,10.4,17.2c3.4,15.5-3.4,30.9-7.9,45.4c-4,12.9-7.5,28-2,41c1.3,3,3,5.8,5.1,8.3l2.1-2.1
			c-12.4-10.7-24.9-21.3-37.3-32C170.1,796.3,168,798.4,169.4,799.6z"/>
		<path class="st23" d="M116.5,729.8H71.2c-0.9,0-1.6-0.7-1.6-1.6s0.7-1.6,1.6-1.6l0,0h45.2c0.9,0,1.6,0.7,1.6,1.6
			S117.3,729.8,116.5,729.8z"/>
		<path class="st23" d="M116.5,763.2H71.2c-0.9,0-1.6-0.7-1.6-1.6s0.7-1.6,1.6-1.6l0,0h45.2c0.9,0,1.6,0.7,1.6,1.6
			S117.3,763.2,116.5,763.2z"/>
		<path class="st23" d="M153.2,746.5h-82c-0.9,0-1.6-0.7-1.6-1.6s0.7-1.6,1.6-1.6l0,0h81.9c0.9,0,1.6,0.7,1.6,1.6
			C154.8,745.8,154.1,746.5,153.2,746.5z"/>
		<path class="st67" d="M256.9,903.5c0.6,0.6,0.5,1.6-0.1,2.1s-1.5,0.5-2,0c-12.3-10.5-24.5-21-36.8-31.5l0,0
			c-0.9-0.6-1.7-1.3-2.4-2.1c-11.4-1.3-24-5.7-35.8-7.6c-10.5,1.6-22.9,13.4-33.5,14.8c-9.2,1.3-18.4,1.9-27.7,2
			c-7.5,0-5.4-24.3-12.2-27.9c-7.1-3.7-19.3,3.3-21.2-4.2c-0.9-3.8-5.5-7.7-5.8-11.7V813c1-10.6,8-21.1,16-28.5
			c12-11.1,30.1-11.4,45.5-11.7c18.4-0.4,36.8,0.4,55,2.4c14.9,1.6,30.6,3.2,44.4,9.6c6,2.6,11.3,6.6,15.5,11.7
			c4.6,6,7.3,13.3,7.5,20.9c0.7,16.1-6.6,30.8-10.6,46C249.4,876.3,247.4,892.3,256.9,903.5z"/>
		<path class="st23" d="M219.4,875.6c12.4,10.7,24.9,21.3,37.3,32c0.6,0.6,1.6,0.5,2.1-0.1s0.5-1.5,0-2c-9.5-11.2-7.6-27.1-4.1-40.3
			c4-15.2,11.3-29.9,10.6-46c-0.2-7.6-2.9-14.9-7.5-20.9c-4.2-5-9.5-9-15.5-11.6c-13.8-6.4-29.4-7.9-44.4-9.6
			c-18.3-2-36.6-2.8-55-2.4c-15.4,0.3-33.5,0.6-45.5,11.7c-11,10.1-12.5,26.1-12.4,40.1c0.1,8.1,0.2,16.5,2.2,24.5
			c1.8,7.5,5.8,14.8,12.9,18.5c6.8,3.6,14.9,3.6,22.5,3.6c9.3,0,18.5-0.7,27.7-2c18.3-2.4,36.5-6.3,55-7.4c4.5-0.3,9.1-0.4,13.6-0.3
			c1.9,0,1.9-3,0-3c-18-0.4-35.8,2.7-53.5,5.5c-17.1,2.7-34.6,5.3-52,3.9c-3.8-0.2-7.6-1-11-2.6s-6.2-4.1-8.3-7.3
			c-4.5-7-5.4-15.9-5.8-24.1c-0.4-7.1-0.4-14.2,0.2-21.3c0.7-6.9,2.3-13.9,5.9-19.8c8.4-13.6,27.4-24.7,39.7-16.8
			c14,9.1,32,9.5,53.5,1.1c8.4-3.3,18,1.8,26.9,3.1c6.7,0.9,13.3,2.4,19.7,4.5c6.2,1.9,11.9,4.9,16.9,9c5.3,4.4,8.9,10.5,10.4,17.2
			c3.4,15.5-3.4,30.9-7.9,45.4c-4,12.9-7.5,28-2,41c1.3,3,3,5.8,5.1,8.3l2.1-2.1c-12.4-10.7-24.9-21.3-37.3-32
			C220.1,872.3,218,874.4,219.4,875.6z"/>
		<path class="st29" d="M166.5,805.8h-45.3c-0.9,0-1.6-0.7-1.6-1.6s0.7-1.6,1.6-1.6l0,0h45.2c0.9,0,1.6,0.7,1.6,1.6
			S167.3,805.8,166.5,805.8z"/>
		<path class="st29" d="M166.5,839.2h-45.3c-0.9,0-1.6-0.7-1.6-1.6s0.7-1.6,1.6-1.6l0,0h45.2c0.9,0,1.6,0.7,1.6,1.6
			S167.3,839.2,166.5,839.2z"/>
		<path class="st29" d="M203.2,822.5h-82c-0.9,0-1.6-0.7-1.6-1.6s0.7-1.6,1.6-1.6l0,0h81.9c0.9,0,1.6,0.7,1.6,1.6
			C204.8,821.8,204.1,822.5,203.2,822.5z"/>
		<path class="st68" d="M503.4,959H377.1c-2.4,0-4.4-2-4.4-4.4s2-4.4,4.4-4.4h126.4c2.4,0,4.4,2,4.4,4.4S505.8,959,503.4,959z"/>
		<path class="st69" d="M503.4,1052.2H377.1c-2.4,0-4.4-2-4.4-4.4s2-4.4,4.4-4.4h126.4c2.4,0,4.4,2,4.4,4.4
			C507.8,1050.2,505.8,1052.2,503.4,1052.2z"/>
		<path class="st70" d="M606.1,1005.6h-229c-2.4,0-4.4-2-4.4-4.4s2-4.4,4.4-4.4h229c2.4,0,4.4,2,4.4,4.4S608.5,1005.6,606.1,1005.6z
			"/>
		<polygon class="st71" points="305.7,1000.7 312.9,1007.4 343,982.4 332.4,972.4 		"/>
		<path class="st8" d="M318.8,1029.9l-4-18.6l4.8-5.1l-2.6-2.2l-8.1-6.7l-2-1.7l-18.6,16.7l5.4,5.1l5.7-4.2l-2.3,7.4l14.3,13.4
			c1.8,1.7,4.6,1.6,6.2-0.2C318.7,1032.8,319.1,1031.3,318.8,1029.9L318.8,1029.9z"/>
		<polygon class="st71" points="270.7,1026.8 280.5,1028.3 291,990.6 276.6,988.4 		"/>
		<path class="st8" d="M298.1,1043.4l-13.9-13l1.1-7l-3.4-0.3l-10.5-1l-2.6-0.2l-5.8,24.3l7.3,1.1l2.4-6.7l2.3,7.4l19.4,2.9
			c2.4,0.4,4.7-1.3,5-3.7C299.6,1045.9,299.1,1044.4,298.1,1043.4z"/>
		<path class="st72" d="M364.5,758.8l28,50.1c0,0-1.2,103,2.5,106.8s7.1,7.2,3.7,7.2s-2.3,24.3-2.3,24.3l-62,48l-15-12l37.6-46.4
			l-20.8-95.1c0,0-14.9,89.9-17.6,92.6s-4.3,2.7-1.5,5.4c2.8,2.7,0,8.8,0,8.8l-29.5,61.2l-16-2c0,0,2.8-50,12.4-71.4V834.8
			c-0.7,8.7,33.3-79.3,12.5-72.7C303.2,760,364.5,758.8,364.5,758.8z"/>
		<path class="st73" d="M351.7,639.5h-23.1l-3.3,13.1l-17.8,4.9c0,0-8.8,58.3-1.4,63s2.2,19.4,2.2,19.4s-18.4,19.9-16.2,22.8
			c2.2,2.9,6.7-1.5,1.5,3.6c-5.2,5.1-8.1,4.4-6.6,5.9c0.9,0.9,1.6,2,2.1,3.3l-6.3,16.5c0,0,33.7,6.7,50.6-2.9
			c16.9-9.6,54.4,8.8,54.4,8.8s-1.9-9.7-3.5-11.1c-1.6-1.4-5.4,2.2-2.7-2.6c2.6-4.7,4.8-2.5,2.6-4.7c-2.2-2.2-11.8-31.6-11.8-31.6
			s-7.4-16.2,0.7-22.8s11.2-28.3,11.2-28.3l-9.7-39.4l-16.2-3.6L351.7,639.5z"/>
		<path class="st71" d="M260.2,789.8l5.6-22.2l-12.3-4.9l-5,23.7c-3.4,2.5-4.1,7.3-1.6,10.7s7.3,4.1,10.7,1.6
			C260.3,796.6,261.4,793,260.2,789.8L260.2,789.8z"/>
		<path class="st73" d="M314.1,656l-0.4-0.1c-6.9-1.2-14,1.1-18.9,6.1c-6.3,6.5-34.3,54.5-33.3,62.6c0.9,7.5,1.3,5.8-2.1,9.7
			c-3.4,3.8-4.7-2-4.8,6s3,7.9-0.2,9.8c-3.2,1.9-5.4,0.6-4.8,6c0.6,5.4-0.3,6.8-0.5,8.7s-4.8,13.9-4.8,13.9s13.7,3.7,19.2,9.2
			c0,0,0.6-13.6,3.4-14.8s5.4-0.6,4.6-4.1c-0.8-3.5-4.8-5,0.1-4.9c4.9,0.1,12.5-26,12.5-26l32.9-60L314.1,656z"/>
		<path class="st71" d="M388.3,800.8l1-22.9l13.2-1.3l-1.9,24.2c2.6,3.4,1.9,8.2-1.5,10.7c-3.4,2.6-8.2,1.9-10.7-1.5
			C386.2,807.3,386.2,803.5,388.3,800.8L388.3,800.8z"/>
		<path class="st73" d="M374.5,657.2h0.4c7,0.8,13.1,5,16.3,11.2c4.2,8,17.5,62,14.2,69.4c-3,6.9-2.9,5.2-0.7,9.9
			c2.2,4.6,5.1-0.6,2.9,7.1c-2.2,7.7-5.1,6.7-2.6,9.5s5,2.1,2.9,7.1s-1.6,6.6-2,8.5c-0.3,1.9,0.7,14.7,0.7,14.7s-14.1-0.4-21,3.3
			c0,0,3.3-13.2,0.9-15.2s-5-2.1-3.2-5.2s6-3.5,1.3-4.8c-4.8-1.3-4.6-28.5-4.6-28.5l-14.5-66.8L374.5,657.2z"/>
		<path class="st74" d="M287.6,624.1c-0.2,7.9,2.8,15.5,7,22.2c1.4-3.9,3.4-7.6,5.9-10.9c-1.2,7.4,0.1,14.9,3.6,21.4
			c0.1,0.1,0.3,0.2,0.4,0.2c3.5,2.1,7.8,2.9,11.6,1.4c-7.7-8.3-8.7-22.1-2.2-31.4c1.8-2.6,4.2-5,5.3-8c1.8-4.8,0.1-10.1-1-15.1
			c-1-4.7-1.2-10.2,1.9-13.6c-0.7-1-1.8-1.5-3-1.4c-1.9,0.3-3.3,1.9-4.2,3.7c-0.9,1.7-1.5,3.6-2.7,5.1c-2.3,2.8-6.2,3.5-9.6,4.9
			C292.5,606.3,287.8,615.3,287.6,624.1z"/>
		<path class="st74" d="M355.1,619.5c-0.5-1.6,2.7,8.2,1.2,8.4c-6.9,0.8-16.5,4.9-21.3,6.9c-0.2,0-0.4-0.1-0.6-0.1
			c-0.5-0.1-1-0.1-1.5-0.2c-11.3-2.1-15.6-19.4-15.6-19.6c0-0.8,1.9-22.1,4.8-22.5c0.8-0.1,1.5-0.1,2.3-0.1h7.3
			c1.5-0.3,3-0.5,4.6-0.7l0,0c14.7-1.1,26.3,7.8,25.2,18.7l0,0c-0.3,0.5-0.6,0.9-0.8,1.3c-0.2,0.4-0.4,0.8-0.6,1.1
			c-1.3,2.8,2.1,6.3-0.2,6.9c-3,0.9,8,29.4-4,29.4C361.6,650.9,356.4,624,355.1,619.5z"/>
		<circle class="st71" cx="342" cy="619" r="17.3"/>
		<path class="st74" d="M361.4,611.3c-0.3,0.2-0.6,0.3-0.9,0.4c-0.3,0.1-0.6,0.3-0.9,0.4c-5.8,2.6-10.5,2.9-13.4-0.9
			c-0.1-2-0.5-3.9-1.3-5.8c0.1,2-0.4,4.1-1.5,5.8h-5.8c-5.9,3.9-9,4.3-4.9,17.3c1.1,3.6,5.7,24.5,3.9,27.6c-0.5-0.1-6-23-6.5-23.1
			c-11.3-2.1-18.4-20.7-17.5-21.7c0-3,0.7-5.9,2-8.6c1.7-3.4,4.3-6.2,7.5-8.2c1.9-0.9,3.9-1.7,6-2.3c0.1,0,0.1,0,0.1,0
			c0.6-0.2,1.3-0.3,1.9-0.5c1.3-0.3,2.7-0.5,4-0.6c0.1,0,0.2,0,0.3,0c0.5,0,1.1,0.1,1.5,0.4l0,0c0.3,0.2,0.6,0.5,0.9,0.8
			c0.4,0.5,0.6,1.2,0.6,1.8h6.4c0.2,0,0.5,0,0.7,0c8.9,0.3,16,7.3,16.6,16.1C361.4,610.7,361.4,611,361.4,611.3z"/>
		
			<ellipse transform="matrix(0.9806 -0.1961 0.1961 0.9806 -110.2825 75.0349)" class="st74" cx="323.7" cy="594.4" rx="11.4" ry="11.4"/>
		<path class="st75" d="M431.8,937.3c1.3,0.1,2.3-0.9,2.4-2.2c0-0.7-0.2-1.3-0.7-1.8l-0.2-0.6c0,0,0-0.1,0.1-0.1
			c1.3-3.1,4.9-4.5,8-3.2c1.5,0.6,2.6,1.8,3.3,3.3c1.8,4.4,4.2,8.9,4.8,13.5c0.3,2.1,0.1,4.2-0.3,6.2c4.3-9.4,6.6-19.7,6.6-30
			c0-2.6-0.1-5.2-0.4-7.8c-0.2-2.1-0.6-4.2-1-6.3c-2.3-11.3-7.3-22-14.5-31c-3.5-1.9-6.3-4.8-8.1-8.4c-0.6-1.3-1.1-2.6-1.3-4.1
			c0.4,0.1,1.5-5.9,1.2-6.3c0.5-0.8,1.5-1.2,2.1-2.1c3-4,7.1-3.3,9.2,2.2c4.6,2.3,4.6,6.1,1.8,9.8c-1.8,2.3-2,5.5-3.6,8
			c0.2,0.2,0.3,0.4,0.5,0.6c3,3.8,5.5,7.9,7.7,12.2c-0.5-4.8,0.1-9.7,1.8-14.2c1.7-4.2,5-7.8,7.9-11.4c2.1-2.7,6.1-3.2,8.8-1.1
			c1.3,1,2.2,2.5,2.4,4.2c0,0.1,0,0.1,0,0.2c-0.4,0.2-0.8,0.5-1.3,0.8c-1.4,0.9-1.8,2.9-0.8,4.3c0.5,0.7,1.2,1.2,2.1,1.3h0.1
			c-0.2,1.5-0.4,3.1-0.8,4.6c3.7,14.3-4.3,19.5-15.7,19.8c-0.3,0.1-0.5,0.3-0.7,0.4c2.2,6.1,3.5,12.5,4,19c0.3,3.8,0.3,7.7-0.1,11.5
			v-0.1c0.8-4.3,3.1-8.1,6.4-10.9c4.9-4.1,11.9-5.6,17.3-8.8c1.6-1.1,3.8-0.6,4.9,1.1c0.5,0.7,0.6,1.5,0.5,2.4v0.1
			c-0.8,0.3-1.6,0.7-2.3,1.1c-0.4,0.2-0.8,0.5-1.3,0.8c-1.4,0.9-1.8,2.9-0.8,4.3c0.5,0.7,1.2,1.2,2.1,1.3h0.1h0.1
			c-1.4,3.2-3.3,6.2-5.6,8.8c-2.3,12.5-12.3,13.7-22.9,10l0,0c-1.2,5.1-2.9,10-5,14.7h-18c-0.1-0.2-0.1-0.4-0.2-0.6
			c1.7,0.1,3.3,0,5-0.3c-1.3-1.6-2.7-3.3-4-4.9l-0.1-0.1c-0.7-0.8-1.4-1.7-2-2.5l0,0C430.9,942.4,431.2,939.8,431.8,937.3
			L431.8,937.3z"/>
		<path class="st76" d="M168.5,1050.8c0,0.7,0.5,1.2,1.2,1.2l0,0H663c0.7,0,1.2-0.5,1.2-1.2s-0.5-1.2-1.2-1.2H169.7
			C169,1049.6,168.5,1050.2,168.5,1050.8L168.5,1050.8z"/>
		<path class="st77" d="M391.9,795.5c1.4,1.5-0.7,3.4-2.3,2.1c-13.5-10.5-27.1-21-40.6-31.5c0,0,0,0-0.1,0c-0.9-0.6-1.8-1.3-2.7-2.1
			c-12.6-1.3-26.4-5.7-39.6-7.6c-11.6,1.6-23.1,3.4-34.7,4.8c-10.1,1.3-20.3,1.9-30.5,2c-8.3,0-17.3-0.1-24.8-3.6
			c-7.8-3.7-12.2-11-14.2-18.4c-1-3.8-1.6-7.7-1.9-11.6v-24.4c1.1-10.6,4.3-21.1,13.2-28.5c13.3-11.1,33.2-11.4,50.2-11.7
			c20.3-0.4,40.6,0.4,60.8,2.4c16.4,1.6,33.7,3.2,49,9.6c6.5,2.7,12.7,6.5,17.2,11.6c5.1,5.8,8,13.2,8.3,20.8
			c0.8,16.1-7.3,30.8-11.7,45.9C383.5,768.4,381.3,784.3,391.9,795.5z"/>
		<path class="st23" d="M291.5,691.8h-45.2c-0.9,0-1.6-0.7-1.6-1.6s0.7-1.6,1.6-1.6l0,0h45.2c0.9,0,1.6,0.7,1.6,1.6
			C293,691.1,292.3,691.8,291.5,691.8z"/>
		<path class="st23" d="M291.5,725.2h-45.2c-0.9,0-1.6-0.7-1.6-1.6s0.7-1.6,1.6-1.6l0,0h45.2c0.9,0,1.6,0.7,1.6,1.6
			C293,724.5,292.3,725.2,291.5,725.2z"/>
		<path class="st23" d="M328.2,708.5h-81.9c-0.9,0-1.6-0.7-1.6-1.6s0.7-1.6,1.6-1.6l0,0h81.9c0.9,0,1.6,0.7,1.6,1.6
			S329.1,708.5,328.2,708.5z"/>
		<path class="st23" d="M402.1,693c4.2,6.7,6.6,14.4,5.8,22.3c-0.6,6.8-3.4,13.3-6.5,19.4c-3.2,6.3-6.7,12.4-9.3,19
			c-2.9,7.2-3.9,14.9-3.1,22.6c0.5,5,1.5,9.9,2.5,14.8l2.9,15l2.5-1.5l-41.5-35.9c-1.5-1.3-3.6,0.9-2.1,2.1l41.5,35.9
			c0.6,0.6,1.6,0.5,2.1-0.1c0.3-0.4,0.5-0.9,0.4-1.4c-1.7-8.8-3.7-17.6-4.9-26.5c-0.7-4.5-0.8-9-0.3-13.5c0.5-3.4,1.4-6.8,2.7-10
			c5-13,14.3-24.4,16.1-38.5c1.1-8.9-1.4-17.7-6.1-25.1C403.7,689.8,401.1,691.3,402.1,693L402.1,693z"/>
		<path class="st23" d="M358,755.5l-61.3,7.3l-30.7,3.6c-9.3,1.1-19.1,2.7-28.4,0.7c-15.7-3.3-25.5-17.5-28.5-32.5
			c-1.9-9.3-1.2-19,0.4-28.3c0.9-4.9,2-9.8,3.2-14.7c1.1-4.3,1.9-9,3.8-13.1c3-6.7,9-11.7,16.1-13.6c2.2-0.5,4.4-0.7,6.7-0.9
			c2.5-0.3,5-0.5,7.6-0.7c5.1-0.4,10.1-0.8,15.2-1c2.5-0.1,5.1-0.2,7.6-0.3c1.9-0.1,1.9-3.1,0-3c-10.5,0.4-21.1,1.1-31.6,2.2
			c-4.3,0.4-8.2,1.1-12.1,3.1c-3.3,1.7-6.3,4.2-8.6,7.1c-2.4,3.1-4.1,6.6-5.2,10.3c-1.4,5-2.6,10-3.8,15c-2.3,10.1-4,20.6-3.2,31
			c1.1,15.4,8.5,31.9,22.8,39.2c8.5,4.3,18.1,4.5,27.4,3.7c10.3-0.9,20.6-2.4,31-3.6l63.8-7.5l7.9-0.9
			C359.9,758.2,360,755.2,358,755.5L358,755.5z"/>
	</g>
	<g>
		<path class="st77" d="M430.9,1037.6c-2.4,0.1-4.5-1.8-4.6-4.2c-0.1-1.3,0.5-2.6,1.4-3.4l0.3-1.2c0-0.1-0.1-0.2-0.1-0.3
			c-4.1-9.7-30,17.3-31.2,26.5c-0.5,4-0.3,8.1,0.6,12.1c-8.4-18.3-12.8-38.3-12.8-58.5c0-5.1,0.3-10.1,0.8-15.2
			c0.5-4.1,1.1-8.2,1.9-12.3c4.5-22.1,14.2-42.8,28.2-60.4c8,0.4,15.1-0.8,15.8-16.4c0.1-2.8,2.2-5.2,2.6-7.9
			c-0.8,0.1-1.5,0.2-2.3,0.2c-0.2,0-0.5,0-0.7,0h-0.1c-2.4,0.1-4.5-1.8-4.6-4.2c0-1.1,0.3-2.1,1-3c0.3-0.4,0.7-0.8,1-1.2
			c0.5-0.6,1-1.2,1.5-1.9c0.1-0.1,0.1-0.1,0.2-0.2c0.6-0.7,1.2-1.4,1.7-2.1c-1.1-1.6-2.5-3-4.2-4c-5.8-3.4-13.8-1-18,4.2
			s-5,12.6-3.5,19.2c1.4,5.6,3.8,10.9,7,15.6c-0.3,0.4-0.6,0.8-1,1.2c-5.7,7.4-10.8,15.3-15,23.7c1.2-9.3-13.3-42.8-19-49.9
			c-6.8-8.5-20.6-4.8-21.8,6c0,0.1,0,0.2,0,0.3c0.8,0.5,1.7,1,2.5,1.5c2.8,1.8,3.5,5.6,1.7,8.3c-0.9,1.4-2.4,2.3-4.1,2.6H356
			c-11.2,16,24.6,57.5,33.6,48.2c-4.2,12-6.9,24.4-7.9,37.1c-0.6,7.5-0.5,15,0.1,22.4v-0.3c-2-16.2-36.2-40.4-46.1-38.4
			c-5.7,1.2-11.4,0.9-10.5,6.7c0,0.1,0,0.2,0,0.3c1.5,0.6,3.1,1.4,4.5,2.2c0.8,0.5,1.7,1,2.5,1.5c2.8,1.8,3.5,5.6,1.7,8.3
			c-0.9,1.4-2.4,2.3-4.1,2.6h-0.1c-0.1,0-0.2,0-0.3,0c-5.1,17.5,32.6,45.7,55.6,36.8l0,0c2.3,9.9,5.6,19.5,9.8,28.7h35.1
			c0.1-0.4,0.2-0.8,0.4-1.2c-3.2,0.2-6.5,0-9.7-0.6c2.6-3.2,5.2-6.4,7.8-9.6c0.1-0.1,0.1-0.1,0.2-0.2c1.3-1.6,2.7-3.3,4-4.9l0,0
			C432.7,1047.5,432.1,1042.5,430.9,1037.6L430.9,1037.6z M390.7,958.6L390.7,958.6L390.7,958.6L390.7,958.6z M383,1028.6l-0.3-0.7
			c0-0.5,0-1,0-1.5c0-0.1,0-0.3,0-0.4C382.7,1026.9,382.8,1027.8,383,1028.6L383,1028.6z"/>
	</g>
	<path class="st9" d="M782.1,459.3c18.6,15.5,39.2,2.5,59.1,1.5c9.2-0.5,18.4,1.8,27.4,3.4c8.6,1.6,17.2,3.9,25,7.7
		c8.6,4.1,15.9,10.5,21.1,18.4c1,1.6,2.6,0.4,2.6-1.5c-0.1-20.6-9-18.9-18.3-17.4c-8.8,1.4-16.3-7.3-25.1-9.2
		c-9.1-1.8-18.3-3.1-27.6-3.9c-10.1-1-20.1-1.7-30.2-2c-11.3-0.4-22.7-0.4-34,0C780.2,456.3,780.2,459.3,782.1,459.3z"/>
	<path class="st78" d="M904.5,592.9c1.4,1.5-0.7,3.4-2.3,2.1c-13.5-10.5-27.1-21-40.6-31.5c0,0,0,0-0.1,0c-0.9-0.6-1.8-1.3-2.7-2.1
		c-12.6-1.3-26.4-5.7-39.6-7.6c-11.6,1.6-23.1,3.4-34.7,4.8c-10.1,1.3-20.3,1.9-30.5,2c-8.3,0-17.3-0.1-24.8-3.6
		c-7.8-3.7-12.2-11-14.2-18.4c-1-3.8-1.6-7.7-1.9-11.6v-24.4c1.1-10.6,4.3-21.1,13.2-28.5c13.3-11.1,33.2-11.4,50.2-11.7
		c20.3-0.4,40.6,0.4,60.8,2.4c16.4,1.6,33.7,3.2,49,9.6c6.5,2.7,12.7,6.5,17.2,11.6c5.1,5.8,8,13.2,8.3,20.8
		c0.8,16.1-7.3,30.8-11.7,45.9C896.1,565.8,894,581.7,904.5,592.9z"/>
	<path class="st23" d="M804.1,489.2h-45.2c-0.9,0-1.6-0.7-1.6-1.6s0.7-1.6,1.6-1.6l0,0h45.2c0.9,0,1.6,0.7,1.6,1.6
		C805.6,488.5,804.9,489.2,804.1,489.2z"/>
	<path class="st23" d="M804.1,522.6h-45.2c-0.9,0-1.6-0.7-1.6-1.6s0.7-1.6,1.6-1.6l0,0h45.2c0.9,0,1.6,0.7,1.6,1.6
		C805.6,521.9,804.9,522.6,804.1,522.6z"/>
	<path class="st23" d="M840.8,505.9h-81.9c-0.9,0-1.6-0.7-1.6-1.6s0.7-1.6,1.6-1.6l0,0h81.9c0.9,0,1.6,0.7,1.6,1.6
		C842.4,505.2,841.7,505.9,840.8,505.9z"/>
	<path class="st9" d="M914.7,490.4c4.2,6.7,6.6,14.4,5.8,22.3c-0.6,6.8-3.4,13.3-6.5,19.4c-3.2,6.3-6.7,12.4-9.3,19
		c-2.9,7.2-3.9,14.9-3.1,22.6c0.5,5,1.5,9.9,2.5,14.8l2.9,15l2.5-1.5L868,566c-1.5-1.3-3.6,0.9-2.1,2.1l41.5,35.9
		c0.6,0.6,1.6,0.5,2.1-0.1c0.3-0.4,0.5-0.9,0.4-1.4c-1.7-8.8-3.7-17.6-4.9-26.5c-0.7-4.5-0.8-9-0.3-13.5c0.5-3.4,1.4-6.8,2.7-10
		c5-13,14.3-24.4,16.1-38.5c1.1-8.9-1.4-17.7-6.1-25.1C916.3,487.2,913.7,488.7,914.7,490.4L914.7,490.4z"/>
	<path class="st9" d="M870.7,552.9l-61.3,7.3l-30.7,3.6c-9.3,1.1-19.1,2.7-28.4,0.7c-15.7-3.3-25.5-17.5-28.5-32.5
		c-1.9-9.3-1.2-19,0.4-28.3c0.9-4.9,2-9.8,3.2-14.7c1.1-4.3,1.9-9,3.8-13.1c3-6.7,9-11.7,16.1-13.6c2.2-0.5,4.4-0.7,6.7-0.9
		c2.5-0.3,5-0.5,7.6-0.7c5.1-0.4,10.1-0.8,15.2-1c2.5-0.1,5.1-0.2,7.6-0.3c1.9-0.1,1.9-3.1,0-3c-10.5,0.4-21.1,1.1-31.6,2.2
		c-4.3,0.4-8.2,1.1-12.1,3.1c-3.3,1.7-6.3,4.2-8.6,7.1c-2.4,3.1-4.1,6.6-5.2,10.3c-1.4,5-2.6,10-3.8,15c-2.3,10.1-4,20.6-3.2,31
		c1.1,15.4,8.5,31.9,22.8,39.2c8.5,4.3,18.1,4.5,27.4,3.7c10.3-0.9,20.6-2.4,31-3.6l63.8-7.5l7.9-0.9
		C872.5,555.6,872.6,552.6,870.7,552.9L870.7,552.9z"/>
	<g>
		<path class="st9" d="M782.1,459.3c18.6,15.5,39.2,2.5,59.1,1.5c9.2-0.5,18.4,1.8,27.4,3.4c8.6,1.6,17.2,3.9,25,7.7
			c8.6,4.1,15.9,10.5,21.1,18.4c1,1.6,2.6,0.4,2.6-1.5c-0.1-20.6-9-18.9-18.3-17.4c-8.8,1.4-16.3-7.3-25.1-9.2
			c-9.1-1.8-18.3-3.1-27.6-3.9c-10.1-1-20.1-1.7-30.2-2c-11.3-0.4-22.7-0.4-34,0C780.2,456.3,780.2,459.3,782.1,459.3z"/>
		<path class="st78" d="M904.5,592.9c1.4,1.5-0.7,3.4-2.3,2.1c-13.5-10.5-27.1-21-40.6-31.5c0,0,0,0-0.1,0c-0.9-0.6-1.8-1.3-2.7-2.1
			c-12.6-1.3-26.4-5.7-39.6-7.6c-11.6,1.6-23.1,3.4-34.7,4.8c-10.1,1.3-20.3,1.9-30.5,2c-8.3,0-17.3-0.1-24.8-3.6
			c-7.8-3.7-12.2-11-14.2-18.4c-1-3.8-1.6-7.7-1.9-11.6v-24.4c1.1-10.6,4.3-21.1,13.2-28.5c13.3-11.1,33.2-11.4,50.2-11.7
			c20.3-0.4,40.6,0.4,60.8,2.4c16.4,1.6,33.7,3.2,49,9.6c6.5,2.7,12.7,6.5,17.2,11.6c5.1,5.8,8,13.2,8.3,20.8
			c0.8,16.1-7.3,30.8-11.7,45.9C896.1,565.8,894,581.7,904.5,592.9z"/>
		<path class="st23" d="M804.1,489.2h-45.2c-0.9,0-1.6-0.7-1.6-1.6s0.7-1.6,1.6-1.6l0,0h45.2c0.9,0,1.6,0.7,1.6,1.6
			C805.6,488.5,804.9,489.2,804.1,489.2z"/>
		<path class="st23" d="M804.1,522.6h-45.2c-0.9,0-1.6-0.7-1.6-1.6s0.7-1.6,1.6-1.6l0,0h45.2c0.9,0,1.6,0.7,1.6,1.6
			C805.6,521.9,804.9,522.6,804.1,522.6z"/>
		<path class="st23" d="M840.8,505.9h-81.9c-0.9,0-1.6-0.7-1.6-1.6s0.7-1.6,1.6-1.6l0,0h81.9c0.9,0,1.6,0.7,1.6,1.6
			C842.4,505.2,841.7,505.9,840.8,505.9z"/>
		<path class="st9" d="M914.7,490.4c4.2,6.7,6.6,14.4,5.8,22.3c-0.6,6.8-3.4,13.3-6.5,19.4c-3.2,6.3-6.7,12.4-9.3,19
			c-2.9,7.2-3.9,14.9-3.1,22.6c0.5,5,1.5,9.9,2.5,14.8l2.9,15l2.5-1.5L868,566c-1.5-1.3-3.6,0.9-2.1,2.1l41.5,35.9
			c0.6,0.6,1.6,0.5,2.1-0.1c0.3-0.4,0.5-0.9,0.4-1.4c-1.7-8.8-3.7-17.6-4.9-26.5c-0.7-4.5-0.8-9-0.3-13.5c0.5-3.4,1.4-6.8,2.7-10
			c5-13,14.3-24.4,16.1-38.5c1.1-8.9-1.4-17.7-6.1-25.1C916.3,487.2,913.7,488.7,914.7,490.4L914.7,490.4z"/>
		<path class="st9" d="M870.7,552.9l-61.3,7.3l-30.7,3.6c-9.3,1.1-19.1,2.7-28.4,0.7c-15.7-3.3-25.5-17.5-28.5-32.5
			c-1.9-9.3-1.2-19,0.4-28.3c0.9-4.9,2-9.8,3.2-14.7c1.1-4.3,1.9-9,3.8-13.1c3-6.7,9-11.7,16.1-13.6c2.2-0.5,4.4-0.7,6.7-0.9
			c2.5-0.3,5-0.5,7.6-0.7c5.1-0.4,10.1-0.8,15.2-1c2.5-0.1,5.1-0.2,7.6-0.3c1.9-0.1,1.9-3.1,0-3c-10.5,0.4-21.1,1.1-31.6,2.2
			c-4.3,0.4-8.2,1.1-12.1,3.1c-3.3,1.7-6.3,4.2-8.6,7.1c-2.4,3.1-4.1,6.6-5.2,10.3c-1.4,5-2.6,10-3.8,15c-2.3,10.1-4,20.6-3.2,31
			c1.1,15.4,8.5,31.9,22.8,39.2c8.5,4.3,18.1,4.5,27.4,3.7c10.3-0.9,20.6-2.4,31-3.6l63.8-7.5l7.9-0.9
			C872.5,555.6,872.6,552.6,870.7,552.9L870.7,552.9z"/>
	</g>
	<g>
		<path class="st9" d="M1345.8,391.3c18.6,15.5,39.2,2.5,59.1,1.5c9.2-0.5,18.4,1.8,27.4,3.4c8.6,1.6,17.2,3.9,25,7.7
			c8.6,4.1,15.9,10.5,21.1,18.4c1,1.6,2.6,0.4,2.6-1.5c-0.1-20.6-9-18.9-18.3-17.4c-8.8,1.4-16.3-7.3-25.1-9.2
			c-9.1-1.8-18.3-3.1-27.6-3.9c-10.1-1-20.1-1.7-30.2-2c-11.3-0.4-22.7-0.4-34,0C1343.9,388.4,1343.9,391.4,1345.8,391.3z"/>
		<path class="st40" d="M1468.2,524.9c1.4,1.5-0.7,3.4-2.3,2.1c-13.5-10.5-27.1-21-40.6-31.5c0,0,0,0-0.1,0
			c-0.9-0.6-1.8-1.3-2.7-2.1c-12.6-1.3-26.4-5.7-39.6-7.6c-11.6,1.6-23.1,3.4-34.7,4.8c-10.1,1.3-20.3,1.9-30.5,2
			c-8.3,0-17.3-0.1-24.8-3.6c-7.8-3.7-12.2-11-14.2-18.4c-1-3.8-1.6-7.7-1.9-11.6v-24.4c1.1-10.6,4.3-21.1,13.2-28.5
			c13.3-11.1,33.2-11.4,50.2-11.7c20.3-0.4,40.6,0.4,60.8,2.4c16.4,1.6,33.7,3.2,49,9.6c6.5,2.7,12.7,6.5,17.2,11.6
			c5.1,5.8,8,13.2,8.3,20.8c0.8,16.1-7.3,30.8-11.7,45.9C1459.8,497.8,1457.8,513.7,1468.2,524.9z"/>
		<path class="st23" d="M1367.8,421.2h-45.2c-0.9,0-1.6-0.7-1.6-1.6s0.7-1.6,1.6-1.6l0,0h45.2c0.9,0,1.6,0.7,1.6,1.6
			C1369.3,420.5,1368.6,421.2,1367.8,421.2z"/>
		<path class="st23" d="M1367.8,454.6h-45.2c-0.9,0-1.6-0.7-1.6-1.6s0.7-1.6,1.6-1.6l0,0h45.2c0.9,0,1.6,0.7,1.6,1.6
			C1369.3,453.9,1368.6,454.6,1367.8,454.6z"/>
		<path class="st23" d="M1404.5,437.9h-81.9c-0.9,0-1.6-0.7-1.6-1.6s0.7-1.6,1.6-1.6l0,0h81.9c0.9,0,1.6,0.7,1.6,1.6
			C1406.1,437.2,1405.4,437.9,1404.5,437.9z"/>
		<path class="st9" d="M1478.5,422.4c4.2,6.7,6.6,14.4,5.8,22.3c-0.6,6.8-3.4,13.3-6.5,19.4c-3.2,6.3-6.7,12.4-9.3,19
			c-2.9,7.2-3.9,14.9-3.1,22.6c0.5,5,1.5,9.9,2.5,14.8l2.9,15l2.5-1.5l-41.5-35.9c-1.5-1.3-3.6,0.9-2.1,2.1l41.5,35.9
			c0.6,0.6,1.6,0.5,2.1-0.1c0.3-0.4,0.5-0.9,0.4-1.4c-1.7-8.8-3.7-17.6-4.9-26.5c-0.7-4.5-0.8-9-0.3-13.5c0.5-3.4,1.4-6.8,2.7-10
			c5-13,14.3-24.4,16.1-38.5c1.1-8.9-1.4-17.7-6.1-25.1C1480,419.2,1477.4,420.7,1478.5,422.4L1478.5,422.4z"/>
		<path class="st9" d="M1434.4,484.9l-61.3,7.3l-30.7,3.6c-9.3,1.1-19.1,2.7-28.4,0.7c-15.7-3.3-25.5-17.5-28.5-32.5
			c-1.9-9.3-1.2-19,0.4-28.3c0.9-4.9,2-9.8,3.2-14.7c1.1-4.3,1.9-9,3.8-13.1c3-6.7,9-11.7,16.1-13.6c2.2-0.5,4.4-0.7,6.7-0.9
			c2.5-0.3,5-0.5,7.6-0.7c5.1-0.4,10.1-0.8,15.2-1c2.5-0.1,5.1-0.2,7.6-0.3c1.9-0.1,1.9-3.1,0-3c-10.5,0.4-21.1,1.1-31.6,2.2
			c-4.3,0.4-8.2,1.1-12.1,3.1c-3.3,1.7-6.3,4.2-8.6,7.1c-2.4,3.1-4.1,6.6-5.2,10.3c-1.4,5-2.6,10-3.8,15c-2.3,10.1-4,20.6-3.2,31
			c1.1,15.4,8.5,31.9,22.8,39.2c8.5,4.3,18.1,4.5,27.4,3.7c10.3-0.9,20.6-2.4,31-3.6l63.8-7.5l7.9-0.9
			C1436.3,487.6,1436.3,484.6,1434.4,484.9L1434.4,484.9z"/>
	</g>
	<g>
		<path class="st9" d="M1598.8,451c18.6,15.5,39.2,2.5,59.1,1.5c9.2-0.5,18.4,1.8,27.4,3.4c8.6,1.6,17.2,3.9,25,7.7
			c8.6,4.1,15.9,10.5,21.1,18.4c1,1.6,2.6,0.4,2.6-1.5c-0.1-20.6-9-18.9-18.3-17.4c-8.8,1.4-16.3-7.3-25.1-9.2
			c-9.1-1.8-18.3-3.1-27.6-3.9c-10.1-1-20.1-1.7-30.2-2c-11.3-0.4-22.7-0.4-34,0C1596.8,448.1,1596.8,451.1,1598.8,451z"/>
		<path class="st44" d="M1721.1,584.6c1.4,1.5-0.7,3.4-2.3,2.1c-13.5-10.5-27.1-21-40.6-31.5c0,0,0,0-0.1,0
			c-0.9-0.6-1.8-1.3-2.7-2.1c-12.6-1.3-26.4-5.7-39.6-7.6c-11.6,1.6-23.1,3.4-34.7,4.8c-10.1,1.3-20.3,1.9-30.5,2
			c-8.3,0-17.3-0.1-24.8-3.6c-7.8-3.7-12.2-11-14.2-18.4c-1-3.8-1.6-7.7-1.9-11.6v-24.4c1.1-10.6,4.3-21.1,13.2-28.5
			c13.3-11.1,33.2-11.4,50.2-11.7c20.3-0.4,40.6,0.4,60.8,2.4c16.4,1.6,33.7,3.2,49,9.6c6.5,2.7,12.7,6.5,17.2,11.6
			c5.1,5.8,8,13.2,8.3,20.8c0.8,16.1-7.3,30.8-11.7,45.9C1712.8,557.5,1710.6,573.5,1721.1,584.6z"/>
		<path class="st23" d="M1620.8,481h-45.2c-0.9,0-1.6-0.7-1.6-1.6s0.7-1.6,1.6-1.6l0,0h45.2c0.9,0,1.6,0.7,1.6,1.6
			C1622.2,480.3,1621.5,481,1620.8,481z"/>
		<path class="st23" d="M1620.8,514.3h-45.2c-0.9,0-1.6-0.7-1.6-1.6c0-0.9,0.7-1.6,1.6-1.6l0,0h45.2c0.9,0,1.6,0.7,1.6,1.6
			C1622.2,513.6,1621.5,514.3,1620.8,514.3z"/>
		<path class="st23" d="M1657.4,497.7h-81.9c-0.9,0-1.6-0.7-1.6-1.6s0.7-1.6,1.6-1.6l0,0h81.9c0.9,0,1.6,0.7,1.6,1.6
			S1658.3,497.7,1657.4,497.7z"/>
		<path class="st9" d="M1731.3,482.1c4.2,6.7,6.6,14.4,5.8,22.3c-0.6,6.8-3.4,13.3-6.5,19.4c-3.2,6.3-6.7,12.4-9.3,19
			c-2.9,7.2-3.9,14.9-3.1,22.6c0.5,5,1.5,9.9,2.5,14.8l2.9,15l2.5-1.5l-41.5-35.9c-1.5-1.3-3.6,0.9-2.1,2.1l41.5,35.9
			c0.6,0.6,1.6,0.5,2.1-0.1c0.3-0.4,0.5-0.9,0.4-1.4c-1.7-8.8-3.7-17.6-4.9-26.5c-0.7-4.5-0.8-9-0.3-13.5c0.5-3.4,1.4-6.8,2.7-10
			c5-13,14.3-24.4,16.1-38.5c1.1-8.9-1.4-17.7-6.1-25.1C1732.9,479,1730.3,480.5,1731.3,482.1L1731.3,482.1z"/>
		<path class="st9" d="M1687.3,544.6l-61.3,7.3l-30.7,3.6c-9.3,1.1-19.1,2.7-28.4,0.7c-15.7-3.3-25.5-17.5-28.5-32.5
			c-1.9-9.3-1.2-19,0.4-28.3c0.9-4.9,2-9.8,3.2-14.7c1.1-4.3,1.9-9,3.8-13.1c3-6.7,9-11.7,16.1-13.6c2.2-0.5,4.4-0.7,6.7-0.9
			c2.5-0.3,5-0.5,7.6-0.7c5.1-0.4,10.1-0.8,15.2-1c2.5-0.1,5.1-0.2,7.6-0.3c1.9-0.1,1.9-3.1,0-3c-10.5,0.4-21.1,1.1-31.6,2.2
			c-4.3,0.4-8.2,1.1-12.1,3.1c-3.3,1.7-6.3,4.2-8.6,7.1c-2.4,3.1-4.1,6.6-5.2,10.3c-1.4,5-2.6,10-3.8,15c-2.3,10.1-4,20.6-3.2,31
			c1.1,15.4,8.5,31.9,22.8,39.2c8.5,4.3,18.1,4.5,27.4,3.7c10.3-0.9,20.6-2.4,31-3.6l63.8-7.5l7.9-0.9
			C1689.2,547.4,1689.2,544.4,1687.3,544.6L1687.3,544.6z"/>
	</g>
</g>
</svg>
