<?xml version="1.0" encoding="utf-8"?>
<!-- Generator: Adobe Illustrator 27.5.0, SVG Export Plug-In . SVG Version: 6.00 Build 0)  -->
<svg version="1.1" id="Layer_1" xmlns="http://www.w3.org/2000/svg" xmlns:xlink="http://www.w3.org/1999/xlink" x="0px" y="0px"
	 viewBox="0 0 732 603.8" style="enable-background:new 0 0 732 603.8;" xml:space="preserve">
<style type="text/css">
	.st0{fill:none;stroke:#00F9FF;stroke-width:1.2402;stroke-miterlimit:9.9996;}
	.st1{fill:none;stroke:#00F9FF;stroke-width:1.2348;stroke-miterlimit:10;}
	.st2{fill:#3F3D56;}
	.st3{fill:#FF6584;}
	.st4{fill:#E5E5E5;}
	.st5{fill:#022709;}
	.st6{fill:#FFB8B8;}
	.st7{fill:#FF9900;}
	.st8{fill:#EAD3B9;}
	.st9{fill:#F2E1B6;}
	.st10{fill:#3D1005;}
	.st11{fill:#00F9FF;}
	.st12{fill:#E6E6E6;}
	.st13{fill:none;stroke:#00F9FF;stroke-miterlimit:10;}
</style>
<rect x="195.6" y="96.9" transform="matrix(0.866 -0.5 0.5 0.866 -30.5148 125.1011)" class="st0" width="45.2" height="45.2"/>
<rect x="198.6" y="99.9" transform="matrix(0.866 -0.5 0.5 0.866 -30.5145 125.1014)" class="st0" width="39.2" height="39.2"/>
<rect x="47.6" y="42.7" class="st1" width="154.6" height="68.9"/>
<rect x="50.6" y="45.7" class="st1" width="148.6" height="62.9"/>
<polygon class="st1" points="47.6,106.3 47.6,180.6 128,109 "/>
<polygon class="st1" points="50.6,109.4 120.4,111.7 50.6,173.9 "/>
<path class="st1" d="M202.2,109v2.7l-1,0.9l-2,1.8c-39.5,1.2-71.5,29.5-72.9,64.6l-1.8,1.6l0,0v-74.2L202.2,109z"/>
<path class="st1" d="M127.4,109.4l66,2.2c-30.7,2.9-56.2,21.8-66,47.1C127.4,158.7,127.4,109.4,127.4,109.4z"/>
<rect x="58.9" y="354.5" class="st2" width="144.3" height="135"/>
<path class="st2" d="M262.1,536.4H0V307.6h262.1V536.4z M1.6,534.8h259V309.1H1.6V534.8z"/>
<path class="st2" d="M621.6,220.9c-61,0-110.4-49.4-110.4-110.4S560.6,0,621.6,0S732,49.4,732,110.4l0,0
	C731.9,171.4,682.5,220.8,621.6,220.9z M621.6,1.6c-60.1,0-108.8,48.7-108.8,108.8s48.7,108.8,108.8,108.8s108.8-48.7,108.8-108.8
	C730.3,50.4,681.6,1.7,621.6,1.6L621.6,1.6z"/>
<circle class="st2" cx="618.3" cy="110.4" r="53.2"/>
<rect x="682" y="278.3" transform="matrix(0.866 -0.5 0.5 0.866 -54.4551 389.8566)" class="st3" width="36.5" height="36.5"/>
<rect x="200" y="101.3" transform="matrix(0.866 -0.5 0.5 0.866 -30.5331 125.1426)" class="st2" width="36.5" height="36.5"/>
<rect x="638" y="477.3" transform="matrix(0.866 -0.5 0.5 0.866 -159.8501 394.5184)" class="st4" width="36.5" height="36.5"/>
<rect x="117.9" y="408.8" class="st5" width="26.4" height="26.4"/>
<circle class="st5" cx="618.3" cy="110.4" r="13.1"/>
<rect x="520.1" y="302.4" transform="matrix(0.866 -0.5 0.5 0.866 -95.8279 325.3442)" class="st5" width="78.2" height="78.2"/>
<rect x="179" y="601.8" class="st5" width="420" height="2"/>
<path class="st6" d="M338.4,332c-4.6-5.9-3.5-14.4,2.4-19c0.6-0.5,1.3-0.9,2-1.3l-2.8-30.8l18.3-6.3l3.4,43.6c3.1,6.9,0,14.9-6.9,18
	C349,338.8,342.2,337,338.4,332L338.4,332z"/>
<path class="st7" d="M358.1,155c0,0,12.6-26.4,23.7-17.1s-15.3,87.3-15.3,87.3l-4,75.7l-21.2-2.1l-6-73.8L358.1,155z"/>
<polygon class="st8" points="189.4,545.4 205.2,558.2 261.9,503.5 238.6,484.6 "/>
<path class="st9" d="M189.5,537l31,25.1l0,0c10.9,8.8,12.6,24.9,3.8,35.8l-0.5,0.6l-50.8-41L189.5,537z"/>
<polygon class="st8" points="408.5,580.9 428.8,580.9 438.4,502.6 408.5,502.6 "/>
<path class="st9" d="M403.3,574.2h39.9l0,0c14.1,0,25.5,11.4,25.5,25.5v0.8h-65.4V574.2z"/>
<path class="st10" d="M444.1,214.1c0,0,38,46.3,29.8,92.6S459,387.8,459,387.8L445.7,492c0,0,5,28.4-1.7,35.7c0,0,9.9,17.2-8.3,23.9
	s-28-2.3-28-2.3s-13.3-19.2-5.1-24.2l3.5-204.5L273.7,493.7c0,0-2.4,21.1-19.4,21.3L234,530.1l-23.2-13.2l11.6-14.9
	c0,0-6.6-16.5,8.3-19.9l86-112.5l21.5-57.9c0,0,11.6-44.7,43-62.9v-19.4L444.1,214.1z"/>
<path class="st7" d="M378.7,133.9L378.7,133.9c10.4-12.3,28.3-14.8,41.6-5.9l1.4,0.9l0,0c14.7,16.6,24.6,36.9,28.5,58.8l6.2,33.9
	l-77.8,16.8l-18.2-62.9C355.7,159.1,363.4,141.6,378.7,133.9L378.7,133.9z"/>
<path class="st8" d="M506.5,339.2c-8.1-2.7-12.6-11.4-9.9-19.6c0.3-0.9,0.6-1.7,1.1-2.5l-22.4-27.5l13.4-17.7l31.1,39.2
	c7.3,4.6,9.5,14.2,5,21.5C520.8,338.8,513.3,341.5,506.5,339.2L506.5,339.2z"/>
<path class="st7" d="M411.8,158.7c0,0-5-33.1,11.6-31.4c16.6,1.7,41.4,92.6,41.4,92.6l44.7,74.4L488,305.9l-53-66.1L411.8,158.7z"/>
<path d="M442.1,110.3h-78.8c-3.4,0-6.1-2.7-6.1-6.1v-34c0-25.1,20.4-45.5,45.5-45.5s45.5,20.4,45.5,45.5v34
	C448.2,107.6,445.5,110.3,442.1,110.3z"/>
<ellipse class="st8" cx="412.1" cy="76.1" rx="33.4" ry="33.4"/>
<path d="M459,73.7h-42l-0.4-6.9l-2.2,6.9h-6.5L407.1,60l-4.3,13.7h-12.5V73c0-19.8,14.1-36,31.4-36h5.9c17.3,0,31.4,16.1,31.4,36
	V73.7z"/>
<path d="M418.7,116.7c-0.5,0-1,0-1.5-0.1l-50-7.7v-52c0-11.1,9-20,20-20h35l-1.4,1.4c-18.9,19.3-4.7,50.6,5.5,67.5
	c1.5,2.5,1.3,5.7-0.7,7.9C424,115.6,421.4,116.7,418.7,116.7z"/>
<rect y="166.7" class="st11" width="312" height="1.4"/>
<rect y="110.9" class="st11" width="312" height="1.4"/>
<rect y="55.1" class="st11" width="312" height="1.4"/>
<rect x="248.9" class="st11" width="1.4" height="223.3"/>
<rect x="186.5" class="st11" width="1.4" height="223.3"/>
<rect x="124.1" class="st11" width="1.4" height="223.3"/>
<rect x="61.7" class="st11" width="1.4" height="223.3"/>
<rect x="62.3" y="55.8" class="st5" width="125.2" height="55.8"/>
<path class="st5" d="M125.2,107.4"/>
<polygon class="st5" points="62.3,107.3 62.3,167.4 127.4,109.5 "/>
<path class="st5" d="M187.5,109.5v2.1l-0.8,0.7l-1.6,1.5c-32,1-57.9,23.9-59,52.3l-1.5,1.3l0,0v-60.1L187.5,109.5z"/>
<path class="st12" d="M187.1,112.3c-0.2,0-0.3,0-0.5,0c-34,0.2-61.7,24.8-62.1,55.1c0,0.2,0,0.5,0,0.7c0,30.8,28.1,55.8,62.6,55.8
	s62.6-25,62.6-55.8S221.7,112.3,187.1,112.3z M187.1,222.6c-33.7,0-61.2-24.4-61.2-54.4c0-0.7,0-1.4,0-2c1.2-28.4,27-51.4,59-52.3
	c0.7,0,1.4,0,2.1,0c33.7,0,61.2,24.4,61.2,54.4S220.9,222.6,187.1,222.6z"/>
<path class="st12" d="M152.8,167.5h-3.6c0-0.3,0.6-31.8,37.2-34l0.2,3.6C153.4,139,152.8,166.3,152.8,167.5z"/>
<path class="st12" d="M223.3,166.7c-0.3-8.2-3.9-16-10-21.5c-7.1-6.5-16.4-10.1-26-10h-0.1c-19.7,0-35.7,14.1-36.1,31.5
	c0,0.2,0,0.5,0,0.7c0,9.1,4.3,17.4,11.1,23.2c7,5.9,15.9,9.1,25,9h0.1c19.9,0,36.1-14.5,36.1-32.2
	C223.3,167.2,223.3,167,223.3,166.7z"/>
<path class="st5" d="M213.2,145.2l-1.1,1l-49,43.6l-1.1,1c-6.9-5.9-11.1-14.1-11.1-23.2c0-0.2,0-0.5,0-0.7
	c0.4-17.5,16.5-31.5,36.1-31.5h0.1C196.8,135.1,206.1,138.7,213.2,145.2z"/>
<path class="st13" d="M235.9,166.5c-0.4-11.1-5.3-21.6-13.5-29.1c-9.6-8.8-22.2-13.6-35.2-13.5h-0.1c-26.6,0-48.2,19-48.8,42.6
	c0,0.3,0,0.6,0,1c0,12.3,5.8,23.5,15,31.4c9.5,7.9,21.4,12.3,33.8,12.2h0.1c26.9,0,48.7-19.6,48.7-43.6
	C236,167.1,236,166.8,235.9,166.5z"/>
<path class="st13" d="M186.7,208c-11.5,0-22.6-4.1-31.4-11.5c-9-7.7-14-18-14-29.1c0-0.3,0-0.5,0-0.8v-0.1
	c0.5-21.9,21.1-39.7,45.8-39.7h0.5c12.2,0,23.8,4.5,32.8,12.7c7.6,6.9,12.2,16.7,12.5,27c0,0.3,0,0.6,0,0.9
	c0,22.3-20.5,40.5-45.7,40.6L186.7,208z"/>
</svg>
