<?xml version="1.0" encoding="utf-8"?>
<!-- Generator: Adobe Illustrator 27.5.0, SVG Export Plug-In . SVG Version: 6.00 Build 0)  -->
<svg version="1.1" id="Layer_1" xmlns="http://www.w3.org/2000/svg" xmlns:xlink="http://www.w3.org/1999/xlink" x="0px" y="0px"
	 viewBox="0 0 651.3 531.9" style="enable-background:new 0 0 651.3 531.9;" xml:space="preserve">
<style type="text/css">
	.st0{fill:#B3E889;}
	.st1{fill:#81B554;}
	.st2{fill:#FF66CC;}
	.st3{fill:#56176D;}
	.st4{fill:#A5854C;}
	.st5{fill:#ED1486;}
	.st6{fill:#E2D642;}
	.st7{fill:#669933;}
	.st8{fill:#EDA03A;}
	.st9{fill:#3F3D56;}
	.st10{fill:#022709;}
	.st11{fill:#FFFFFF;}
	.st12{opacity:0.2;enable-background:new    ;}
	.st13{fill:#C19A80;}
	.st14{fill:#924DA3;}
	.st15{fill:#33CC66;}
	.st16{fill:#472F09;}
	.st17{fill:#0000CC;}
</style>
<path class="st0" d="M624.6,345.7c-0.5,20.3-3.9,40.4-10.1,59.7c-0.1,0.4-0.3,0.9-0.4,1.3h-37.6c0-0.4,0.1-0.8,0.1-1.3
	c2.5-28.8,17-204.4-0.3-234.5C577.8,173.3,627.5,254,624.6,345.7z"/>
<path class="st1" d="M621.8,405.4c-0.3,0.4-0.6,0.9-1,1.3h-28.2c0.2-0.4,0.5-0.8,0.7-1.3c4.7-8.4,18.5-33.6,31.3-59.7
	c13.8-28,26.4-57.1,25.3-67.7C650.3,280.4,659.8,352.8,621.8,405.4z"/>
<path class="st2" d="M75,56.9c-17.3,30-2.8,205.6-0.3,234.5c0,0.5,0.1,0.9,0.1,1.3H37.2c-0.1-0.4-0.3-0.9-0.4-1.3
	c-6.1-19.3-9.5-39.4-10.1-59.7C23.7,140,73.5,59.3,75,56.9z"/>
<path class="st3" d="M1.3,164c-1.1,10.5,11.6,39.6,25.3,67.7c12.8,26.1,26.6,51.3,31.3,59.7c0.3,0.5,0.5,1,0.7,1.3H30.4
	c-0.3-0.4-0.7-0.9-1-1.3C-8.6,238.8,1,166.4,1.3,164z"/>
<path class="st4" d="M646.2,33H14.8c-0.5,0-0.9-0.4-0.9-0.9s0.4-0.9,0.9-0.9h631.4c0.5,0,0.9,0.4,0.9,0.9S646.7,33,646.2,33z"/>
<circle class="st5" cx="35.4" cy="10.1" r="10.1"/>
<circle class="st6" cx="70.2" cy="10.1" r="10.1"/>
<circle class="st7" cx="105.1" cy="10.1" r="10.1"/>
<path class="st4" d="M625.3,6.2h-24.7c-1,0-1.8-0.8-1.8-1.8s0.8-1.8,1.8-1.8l0,0h24.7c1,0,1.8,0.8,1.8,1.8
	C627.2,5.3,626.4,6.2,625.3,6.2L625.3,6.2z"/>
<path class="st4" d="M625.3,13h-24.7c-1,0-1.8-0.8-1.8-1.8s0.8-1.8,1.8-1.8l0,0h24.7c1,0,1.8,0.8,1.8,1.8
	C627.2,12.2,626.4,13,625.3,13L625.3,13z"/>
<path class="st4" d="M625.3,19.9h-24.7c-1,0-1.8-0.8-1.8-1.8s0.8-1.8,1.8-1.8l0,0h24.7c1,0,1.8,0.8,1.8,1.8
	C627.2,19.1,626.4,19.9,625.3,19.9L625.3,19.9z"/>
<path class="st8" d="M613.9,405.9h-238c-3.9,0-7-3.1-7-7v-310c0-3.9,3.1-7,7-7h238c3.9,0,7,3.1,7,7v310
	C620.9,402.8,617.8,405.9,613.9,405.9z M375.9,83.9c-2.8,0-5,2.2-5,5v310c0,2.8,2.2,5,5,5h238c2.8,0,5-2.2,5-5v-310c0-2.8-2.2-5-5-5
	C613.9,83.9,375.9,83.9,375.9,83.9z"/>
<path class="st4" d="M541.1,217.7h-101c-3.9,0-7-3.1-7-7v-79c0-3.9,3.1-7,7-7h101c3.9,0,7,3.1,7,7v79
	C548.1,214.6,545,217.7,541.1,217.7z"/>
<path class="st9" d="M540.9,349.9h-101c-3.9,0-7-3.1-7-7v-79c0-3.9,3.1-7,7-7h101c3.9,0,7,3.1,7,7v79
	C547.9,346.8,544.8,349.9,540.9,349.9z M439.9,258.9c-2.8,0-5,2.2-5,5v79c0,2.8,2.2,5,5,5h101c2.8,0,5-2.2,5-5v-79c0-2.8-2.2-5-5-5
	H439.9z"/>
<path class="st10" d="M568.9,371.9h-101c-3.9,0-7-3.1-7-7v-79c0-3.9,3.1-7,7-7h101c3.9,0,7,3.1,7,7v79
	C575.9,368.8,572.8,371.9,568.9,371.9z"/>
<path class="st11" d="M529.7,348.8H479c-0.1,0-0.1,0-0.2,0l24-41.5c0.5-0.8,1.5-1.1,2.3-0.6c0.3,0.2,0.5,0.4,0.6,0.6l16.1,27.9
	l0.8,1.3L529.7,348.8z"/>
<polygon class="st12" points="529.7,348.8 512.4,348.8 520.9,336.4 521.5,335.5 521.8,335.1 522.6,336.4 "/>
<path class="st11" d="M558,348.8h-43.9l8.5-12.3l0.6-0.9l11.1-16.1c0.8-1,2.2-1.1,3.1-0.4c0.1,0,0.1,0.1,0.2,0.2
	c0.1,0.1,0.1,0.1,0.2,0.2L558,348.8z"/>
<circle class="st11" cx="555.9" cy="299.5" r="7.5"/>
<path class="st4" d="M272.5,405.8h-238c-3.9,0-7-3.1-7-7v-79c0-3.9,3.1-7,7-7h238c3.9,0,7,3.1,7,7v79
	C279.5,402.7,276.4,405.8,272.5,405.8z"/>
<path class="st9" d="M271.5,292.8h-238c-3.9,0-7-3.1-7-7v-193c0-3.9,3.1-7,7-7h238c3.9,0,7,3.1,7,7v193
	C278.5,289.7,275.4,292.8,271.5,292.8z M33.5,87.8c-2.8,0-5,2.2-5,5v193c0,2.8,2.2,5,5,5h238c2.8,0,5-2.2,5-5v-193c0-2.8-2.2-5-5-5
	L33.5,87.8L33.5,87.8z"/>
<path class="st10" d="M310.5,327.8h-238c-3.9,0-7-3.1-7-7v-193c0-3.9,3.1-7,7-7h238c3.9,0,7,3.1,7,7v193
	C317.5,324.7,314.4,327.8,310.5,327.8z"/>
<path class="st11" d="M218.7,280.3H97.2c-0.2,0-0.3,0-0.5,0l57.5-99.5c1.1-1.9,3.5-2.6,5.5-1.5c0.6,0.4,1.2,0.9,1.5,1.5l38.6,66.8
	l1.8,3.2L218.7,280.3z"/>
<polygon class="st12" points="218.7,280.3 177.2,280.3 197.6,250.7 199,248.6 199.8,247.5 201.6,250.7 "/>
<path class="st11" d="M286.4,280.3H181.3l20.4-29.6l1.5-2.1l26.5-38.5c1.8-2.3,5.2-2.7,7.5-0.9c0.1,0.1,0.3,0.2,0.4,0.4
	c0.1,0.2,0.3,0.3,0.4,0.5L286.4,280.3z"/>
<circle class="st11" cx="279.1" cy="160.3" r="18"/>
<path class="st13" d="M361.3,317.7c1.6-0.9,3.5-1.2,5.3-0.8l28.5-26.7l-4.7-23.8l18.7,1l1.7,28.8l-37.7,29.4c-0.5,4.4-4.5,7.5-8.9,7
	s-7.5-4.5-7-8.9C357.5,321.2,359,319,361.3,317.7L361.3,317.7z"/>
<polygon class="st13" points="329.8,518.3 317.5,518.3 311.7,471.1 329.8,471.1 "/>
<path class="st14" d="M332.9,530.2h-39.5v-0.5c0-8.5,6.9-15.4,15.4-15.4l0,0h24.1V530.2z"/>
<polygon class="st13" points="421.8,518.3 409.5,518.3 403.7,471.1 421.8,471.1 "/>
<path class="st14" d="M424.9,530.2h-39.5v-0.5c0-8.5,6.9-15.4,15.4-15.4l0,0h24.1V530.2z"/>
<path class="st15" d="M399.4,252.5c-3.1-3.9-8.5-4.9-12.8-2.5l0,0c-4.2,2.4-6.1,7.5-4.5,12.1l6,16.7l24.6-9.4L399.4,252.5z"/>
<path class="st16" d="M397.2,326.2c-1.1-0.8-2.3-1.6-3.6-2.2l-44.8,6.9l1,28.1c-21.7,40.9-36,87.6-43.8,139.4l28.1,6.4
	c12.6-48.7,26.8-92.3,44.8-125.1l19,123.9l32.3-0.8C425.8,430,422.6,345.1,397.2,326.2z"/>
<circle class="st13" cx="363.8" cy="228" r="17.5"/>
<path class="st15" d="M402.2,272.8c1.6-9.9-3.4-19.7-12.5-24.1l0,0l-19.7,1l0,0c-6.5,1.7-11.9,6.3-14.5,12.4
	c-8.5,20-9.8,45.5-6.2,74.7l46.7-11.1C389.6,311.4,394.7,292.6,402.2,272.8z"/>
<path class="st17" d="M342.1,223.7L342.1,223.7c0-9.9,8.1-18,18-18l0,0h1c3.3-2.6,7.3-4,11.5-4l0,0c10.2,0,18.5,8.3,18.5,18.5v23.5
	c-12-0.3-25.5,2.1-40,6c3.7-10.1,6.1-19.4,4.4-26H342.1z"/>
<path class="st13" d="M305.1,304.7c1.9,0,3.6,0.6,5.1,1.8l37.8-9.7l7.3-23.1l15.9,9.9l-12.4,26.1l-47.2,7.6
	c-2.6,3.6-7.6,4.4-11.2,1.8s-4.4-7.6-1.8-11.2C300.1,305.9,302.5,304.7,305.1,304.7z"/>
<path class="st15" d="M378.9,266.7c1.4-4.7-0.8-9.8-5.3-11.9l0,0c-4.4-2.1-9.7-0.7-12.5,3.3l-10.2,14.5l21.8,14.8L378.9,266.7z"/>
<path class="st10" d="M476.1,531.9H231.8c-0.7,0-1.2-0.5-1.2-1.2s0.5-1.2,1.2-1.2l0,0h244.3c0.7,0,1.2,0.5,1.2,1.2
	S476.8,531.9,476.1,531.9L476.1,531.9z"/>
</svg>
