<?xml version="1.0" encoding="utf-8"?>
<!-- Generator: Adobe Illustrator 27.5.0, SVG Export Plug-In . SVG Version: 6.00 Build 0)  -->
<svg version="1.1" id="Layer_1" xmlns="http://www.w3.org/2000/svg" xmlns:xlink="http://www.w3.org/1999/xlink" x="0px" y="0px"
	 viewBox="0 0 783.9 868.7" style="enable-background:new 0 0 783.9 868.7;" xml:space="preserve">
<style type="text/css">
	.st0{fill:#CCB752;}
	.st1{opacity:0.1;enable-background:new    ;}
	.st2{opacity:0.3;fill:#022709;enable-background:new    ;}
	.st3{fill:#FFFFFF;}
	.st4{fill:#FF953B;enable-background:new    ;}
	.st5{fill:#022709;}
	.st6{fill:#FF6584;}
	.st7{fill:#3F3D56;}
	.st8{fill:#4F1527;}
	.st9{fill:#210208;}
	.st10{fill:#3333FF;}
	.st11{fill:#D0CDE1;}
	.st12{fill:#591806;}
	.st13{display:none;fill:#FFFFFF;}
	.st14{fill:#022709;enable-background:new    ;}
	.st15{fill:#FFDC7A;enable-background:new    ;}
	.st16{display:none;}
	.st17{display:inline;fill:none;stroke:#FFDC7A;stroke-miterlimit:10;}
	.st18{display:inline;fill:#4F1527;}
	.st19{display:none;fill:#4F1527;}
	.st20{opacity:0.3;fill:#FFDC7A;enable-background:new    ;}
	.st21{display:none;fill:none;stroke:#FFDC7A;stroke-miterlimit:10;}
</style>
<path class="st0" d="M533.2,538.2c427.4,286,288.5,392.6-266.6,295.5C121.6,808.3,0,701.4,0,538.2s119.4-295.5,266.6-295.5
	S397.6,447.4,533.2,538.2z"/>
<ellipse class="st1" cx="571.5" cy="801.7" rx="168.9" ry="15.1"/>
<ellipse class="st1" cx="238.4" cy="303.7" rx="89.5" ry="15.1"/>
<path class="st1" d="M233.7,340.9c-78.4,0-149.8,45-183.6,115.7c38.5-42.6,93.3-66.8,150.7-66.8c112.4,0,203.5,91.1,203.5,203.5
	c0,30.4-6.8,60.4-19.9,87.9c34-37.4,52.8-86.2,52.8-136.7C437.3,432,346.1,340.9,233.7,340.9z"/>
<path class="st2" d="M404.4,592.4c0,30.4-6.8,60.4-19.9,87.9c-38.5,42.6-93.3,66.8-150.7,66.8c-112.4,0-203.5-91.1-203.5-203.5
	c0-30.4,6.8-60.4,19.9-87.9c38.5-42.6,93.3-66.8,150.7-66.8C313.3,388.9,404.4,480,404.4,592.4z"/>
<path class="st3" d="M233.7,748.1c-112.8,0-204.5-91.7-204.5-204.5c-0.1-30.6,6.8-60.7,20-88.3C83.2,384.2,155,339,233.7,339
	c112.8,0,204.5,91.7,204.5,204.5C438.3,656.5,346.7,748,233.7,748.1C233.8,748.1,233.7,748.1,233.7,748.1z M233.7,341
	C156.2,341,84.5,386.2,51,456.1c-13.1,27.3-19.9,57.2-19.8,87.4c0,111.7,90.9,202.5,202.5,202.5c111.8,0,202.5-90.7,202.5-202.5
	c0,0,0,0,0,0C436.3,431.9,345.4,341,233.7,341L233.7,341z"/>
<path class="st4" d="M699.4,750.6c-14.8,19.3-13.1,45.5-13.1,45.5s25.7-5.2,40.4-24.5s13.1-45.5,13.1-45.5S714.1,731.3,699.4,750.6z
	"/>
<path class="st5" d="M709,755c-2.9,24.2-22.3,41.7-22.3,41.7s-14.8-21.6-11.9-45.8s22.3-41.7,22.3-41.7S711.9,730.8,709,755z"/>
<circle class="st6" cx="172.8" cy="104.9" r="84"/>
<path class="st5" d="M354.9,190.5c0,83.9-49.8,113.2-111.3,113.2c-1.4,0-2.9,0-4.3,0c-2.9-0.1-5.7-0.2-8.5-0.4
	c-55.5-3.9-98.7-34.7-98.7-112.7C132.1,109.9,235.2,8,243,0.4c0,0,0,0,0,0c0.3-0.3,0.4-0.4,0.4-0.4S354.9,106.7,354.9,190.5z"/>
<path class="st7" d="M239.5,290.9l40.7-56.9l-40.8,63.2l-0.1,6.5c-2.9-0.1-5.7-0.2-8.5-0.4l4.3-83.9l0-0.6l0.1-0.1l0.4-7.9l-41-63.3
	l41.1,57.4l0.1,1.7l3.3-63.4l-35.1-65.4l35.5,54.3L243,0.4l0-0.4l0,0.4l-0.5,103.7L277.3,63l-35,50l-0.9,56.8l32.6-54.5l-32.7,62.8
	l-0.5,31.6l47.3-75.9l-47.4,86.9L239.5,290.9z"/>
<path class="st8" d="M573,238.6c-10.7-18-31.8-18.9-31.8-18.9s-20.6-2.6-33.8,24.8c-12.3,25.6-29.3,50.3-2.7,56.3l4.8-14.9l3,16
	c3.8,0.3,7.6,0.3,11.4,0.2c28.4-0.9,55.5,0.3,54.6-9.9C577.3,278.7,583.2,255.9,573,238.6z"/>
<polygon class="st9" points="525.9,407.8 528.6,435.3 592.2,428.4 593.6,407.8 "/>
<path class="st10" d="M519,422.9l-1.8,16c0,0-21.1,29.3-19.2,79.6s-28.8,274.1-6.9,276s61.3,4.6,63.2-2.3s5.5-267.3,5.5-267.3
	s9.6,267.6,26.1,268.5s71.8,2.7,71.8-4.1S609.2,476,609.2,476l-7.8-25.6l-7.8-31.6c0,0-48.5,8.2-61.8,5S519,422.9,519,422.9z"/>
<ellipse transform="matrix(0.1602 -0.9871 0.9871 0.1602 190.8689 758.1173)" class="st9" cx="541" cy="266.9" rx="29.3" ry="29.3"/>
<path class="st9" d="M592.2,315.4l-5.6,8.1l-3.6,5.2l-6,8.7l-29.7,2.3c0,0-7.2-2.3-15.6-5.7c-3.1-1.3-6.3-2.7-9.4-4.2
	c-11.9-5.8-21.5-12.9-10.7-17.5c1.9-0.8,3.7-1.8,5.5-2.9c1.6-1,3.1-2.2,4.4-3.6c5.6-5.6,8.1-13.6,6.6-21.4l28.8-4.1
	c-0.8,7.3,6.4,15.3,14.6,21.8c2.7,2.1,5.5,4.1,8.1,5.9C586.5,312.4,592.2,315.4,592.2,315.4z"/>
<path class="st11" d="M552.9,324.1c0,0-28.1-4.8-34.6-14.9c0,0-27.7,3.4-25.4,18.1s25.2,94.7,25.2,94.7s57.2-11,78.3-2.7l12.8-102.1
	c0,0-4.6-10.1-13.3-7.3s-12.1,0.2-12.1,0.2S573.9,324.1,552.9,324.1z"/>
<path class="st9" d="M578.5,484.7c0,0,19.7,22,8.7,25.6c-11,3.7-24.3-14.6-24.3-14.6L578.5,484.7z"/>
<path class="st9" d="M584.9,486.6c0,0-16,11-10.1,18.3c5.9,7.3,26.5-6.4,26.5-9.2S584.9,486.6,584.9,486.6z"/>
<path class="st10" d="M545.5,427.1l-13.3,2.3l-8.7-64.5c0.5-11.7,0.1-23.4-1.2-35.1c-1-7.8-2.6-15.3-5.3-20.5c1.6-1,3.1-2.2,4.4-3.6
	c3.2,5,9,15.7,10.2,28.2c0.3,3.1,0.3,6.3,0,9.4c-2.3,21.5-1.8,25.6-1.8,25.6L545.5,427.1z"/>
<path class="st11" d="M514.9,313.1c0,0-21.5-5.9-23.3,6.9s0.5,45.8,5.5,58.1s22.4,52.6,22.4,52.6s31.6,40.3,33,49.9
	s8.2,19.7,8.2,19.7l22-14.2l-43-72.8L520.8,363C520.8,363,528.6,317.2,514.9,313.1z"/>
<path class="st11" d="M599.1,314.9l10.1,2.3c0,0,9.2,39.4,5.5,60.4s-4.1,28.4-4.1,28.4l-3.2,60c0,0,0.9,38.4-5.5,32.5
	s-19.2-8.7-19.2-8.7s1.4-16.9,6.4-21.1c0,0,5.9-31.6,2.3-45.3S599.1,314.9,599.1,314.9z"/>
<path class="st10" d="M602.7,359.3l-11.7,67.5l-7.1-3l12.4-64.5l-13.2-30.7L571.6,302c2.7,2.1,5.5,4.1,8.1,5.9l7,15.7L602.7,359.3z"
	/>
<polygon class="st8" points="568.2,236.9 547.4,225.9 518.6,230.4 512.6,256.7 527.4,256.2 531.6,246.5 531.6,256 538.4,255.7 
	542.4,240.3 544.9,256.7 569.2,256.2 "/>
<ellipse class="st12" cx="527" cy="796.4" rx="14.2" ry="5.3"/>
<ellipse class="st12" cx="623" cy="796.4" rx="14.2" ry="5.3"/>
<path class="st13" d="M263.5,648.8c-29.6,19.3-67.2,21.4-98.8,5.8l2.2-4.5c47.3,23.3,104.6,3.7,127.8-43.6
	c23.3-47.3,3.7-104.6-43.6-127.8s-104.6-3.7-127.8,43.6c-6.9,14-10.2,29.5-9.7,45.1l-5,0.2c-1.7-55.5,41.8-101.9,97.3-103.6
	c55.5-1.7,101.9,41.8,103.6,97.3C310.6,596.4,293.2,629.7,263.5,648.8z"/>
<path class="st13" d="M218.3,558.4c-14.8,3.3-34.5,5.3-48.8,3.2l18,13.7l-50.4,32.5l2.7,4.2l50.4-32.5l5.1,22.1
	C199.3,587.6,209.2,570.5,218.3,558.4z"/>
<path class="st14" d="M309.9,476.3c0,8.6-1.9,17.2-5.6,25c-10.9,12.1-26.5,19-42.8,19c-31.9,0-57.8-25.9-57.8-57.8
	c0-8.6,1.9-17.2,5.6-25c10.9-12.1,26.5-19,42.8-19C284.1,418.5,309.9,444.4,309.9,476.3z"/>
<path class="st4" d="M165.7,542.5c0,8.6-1.9,17.2-5.6,25c-10.9,12.1-26.5,19-42.8,19c-31.9,0-57.8-25.9-57.8-57.8
	c0-8.6,1.9-17.2,5.6-25c10.9-12.1,26.5-19,42.8-19C139.8,484.7,165.7,510.6,165.7,542.5z"/>
<path class="st15" d="M280.8,657.6c0,8.6-1.9,17.2-5.6,25c-10.9,12.1-26.5,19-42.8,19c-31.9,0-57.8-25.9-57.8-57.8
	c0-8.6,1.9-17.2,5.6-25c10.9-12.1,26.5-19,42.8-19C254.9,599.8,280.8,625.7,280.8,657.6z"/>
<g class="st16">
	<path class="st17" d="M504.8,249.9c0,0,27-26.8,70.3-7.2"/>
	<path class="st17" d="M513,235.1c0,0,14.9-16.2,52.2-5.6"/>
</g>
<g class="st16">
	<path class="st17" d="M513,235.1c0,0,14.9-16.2,52.2-5.6l12.7,6.2l-2.9,7c-43.3-19.6-70.3,7.2-70.3,7.2l-2.9-9.2L513,235.1z"/>
	<path class="st18" d="M573,238.6c-10.7-18-31.8-18.9-31.8-18.9s-20.6-2.6-33.8,24.8c-12.3,25.6-29.3,50.3-2.7,56.3l4.8-14.9l3,16
		c3.8,0.3,7.6,0.3,11.4,0.2c28.4-0.9,55.5,0.3,54.6-9.9C577.3,278.7,583.2,255.9,573,238.6z"/>
</g>
<path class="st8" d="M513,235c12.7-17.3,28.1-15.3,28.1-15.3s13.3,0.5,24.1,9.7C528.8,219.1,513.7,234.3,513,235z"/>
<path class="st19" d="M578.4,292.2c0.9,10.2-26.2,9-54.6,9.9c-3.8,0.1-7.6,0.1-11.4-0.2l-3-16l-4.8,14.9c-24.7-5.6-11.7-27.4,0.1-51
	c0,0,0,0,0,0c0.6-0.6,27.5-26.5,70.3-7.2C582.3,259.4,577.3,279.7,578.4,292.2z"/>
<path class="st20" d="M575,242.7c-42.8-19.4-69.7,6.6-70.3,7.2c0.9-1.8,1.8-3.5,2.6-5.3c1.8-3.7,3.7-6.8,5.6-9.5h0c0,0,0,0,0,0
	c0.7-0.7,15.7-15.9,52.2-5.6h0c2.8,2.4,5.5,5.4,7.7,9.1C573.8,239.9,574.5,241.3,575,242.7z"/>
<path class="st21" d="M501.9,240.7l11.1-5.6c-2,2.7-3.9,5.8-5.6,9.5c-0.8,1.8-1.7,3.5-2.6,5.3c0,0,0,0,0,0L501.9,240.7z"/>
<path class="st21" d="M577.9,235.7l-2.9,7c-0.6-1.4-1.3-2.8-2.1-4.1c-2.2-3.7-4.9-6.7-7.7-9.1L577.9,235.7z"/>
</svg>
