<?xml version="1.0" encoding="utf-8"?>
<!-- Generator: Adobe Illustrator 27.5.0, SVG Export Plug-In . SVG Version: 6.00 Build 0)  -->
<svg version="1.1" id="Layer_1" xmlns="http://www.w3.org/2000/svg" xmlns:xlink="http://www.w3.org/1999/xlink" x="0px" y="0px"
	 viewBox="0 0 744.8 403.6" style="enable-background:new 0 0 744.8 403.6;" xml:space="preserve">
<style type="text/css">
	.st0{fill:#022709;}
	.st1{fill:#846262;}
	.st2{fill:#EF5011;}
	.st3{fill:#3333FF;}
	.st4{fill:#D1B820;}
	.st5{fill:#F73B1C;}
	.st6{fill:#FC9292;}
	.st7{fill:#F9A898;}
	.st8{display:none;fill:#BBBBEA;}
	.st9{fill:#23120E;}
	.st10{fill:#FF9900;}
	.st11{fill:#00FFFF;}
	.st12{display:none;}
	.st13{display:inline;fill:#CBF7F6;}
	.st14{display:none;fill:#00FFFF;}
	.st15{display:inline;fill:#00FFFF;}
	.st16{display:inline;fill:none;stroke:#CBF7F6;stroke-miterlimit:10;}
	.st17{display:inline;fill:none;stroke:#C13E49;stroke-miterlimit:10;}
	.st18{display:inline;fill:#C13E49;}
	.st19{display:none;fill:#CBF7F6;}
	.st20{display:inline;fill:#D1D3D4;}
	.st21{display:inline;}
	.st22{fill:#C13E49;}
	.st23{fill:#9B4231;}
	.st24{fill:#FFB7A4;}
	.st25{fill:#0D4215;}
	.st26{display:none;fill:#8EAF27;}
	.st27{display:inline;fill:#BBBBEA;}
	.st28{fill:#BBBBEA;}
	.st29{display:none;fill:#022709;}
	.st30{fill:#8EAF27;}
	.st31{fill:none;stroke:#0D4215;stroke-width:0.9042;stroke-miterlimit:10;}
	.st32{display:none;fill:none;stroke:#0D4215;stroke-miterlimit:10;}
	.st33{fill:none;stroke:#0D4215;stroke-width:0.8843;stroke-miterlimit:10;}
	.st34{fill:none;stroke:#CC9933;stroke-miterlimit:10;}
	.st35{fill:none;stroke:#5E9632;stroke-miterlimit:10;}
	.st36{fill:none;stroke:#329383;stroke-miterlimit:10;}
</style>
<path class="st0" d="M575.7,263.5c-6.1-7.9-16.6-21.6-34.6-25.8c-34-7.8-63.2,25.7-66,29c-27.5,32.5-31.8,88.6-4,115.9
	c14.2,14,33.6,17.2,41.9,18.5c9.7,1.6,32.4,5.3,51.5-8c10.3-7.2,15.2-16.2,18.5-22.5C598.5,341,600.6,296,575.7,263.5z M533.4,386.6
	c-19.9,2.1-38.8-16.7-46.6-34.2c-8.8-20.3-5.6-43.9,8.3-61.1c2.9-3.5,18.2-22.1,39.4-19.7c20.8,2.3,33.2,23.3,37.3,37.3
	C581,340.5,561.6,383.7,533.4,386.6z"/>
<polygon class="st1" points="407.7,390.7 397.2,390.7 392.2,350.2 407.7,350.2 "/>
<path class="st2" d="M407.4,387.2l-11.2-4.6l-0.3-0.1l-6.2,4.7c-7.3,0-13.2,5.9-13.2,13.2v0.4h33.8v-13.6H407.4z"/>
<polygon class="st1" points="539,310 536.6,320.2 496.1,315.9 499.6,300.9 "/>
<path class="st2" d="M536.3,306.6l-0.6,2.6l-0.1,0.3l-6.9,9.9l-0.2,0.3l3.2,7.1c-1.6,7.1,2.8,14.1,9.8,15.8l0,0l0.4,0.1l7.6-32.9
	L536.3,306.6z"/>
<path class="st3" d="M400.6,173.2l57.8,2l0.4-0.6c0,0,4.9,11.5,4.9,21.4c0,3.3-2.3,24.7-1.1,28.8c0.1,0.5-0.8,1.7-0.5,4.1
	c0.2,1.5,1.4,0.4,1.6,2.5c0.2,1.5-1.9,2.4-1.6,4.1c0.2,1.9,3.1,8.1,3.3,10.3c2.7,22.7-1.7,28.6-1.7,28.6s49.5,20.7,52.5,21.4
	c5.1,1.1,8.6,10.4,5.8,12.3c-1.4,0.9-5.9,18.1-5.9,18.1c-1,0.2-4-1.3-2.1-4.9c0.4-0.7-1.8,1-2.1,0.2c-0.4-0.8-5.6,2.8-6.1,1.9
	c-3.8-8.3-51.7-19.9-57.3-25.8c-8.2-8.8-13.4-19.9-14.9-31.9l-4.8-43.8l-4.4,19.9l-3.6,3.6l1,8.3l-0.2,8.1l-9,33.7
	c0,0-1.4,62.9,0.8,64.9c1.2,1.1,6.2,14.4-3.3,15.6l-17.2-1.3c0,0-2.3-4.9-1.2-6.6s1.1-1.3-0.3-4.1s-0.8-7.7-0.8-7.7
	c-2.3-22.7-3.1-45.5-2.7-68.2c0.9-37.4,6.1-80.4,6.1-81.3c0-0.9-0.1-1.8-0.5-2.6v-2.4l2.2-8.4L400.6,173.2z"/>
<path class="st4" d="M463.6,186.8c-14.6,2.5-24.4,1.6-30.4-7.4c-7.9-10-22.2,1.8-34.2,6.2l-1.4-1.5l-2.4-2.6l2.2-2.5l-2.2-4.9l1.9-6
	l2.4-0.4l-0.6-5.2l-1-3l2.9-3.2l2.5-8.1l-1.8-16.9c-2.5-23.1,2.3-46.5,13.7-66.8l6.8-6.1l2.8-2.5l3.8-7.1l4,0.5l10.9,1.3l0.4,0.9
	l2.7,6.4l9.7,10.4c2.8,3,4.1,7,3.7,11.1l0,0l-0.3,2.8l-0.2,2l-1,9.7l-4,39.8l-0.3,2.1l-3.2,22.9c5.2,5,5.5,3.9,7.7,12.7
	c0.2,1,3.1,3.2,3.3,4.1C462.2,176.6,463.6,186.8,463.6,186.8z"/>
<circle class="st1" cx="433.9" cy="25.5" r="18.9"/>
<path class="st5" d="M453.7,11.2c-2.5-2.8-6.4-3.8-10-2.7c-2.3-6.6-9.6-10.2-16.2-7.8c-2.5,0.9-4.6,2.5-6.1,4.6
	c-1.3-0.6-2.7-0.4-3.9,0.4c-1.1,0.8-2,1.9-2.6,3.1c-3.1,6-2.8,13.2,1,18.8c-0.7-1.5,1.3,1.1,3.4,0.4c1.7-0.5,8.9-5,10.7-4.8
	c1.8,0.2,2.4-1.2,4.1-1.6c1.7-0.5,6.1,6.5,7,11.2c0.2,0.9,0.6,2,1.5,2c1.1,0,1.4-1.6,2.4-2.2c0.9-0.5,2-0.1,2.5,0.8
	c0.4,0.9,0.4,2-0.1,2.9s-1.1,1.7-1.8,2.3l0.5,0.3c1,0.7,2.3,0.6,3.2-0.2c1.8,0.8,6.7-3.8,6.1-6.6c1.4-3.4,2.1-7,2.2-10.7
	C457.5,17.6,456.2,14,453.7,11.2z"/>
<path class="st1" d="M308,74.9c2.6,2.5,6.8,2.4,9.3-0.3c0.3-0.3,0.5-0.6,0.7-0.9l40.4,9.7l-4-11.4l-38.7-7.6c-3.2-1.8-7.2-0.7-9,2.5
	C305.2,69.5,305.8,72.9,308,74.9L308,74.9z"/>
<path class="st4" d="M428.7,67.9l-3.2-1.7L410.7,66h-0.5l0,0l-11.3-0.2L344.2,65l-2.2,1.9l-3.4-2l-3.8-1.9l-3.5,1.8h-3l-0.5,2l0,0
	v0.1l-2,8.8l0,0v2.1l3.5,3.8l1.9,1.4l3.9,1.7l2.7-3.2l3.2,3.3l13,2.4c21.7,6,41.6,8.8,56.9,3.3l1.9-0.1l15.2-0.7
	c4.2-0.2,8-2.9,9.4-6.9l0,0c0.5-1.3,0.7-2.7,0.6-4.1c-0.1-1.3-0.4-2.6-0.9-3.7c-1-2.1-2.6-3.9-4.7-5L428.7,67.9z"/>
<path class="st6" d="M654.1,378.3c2,0.1,3.6-1.5,3.7-3.4c0-1.1-0.4-2.1-1.2-2.8c-0.1-0.4-0.2-0.6-0.3-1c1.9-4.9,7.4-7.4,12.4-5.5
	c2.4,0.9,4.4,2.8,5.4,5.2c4.3,9.8,9.9,20,7.3,30.9c17.6-38.2,11-85.5-15.8-117.8c-7.4-4-13.4-11.1-15-19.4c3.6,1.2,8.1-1.8,5.4-5.6
	c-1.2-1.5-2.4-2.9-3.6-4.3c13.7-14.8,30.3,8.1,15.3,28.1c5,6.2,9.4,12.9,13,20c-0.9-7.6,0-15.2,2.7-22.3c2.7-6.6,7.8-12.3,12.3-18
	c5.4-7,16.8-3.9,17.6,4.9c-5.1,1.7-5.7,9.1,0.2,10c-1.4,16.5-12,31.7-26.7,39.1c5.6,15.3,7.9,31.6,6.7,47.9
	c2.4-19,22.8-23.8,36.9-31.5c2.6-1.7,6-1,7.7,1.6c0.8,1.2,1.1,2.6,0.8,3.9c-2,0.8-3.8,1.8-5.6,3c-2.2,1.5-2.8,4.5-1.3,6.7
	c0.8,1.2,2.1,2,3.6,2.1c-7,17.8-25.5,29.9-44.5,30.1c-1.8,8-4.3,15.8-7.7,23.2l-28.3,0.3c-0.1-0.3-0.2-0.6-0.3-1
	c2.6,0.1,5.2,0,7.8-0.5C655.6,393.9,650.2,389.8,654.1,378.3L654.1,378.3z"/>
<path class="st7" d="M85.2,298.3c-2,0.1-3.6-1.5-3.7-3.4c0-1.1,0.4-2.1,1.2-2.8c0.1-0.4,0.2-0.6,0.3-1c-1.9-4.9-7.4-7.4-12.4-5.5
	c-2.4,0.9-4.4,2.8-5.4,5.2c-4.3,9.8-9.9,20-7.3,30.9c-17.6-38.2-11-85.5,15.8-117.8c7.4-4,13.4-11.1,15-19.4
	c-3.6,1.2-8.1-1.8-5.4-5.6c1.2-1.5,2.4-2.9,3.6-4.3c-13.7-14.8-30.3,8.1-15.3,28.1c-5,6.2-9.4,12.9-13,20c0.9-7.6,0-15.2-2.7-22.3
	c-2.7-6.6-7.8-12.3-12.3-18c-5.4-7-16.8-3.9-17.6,4.9c5.1,1.7,5.7,9.1-0.2,10c1.4,16.5,12,31.7,26.7,39.1
	c-5.6,15.3-7.9,31.6-6.7,47.9c-2.4-19-22.8-23.8-36.9-31.5c-2.6-1.7-6-1-7.7,1.6c-0.8,1.2-1.1,2.6-0.8,3.9c2,0.8,3.8,1.8,5.6,3
	c2.2,1.5,2.8,4.5,1.3,6.7c-0.8,1.2-2.1,2-3.6,2.1c7,17.8,25.5,29.9,44.5,30.1c1.8,8,4.3,15.8,7.7,23.2l28.3,0.3
	c0.1-0.3,0.2-0.6,0.3-1c-2.6,0.1-5.2,0-7.8-0.5C83.7,313.9,89.1,309.8,85.2,298.3L85.2,298.3z"/>
<path class="st0" d="M78.3,296.6c53.2-8.6,86,79.2,120.3,73.7c62.8-10.1,36.8-325.1,85.9-327.8c41.9-2.3,95.6,136.7,140,220.1
	c23.3,43.8,36,75,36,75s-19.4,94.2-47,57c-39.4-53.1-69.1-239-90.9-230.6c-33.5,13,4.3,172.9-76.1,222.2
	C176.2,429.3,39.1,368.1,39,329.7C39,315,59.1,299.7,78.3,296.6z"/>
<path class="st0" d="M333.8,278.6c-10.8,2.5-25.1,10.1-24.3,17.2c0.8,7.6,18.9,14.6,33.4,10.1c11.9-3.7,22.7-15.5,20.2-22.3
	C360.6,276.7,344.3,276.2,333.8,278.6z"/>
<path class="st0" d="M618.2,253.2c3.5-5.9,8.5-14.7,4.8-20.9c-5-8.5-20.5-19.8-30.2-8.8c-7.3,8.4-5.7,11.8-5.6,24.8
	c0.3,35.6-19.9,111.5,1.2,147.7c3.9,6.8,25.7,5.4,34.3,6.3c9.6,0.9,19.9-8.4,19.4-19.1c-0.5-9.6-9.6-12.4-18.6-18.8
	C590.9,341.6,600.1,283.9,618.2,253.2z"/>
<path class="st8" d="M206.9,49.5c-0.2,2.6-0.4,5.3-0.6,7.9c-0.2,3.1-0.6,6.2-1.3,9.2c-0.2,0.8-0.5,1.6-1,2.3
	c-0.9,1.1,0.8,7.3-0.5,7.9s-2.7,1-4.2,1.2c-0.1-0.4-0.1-0.9-0.2-1.3v-0.1c-0.4-2-1.2-3.8-2.2-5.5c0.3,2,0,4-0.6,5.9
	c-0.1,0.3-0.2,0.6-0.4,0.9c-5.7-0.8-10.6-4.7-14.5-4.6c-2.4-7.9-4-16-5-24.1c-0.2-2.2-0.4-4.6,1-6.3c1.2-1.5,3.2-2.1,5.1-2.5
	c6.2-1.3,12.6-1.9,18.9-1.8l-11-2.6c3.1-0.2,6.2,0.1,9.2,0.9c3,0.9,5.7,2.8,6.9,5.7C207.2,44.6,207.1,47.1,206.9,49.5z"/>
<polygon class="st9" points="145,381.9 134.4,381.9 129.4,341.1 145,341.1 "/>
<path class="st10" d="M113,397.5c0,2.5,2,4.5,4.5,4.5h19.9l0.6-1.3l2.8-5.8l1.1,5.8l0.2,1.3h7.5l-0.1-1.3l-2-24l-2.6-0.2l-11.3-0.7
	l-2.8-0.2v7.2C128.8,385.1,112.2,393.6,113,397.5z"/>
<polygon class="st9" points="268.9,370.4 259.7,375.6 235.2,342.6 248.8,334.9 "/>
<path class="st10" d="M248.8,399.7c1.2,2.1,3.9,2.9,6.1,1.7l1-0.6l0,0l16.3-9.2l-0.5-7.9l4.7,5.5l3.4-2l3.1-1.8l-2.7-4l-11.6-17
	l-2.4,1.2l-10.2,5l-2.5,1.2l3.5,6.2C256.4,381.1,246.2,396.7,248.8,399.7z"/>
<path class="st11" d="M197.5,181.6c12.4,0.4,10.5,29.8,14.4,55.3c3.5,22.8,13.5,42,10.2,42.8l33.4,62.3
	c-13.1,12.1-28.4,20.2-47.6,21.3c-20.8-19.1-26.5-63.1-31.3-108.6l-5.2,40l6.9,63.4l-30.7,7.4l-21.3-1.5
	c-18-72.7,16.1-154.9,30.8-186.1L197.5,181.6z"/>
<path class="st9" d="M238.5,229.2c-3.2-2.9-3.4-7.8-0.5-11c0.3-0.3,0.6-0.6,0.9-0.8l-10-37.4l9.7-5.3l11.7,44.6
	c2.4,3.6,1.4,8.4-2.1,10.8C245.1,232,241.1,231.7,238.5,229.2L238.5,229.2z"/>
<path class="st9" d="M140,229.2c3.2-2.9,3.4-7.8,0.5-11c-0.3-0.3-0.6-0.6-0.9-0.8l10.1-37.4l-9.7-5.3l-11.7,44.6
	c-2.4,3.6-1.4,8.4,2.1,10.8C133.4,232,137.3,231.7,140,229.2L140,229.2z"/>
<g class="st12">
	<path class="st13" d="M210.6,166.4l5.6-16.9l4-5.6l1.6-16.1c0-43.4-9.7-36.2-9.7-36.2l-12.6-15.3l-14.4-0.4l-11.4-0.4l-9.4,15.7
		l0,0c-8.5,3-14.7,10.2-16.4,19.1l-2.6,13.6l9.8,29.7l-0.4-2.2c-4.6,8.5-3.4,9.8,0.4,16.2l0.2,2.3c0.4,4.2,3.4,7.8,7.5,8.8
		c40.7,10.1,44.9,27.9,50.2,20.6c1.2-1.7-3.9-22-2.2-21.8C215.6,177.8,210.6,166.4,210.6,166.4z"/>
	<path class="st13" d="M210.7,90.5c0,0,18,5.5,19.5,15s4.3,18,3.6,21.9s8.2,30,6.5,33s2.9,3.7,1.3,8.6s-2.5,5.9-1.5,6.8
		s5.4,20.4,5.4,20.4l-13.5,3.9l-24.8-61.4L210.7,90.5z"/>
	<path class="st13" d="M167.8,90.5c0,0-18,5.5-19.5,15s-4.3,18-3.6,21.9s-8.2,30-6.5,33s-2.9,3.7-1.3,8.6s2.5,5.9,1.5,6.8
		s-5.4,20.4-5.4,20.4l13.5,3.9l24.8-61.4L167.8,90.5z"/>
</g>
<path class="st0" d="M0,402.3c0-0.6,0.7-1,1.7-1h741.5c0.9,0,1.7,0.5,1.7,1s-0.7,1-1.7,1H1.7C0.7,403.3,0,402.9,0,402.3L0,402.3z"/>
<path class="st1" d="M381,188.9c3.4-1.2,5.2-4.9,4.1-8.4c-0.1-0.4-0.3-0.7-0.5-1.1l27.3-31.3l-12-1.7l-24.7,30.7
	c-3.1,2-3.9,6.1-1.9,9.1C374.9,188.9,378.1,190,381,188.9L381,188.9z"/>
<path class="st4" d="M392.9,171.5l3.9-4.3l3.7-0.3l0.3-0.3l1-1.2l0.4-3.5l2.9-0.7l6.4-8.2l1-1.6l26.9-31.4l5.5-9.1l0.9-1.9l2.7-5.8
	L448,88.6c1.2-2.5,1.3-5.5,0.3-8.1c-0.2-0.4-0.3-0.8-0.5-1.2l-0.2-0.3c-0.4-0.7-0.9-1.3-1.4-1.9l0,0c-1-1-2.1-1.9-3.4-2.5
	c-1-0.5-2.1-0.8-3.2-0.9c-2.5-0.3-5.1,0.4-7.2,1.8l-3.3,2.3l-3,2.1l-6.9,12.6l-0.4,0.8l0,0l-21.1,38.9l-6.4,11.7l-1,1.8l-0.1,5.2
	l-3.1,0.6l-3.6,2.7l-0.4,4.6l-1.7,7.4l-0.3,0.4l1.6,0.9l0.2,0.1l0.3,0.3l4,3.5l2.4,2.1l0.1,0.1l0.6,0.6L392.9,171.5z"/>
<path class="st14" d="M208.6,205.4c0,0-36.1-19.8-54.1-22l0.6-15.9l39.1,7.2l18.1,16.6L208.6,205.4z"/>
<path class="st14" d="M212.3,191.2l-3.8,14.2c0,0-36.1-19.8-54.1-22L212.3,191.2z"/>
<g class="st12">
	<path class="st15" d="M197.5,181.6c12.4,0.4,10.5,29.8,14.4,55.3c3.5,22.8,13.5,42,10.2,42.8l33.4,62.3
		c-13.1,12.1-28.4,20.2-47.6,21.3c-20.8-19.1-26.5-63.1-31.3-108.6l-5.2,40l6.9,63.4l-30.7,7.4l-21.3-1.5
		c-18-72.7,16.1-154.9,30.8-186.1L197.5,181.6z"/>
	<path class="st15" d="M208.6,205.4c0,0-36.1-19.8-54.1-22l0.6-15.9l39.1,7.2l18.1,16.6L208.6,205.4z"/>
</g>
<path class="st14" d="M255.4,342c-13.1,12.1-28.4,20.2-47.6,21.3c-20.8-19.1-26.5-63.1-31.3-108.6l-5.2,40l7,63.4l-30.7,7.4
	l-21.3-1.5c-17-68.8,12.5-146,28.2-180.6c17.8,2.2,53.2,21.6,54,22c1.1,9.6,1.7,20.9,3.3,31.5c3.5,22.8,13.5,42,10.2,42.8L255.4,342
	z"/>
<path class="st14" d="M212.3,191.2l-3.8,14.2l0,0c-1.5-13.5-3.8-23.6-11.1-23.8l-40.4-3.7c-0.8,1.7-1.6,3.5-2.5,5.5l0,0l0.6-15.9
	l39.1,7.2L212.3,191.2z"/>
<g class="st12">
	<path class="st16" d="M123.5,194.6c0,0,134.8-13.9,152.1,10.8"/>
	<path class="st16" d="M123.5,187.9c0,0,134.8-13.9,152.1,10.8"/>
	<path class="st16" d="M123.5,181.2c0,0,134.8-13.9,152.1,10.8"/>
	<path class="st16" d="M123.5,174.6c0,0,134.8-13.9,152.1,10.8"/>
	<path class="st16" d="M123.5,167.9c0,0,134.8-13.9,152.1,10.8"/>
	<path class="st16" d="M123.5,161.2c0,0,134.8-13.9,152.1,10.8"/>
	<path class="st16" d="M123.5,154.5c0,0,134.8-13.9,152.1,10.8"/>
	<path class="st16" d="M123.5,147.8c0,0,134.8-13.9,152.1,10.8"/>
	<path class="st16" d="M123.5,141.2c0,0,134.8-13.9,152.1,10.8"/>
	<path class="st16" d="M123.5,134.5c0,0,134.8-13.9,152.1,10.8"/>
	<path class="st16" d="M123.5,127.8c0,0,134.8-13.9,152.1,10.8"/>
	<path class="st16" d="M123.5,121.1c0,0,134.8-13.9,152.1,10.8"/>
	<path class="st16" d="M123.5,114.4c0,0,134.8-13.9,152.1,10.8"/>
	<path class="st16" d="M123.5,107.8c0,0,134.8-13.9,152.1,10.8"/>
	<path class="st16" d="M123.5,101.1c0,0,134.8-13.9,152.1,10.8"/>
	<path class="st16" d="M123.5,94.4c0,0,134.8-13.9,152.1,10.8"/>
	<path class="st16" d="M123.5,87.7c0,0,134.8-13.9,152.1,10.8"/>
</g>
<g class="st12">
	<path class="st17" d="M123.5,194.6c0,0,134.8-13.9,152.1,10.8"/>
	<path class="st17" d="M123.5,187.9c0,0,134.8-13.9,152.1,10.8"/>
	<path class="st17" d="M123.5,181.2c0,0,134.8-13.9,152.1,10.8"/>
	<path class="st17" d="M123.5,174.6c0,0,134.8-13.9,152.1,10.8"/>
	<path class="st17" d="M123.5,167.9c0,0,134.8-13.9,152.1,10.8"/>
	<path class="st17" d="M123.5,161.2c0,0,134.8-13.9,152.1,10.8"/>
	<path class="st17" d="M123.5,154.5c0,0,134.8-13.9,152.1,10.8"/>
	<path class="st17" d="M123.5,147.8c0,0,134.8-13.9,152.1,10.8"/>
	<path class="st17" d="M123.5,141.2c0,0,134.8-13.9,152.1,10.8"/>
	<path class="st17" d="M123.5,134.5c0,0,134.8-13.9,152.1,10.8"/>
	<path class="st17" d="M123.5,127.8c0,0,134.8-13.9,152.1,10.8"/>
	<path class="st17" d="M123.5,121.1c0,0,134.8-13.9,152.1,10.8"/>
	<path class="st17" d="M123.5,114.4c0,0,134.8-13.9,152.1,10.8"/>
	<path class="st17" d="M123.5,107.8c0,0,134.8-13.9,152.1,10.8"/>
	<path class="st17" d="M123.5,101.1c0,0,134.8-13.9,152.1,10.8"/>
	<path class="st17" d="M123.5,94.4c0,0,134.8-13.9,152.1,10.8"/>
	<path class="st17" d="M123.5,87.7c0,0,134.8-13.9,152.1,10.8"/>
</g>
<g class="st12">
	<path class="st18" d="M275.1,205.7c-16.9-24.2-150.3-10.7-151.6-10.6l-0.1-1c0.3,0,34.1-3.5,69.6-3.9c47.8-0.5,75.7,4.5,82.9,14.9
		L275.1,205.7z"/>
	<path class="st18" d="M275.1,199c-16.9-24.2-150.3-10.7-151.6-10.6l-0.1-1c0.3,0,34.1-3.5,69.6-3.9c47.8-0.5,75.7,4.5,82.9,14.9
		L275.1,199z"/>
	<path class="st18" d="M275.1,192.3c-16.9-24.2-150.3-10.7-151.6-10.6l-0.1-1c0.3,0,34.1-3.5,69.6-3.9c47.8-0.5,75.7,4.5,82.9,14.9
		L275.1,192.3z"/>
	<path class="st18" d="M275.1,185.7c-16.9-24.2-150.3-10.7-151.6-10.6l-0.1-1c0.3,0,34.1-3.5,69.6-3.9c47.8-0.5,75.7,4.5,82.9,14.9
		L275.1,185.7z"/>
	<path class="st18" d="M275.1,179c-16.9-24.2-150.3-10.7-151.6-10.6l-0.1-1c0.3,0,34.1-3.5,69.6-3.9c47.8-0.5,75.7,4.5,82.9,14.9
		L275.1,179z"/>
	<path class="st18" d="M275.1,172.3c-16.9-24.2-150.3-10.7-151.6-10.6l-0.1-1c0.3,0,34.1-3.5,69.6-3.9c47.8-0.5,75.7,4.5,82.9,14.9
		L275.1,172.3z"/>
	<path class="st18" d="M275.1,165.6c-16.9-24.2-150.3-10.7-151.6-10.6l-0.1-1c0.3,0,34.1-3.5,69.6-3.9c47.8-0.5,75.7,4.5,82.9,14.9
		L275.1,165.6z"/>
	<path class="st18" d="M275.1,158.9c-16.9-24.2-150.3-10.7-151.6-10.6l-0.1-1c0.3,0,34.1-3.5,69.6-3.9c47.8-0.5,75.7,4.5,82.9,14.9
		L275.1,158.9z"/>
	<path class="st18" d="M275.1,152.2c-16.9-24.2-150.3-10.7-151.6-10.6l-0.1-1c0.3,0,34.1-3.5,69.6-3.9c47.8-0.5,75.7,4.5,82.9,14.9
		L275.1,152.2z"/>
	<path class="st18" d="M275.1,145.6c-16.9-24.2-150.3-10.7-151.6-10.6l-0.1-1c0.3,0,34.1-3.5,69.6-3.9c47.8-0.5,75.7,4.5,82.9,14.9
		L275.1,145.6z"/>
	<path class="st18" d="M275.1,138.9c-16.9-24.2-150.3-10.7-151.6-10.6l-0.1-1c0.3,0,34.1-3.5,69.6-3.9c47.8-0.5,75.7,4.5,82.9,14.9
		L275.1,138.9z"/>
	<path class="st18" d="M275.1,132.2c-16.9-24.2-150.3-10.7-151.6-10.6l-0.1-1c0.3,0,34.1-3.5,69.6-3.9c47.8-0.5,75.7,4.5,82.9,14.9
		L275.1,132.2z"/>
	<path class="st18" d="M275.1,125.5c-16.9-24.2-150.3-10.7-151.6-10.6l-0.1-1c0.3,0,34.1-3.5,69.6-3.9c47.8-0.5,75.7,4.5,82.9,14.9
		L275.1,125.5z"/>
	<path class="st18" d="M275.1,118.8c-16.9-24.2-150.3-10.7-151.6-10.6l-0.1-1c0.3,0,34.1-3.5,69.6-3.9c47.8-0.5,75.7,4.5,82.9,14.9
		L275.1,118.8z"/>
	<path class="st18" d="M275.1,112.2c-16.9-24.2-150.3-10.7-151.6-10.6l-0.1-1c0.3,0,34.1-3.5,69.6-3.9c47.8-0.5,75.7,4.5,82.9,14.9
		L275.1,112.2z"/>
	<path class="st18" d="M275.1,105.5c-16.9-24.2-150.3-10.7-151.6-10.6l-0.1-1c0.3,0,34.1-3.5,69.6-3.9c47.8-0.5,75.7,4.5,82.9,14.9
		L275.1,105.5z"/>
	<path class="st18" d="M275.1,98.8c-16.9-24.2-150.3-10.7-151.6-10.6l-0.1-1c0.3,0,34.1-3.5,69.6-3.9c47.8-0.5,75.7,4.5,82.9,14.9
		L275.1,98.8z"/>
</g>
<path class="st19" d="M232.1,200.2l13.5-3.9c0,0-4.4-19.5-5.4-20.4s-0.1-1.9,1.5-6.8c1.6-4.9-3.1-5.6-1.3-8.6c1.7-3-7.2-29.1-6.5-33
	c0.7-3.9-2-12.3-3.6-21.9c-1-5.9-8.3-10.3-13.7-12.7c-1.5-1.8-2.9-1.8-3.7-1.5c-0.6-0.2-1-0.4-1.4-0.5l-11.9-14.4l-14.4-0.4
	l-11.4-0.4l-9.4,15.7c-2.8,1-5.3,2.4-7.5,4.2c-4.1,2.5-8,5.9-8.6,10.1c-1.6,9.5-4.3,18-3.6,21.9c0.7,3.9-8.2,30-6.5,33
	s-2.9,3.7-1.3,8.6c1.6,4.9,2.5,5.9,1.5,6.8c-1,0.9-5.4,20.4-5.4,20.4l13.5,3.9l10.5-25.9c1.3,2.1,3.5,3.7,6,4.3
	c40.7,10.1,44.9,27.9,50.2,20.6c1.2-1.7-3.9-22-2.2-21.8c4.8,0.5-0.2-10.9-0.2-10.9l3.6-10.7L232.1,200.2z"/>
<path class="st19" d="M212.4,191.4c0.6,3.8,1.1,7.1,0.6,7.7c-3.3,4.6-6.2-0.7-18.1-7.9C200.7,191.2,206.6,191.3,212.4,191.4z"/>
<path class="st19" d="M133.3,194.2c4.2-0.4,9.6-0.8,15.9-1.2l-2.9,7.1l-13.5-3.9C132.9,196.3,133.1,195.5,133.3,194.2z"/>
<path class="st19" d="M135,187.4c4.6-0.4,10.4-0.8,17-1.2l-2.3,5.8c-6.3,0.4-11.8,0.8-16,1.2C134,191.6,134.5,189.6,135,187.4z"/>
<path class="st19" d="M136.7,180.6c5-0.4,11.1-0.8,18-1.2l-2.3,5.8c-6.6,0.4-12.5,0.9-17.2,1.2C135.7,184.4,136.2,182.3,136.7,180.6
	z"/>
<path class="st19" d="M211,183.7c-5.6-0.1-11.6-0.2-18-0.1c-4.5,0-9,0.2-13.4,0.3c-4.5-1.8-9.7-3.5-15.7-5
	c14.3-0.7,30.7-1.2,46.6-0.8C210.4,179.1,210.6,181.2,211,183.7z"/>
<path class="st19" d="M212.1,177c-6-0.1-12.3-0.2-19.1-0.1c-11.2,0.1-22.1,0.5-32,1.1c-1.8-0.8-3.2-2.1-4.3-3.7l-1.6,4
	c-7,0.4-13.1,0.9-18.2,1.3c0.6-2,1.1-3.5,1.3-3.7c0.5-0.5,0.5-1,0.2-2.1c17.2-1.3,46.6-3.1,73.9-2.4
	C213,173.7,213.3,176.2,212.1,177z"/>
<path class="st19" d="M211.2,184.7c0.3,1.8,0.6,3.8,1,5.7c-6-0.1-12.3-0.2-19.1-0.1c-3.1-1.8-6.8-3.6-11.1-5.4
	C191.5,184.6,201.5,184.5,211.2,184.7z"/>
<path class="st19" d="M240.2,175.9c0.2,0.2,0.6,1.4,1.1,3.1c-5.5-0.7-11.6-1.2-18.3-1.5l-2.3-5.8c6.8,0.3,13.4,0.8,19.5,1.5
	C239.6,174.7,239.5,175.3,240.2,175.9z"/>
<path class="st19" d="M193,83.4c-8.3,0.1-16.6,0.3-24.3,0.7l5.1-8.5l11.4,0.4l14.4,0.4l5.8,7C201.4,83.3,197.3,83.3,193,83.4z"/>
<path class="st19" d="M211,90.1c-5.7-0.1-11.6-0.1-18-0.1c-9.8,0.1-19.6,0.5-28.5,0.9l3.5-5.8c12-0.5,25.2-0.9,38.2-0.7L211,90.1z"
	/>
<path class="st19" d="M224.4,97.3c-9.3-0.5-19.7-0.7-31.4-0.6c-14.3,0.2-28.4,0.8-40.1,1.5c1.2-1,2.6-2,4-2.8
	c1.6-1.3,3.4-2.5,5.4-3.3c15.3-0.8,33.4-1.3,50.5-0.8h0.1h0.1h0.1c0.4-0.1,0.8-0.1,1.4,0c0.6,0.2,1.3,0.6,2,1.5
	C219,93.9,221.9,95.4,224.4,97.3z"/>
<path class="st19" d="M230,104.4c-10.6-0.8-22.9-1.1-36.9-1c-16.3,0.2-32.2,1-44.8,1.8c0.4-2.2,1.7-4.2,3.4-5.9
	c20.7-1.3,49.4-2.4,74.1-0.9l0,0C227.7,100.2,229.3,102.2,230,104.4z"/>
<path class="st19" d="M231.3,111.2c-10.9-0.9-23.6-1.2-38.3-1.1c-16.9,0.2-33.4,1-46.1,1.9c0.4-1.8,0.8-3.8,1.1-5.7
	c22.1-1.5,55.1-2.9,82.1-0.8c0,0,0,0,0,0.1C230.6,107.4,230.9,109.3,231.3,111.2z"/>
<path class="st19" d="M232.8,118c-11.2-1-24.5-1.4-39.8-1.2c-17.5,0.2-34.6,1.1-47.5,2c0.4-1.8,0.8-3.7,1.2-5.8
	c22.4-1.5,56.9-3.1,84.8-0.8C232,114.3,232.4,116.2,232.8,118z"/>
<path class="st19" d="M233.9,124.7c-11.4-1-25.1-1.5-40.9-1.3c-18,0.2-35.6,1.2-48.5,2.1c0-1.6,0.3-3.5,0.8-5.7
	c22.7-1.6,59-3.3,87.7-0.8C233.5,121.2,233.8,123.1,233.9,124.7z"/>
<path class="st19" d="M234.3,131.5c-11.5-1-25.3-1.5-41.3-1.3c-18.2,0.2-36,1.2-49.1,2.1c0.5-2.3,0.8-4.1,0.6-4.9
	c0-0.2-0.1-0.5-0.1-0.8c22.9-1.6,60.3-3.4,89.5-0.8c0,0.6,0,1.1-0.1,1.6C233.7,128.1,233.9,129.5,234.3,131.5z"/>
<path class="st19" d="M235.9,138.3c-11.8-1.2-26.1-1.7-42.9-1.5c-19,0.2-37.6,1.3-50.7,2.2c0.5-2.1,1-4,1.4-5.8
	c23-1.7,61.2-3.5,90.8-0.8l0,0C234.9,134.2,235.4,136.2,235.9,138.3z"/>
<path class="st19" d="M237.7,145.2c-12.2-1.3-27.1-1.9-44.7-1.7c-19.9,0.2-39.2,1.4-52.5,2.4c0.5-1.9,1-3.9,1.5-5.8
	c23.2-1.7,63.6-3.8,94.2-0.7C236.7,141.3,237.2,143.2,237.7,145.2z"/>
<path class="st19" d="M239.4,152c-12.5-1.4-27.9-2.1-46.4-1.9c-20.7,0.2-40.9,1.5-54.1,2.5c0.4-1.8,0.9-3.7,1.4-5.8
	c23.3-1.8,66.2-4.1,97.7-0.7C238.5,148.3,239,150.2,239.4,152z"/>
<path class="st19" d="M210.6,166.4c0,0,0.8,1.8,1.5,4c-5.9-0.1-12.3-0.2-19-0.1c-21.1,0.2-41.7,1.5-54.9,2.6
	c-0.3-0.9-0.8-2.1-1.3-3.8c-0.2-0.7-0.3-1.2-0.3-1.8c16.6-1.3,46.7-3.2,74.7-2.6L210.6,166.4z"/>
<path class="st19" d="M136.5,166.2c0.5-2.6,2.9-3.5,1.6-5.8c17.4-1.3,47.5-3.2,75.3-2.4l-1.9,5.6c-5.8-0.1-12-0.2-18.5-0.1
	C171,163.8,149.7,165.2,136.5,166.2z"/>
<path class="st19" d="M240.5,158.9c-7.5-0.9-16.1-1.5-25.8-1.8l-0.5-1.3l-0.4,1.3c-6.4-0.2-13.3-0.2-20.7-0.2
	c-21.2,0.2-41.9,1.5-55.1,2.6c-0.1-1.2,0.2-3.3,0.8-5.7c23.3-1.8,68.6-4.4,101-0.6C240.2,155.5,240.5,157.5,240.5,158.9z"/>
<path class="st19" d="M241.8,165.7c-7.1-0.9-15.2-1.5-24.3-1.9l-2.3-5.7c8.9,0.3,17.5,0.9,25.3,1.8c0,0.2-0.1,0.4-0.2,0.5
	C239.1,162.6,241.1,163.5,241.8,165.7z"/>
<path class="st19" d="M241.6,169c-0.4,1.3-0.8,2.4-1.1,3.2c-6-0.7-12.8-1.3-20.3-1.6l-2.3-5.7c8.5,0.3,16.7,0.9,24.1,1.9
	C242,167.4,241.9,168.1,241.6,169z"/>
<path class="st19" d="M243.1,185.9c-5.2-0.7-11-1.3-17.4-1.7l-2.3-5.8c6.4,0.3,12.5,0.9,18.2,1.6
	C242.1,181.8,242.6,183.8,243.1,185.9z"/>
<path class="st19" d="M244.8,192.8c-4.9-0.7-10.3-1.3-16.3-1.7l-2.3-5.8c6.1,0.4,11.9,0.9,17.3,1.7
	C243.9,189.1,244.4,191.2,244.8,192.8z"/>
<path class="st19" d="M245.6,196.3l-13.5,3.9l-3.2-8c5.7,0.4,11.1,1,16.1,1.7C245.4,195.4,245.6,196.3,245.6,196.3z"/>
<g class="st12">
	<path class="st20" d="M245,193.9c-5-0.7-10.4-1.3-16.1-1.7l-0.4-1.1c6,0.4,11.4,1,16.3,1.7C244.9,193.2,245,193.6,245,193.9z"/>
	<path class="st20" d="M212.4,191.4c-5.8-0.2-11.7-0.2-17.5-0.1c-0.6-0.3-1.1-0.7-1.7-1c6.8-0.1,13.1,0,19.1,0.1
		C212.2,190.7,212.3,191.1,212.4,191.4z"/>
	<path class="st20" d="M149.6,192l-0.4,1c-6.2,0.4-11.6,0.8-15.9,1.2c0.1-0.3,0.2-0.7,0.2-1C137.9,192.8,143.4,192.4,149.6,192z"/>
	<path class="st18" d="M123.4,194.1c0.1,0,3.9-0.4,10.2-0.9c-0.1,0.4-0.2,0.7-0.2,1c-6,0.5-9.6,0.9-9.8,0.9L123.4,194.1z"/>
	<path class="st18" d="M194.9,191.3c-16.6,0.1-32.8,0.9-45.6,1.8l0.4-1c12.3-0.8,27.7-1.6,43.4-1.8h0.1
		C193.7,190.6,194.3,190.9,194.9,191.3z"/>
	<path class="st18" d="M228.9,192.2c-5.3-0.4-10.9-0.6-16.5-0.8c-0.1-0.3-0.1-0.7-0.2-1c5.8,0.1,11.2,0.4,16.3,0.8L228.9,192.2z"/>
	<path class="st18" d="M276,205.1l-0.8,0.6c-4.2-6-15.5-9.6-30.1-11.8c-0.1-0.3-0.2-0.7-0.2-1.1C261.5,195.2,271.9,199.4,276,205.1z
		"/>
	<path class="st20" d="M152.4,185.1l-0.4,1c-6.6,0.4-12.4,0.9-17,1.2c0.1-0.3,0.2-0.7,0.3-1C139.9,186,145.8,185.6,152.4,185.1z"/>
	<path class="st18" d="M123.4,187.4c0.1,0,4.6-0.5,11.8-1.1c-0.1,0.4-0.2,0.7-0.3,1c-7,0.6-11.2,1-11.4,1L123.4,187.4z"/>
	<path class="st20" d="M211.2,184.7c-9.7-0.2-19.7-0.1-29.2,0.1l0,0c-0.8-0.3-1.5-0.6-2.4-1c4.4-0.1,8.9-0.2,13.4-0.3
		c6.4-0.1,12.4,0,18,0.1C211.1,184,211.2,184.4,211.2,184.7z"/>
	<path class="st18" d="M179.6,183.9c0.8,0.3,1.6,0.6,2.4,1c-10.8,0.3-21.1,0.8-30,1.4l0.4-1C160.5,184.6,169.8,184.2,179.6,183.9z"
		/>
	<path class="st20" d="M243.4,187c-5.4-0.7-11.2-1.3-17.3-1.7l-0.4-1.1c6.4,0.4,12.2,0.9,17.4,1.7
		C243.2,186.3,243.3,186.6,243.4,187z"/>
	<path class="st18" d="M225.7,184.3l0.4,1.1c-4.9-0.3-9.9-0.5-14.9-0.6c-0.1-0.4-0.1-0.7-0.2-1C216.2,183.8,221.1,184,225.7,184.3z"
		/>
	<path class="st18" d="M276,198.4l-0.8,0.6c-4.3-6.2-16.3-9.9-31.7-12c-0.1-0.4-0.2-0.7-0.3-1.1C260.8,188.3,271.8,192.5,276,198.4z
		"/>
	<path class="st20" d="M155.2,178.3l-0.4,1c-6.9,0.4-13.1,0.8-18,1.2c0.1-0.4,0.2-0.7,0.3-1C142,179.2,148.2,178.7,155.2,178.3z"/>
	<path class="st18" d="M123.4,180.7c0.1,0,5.3-0.5,13.6-1.2c-0.1,0.3-0.2,0.7-0.3,1c-8,0.6-12.9,1.1-13.2,1.2L123.4,180.7z"/>
	<path class="st20" d="M212.1,177c-0.3,0.2-0.8,0.3-1.3,0.3c-0.2,0-0.3,0.2-0.3,0.7c-15.9-0.3-32.3,0.1-46.6,0.8
		c-0.3-0.1-0.7-0.2-1.1-0.3c-0.6-0.1-1.2-0.4-1.8-0.6c9.8-0.5,20.8-0.9,32-1.1C199.8,176.8,206.2,176.9,212.1,177z"/>
	<path class="st18" d="M162.8,178.6c0.4,0.1,0.7,0.2,1.1,0.3c-3.2,0.1-6.2,0.3-9.1,0.5l0.4-1c1.9-0.1,3.9-0.2,5.9-0.3
		C161.6,178.2,162.2,178.4,162.8,178.6z"/>
	<path class="st20" d="M241.6,180.1c-5.7-0.7-11.8-1.2-18.2-1.6l-0.4-1.1c6.7,0.3,12.8,0.9,18.3,1.5
		C241.4,179.3,241.5,179.7,241.6,180.1z"/>
	<path class="st18" d="M223,177.4l0.4,1.1c-4.2-0.2-8.5-0.4-12.9-0.5c0-0.5,0.1-0.8,0.3-0.7c0.6,0.1,1,0,1.3-0.3
		C215.9,177.1,219.5,177.2,223,177.4z"/>
	<path class="st18" d="M276,191.8l-0.8,0.6c-4.5-6.4-17.2-10.2-33.5-12.3c-0.1-0.4-0.2-0.8-0.3-1.1C260,181.3,271.6,185.6,276,191.8
		z"/>
	<path class="st20" d="M212.4,171.4c-27.3-0.7-56.7,1.1-73.9,2.4c-0.1-0.3-0.2-0.6-0.3-1c13.2-1,33.8-2.3,54.9-2.6
		c6.7-0.1,13.1,0,19,0.1C212.2,170.7,212.3,171,212.4,171.4z"/>
	<path class="st18" d="M138.2,172.8c0.1,0.4,0.2,0.7,0.3,1c-9,0.7-14.7,1.3-15,1.3l-0.1-1C123.5,174.1,129.2,173.5,138.2,172.8z"/>
	<path class="st20" d="M240.5,172.2c-0.1,0.4-0.3,0.7-0.4,1c-6.1-0.7-12.7-1.2-19.5-1.5l-0.4-1.1
		C227.7,170.9,234.5,171.5,240.5,172.2z"/>
	<path class="st18" d="M220.2,170.6l0.4,1.1c-2.7-0.1-5.5-0.2-8.3-0.3c-0.1-0.4-0.2-0.7-0.3-1C214.9,170.4,217.6,170.5,220.2,170.6z
		"/>
	<path class="st18" d="M276,185.1l-0.8,0.6c-4.6-6.6-18-10.4-35-12.4c0.1-0.3,0.2-0.6,0.4-1C259.7,174.5,271.6,178.8,276,185.1z"/>
	<path class="st20" d="M242,166.8c-7.4-0.9-15.6-1.5-24.1-1.9l-0.4-1.1c9.1,0.3,17.2,1,24.3,1.9C241.9,166,242,166.4,242,166.8z"/>
	<path class="st20" d="M211.5,163.6l-0.3,1c-28-0.7-58.1,1.3-74.7,2.6c0-0.4,0-0.7,0.1-1l0,0c13.1-1,34.5-2.5,56.5-2.7
		C199.6,163.5,205.7,163.5,211.5,163.6z"/>
	<path class="st18" d="M123.4,167.4c0.1,0,5.1-0.5,13.1-1.2c-0.1,0.3-0.1,0.6-0.1,1c-7.8,0.6-12.7,1.1-13,1.1L123.4,167.4z"/>
	<path class="st18" d="M217.9,164.9c-2.2-0.1-4.4-0.2-6.7-0.2l0.3-1c2,0,4,0.1,5.9,0.2L217.9,164.9z"/>
	<path class="st18" d="M276,178.4l-0.8,0.6c-4.5-6.4-17-10.1-33.2-12.2c0-0.4-0.1-0.8-0.2-1.1C260.2,168,271.7,172.3,276,178.4z"/>
	<path class="st20" d="M240.5,158.9c0,0.4,0,0.8,0,1c-7.8-0.9-16.5-1.5-25.3-1.8l0,0l-0.4-1.1C224.4,157.3,233,157.9,240.5,158.9z"
		/>
	<path class="st20" d="M213.7,157l-0.3,1c-27.8-0.8-57.9,1-75.3,2.4c-0.1-0.2-0.2-0.6-0.2-1c13.2-1,33.9-2.4,55.1-2.6
		C200.4,156.8,207.3,156.8,213.7,157z"/>
	<path class="st18" d="M137.9,159.4c0,0.4,0.1,0.8,0.2,1c-8.8,0.7-14.4,1.2-14.6,1.3l-0.1-1C123.5,160.7,129.1,160.1,137.9,159.4z"
		/>
	<path class="st18" d="M215.1,158.1c-0.6,0-1.2,0-1.7,0l0.3-1c0.3,0,0.7,0,1,0L215.1,158.1z"/>
	<path class="st18" d="M276,171.7l-0.8,0.6c-4.6-6.6-17.8-10.4-34.6-12.4c0-0.3,0-0.6,0-1C259.7,161.2,271.6,165.5,276,171.7z"/>
	<path class="st20" d="M239.7,153.1c-32.4-3.8-77.7-1.2-101,0.6c0.1-0.3,0.2-0.7,0.2-1c13.2-1,33.4-2.3,54.1-2.5
		c18.4-0.2,33.9,0.4,46.4,1.9C239.5,152.4,239.6,152.8,239.7,153.1z"/>
	<path class="st18" d="M123.4,154c0.1,0,6.1-0.6,15.5-1.3c-0.1,0.3-0.1,0.7-0.2,1c-9.1,0.7-14.9,1.3-15.2,1.3L123.4,154z"/>
	<path class="st18" d="M276,165l-0.8,0.6c-4.7-6.7-18.2-10.5-35.5-12.5c-0.1-0.4-0.2-0.7-0.2-1.1C259.3,154.3,271.5,158.7,276,165z"
		/>
	<path class="st20" d="M238,146.3c-31.5-3.4-74.4-1.1-97.7,0.7c0.1-0.3,0.2-0.7,0.3-1c13.2-1,32.6-2.2,52.5-2.4
		c17.6-0.2,32.5,0.4,44.7,1.7C237.8,145.5,237.9,145.9,238,146.3z"/>
	<path class="st18" d="M123.4,147.3c0.2,0,6.8-0.7,17.2-1.5c-0.1,0.4-0.2,0.7-0.3,1c-10.1,0.8-16.5,1.4-16.8,1.4L123.4,147.3z"/>
	<path class="st18" d="M276,158.4l-0.8,0.6c-4.8-6.9-19.1-10.7-37.1-12.7c-0.1-0.4-0.2-0.7-0.3-1.1
		C258.6,147.4,271.4,151.8,276,158.4z"/>
	<path class="st20" d="M236.2,139.4c-30.5-3.1-71-1-94.2,0.7c0.1-0.4,0.2-0.7,0.3-1c13.1-1,31.7-2.1,50.7-2.2
		c16.8-0.2,31.1,0.3,42.9,1.5C236,138.6,236.1,139,236.2,139.4z"/>
	<path class="st18" d="M123.4,140.7c0.2,0,7.5-0.8,18.9-1.6c-0.1,0.3-0.2,0.7-0.3,1c-11.1,0.8-18.2,1.5-18.5,1.6L123.4,140.7z"/>
	<path class="st18" d="M276,151.7l-0.8,0.6c-5-7.1-20.1-11-38.9-12.9c-0.1-0.4-0.2-0.7-0.3-1.1C257.8,140.5,271.2,144.9,276,151.7z"
		/>
	<path class="st20" d="M234.5,132.5c-29.6-2.8-67.8-0.9-90.8,0.8c0.1-0.4,0.1-0.7,0.2-1c13-0.9,30.8-1.9,49.1-2.1
		c16-0.2,29.8,0.3,41.3,1.3C234.4,131.8,234.5,132.1,234.5,132.5z"/>
	<path class="st18" d="M123.4,134c0.2,0,8.2-0.8,20.6-1.7c-0.1,0.3-0.1,0.7-0.2,1c-12,0.8-19.9,1.6-20.2,1.7L123.4,134z"/>
	<path class="st18" d="M276,145l-0.8,0.6c-5.1-7.3-21-11.2-40.6-13l0,0c-0.1-0.4-0.2-0.7-0.2-1.1C257.2,133.6,271.1,138.1,276,145z"
		/>
	<path class="st20" d="M234,125.8c-29.2-2.7-66.5-0.9-89.5,0.8c0-0.3,0-0.7,0-1c13-0.9,30.5-1.9,48.5-2.1
		c15.8-0.2,29.5,0.3,40.9,1.3C234,125.1,234,125.5,234,125.8z"/>
	<path class="st18" d="M144.5,125.6c0,0.4,0,0.7,0,1c-12.5,0.9-20.7,1.7-21,1.7l-0.1-1C123.6,127.3,131.9,126.4,144.5,125.6z"/>
	<path class="st18" d="M276,138.3l-0.8,0.6c-5.2-7.4-21.3-11.3-41.2-13.1c0-0.3,0-0.7,0-1.1C257,126.8,271.1,131.4,276,138.3z"/>
	<path class="st20" d="M233,119c-28.7-2.5-65-0.8-87.7,0.8c0.1-0.3,0.1-0.7,0.2-1c12.9-0.9,30-1.8,47.5-2
		c15.3-0.2,28.6,0.2,39.8,1.2C232.9,118.3,232.9,118.7,233,119z"/>
	<path class="st18" d="M123.4,120.6c0.2,0,8.9-0.9,22.1-1.8c-0.1,0.3-0.2,0.7-0.2,1c-12.9,0.9-21.4,1.8-21.8,1.8L123.4,120.6z"/>
	<path class="st18" d="M276,131.6l-0.8,0.6c-5.2-7.5-21.8-11.4-42.1-13.2c-0.1-0.4-0.2-0.7-0.2-1.1C256.5,120,271,124.6,276,131.6z"
		/>
	<path class="st20" d="M231.5,112.2c-27.9-2.3-62.4-0.7-84.8,0.8c0.1-0.3,0.2-0.7,0.2-1c12.7-0.9,29.2-1.7,46.1-1.9
		c14.6-0.2,27.4,0.2,38.3,1.1C231.4,111.5,231.5,111.9,231.5,112.2z"/>
	<path class="st18" d="M123.4,113.9c0.2,0,9.6-1,23.6-1.9c-0.1,0.4-0.1,0.7-0.2,1c-13.7,0.9-22.9,1.9-23.2,1.9L123.4,113.9z"/>
	<path class="st18" d="M276,124.9l-0.8,0.6c-5.4-7.7-22.6-11.6-43.6-13.3c-0.1-0.4-0.2-0.7-0.2-1.1C256,113.1,270.9,117.7,276,124.9
		z"/>
	<path class="st20" d="M230.2,105.4c-27.1-2.1-60.1-0.6-82.1,0.8c0-0.2,0.1-0.5,0.1-0.8c0-0.1,0-0.2,0.1-0.3
		c12.5-0.9,28.5-1.7,44.8-1.8c14-0.2,26.4,0.2,36.9,1C230.1,104.7,230.2,105.1,230.2,105.4z"/>
	<path class="st18" d="M123.4,107.3c0.2,0,10.2-1,24.9-2c0,0.1,0,0.2-0.1,0.3c0,0.3-0.1,0.5-0.1,0.8c-14.5,1-24.2,1.9-24.6,2
		L123.4,107.3z"/>
	<path class="st18" d="M276,118.3l-0.8,0.6c-5.5-7.9-23.3-11.7-44.9-13.4c-0.1-0.4-0.1-0.7-0.3-1.1
		C255.4,106.3,270.8,110.9,276,118.3z"/>
	<path class="st20" d="M225.8,98.5c-24.7-1.5-53.4-0.4-74.1,0.9c0.4-0.4,0.8-0.8,1.2-1.1c11.7-0.7,25.8-1.4,40.1-1.5
		c11.6-0.1,22.1,0.1,31.4,0.6l0,0C224.9,97.7,225.3,98.1,225.8,98.5z"/>
	<path class="st18" d="M123.4,100.6c0.2,0,12.3-1.2,29.5-2.3c-0.4,0.4-0.8,0.7-1.2,1.1c-16.4,1-27.8,2.2-28.2,2.2L123.4,100.6z"/>
	<path class="st18" d="M276,111.6l-0.8,0.6c-5.9-8.4-25.8-12.2-49.3-13.7l0,0c-0.4-0.4-0.9-0.8-1.4-1.1
		C253.2,99,270.5,103.7,276,111.6z"/>
	<path class="st20" d="M212.8,91.2c-17.2-0.5-35.2,0.1-50.5,0.8c0.7-0.3,1.4-0.6,2.1-0.9l0.2-0.3c8.9-0.4,18.6-0.8,28.5-0.9
		c6.3-0.1,12.3,0,17.9,0.1l0.5,0.6C211.8,90.9,212.3,91,212.8,91.2z"/>
	<path class="st18" d="M123.4,93.9c0.2,0,18-1.8,41.1-3l-0.2,0.3c-0.7,0.3-1.5,0.5-2.1,0.9c-21.9,1.1-38.2,2.8-38.7,2.8L123.4,93.9z
		"/>
	<path class="st18" d="M276,104.9l-0.8,0.6c-6.8-9.7-32.3-13.3-60.6-14.2c-0.5,0-0.9,0-1.4,0H213c-0.1,0-0.2,0-0.2,0
		c-0.5-0.2-0.9-0.3-1.3-0.5l-0.5-0.6C247.8,90.9,269.7,95.9,276,104.9z"/>
	<path class="st20" d="M206.3,84.4c-13-0.2-26.2,0.2-38.2,0.7l0.6-1.1c7.8-0.3,16-0.6,24.3-0.7c4.3,0,8.4,0,12.3,0L206.3,84.4z"/>
	<path class="st18" d="M123.4,87.2c0.3,0,20.1-2,45.3-3.2l-0.6,1.1c-24.7,1.1-44,3-44.5,3.1L123.4,87.2z"/>
	<path class="st18" d="M276,98.2l-0.8,0.6c-7.4-10.6-37.5-14-68.9-14.4l-0.9-1.1C245.6,83.8,269.4,88.8,276,98.2z"/>
</g>
<g class="st12">
	<g class="st21">
		<path class="st22" d="M244.4,196.6c-20.6-0.2-24.1-32.8-30.6-49.4c-8.3,5.4,0.6,32.6-4.4,34.6c-6.5,2.6-22.1-9.5-28.4-12.2
			c-7.3-2.7-14.6-5.4-21.8-8.1c-3,6.1-5.7,12.3-8.1,18.6c-6.9,6.7-5.6,5.6-15.1,4.1c0.1-0.7,0.2-1,0.3-1.6
			c14.3,6.7,13.2-8,19.7-15.1c12.7-14,51.3,13.9,51.4,13.9c1.5-0.9,1.1-24.7,4.4-36.7c6.9,14.5,13,51.4,34,51.5
			C245.1,196.4,244.9,196.5,244.4,196.6z"/>
		<path class="st22" d="M243,190.5c-3.7-3.4-7.9-5.5-12.8-6.5c-1.4-3.1-2.8-6.3-4.2-9.4c-5.3-8.5-9.1-21.4-13.1-30.6
			c-9.6,7.1,2.5,28.2-4.6,33.5c-4.3,3.2-22.8-9.9-27.3-11.9c-6.9-2.6-13.8-5.4-20.7-8.1c-2.9,5.4-5.5,10.8-7.8,16.5
			c-4.9,4.2-7.2,6.6-14.2,2.5c0-0.2,0.1-0.3,0.1-0.4c13,7.4,12.6-6,18.7-12.4c12-12.6,48.6,14.1,49.1,13.7c1.6-1,1.9-23.3,5-34.7
			c8.9,17.4,13.6,37.9,32.9,46.7C243.6,189.8,243.4,190,243,190.5z"/>
		<path class="st22" d="M240.4,179.9c-3.9-2.3-8-2.8-12.3-1.5c-1-3.1-1.9-6.1-2.9-9.2c-5.1-10.7-7.2-22.6-12.5-33.4
			c-2.7,6.8-3.6,32.2-7.9,33.8c-2.7,1-27.4-12.3-27.5-12.3c-24.6-8.6-14.4-2.8-25.6,8.6c-5.2,5.3-4.5,10-13.8,5.7
			c-0.3-0.6-0.4-1-0.7-1.8c12.7,5.1,11.8-7.1,18-13.4c12.1-12.4,48.1,13,49.2,12.4c1.8-1.1,4.6-20,11.4-27.9c3.2,8.3,9.6,42,25.5,38
			C240.9,179.3,240.7,179.5,240.4,179.9z"/>
		<path class="st22" d="M238.7,175.2c-14-5.1-19.6-29.6-26.9-41.9c-2.7,6.5-3.8,30.1-8.2,31.8c-2.7,1-26.1-11.6-26.4-11.7
			c-23.7-8.4-13.3-2.6-25.1,7c-5.4,4.4-6.1,8.4-14.6,3.9c0.1-0.3,0.2-0.4,0.3-0.6c13.2,6.5,10.8-7.1,18.4-11.2
			c15.7-8.5,45.4,12.9,47.1,11.9c1.9-1.1,5.1-18.7,11.5-26.3c5.7,11,12.9,29.6,25,36.4C239.3,174.8,239.1,174.9,238.7,175.2z"/>
		<path class="st22" d="M240.9,167c-3.8-1.6-7.8-2.1-11.9-1.6c-1.1-2.7-2.2-5.3-3.3-8c-5.4-7.4-8.5-18.1-13.7-26
			c-3.1,6.6-5.1,27.2-10,29.1c-3.1,1.2-25.1-10.1-26-10.5c-22.4-7.4-12.7-2.2-24.2,6.8c-5.1,4-5.8,7.8-13.6,3.5
			c-0.1-0.2-0.2-0.2-0.2-0.5c12.1,6.6,11-5.4,17.8-10.8c3.3-10,10.5-9.7,21.6,0.6c8,3.5,23,10.4,24.3,9.7c2.1-1.2,5.4-18.9,9.9-27.6
			c7.3,11,13.8,35,30.4,34.3C241.5,166.5,241.3,166.6,240.9,167z"/>
		<path class="st22" d="M239,162.4c-18.4,0.6-13.9-28.1-29.2-33.8c-1,6.1-6,20.9-9.3,23.1c-4.6,3-22.1-7.7-27.7-8.8
			c-5-2.2-10.1-2.6-15.4-1.3c-2.8,4.8-5.5,9.6-8.2,14.4c-2.1,0.9-8.7-0.1-10.7-0.9c0-0.5,0.1-0.7,0.1-1.2c11.9,5.3,10.9-6,17.7-11.3
			c3.2-9.4,10.1-9.4,20.6-0.2c7.6,3.1,21.8,9.1,23.3,8.2c2.2-1.2,5.7-17.1,10.5-24.9c6.8,10.2,14.4,35.4,29.2,35.9
			C239.5,162,239.4,162.2,239,162.4z"/>
		<path class="st22" d="M239.5,158.1c-8.7-5.3-10-7-15.3-15.1c-4.5-6.7-6.8-19-15.4-22.2c-1.1,5.3-6.2,19.5-9.5,21
			c-5.9,2.6-19.6-6.6-26.1-7.7c-4.7-2-9.5-2.3-14.5-0.9c-2.7,4.5-5.4,9-8,13.5c-2,0.9-8.2,0.2-10.1-0.4c0.1-0.6,0.2-0.9,0.3-1.5
			c11.3,4.4,10.4-6,16.9-10.9c3.1-8.6,9.5-8.8,19.3-0.5c7.2,2.8,20.3,8.2,21.9,7.3c2.2-1.2,5.9-15.6,10.6-22.6
			c9.1,13.2,14.9,32.6,30.8,39.2C240.1,157.7,239.9,157.8,239.5,158.1z"/>
		<path class="st22" d="M238,150.2c-6.8-6.5-10.4-9-15.5-16.6c-4.8-7.2-6.3-15.7-14.6-19.6c-6.6,26.9-12.7,15.8-34.4,12
			c-4.4-1.8-8.9-2.1-13.5-0.9c-2.6,4-5.1,8.1-7.6,12.2c-1.9,0.8-7.7,0.2-9.4-0.4c0.1-0.5,0.1-0.8,0.2-1.3c11.7,2.9,6.7-5.3,15.7-9.6
			c12.4-5.9,36,8,38.9,6.6c2.2-1.1,6.4-14.3,10.9-20.8c9.8,13.1,15.7,28.3,29.9,37.4C238.4,149.6,238.3,149.8,238,150.2z"/>
		<path class="st22" d="M235.5,140.3c-5.4-5.7-9.4-7.9-14-14.1c-4.4-6-6-13-13.5-15.5c-7.9,24.4-14.4,14.5-34.6,10.5
			c-4.1-1.7-8.3-2.1-12.7-1.3c-2.5,3.4-4.9,6.8-7.3,10.3c-1.7,0.7-7.1-0.1-8.7-0.8c0-0.3,0-0.5,0-0.8c10.3,3.2,6.7-4.2,14.8-7.5
			c11.9-4.9,33.6,8.1,37.2,6.5c2.6-1.1,7.6-12.8,12.3-18.6c9.2,10.6,15.2,22.4,27.2,30.2C235.9,139.6,235.8,139.8,235.5,140.3z"/>
		<path class="st22" d="M233.5,131.5c-9.7-3.1-15.4-23.6-22.2-24.2c-9.6-0.9-8.4,11.9-15.8,14.7c-10.4,3.9-25.2-9.4-36-5
			c-6.1,2.5-5.6,10.5-14.8,7.9c0-0.3,0-0.5,0-0.9c9.8,2.4,6.7-4.2,14.6-7.6c11.4-4.9,31.5,6.1,35.8,4.3c2.8-1.2,8.3-11.2,13.4-16
			c7.8,8.3,14,22.6,25.7,26C233.9,131.1,233.8,131.2,233.5,131.5z"/>
		<path class="st22" d="M233.2,126.6c-10.3-5-12.4-19.6-21.6-23.9c-9.9-4.7-8.9,7.3-17.6,10.4c-11.7,4.1-22.8-6.9-35.1-1.3
			c-5.3,2.4-5.8,7.8-13.2,6.4c0.1-0.5,0.1-0.7,0.2-1.2c9.1,1.5,6.7-4.2,14.2-7.5c10.6-4.7,29,4.5,33.6,2.5c6.2-2.6,12.3-17,21.9-5.3
			c5.9,7.2,9.6,14.8,18.3,19.4C233.7,126.2,233.5,126.4,233.2,126.6z"/>
		<path class="st22" d="M232.5,120.3c-6.5-5.9-14.3-21.8-21.8-25c-9-3.9-10,6.6-18.1,9c-11.1,3.3-21.1-5.6-32.5-1
			c-4.9,2-5.8,6.9-12.5,6.1c0.1-0.6,0.1-0.9,0.2-1.4c5.7-0.2,8.9-4.4,13.7-6.1c9.9-3.5,25.1,3.6,30.7,1.8c7.3-2.4,11.4-12.7,22.5-5
			c7,4.8,11.5,15.3,18.5,20.9C232.9,119.8,232.8,120,232.5,120.3z"/>
		<path class="st22" d="M230.7,111.7c-3.4-4.9-16.6-19.3-22.5-20.8c-8.6-2.2-9.5,5.7-17.2,7.5c-9.7,2.2-19.3-3.8-29.2-1.2
			c-4.6,1.2-6.1,5.2-11.9,4.4c0.2-0.4,0.3-0.5,0.6-0.9c5.2,0.2,8.6-3.4,13.1-4.4c9.1-2.2,21.7,3.2,27.1,1.6
			c7.1-2.1,10.3-9.7,21.1-4.3c6.5,3.2,15.1,11.7,19.4,17.2C231,111.2,230.9,111.4,230.7,111.7z"/>
		<path class="st22" d="M228.8,103.1c-6-3.2-18.2-14.3-24.4-15c-7.5-0.9-8.6,4.4-14.5,5.9c-6.9,1.7-14.7-3.6-22-2.5
			c-5,0.8-6.3,5.6-12.6,4.9c0.4-0.3,0.5-0.4,0.9-0.7c4.3,0.2,7.5-2.8,11.3-3.4c7.5-1.3,17.2,2.4,22.1,1c11.1-3,24.6,2,39.5,9.1
			C229,102.7,229,102.9,228.8,103.1z"/>
		<path class="st22" d="M224,97.5c-8.2-1.5-14.1-8.9-21.8-10c-6.4-1-8,2.5-13.1,2.8c-9.8,0.5-17.7,0.7-27.2,2.1
			c0.4-0.2,0.6-0.3,1-0.5c0.2,0,19.4-0.8,25.8-2.6c11.2-3.2,22.2,5.9,35.3,7.8C224,97.2,224,97.3,224,97.5z"/>
		<path class="st22" d="M217.4,93.4c-12.2,1.2-11.6-9.1-21.2-11.7c-2.8-0.8-6,2-8.7,1.9c-7.9-0.3-13.4,0.2-20.5,3.4
			c0.2-0.4,0.3-0.6,0.6-1c0.1,0,13.8-2.1,19.6-3.4c10.5-2.5,18.2,10,30.1,10.5C217.3,93.2,217.3,93.3,217.4,93.4z"/>
		<path class="st22" d="M211,90.5c-14.2-10.5-22.3-17.6-40-10.2c0.2-0.4,0.3-0.6,0.6-1c0.1,0,8.2-3.3,14.1-3.4
			c10.7-0.3,17.2,8.2,25.3,14C210.9,90.2,210.9,90.3,211,90.5z"/>
	</g>
</g>
<g class="st12">
	<path class="st20" d="M245,193.9c-5-0.7-10.4-1.3-16.1-1.7l-0.4-1.1c6,0.4,11.4,1,16.3,1.7C244.9,193.2,245,193.6,245,193.9z"/>
	<path class="st20" d="M212.4,191.4c-5.8-0.2-11.7-0.2-17.5-0.1c-0.6-0.3-1.1-0.7-1.7-1c6.8-0.1,13.1,0,19.1,0.1
		C212.2,190.7,212.3,191.1,212.4,191.4z"/>
	<path class="st20" d="M149.6,192l-0.4,1c-6.2,0.4-11.6,0.8-15.9,1.2c0.1-0.3,0.2-0.7,0.2-1C137.9,192.8,143.4,192.4,149.6,192z"/>
	<path class="st20" d="M152.4,185.1l-0.4,1c-6.6,0.4-12.4,0.9-17,1.2c0.1-0.3,0.2-0.7,0.3-1C139.9,186,145.8,185.6,152.4,185.1z"/>
	<path class="st20" d="M211.2,184.7c-9.7-0.2-19.7-0.1-29.2,0.1l0,0c-0.8-0.3-1.5-0.6-2.4-1c4.4-0.1,8.9-0.2,13.4-0.3
		c6.4-0.1,12.4,0,18,0.1C211.1,184,211.2,184.4,211.2,184.7z"/>
	<path class="st20" d="M243.4,187c-5.4-0.7-11.2-1.3-17.3-1.7l-0.4-1.1c6.4,0.4,12.2,0.9,17.4,1.7
		C243.2,186.3,243.3,186.6,243.4,187z"/>
	<path class="st20" d="M155.2,178.3l-0.4,1c-6.9,0.4-13.1,0.8-18,1.2c0.1-0.4,0.2-0.7,0.3-1C142,179.2,148.2,178.7,155.2,178.3z"/>
	<path class="st20" d="M212.1,177c-0.3,0.2-0.8,0.3-1.3,0.3c-0.2,0-0.3,0.2-0.3,0.7c-15.9-0.3-32.3,0.1-46.6,0.8
		c-0.3-0.1-0.7-0.2-1.1-0.3c-0.6-0.1-1.2-0.4-1.8-0.6c9.8-0.5,20.8-0.9,32-1.1C199.8,176.8,206.2,176.9,212.1,177z"/>
	<path class="st20" d="M241.6,180.1c-5.7-0.7-11.8-1.2-18.2-1.6l-0.4-1.1c6.7,0.3,12.8,0.9,18.3,1.5
		C241.4,179.3,241.5,179.7,241.6,180.1z"/>
	<path class="st20" d="M212.4,171.4c-27.3-0.7-56.7,1.1-73.9,2.4c-0.1-0.3-0.2-0.6-0.3-1c13.2-1,33.8-2.3,54.9-2.6
		c6.7-0.1,13.1,0,19,0.1C212.2,170.7,212.3,171,212.4,171.4z"/>
	<path class="st20" d="M240.5,172.2c-0.1,0.4-0.3,0.7-0.4,1c-6.1-0.7-12.7-1.2-19.5-1.5l-0.4-1.1
		C227.7,170.9,234.5,171.5,240.5,172.2z"/>
	<path class="st20" d="M242,166.8c-7.4-0.9-15.6-1.5-24.1-1.9l-0.4-1.1c9.1,0.3,17.2,1,24.3,1.9C241.9,166,242,166.4,242,166.8z"/>
	<path class="st20" d="M211.5,163.6l-0.3,1c-28-0.7-58.1,1.3-74.7,2.6c0-0.4,0-0.7,0.1-1l0,0c13.1-1,34.5-2.5,56.5-2.7
		C199.6,163.5,205.7,163.5,211.5,163.6z"/>
	<path class="st20" d="M240.5,158.9c0,0.4,0,0.8,0,1c-7.8-0.9-16.5-1.5-25.3-1.8l0,0l-0.4-1.1C224.4,157.3,233,157.9,240.5,158.9z"
		/>
	<path class="st20" d="M213.7,157l-0.3,1c-27.8-0.8-57.9,1-75.3,2.4c-0.1-0.2-0.2-0.6-0.2-1c13.2-1,33.9-2.4,55.1-2.6
		C200.4,156.8,207.3,156.8,213.7,157z"/>
	<path class="st20" d="M239.7,153.1c-32.4-3.8-77.7-1.2-101,0.6c0.1-0.3,0.2-0.7,0.2-1c13.2-1,33.4-2.3,54.1-2.5
		c18.4-0.2,33.9,0.4,46.4,1.9C239.5,152.4,239.6,152.8,239.7,153.1z"/>
	<path class="st20" d="M238,146.3c-31.5-3.4-74.4-1.1-97.7,0.7c0.1-0.3,0.2-0.7,0.3-1c13.2-1,32.6-2.2,52.5-2.4
		c17.6-0.2,32.5,0.4,44.7,1.7C237.8,145.5,237.9,145.9,238,146.3z"/>
	<path class="st20" d="M236.2,139.4c-30.5-3.1-71-1-94.2,0.7c0.1-0.4,0.2-0.7,0.3-1c13.1-1,31.7-2.1,50.7-2.2
		c16.8-0.2,31.1,0.3,42.9,1.5C236,138.6,236.1,139,236.2,139.4z"/>
	<path class="st20" d="M234.5,132.5c-29.6-2.8-67.8-0.9-90.8,0.8c0.1-0.4,0.1-0.7,0.2-1c13-0.9,30.8-1.9,49.1-2.1
		c16-0.2,29.8,0.3,41.3,1.3C234.4,131.8,234.5,132.1,234.5,132.5z"/>
	<path class="st20" d="M234,125.8c-29.2-2.7-66.5-0.9-89.5,0.8c0-0.3,0-0.7,0-1c13-0.9,30.5-1.9,48.5-2.1
		c15.8-0.2,29.5,0.3,40.9,1.3C234,125.1,234,125.5,234,125.8z"/>
	<path class="st20" d="M233,119c-28.7-2.5-65-0.8-87.7,0.8c0.1-0.3,0.1-0.7,0.2-1c12.9-0.9,30-1.8,47.5-2
		c15.3-0.2,28.6,0.2,39.8,1.2C232.9,118.3,232.9,118.7,233,119z"/>
	<path class="st20" d="M231.5,112.2c-27.9-2.3-62.4-0.7-84.8,0.8c0.1-0.3,0.2-0.7,0.2-1c12.7-0.9,29.2-1.7,46.1-1.9
		c14.6-0.2,27.4,0.2,38.3,1.1C231.4,111.5,231.5,111.9,231.5,112.2z"/>
	<path class="st20" d="M230.2,105.4c-27.1-2.1-60.1-0.6-82.1,0.8c0-0.2,0.1-0.5,0.1-0.8c0-0.1,0-0.2,0.1-0.3
		c12.5-0.9,28.5-1.7,44.8-1.8c14-0.2,26.4,0.2,36.9,1C230.1,104.7,230.2,105.1,230.2,105.4z"/>
	<path class="st20" d="M225.8,98.5c-24.7-1.5-53.4-0.4-74.1,0.9c0.4-0.4,0.8-0.8,1.2-1.1c11.7-0.7,25.8-1.4,40.1-1.5
		c11.6-0.1,22.1,0.1,31.4,0.6l0,0C224.9,97.7,225.3,98.1,225.8,98.5z"/>
	<path class="st20" d="M212.8,91.2c-17.2-0.5-35.2,0.1-50.5,0.8c0.7-0.3,1.4-0.6,2.1-0.9l0.2-0.3c8.9-0.4,18.6-0.8,28.5-0.9
		c6.3-0.1,12.3,0,17.9,0.1l0.5,0.6C211.8,90.9,212.3,91,212.8,91.2z"/>
	<path class="st20" d="M206.3,84.4c-13-0.2-26.2,0.2-38.2,0.7l0.6-1.1c7.8-0.3,16-0.6,24.3-0.7c4.3,0,8.4,0,12.3,0L206.3,84.4z"/>
</g>
<path class="st23" d="M208.5,205.4c-0.8-0.5-36.3-19.8-54-22c0.9-2,1.8-3.8,2.5-5.5l40.4,3.7C204.7,181.8,207.1,191.9,208.5,205.4z"
	/>
<g>
	<path class="st22" d="M210.6,166.4l5.6-16.9l4-5.6l1.6-16.1c0-43.4-9.7-36.2-9.7-36.2l-12.6-15.3l-14.4-0.4l-11.4-0.4l-9.4,15.7
		l0,0c-8.5,3-14.7,10.2-16.4,19.1l-2.6,13.6l9.8,29.7l-0.4-2.2c-4.6,8.5-3.4,9.8,0.4,16.2l0.2,2.3c0.4,4.2,3.4,7.8,7.5,8.8
		c40.7,10.1,44.9,27.9,50.2,20.6c1.2-1.7-3.9-22-2.2-21.8C215.6,177.8,210.6,166.4,210.6,166.4z"/>
	<path class="st22" d="M210.7,90.5c0,0,18,5.5,19.5,15s4.3,18,3.6,21.9s8.2,30,6.5,33s2.9,3.7,1.3,8.6s-2.5,5.9-1.5,6.8
		s5.4,20.4,5.4,20.4l-13.5,3.9l-24.8-61.4L210.7,90.5z"/>
	<path class="st22" d="M167.8,90.5c0,0-18,5.5-19.5,15s-4.3,18-3.6,21.9s-8.2,30-6.5,33s-2.9,3.7-1.3,8.6s2.5,5.9,1.5,6.8
		s-5.4,20.4-5.4,20.4l13.5,3.9l24.8-61.4L167.8,90.5z"/>
</g>
<g>
	<path class="st24" d="M245,193.9c-5-0.7-10.4-1.3-16.1-1.7l-0.4-1.1c6,0.4,11.4,1,16.3,1.7C244.9,193.2,245,193.6,245,193.9z"/>
	<path class="st24" d="M212.4,191.4c-5.8-0.2-11.7-0.2-17.5-0.1c-0.6-0.3-1.1-0.7-1.7-1c6.8-0.1,13.1,0,19.1,0.1
		C212.2,190.7,212.3,191.1,212.4,191.4z"/>
	<path class="st24" d="M149.6,192l-0.4,1c-6.2,0.4-11.6,0.8-15.9,1.2c0.1-0.3,0.2-0.7,0.2-1C137.9,192.8,143.4,192.4,149.6,192z"/>
	<path class="st24" d="M152.4,185.1l-0.4,1c-6.6,0.4-12.4,0.9-17,1.2c0.1-0.3,0.2-0.7,0.3-1C139.9,186,145.8,185.6,152.4,185.1z"/>
	<path class="st24" d="M211.2,184.7c-9.7-0.2-19.7-0.1-29.2,0.1l0,0c-0.8-0.3-1.5-0.6-2.4-1c4.4-0.1,8.9-0.2,13.4-0.3
		c6.4-0.1,12.4,0,18,0.1C211.1,184,211.2,184.4,211.2,184.7z"/>
	<path class="st24" d="M243.4,187c-5.4-0.7-11.2-1.3-17.3-1.7l-0.4-1.1c6.4,0.4,12.2,0.9,17.4,1.7
		C243.2,186.3,243.3,186.6,243.4,187z"/>
	<path class="st24" d="M155.2,178.3l-0.4,1c-6.9,0.4-13.1,0.8-18,1.2c0.1-0.4,0.2-0.7,0.3-1C142,179.2,148.2,178.7,155.2,178.3z"/>
	<path class="st24" d="M212.1,177c-0.3,0.2-0.8,0.3-1.3,0.3c-0.2,0-0.3,0.2-0.3,0.7c-15.9-0.3-32.3,0.1-46.6,0.8
		c-0.3-0.1-0.7-0.2-1.1-0.3c-0.6-0.1-1.2-0.4-1.8-0.6c9.8-0.5,20.8-0.9,32-1.1C199.8,176.8,206.2,176.9,212.1,177z"/>
	<path class="st24" d="M241.6,180.1c-5.7-0.7-11.8-1.2-18.2-1.6l-0.4-1.1c6.7,0.3,12.8,0.9,18.3,1.5
		C241.4,179.3,241.5,179.7,241.6,180.1z"/>
	<path class="st24" d="M212.4,171.4c-27.3-0.7-56.7,1.1-73.9,2.4c-0.1-0.3-0.2-0.6-0.3-1c13.2-1,33.8-2.3,54.9-2.6
		c6.7-0.1,13.1,0,19,0.1C212.2,170.7,212.3,171,212.4,171.4z"/>
	<path class="st24" d="M240.5,172.2c-0.1,0.4-0.3,0.7-0.4,1c-6.1-0.7-12.7-1.2-19.5-1.5l-0.4-1.1
		C227.7,170.9,234.5,171.5,240.5,172.2z"/>
	<path class="st24" d="M242,166.8c-7.4-0.9-15.6-1.5-24.1-1.9l-0.4-1.1c9.1,0.3,17.2,1,24.3,1.9C241.9,166,242,166.4,242,166.8z"/>
	<path class="st24" d="M211.5,163.6l-0.3,1c-28-0.7-58.1,1.3-74.7,2.6c0-0.4,0-0.7,0.1-1l0,0c13.1-1,34.5-2.5,56.5-2.7
		C199.6,163.5,205.7,163.5,211.5,163.6z"/>
	<path class="st24" d="M240.5,158.9c0,0.4,0,0.8,0,1c-7.8-0.9-16.5-1.5-25.3-1.8l0,0l-0.4-1.1C224.4,157.3,233,157.9,240.5,158.9z"
		/>
	<path class="st24" d="M213.7,157l-0.3,1c-27.8-0.8-57.9,1-75.3,2.4c-0.1-0.2-0.2-0.6-0.2-1c13.2-1,33.9-2.4,55.1-2.6
		C200.4,156.8,207.3,156.8,213.7,157z"/>
	<path class="st24" d="M239.7,153.1c-32.4-3.8-77.7-1.2-101,0.6c0.1-0.3,0.2-0.7,0.2-1c13.2-1,33.4-2.3,54.1-2.5
		c18.4-0.2,33.9,0.4,46.4,1.9C239.5,152.4,239.6,152.8,239.7,153.1z"/>
	<path class="st24" d="M238,146.3c-31.5-3.4-74.4-1.1-97.7,0.7c0.1-0.3,0.2-0.7,0.3-1c13.2-1,32.6-2.2,52.5-2.4
		c17.6-0.2,32.5,0.4,44.7,1.7C237.8,145.5,237.9,145.9,238,146.3z"/>
	<path class="st24" d="M236.2,139.4c-30.5-3.1-71-1-94.2,0.7c0.1-0.4,0.2-0.7,0.3-1c13.1-1,31.7-2.1,50.7-2.2
		c16.8-0.2,31.1,0.3,42.9,1.5C236,138.6,236.1,139,236.2,139.4z"/>
	<path class="st24" d="M234.5,132.5c-29.6-2.8-67.8-0.9-90.8,0.8c0.1-0.4,0.1-0.7,0.2-1c13-0.9,30.8-1.9,49.1-2.1
		c16-0.2,29.8,0.3,41.3,1.3C234.4,131.8,234.5,132.1,234.5,132.5z"/>
	<path class="st24" d="M234,125.8c-29.2-2.7-66.5-0.9-89.5,0.8c0-0.3,0-0.7,0-1c13-0.9,30.5-1.9,48.5-2.1
		c15.8-0.2,29.5,0.3,40.9,1.3C234,125.1,234,125.5,234,125.8z"/>
	<path class="st24" d="M233,119c-28.7-2.5-65-0.8-87.7,0.8c0.1-0.3,0.1-0.7,0.2-1c12.9-0.9,30-1.8,47.5-2
		c15.3-0.2,28.6,0.2,39.8,1.2C232.9,118.3,232.9,118.7,233,119z"/>
	<path class="st24" d="M231.5,112.2c-27.9-2.3-62.4-0.7-84.8,0.8c0.1-0.3,0.2-0.7,0.2-1c12.7-0.9,29.2-1.7,46.1-1.9
		c14.6-0.2,27.4,0.2,38.3,1.1C231.4,111.5,231.5,111.9,231.5,112.2z"/>
	<path class="st24" d="M230.2,105.4c-27.1-2.1-60.1-0.6-82.1,0.8c0-0.2,0.1-0.5,0.1-0.8c0-0.1,0-0.2,0.1-0.3
		c12.5-0.9,28.5-1.7,44.8-1.8c14-0.2,26.4,0.2,36.9,1C230.1,104.7,230.2,105.1,230.2,105.4z"/>
	<path class="st24" d="M225.8,98.5c-24.7-1.5-53.4-0.4-74.1,0.9c0.4-0.4,0.8-0.8,1.2-1.1c11.7-0.7,25.8-1.4,40.1-1.5
		c11.6-0.1,22.1,0.1,31.4,0.6l0,0C224.9,97.7,225.3,98.1,225.8,98.5z"/>
	<path class="st24" d="M212.8,91.2c-17.2-0.5-35.2,0.1-50.5,0.8c0.7-0.3,1.4-0.6,2.1-0.9l0.2-0.3c8.9-0.4,18.6-0.8,28.5-0.9
		c6.3-0.1,12.3,0,17.9,0.1l0.5,0.6C211.8,90.9,212.3,91,212.8,91.2z"/>
	<path class="st24" d="M206.3,84.4c-13-0.2-26.2,0.2-38.2,0.7l0.6-1.1c7.8-0.3,16-0.6,24.3-0.7c4.3,0,8.4,0,12.3,0L206.3,84.4z"/>
</g>
<g>
	<path class="st0" d="M452.1,17.1c-5.5,0-20.5-13.3-23.7-16.2c1.5-0.5,5.1-1.6,9.1-1.6c8.1,0,13.3,4.1,15.7,12
		c1,3.3,0.7,4.6,0.2,5.2C453.2,16.9,452.8,17.1,452.1,17.1z"/>
	<path class="st25" d="M437.5-1.2v1l0,0c7.8,0,12.9,3.9,15.2,11.7c1,3.4,0.6,4.4,0.3,4.8c-0.1,0.1-0.3,0.3-0.9,0.3
		c-4.6,0-17-10.3-22.7-15.5c1.7-0.5,4.8-1.3,8.1-1.3V-1.2 M437.5-1.2c-5.4,0-10,1.9-10,1.9s18.2,16.9,24.6,16.9
		c2.1,0,2.9-1.8,1.6-6.4C450.7,1.2,443.6-1.2,437.5-1.2L437.5-1.2z"/>
</g>
<path class="st26" d="M427.5,0.7c0,0,20.6-8.5,26.2,10.5S427.5,0.7,427.5,0.7z"/>
<path class="st26" d="M203,74.3c0,0-30.7,1.6-30.2-17.3s11.9-27.7,23.5-24.1S211.1,47,211.1,51S197,83.8,195.7,88.3
	c-1.4,4.5,5.6,2.8,5.6,2.8S217,74,217,67.5s-4.2-6.5-3.1-12c1.1-5.5,0.8-3.5-1.1-20.5s-25.2-13.3-29.2-14.6
	c-4.1-1.3-20.6-6.3-22.7-4.2s-6.1,4.8-5.7,7c0.5,2.3-2.5,7.4-2.1,10c0.4,2.5-0.2,2.1,1.1,6.4s2.6,7.8,2,11
	c-0.7,3.2-8.6,11.3-8.6,12.8s0.3,10.6,1.9,12.2c1.5,1.5,4.2,15.7,4.2,17.3c0,0.4,1,0.7,2.4,1c7.5,1.2,41.1,3,46.1-2.7L203,74.3z"/>
<g class="st12">
	<path class="st27" d="M205.2,86.5c-8.4-7.5,6-28.9-5.3-43.2l-1.4-1c-1,1.9-2.7,3.5-4.7,4.3c-0.4-2-1.1-3.8-2.1-5.6
		c0.2,2.2,0,4.4-0.6,6.4c-0.6,0.1-1.1,0-1.2-0.3c0.2,1.7-5.1,2.6-4-0.1v-0.1c-1.4,2.8-4.2,4-6.6,5.6c-2.5,1.5-4.9,4.1-4.7,7.2
		c0.2,2.6,2.1,4.5,4.1,5.7c2,1.3,4.2,2.3,5.6,4.3c2.4,3.3,1.8,8.2,0.6,12.3c-0.5,1.3-1.6,2.3-3,2.7c-0.4-2.2-1.2-4.3-2.2-6.2
		c0.3,2.3,0,4.6-0.6,6.7c-2.9,0.1-5.8-1-7.9-3l1.5,6.7c-2.4-0.5-4.9,0.1-7.4,0.5c-0.1-0.8-0.2-1.5-0.3-2.3c-0.4-2.2-1.2-4.4-2.3-6.4
		c0.3,2.8-0.1,5.6-1.2,8.1c-0.1,0.3-0.2,0.6-0.4,0.9c-3.8-0.3-7.6-2.5-6.9-8.2c0.3-1.8,1.1-3.6,2.2-5.1c2-2.7-8-5.7-7.4-9
		c0.9-4.9,10-9.3,9.3-14.2c-0.6-4.5-0.5-14.6,2-18.1c3.6-5.1-0.4-15.5,25-9.6c9.5,2.2,12.7-7.1,27,21.3c2.4,4.9-6.4,3.2-1.2,13.6
		S201.5,79,205.2,86.5z"/>
	<g class="st21">
		<path class="st28" d="M160.9,37.8c0.1,0,0.1,0,0.1,0.1c0.1,0,0.2,0.1,0.3,0.1c0.6,0.2,1.3,0.4,2,0.5c0.3,0,0.6,0,0.9,0
			c0.4,0,0.7,0,1.1-0.1c0.4-0.1,0.8-0.1,1.2-0.2c0.2-0.1,0.4-0.1,0.6-0.2c2.5-0.9,4.5-2.9,5.3-5.5l0,0c0-0.1,0.1-0.2,0.1-0.4
			c0.2-0.7,0.3-1.4,0.3-2.2l0,0c0-1.8-0.6-3.5-1.6-5c-0.6-0.9-1.4-1-0.9-2.1c1.3-3.2-4-5.9-7.1-4.5c-0.1,0-0.2,0-0.3,0
			c-2.1,0-2.9,3.1-4.1,4.9l0,0c0.8,0.3,1.3,1.2,1,2.1c-0.2,0.5-0.5,0.8-1,1c-0.8,0.3-1.7,0.5-2.5,0.7
			C153.4,30.3,156.6,40,160.9,37.8z"/>
		<path class="st0" d="M171,24c0.2,6.1-3.2,11.8-8.7,14.4c-1.1,0.5-2.1-1.1-0.9-1.6c4.9-2.3,8-7.3,7.8-12.8
			C169.1,22.8,171,22.8,171,24L171,24z"/>
	</g>
</g>
<g class="st12">
	<path class="st27" d="M210.3,89.7c-8.4-7.5,6-28.9-5.3-43.2l-1.4-1c-1,1.9-2.7,3.5-4.7,4.3c-0.4-2-1.1-3.8-2.1-5.6
		c0.2,2.2,0,4.4-0.6,6.4c-0.6,0.1-1.1,0-1.2-0.3c0.2,1.7-5.1,2.6-4-0.1v-0.1c-1.4,2.8-4.2,4-6.6,5.6c-2.5,1.5-4.9,4.1-4.7,7.2
		c0.2,2.6,2.1,4.5,4.1,5.7c2,1.3,4.2,2.3,5.6,4.3c2.4,3.3,1.8,8.2,0.6,12.3c-0.5,1.3-1.6,2.3-3,2.7c-0.4-2.2-1.2-4.3-2.2-6.2
		c0.3,2.3,0,4.6-0.6,6.7c-2.9,0.1-5.8-1-7.9-3l1.5,6.7c-2.4-0.5-4.9,0.1-7.4,0.5c-0.1-0.8-0.2-1.5-0.3-2.3c-0.4-2.2-1.2-4.4-2.3-6.4
		c0.3,2.8-0.1,5.6-1.2,8.1c-0.1,0.3-0.2,0.6-0.4,0.9c-3.8-0.3-7.6-2.5-6.9-8.2c0.3-1.8,1.1-3.6,2.2-5.1c2-2.7-8-5.7-7.4-9
		c0.9-4.9,10-9.3,9.3-14.2c-0.6-4.5-0.5-14.6,2-18.1c3.6-5.1-0.4-15.5,25-9.6c9.5,2.2,12.7-7.1,27,21.3c2.4,4.9-6.4,3.2-1.2,13.6
		S206.6,82.2,210.3,89.7z"/>
	<g class="st21">
		<path class="st28" d="M166,41c0.1,0,0.1,0,0.1,0.1c0.1,0,0.2,0.1,0.3,0.1c0.6,0.2,1.3,0.4,2,0.5c0.3,0,0.6,0,0.9,0
			c0.4,0,0.7,0,1.1-0.1c0.4-0.1,0.8-0.1,1.2-0.2c0.2-0.1,0.4-0.1,0.6-0.2c2.5-0.9,4.5-2.9,5.3-5.5l0,0c0-0.1,0.1-0.2,0.1-0.4
			c0.2-0.7,0.3-1.4,0.3-2.2l0,0c0-1.8-0.6-3.5-1.6-5c-0.6-0.9-1.4-1-0.9-2.1c1.3-3.2-4-5.9-7.1-4.5c-0.1,0-0.2,0-0.3,0
			c-2.1,0-2.9,3.1-4.1,4.9l0,0c0.8,0.3,1.3,1.2,1,2.1c-0.2,0.5-0.5,0.8-1,1c-0.8,0.3-1.7,0.5-2.5,0.7C158.5,33.5,161.7,43.2,166,41z
			"/>
		<path class="st0" d="M176.1,27.2c0.2,6.1-3.2,11.8-8.7,14.4c-1.1,0.5-2.1-1.1-0.9-1.6c4.9-2.3,8-7.3,7.8-12.8
			C174.2,26,176.1,26,176.1,27.2L176.1,27.2z"/>
	</g>
</g>
<path class="st28" d="M206.9,49.5c-0.2,2.6-0.4,5.3-0.6,7.9c-0.2,3.1-0.6,6.2-1.3,9.2c-0.2,0.8-0.5,1.6-1,2.3
	c-0.9,1.1,0.8,7.3-0.5,7.9s-2.7,1-4.2,1.2c-0.1-0.4-0.1-0.9-0.2-1.3v-0.1c-0.4-2-1.2-3.8-2.2-5.5c0.3,2,0,4-0.6,5.9
	c-0.1,0.3-0.2,0.6-0.4,0.9c-5.7-0.8-10.6-4.7-14.5-4.6c-2.4-7.9-4-16-5-24.1c-0.2-2.2-0.4-4.6,1-6.3c1.2-1.5,3.2-2.1,5.1-2.5
	c6.2-1.3,12.6-1.9,18.9-1.8l-11-2.6c3.1-0.2,6.2,0.1,9.2,0.9c3,0.9,5.7,2.8,6.9,5.7C207.2,44.6,207.1,47.1,206.9,49.5z"/>
<circle class="st9" cx="182.5" cy="51" r="22.4"/>
<path class="st28" d="M205.3,82.3c-7.4-6.6,5.3-25.4-4.7-37.9l-1.2-0.9c-0.9,1.7-2.4,3.1-4.1,3.8c-0.4-1.8-1-3.3-1.8-4.9
	c0.2,1.9,0,3.9-0.5,5.6c-0.5,0.1-1,0-1.1-0.3c0.2,1.5-4.5,2.3-3.5-0.1v-0.1c-1.2,2.5-3.7,3.5-5.8,4.9c-2.2,1.3-4.3,3.6-4.1,6.3
	c0.2,2.3,1.8,4,3.6,5c1.8,1.1,3.7,2,4.9,3.8c2.1,2.9,1.6,7.2,0.5,10.8c-0.4,1.1-1.4,2-2.6,2.4c-0.4-1.9-1.1-3.8-1.9-5.4
	c0.3,2,0,4-0.5,5.9c-2.5,0.1-5.1-0.9-6.9-2.6l1.3,5.9c-2.1-0.4-4.3,0.1-6.5,0.4c-0.1-0.7-0.2-1.3-0.3-2c-0.4-1.9-1.1-3.9-2-5.6
	c0.3,2.5-0.1,4.9-1.1,7.1c-0.1,0.3-0.2,0.5-0.4,0.8c-3.3-0.3-6.7-2.2-6.1-7.2c0.3-1.6,1-3.2,1.9-4.5c1.8-2.4-7-5-6.5-7.9
	c0.8-4.3,8.8-8.2,8.2-12.5c-0.5-4-0.4-12.8,1.8-15.9c3.2-4.5-0.4-13.6,21.9-8.4c8.3,1.9,11.2-6.2,23.7,18.7
	c2.1,4.3-5.6,2.8-1.1,11.9C215.1,68.5,202.1,75.7,205.3,82.3z"/>
<path d="M207,71.1c3.3-4.2,4.5-20.8,2.4-24c-2.1-3.3-15.3-16.4-26.2-2.2s-1.8,25.6-1.8,25.6l-6.5,2.1l1.1-31.8l22.7-9.6L213,43.6
	l1.8,19.1l-5.2,9.8L207,71.1z"/>
<g>
	<path class="st28" d="M166.4,39.5C166.5,39.5,166.5,39.5,166.4,39.5c0.2,0.1,0.3,0.2,0.4,0.2c0.5,0.2,1.1,0.4,1.8,0.4
		c0.3,0,0.5,0,0.8,0c0.4,0,0.6,0,1-0.1s0.7-0.1,1.1-0.2c0.2-0.1,0.4-0.1,0.5-0.2c2.2-0.8,4-2.5,4.7-4.8l0,0c0-0.1,0.1-0.2,0.1-0.4
		c0.2-0.6,0.3-1.2,0.3-1.9l0,0c0-1.6-0.5-3.1-1.4-4.4c-0.5-0.8-1.2-0.9-0.8-1.8c1.1-2.8-3.5-5.2-6.2-4c-0.1,0-0.2,0-0.3,0
		c-1.8,0-2.5,2.7-3.6,4.3l0,0c0.7,0.3,1.1,1.1,0.9,1.8c-0.2,0.4-0.4,0.7-0.9,0.9c-0.7,0.3-1.5,0.4-2.2,0.6
		C159.8,32.9,162.6,41.5,166.4,39.5z"/>
	<path class="st0" d="M175.3,27.4c0.2,5.4-2.8,10.4-7.6,12.6c-1,0.4-1.8-1-0.8-1.4c4.3-2,7-6.4,6.8-11.2
		C173.6,26.4,175.3,26.4,175.3,27.4L175.3,27.4z"/>
</g>
<g class="st12">
	<path class="st27" d="M206.9,49.5c-0.2,2.6-0.4,5.3-0.6,7.9c-0.2,3.1-0.6,6.2-1.3,9.2c-0.2,0.8-0.5,1.6-1,2.3
		c-0.9,1.1,0.8,7.3-0.5,7.9s-2.7,1-4.2,1.2c-0.1-0.4-0.1-0.9-0.2-1.3v-0.1c-0.4-2-1.2-3.8-2.2-5.5c0.3,2,0,4-0.6,5.9
		c-0.1,0.3-0.2,0.6-0.4,0.9c-5.7-0.8-10.6-4.7-14.5-4.6c-2.4-7.9-4-16-5-24.1c-0.2-2.2-0.4-4.6,1-6.3c1.2-1.5,3.2-2.1,5.1-2.5
		c6.2-1.3,12.6-1.9,18.9-1.8l-11-2.6c3.1-0.2,6.2,0.1,9.2,0.9c3,0.9,5.7,2.8,6.9,5.7C207.2,44.6,207.1,47.1,206.9,49.5z"/>
	<path class="st27" d="M205.2,86.5c-8.4-7.5,6-28.9-5.3-43.2l-1.4-1c-1,1.9-2.7,3.5-4.7,4.3c-0.4-2-1.1-3.8-2.1-5.6
		c0.2,2.2,0,4.4-0.6,6.4c-0.6,0.1-1.1,0-1.2-0.3c0.2,1.7-5.1,2.6-4-0.1v-0.1c-1.4,2.8-4.2,4-6.6,5.6c-2.5,1.5-4.9,4.1-4.7,7.2
		c0.2,2.6,2.1,4.5,4.1,5.7c2,1.3,4.2,2.3,5.6,4.3c2.4,3.3,1.8,8.2,0.6,12.3c-0.5,1.3-1.6,2.3-3,2.7c-0.4-2.2-1.2-4.3-2.2-6.2
		c0.3,2.3,0,4.6-0.6,6.7c-2.9,0.1-5.8-1-7.9-3l1.5,6.7c-2.4-0.5-4.9,0.1-7.4,0.5c-0.1-0.8-0.2-1.5-0.3-2.3c-0.4-2.2-1.2-4.4-2.3-6.4
		c0.3,2.8-0.1,5.6-1.2,8.1c-0.1,0.3-0.2,0.6-0.4,0.9c-3.8-0.3-7.6-2.5-6.9-8.2c0.3-1.8,1.1-3.6,2.2-5.1c2-2.7-8-5.7-7.4-9
		c0.9-4.9,10-9.3,9.3-14.2c-0.6-4.5-0.5-14.6,2-18.1c3.6-5.1-0.4-15.5,25-9.6c9.5,2.2,12.7-7.1,27,21.3c2.4,4.9-6.4,3.2-1.2,13.6
		S201.5,79,205.2,86.5z"/>
	<g class="st21">
		<path class="st28" d="M160.9,37.8c0.1,0,0.1,0,0.1,0.1c0.1,0,0.2,0.1,0.3,0.1c0.6,0.2,1.3,0.4,2,0.5c0.3,0,0.6,0,0.9,0
			c0.4,0,0.7,0,1.1-0.1c0.4-0.1,0.8-0.1,1.2-0.2c0.2-0.1,0.4-0.1,0.6-0.2c2.5-0.9,4.5-2.9,5.3-5.5l0,0c0-0.1,0.1-0.2,0.1-0.4
			c0.2-0.7,0.3-1.4,0.3-2.2l0,0c0-1.8-0.6-3.5-1.6-5c-0.6-0.9-1.4-1-0.9-2.1c1.3-3.2-4-5.9-7.1-4.5c-0.1,0-0.2,0-0.3,0
			c-2.1,0-2.9,3.1-4.1,4.9l0,0c0.8,0.3,1.3,1.2,1,2.1c-0.2,0.5-0.5,0.8-1,1c-0.8,0.3-1.7,0.5-2.5,0.7
			C153.4,30.3,156.6,40,160.9,37.8z"/>
		<path class="st0" d="M171,24c0.2,6.1-3.2,11.8-8.7,14.4c-1.1,0.5-2.1-1.1-0.9-1.6c4.9-2.3,8-7.3,7.8-12.8
			C169.1,22.8,171,22.8,171,24L171,24z"/>
	</g>
</g>
<path class="st29" d="M162,53.1c-3.1-0.8-8.9,5.4-9.2,11.5c-0.3,5.9,4.9,7.9,8.5,18.4c2.5,7.1,2,11.5,2.5,11.5
	C165.5,94.5,169.2,54.9,162,53.1z"/>
<path class="st29" d="M160.1,95.3c-2.6-0.3-5.9-2.2-6.3-4.7c-0.3-1.9,1.2-3.1,2.3-5.1c3.2-5.6-0.9-9.4-0.1-20.1
	c0.3-4.1,0.8-8.8,4.2-12.7c1.1-1.2,4.2-4.8,7.4-4.4c7,1,13.3,19.5,7.7,33.4C172.7,88.3,166.2,96,160.1,95.3z"/>
<g class="st12">
	<g class="st21">
		<path class="st30" d="M169.9,67.3c0.7,7.7-1.1,15.4-2.9,15.5c-1.1,0-0.7-4.3-4.2-6.8c-2.2-1.6-3.7-0.9-5.1-2.7
			c-1.8-2.2-1-5.4-1-5.7c0.1-0.5-0.1-1.2,3.5-5.5c3.8-4.6,3.5-7.3,4.9-7.4C166.6,54.5,169.2,60.4,169.9,67.3z"/>
	</g>
	<g class="st21">
		<path class="st30" d="M161.2,94.8c-4.6-1.2-7.7-9.3-6.4-15.8c1.6-7.8,8.8-8.9,12-19.1c1.8-6,0.5-9.4,1.6-9.6
			c2.5-0.5,13.3,17.1,7.3,31.7C173,88.7,166.3,96.2,161.2,94.8z"/>
	</g>
	<g class="st21">
		<path class="st30" d="M184.4,70.5c-1.9-1.7-7.2-6.5-7.2-13.5c0-5.7,3.5-10.8,7.9-13.5c7.4-4.6,18.2-3.3,20.7,1.3
			c1.8,3.4-2.1,6.8-0.2,14.1c1,4,2.5,4,2.4,6c-0.4,7-17.9,6.5-24.7,17.5c-4.3,7-3.6,17.5,0.6,20.2c4.2,2.7,9-3.6,22.9-8.1
			c0.9-0.3,4.1-1.3,4.3-3.1c0.2-1.9-2.8-3.5-2.2-5.5c0.2-0.6,0.6-0.9,0.7-1.1c3.7-5.4,16.8-26.5,5.2-43.5
			c-5.6-8.3-15.5-14.6-26.8-14.7c-14.9-0.2-29.1,10.2-31.5,21.5c-0.4,1.8-1.1,5.5,0.4,9.5c2.6,6.6,8.9,6.7,10.9,12.4
			c1.7,4.9-0.3,10-1.9,13.6c-5.9,13.3-18.2,15.7-17.3,19.3c1.2,5,25.4,9.2,38.9-3.2c6.1-5.6,11.3-15.7,7.9-21.4
			C193.3,74.6,190,75.5,184.4,70.5z"/>
	</g>
	<g class="st21">
		<path class="st30" d="M212.7,38.9c-23.6-14.9-45-18.9-51.2-11.7c-2.5,2.8-4,9-4.2,9.7c-1.8,7.3-1.1,16.1,1.1,16.6
			c2.3,0.5,2.9-8.5,10.5-15c7.8-6.6,22.2-9.9,30.7-4.3c6.3,4.1,10.9,10,12.7,8.8C213.3,42.5,213,40.4,212.7,38.9z"/>
	</g>
</g>
<path class="st0" d="M169.1,66.4c0.7,8.1-1.2,16.2-3,16.3c-1.2,0-0.8-4.5-4.4-7.2c-2.3-1.6-3.9-1-5.4-2.9c-1.8-2.4-1.1-5.7-1-6
	c0.1-0.5-0.1-1.2,3.7-5.8c4-4.8,3.7-7.6,5.1-7.8C165.7,52.9,168.5,59.1,169.1,66.4z"/>
<path class="st0" d="M160.1,95.3c-4.7-1.3-8-9.8-6.6-16.6c1.7-8.2,9.2-9.4,12.5-20.1c1.9-6.3,0.5-9.9,1.6-10.1
	c2.6-0.6,13.9,18,7.7,33.4C172.4,88.8,165.4,96.7,160.1,95.3z"/>
<path class="st0" d="M184.3,69.7c-1.9-1.8-7.5-6.8-7.6-14.2c0-6,3.7-11.4,8.2-14.2c7.7-4.9,19-3.5,21.6,1.3
	c1.9,3.6-2.2,7.1-0.2,14.8c1.1,4.2,2.6,4.2,2.5,6.3c-0.4,7.4-18.6,6.8-25.7,18.4c-4.5,7.4-3.8,18.4,0.7,21.3
	c4.3,2.8,9.4-3.8,23.9-8.5c0.9-0.3,4.3-1.4,4.5-3.3c0.2-2-2.9-3.7-2.3-5.8c0.2-0.6,0.7-1,0.8-1.1c3.9-5.7,17.6-27.8,5.5-45.8
	c-5.9-8.7-16.2-15.3-28-15.5c-15.6-0.2-30.4,10.8-32.8,22.7c-0.4,1.9-1.2,5.8,0.5,10c2.7,7,9.2,7,11.3,13.1c1.8,5.2-0.3,10.5-2,14.3
	c-6.2,14-19,16.5-18.1,20.3c1.2,5.2,26.5,9.7,40.6-3.3c6.4-5.9,11.8-16.5,8.3-22.5C193.6,74,190.2,75,184.3,69.7z"/>
<path class="st0" d="M213.8,36.5c-24.6-15.7-46.9-19.9-53.5-12.4c-2.6,3-4.2,9.4-4.4,10.2c-1.8,7.7-1.2,17,1.1,17.5
	c2.4,0.5,3-9,11-15.8c8.2-6.9,23.2-10.4,32.1-4.6c6.6,4.3,11.4,10.5,13.3,9.3C214.4,40.2,214.1,38.1,213.8,36.5z"/>
<path class="st31" d="M209,79.6c-2.9-2.7-10,2.4-21.6,5.6c-14.4,4-32,4.1-33.8-0.5c-0.8-2.2,1.8-5.6,4.8-6.9
	c5.4-2.5,11.4,2.1,17.5,4.1c16.2,5.3,31.9-9.3,33.8-6.6c1.1,1.5-2.4,6.8-7.9,10.6c-17.7,12.2-45.7,1-46.7,4.2
	c-0.4,1.4,4.4,4.2,8.6,5.9c16.3,6.7,39.5,3.3,45-8C210,85.4,210.9,81.3,209,79.6z"/>
<path class="st32" d="M213.4,80.2c-3.1-3-10.7,2.7-23.3,6.4c-15.6,4.5-34.6,4.7-36.5-0.6c-0.9-2.5,1.9-6.3,5.1-7.9
	c5.8-2.8,12.3,2.4,18.9,4.7c17.5,6,34.4-10.5,36.5-7.5c1.2,1.7-2.6,7.7-8.5,12c-19.1,13.8-49.3,1.2-50.4,4.7
	c-0.5,1.6,4.8,4.8,9.3,6.7c17.6,7.5,42.6,3.7,48.6-9.1C214.4,86.8,215.4,82.2,213.4,80.2z"/>
<path class="st32" d="M165.2,93.2c-7.3,1.6-20.8,5-20.7,8.6c0.1,3,10,6.5,19.3,5.4c10.3-1.2,12.8-7,26.2-13.2
	c13.6-6.3,24.7-6.5,24.6-7C214.7,86.6,205.7,87.4,165.2,93.2z"/>
<path class="st33" d="M168,93.9c-6,1.5-17.1,4.8-17,8.2c0.1,2.9,8.2,6.2,15.9,5.2c8.4-1.1,10.5-6.7,21.6-12.5
	c11.2-6,20.3-6.2,20.2-6.7C208.6,87.6,201.3,88.4,168,93.9z"/>
<path class="st33" d="M192.3,79.7C174.5,74,165,59.3,167.6,48.5c3-12.5,21.5-17.7,22-17.1c0.3,0.4-8.5,3.9-12.8,13.2
	c-0.2,0.5-5.3,11.8-0.2,21.5c5.1,9.4,17.3,12.4,17.5,12.1c0.2-0.5-22.9-1.6-27-14.1c-4.5-13.6,14.5-34.9,29.6-31.9
	c8.9,1.8,13.9,11.6,14.4,12.6c0.6,1.3,4.4,9.2,1.6,18.2c-3.8,12.4-18.2,21.5-30.2,18.2c-5.7-1.6-9.4-5.5-11.4-8.1"/>
<path class="st34" d="M130.2,212c1.1,0.3,3,0.2,4.9,0.7c2.2,0.6,3.9,1.4,5.2,2.1"/>
<path class="st35" d="M130.7,210.1c1.1,0.3,2.5,0.1,4.4,0.6c0,0,1.3,0.3,5.7,2.1l0,0"/>
<path class="st36" d="M131.1,208.2c1.1,0.3,2.5,0.1,4.4,0.6c0,0,1.3,0.3,5.7,2.1l0,0"/>
<path class="st35" d="M378.3,173.2c0.7,0.7,6.6,1.7,8.5,3.6"/>
<path class="st36" d="M379.7,171.8c0.7,0.7,6.6,1.7,8.5,3.6"/>
<path class="st34" d="M428.8,46.9c1.8,0.8,4.5,1.7,8,1.9c2.7,0.2,5.1-0.2,6.7-0.6"/>
</svg>
