<?xml version="1.0" encoding="utf-8"?>
<!-- Generator: Adobe Illustrator 27.5.0, SVG Export Plug-In . SVG Version: 6.00 Build 0)  -->
<svg version="1.1" id="Layer_1" xmlns="http://www.w3.org/2000/svg" xmlns:xlink="http://www.w3.org/1999/xlink" x="0px" y="0px"
	 viewBox="0 0 943 795.6" style="enable-background:new 0 0 943 795.6;" xml:space="preserve">
<style type="text/css">
	.st0{fill:#1D3307;}
	.st1{fill:#094413;}
	.st2{fill:#EF7B9A;}
	.st3{fill:#022709;}
	.st4{fill:#C6C48F;}
	.st5{fill:#CCCCCC;}
	.st6{fill:#B2B28A;}
	.st7{fill:#220749;}
	.st8{fill:#4C4529;}
	.st9{fill:#2BB6BA;}
	.st10{fill:#391068;}
	.st11{fill:#BCB12A;}
	.st12{fill:#280B51;}
	.st13{fill:#200944;}
	.st14{fill:#16138E;}
	.st15{fill:#FF6584;}
	.st16{fill:#ECF9D7;}
	.st17{fill:#AA6717;}
	.st18{fill:#875007;}
	.st19{opacity:0.15;enable-background:new    ;}
	.st20{opacity:0.15;}
</style>
<path class="st0" d="M768,384c0,11.2-0.5,22.2-1.4,33.2c-0.7,8.6-1.8,17-3,25.4c-1.4,8.9-3,17.7-5,26.3v0c-1.3,5.7-2.7,11.4-4.2,17
	c-4.5,16.3-10,32.3-16.7,47.9c-1.4,3.4-2.9,6.8-4.5,10.1c-5.8,12.7-12.3,25-19.5,36.9c-20.1,33.5-45.2,63.8-74.3,89.8
	c-3.2,2.8-6.4,5.6-9.6,8.3C560.8,736.7,473.8,768.1,384,768C171.9,768,0,596.1,0,384S171.9,0,384,0c86.7-0.1,170.9,29.2,238.8,83.2
	c3.2,2.5,6.3,5.1,9.4,7.7c15.1,12.8,29.2,26.8,42.2,41.8h0C734.9,202.5,768.1,291.7,768,384z"/>
<path class="st1" d="M113.4,450.3c-36.6-21.8-64.2-62.5-60.6-104.9c33.4,32,77.1,51.2,123.3,54.1c17.8,1.1,37.8,0.4,50.9,12.5
	c8.2,7.5,12,18.9,12.6,30c0.6,11.1-1.6,22.1-3.8,33l0.8,2.7C193.9,477.8,149.9,472.1,113.4,450.3z"/>
<path class="st2" d="M53.6,345.4c14.7,32,39,58.7,69.7,76c6.6,3.7,13.6,6.9,21,8.3c7.3,1.4,14.8,0.8,21.7-1.7
	c6.5-2.2,13-5.2,19.9-5.8c7.3-0.6,14.1,2.2,19.5,7.2c6.5,6.1,10.5,14.1,14.1,22.1c4,8.9,8,18.2,15.7,24.6c0.9,0.8-0.3,2.2-1.3,1.4
	c-13.3-11.1-15.5-29.7-26.1-42.8c-5-6.1-11.8-10.8-19.9-10.6c-7.1,0.1-13.7,3.2-20.3,5.5c-6.9,2.4-13.9,3.5-21.2,2.5
	c-7.5-1.1-14.6-4-21.3-7.5c-15-8.1-28.7-18.4-40.5-30.7C71,379.9,60,363.7,51.9,346C51.4,344.9,53.1,344.3,53.6,345.4L53.6,345.4z"
	/>
<path class="st2" d="M113.1,416.4c-7.5,9.8-20.9,12.7-31.8,7c-1.1-0.6-0.2-2.3,0.8-1.7c10.1,5.4,22.7,2.6,29.6-6.5
	C112.5,414.2,113.8,415.5,113.1,416.4L113.1,416.4z"/>
<path class="st2" d="M162.9,429.6c-1.5-12.1-7.5-23.2-16.9-31c-0.9-0.8,0.3-2.2,1.3-1.4c9.7,8.2,15.9,19.7,17.5,32.3
	C164.9,430.7,163.1,430.8,162.9,429.6L162.9,429.6z"/>
<path class="st2" d="M73.3,379c3.6-3.1,5.4-7.9,4.8-12.6c-0.2-1.2,1.7-1.3,1.9-0.1c0.7,5.2-1.3,10.5-5.3,14
	c-0.4,0.4-0.9,0.4-1.3,0.1C73,379.9,73,379.4,73.3,379L73.3,379z"/>
<path class="st3" d="M171.2,263.3c0.1,0.7,0.2,1.5,0.4,2.2c1.7,10,4.2,19.9,7.5,29.5c0.2,0.7,0.5,1.5,0.8,2.2
	c8.2,23.1,20.6,44.4,36.6,62.9c6.4,7.4,13.3,14.2,20.7,20.6c10.2,8.7,22,17.4,28.6,28.6c0.7,1.2,1.3,2.4,1.9,3.6l-27.9,63.6
	c-0.1,0.1-0.3,0.2-0.4,0.3l-1,2.6c-0.4-0.3-0.8-0.6-1.2-0.9c-0.2-0.2-0.5-0.4-0.7-0.5c-0.2-0.1-0.3-0.2-0.5-0.3
	c-0.1,0-0.1-0.1-0.1-0.1c-0.1-0.1-0.3-0.2-0.4-0.3c-2.3-1.8-4.6-3.6-6.9-5.4c0,0,0,0,0,0c-17.5-13.9-34-29.3-47.6-46.8
	c-0.4-0.5-0.8-1.1-1.2-1.6c-6.1-7.9-11.5-16.3-16.3-25.1c-2.6-4.8-4.9-9.8-7-14.8c-5.3-13.1-8.6-26.9-9.6-41
	c-2-28.1,4.9-56.5,22.9-77.6C170.2,264.3,170.7,263.8,171.2,263.3z"/>
<path class="st2" d="M171.9,263.8c-7.6,34.4-4.1,70.3,9.8,102.7c3,6.9,6.7,13.7,11.8,19.3c5,5.5,11.3,9.5,18.4,11.7
	c6.5,2.2,13.5,3.6,19.4,7.4c6.2,3.9,9.9,10.3,11.2,17.4c1.6,8.8-0.1,17.6-2.1,26.1c-2.2,9.5-4.6,19.3-2.3,29
	c0.3,1.2-1.6,1.5-1.8,0.4c-3.9-16.9,5.5-33.1,4.9-49.9c-0.3-7.9-3-15.7-9.5-20.5c-5.7-4.2-12.9-5.7-19.5-7.9
	c-7-2.3-13.2-5.5-18.4-10.8c-5.3-5.4-9.3-12-12.5-18.8c-7.1-15.5-11.8-32-13.8-48.9c-2.4-19.3-1.5-38.9,2.7-57.9
	C170.4,262,172.2,262.6,171.9,263.8L171.9,263.8z"/>
<path class="st2" d="M176.6,356.3c-11.9,3.3-24.4-2.4-29.6-13.6c-0.5-1.1,1.2-1.9,1.7-0.8c4.8,10.4,16.5,15.8,27.6,12.6
	C177.4,354.1,177.8,356,176.6,356.3L176.6,356.3z"/>
<path class="st2" d="M208.5,396.8c6.1-10.6,7.9-23.1,5.2-34.9c-0.3-1.2,1.6-1.5,1.8-0.4c2.8,12.4,0.8,25.4-5.5,36.4
	C209.4,398.9,207.8,397.8,208.5,396.8L208.5,396.8z"/>
<path class="st2" d="M167.4,302.4c4.8-0.3,9.1-3,11.4-7.2c0.6-1.1,2.1,0,1.6,1c-2.6,4.6-7.4,7.6-12.6,8c-0.5,0.1-1-0.2-1.1-0.7
	C166.6,303,166.9,302.5,167.4,302.4L167.4,302.4z"/>
<path class="st4" d="M266,89l47,550.2l-94,7.1V96C230.2,88.6,246.3,87.4,266,89z"/>
<path class="st4" d="M498,89l-47,550.2l94,7.1V96C533.8,88.6,517.7,87.4,498,89z"/>
<path class="st4" d="M530.9,669H232.1c-10,0-18.1-8.1-18.1-18.1V104.1c0-10,8.1-18.1,18.1-18.1h298.9c10,0,18.1,8.1,18.1,18.1v546.9
	C549,660.9,540.9,669,530.9,669z M232.1,92c-6.7,0-12.1,5.4-12.1,12.1v546.9c0,6.7,5.4,12.1,12.1,12.1h298.9
	c6.7,0,12.1-5.4,12.1-12.1V104.1c0-6.7-5.4-12.1-12.1-12.1L232.1,92z"/>
<rect x="217" y="177" class="st4" width="329" height="6"/>
<rect x="217" y="277" class="st4" width="329" height="6"/>
<rect x="317.8" y="89" class="st4" width="6" height="273"/>
<rect x="439.2" y="89" class="st5" width="6" height="273"/>
<path class="st6" d="M583.5,685.5h-394c-14.9,0-27-12.1-27-27s12.1-27,27-27h394c14.9,0,27,12.1,27,27S598.4,685.5,583.5,685.5z"/>
<rect x="219" y="348" class="st4" width="327" height="20"/>
<path class="st7" d="M324.7,411.7l-0.4-0.2c-22.3-10.8-51.5-10.8-94.7,0l-0.5,0.1l-0.1-0.5c-4.6-15-9.7-31.9,0-40.3
	c0.1-24.5,21.6-44.4,48-44.4c26.4,0,47.9,19.9,48,44.4c14.5,11.1,7.6,27.4-0.1,40.4L324.7,411.7z"/>
<path class="st8" d="M461.7,359.2c-1.5,7.5-8.8,12.3-16.3,10.8c-0.8-0.2-1.6-0.4-2.3-0.7l-78.8,79.2l-7-24.6l78.2-73.5
	c3.3-7,11.6-9.9,18.5-6.6C459.8,346.5,463,352.9,461.7,359.2L461.7,359.2z"/>
<path class="st9" d="M267,435.4c0,0-7.1,16.2,10.5,26.2c17.6,10,79.3-3.8,89.3-5.7s47.4-57.8,47.4-57.8l-5.3-27.4l-49.5,43
	L267,435.4z"/>
<path class="st8" d="M254,525l1,19c0,0-3,16.8-0.5,20.5c2.4,3.6,68.2,4.1,68.2,4.1s4.3-23.4,8.1-43.9L254,525z"/>
<polygon class="st8" points="443,776.2 456.8,773.4 452.8,717.9 432.5,722 "/>
<polygon class="st8" points="462.7,704 475.5,698.2 458.9,645.1 440,653.6 "/>
<path class="st10" d="M473.8,674l-24.1,13.6l-59.3-95.3c-41.7,28.1-82.4,41.5-123.4,48.7c-13.9,2.5-28,1.2-30.7-12.9
	c-0.1-0.7-0.2-1.3-0.3-2c-1.6-15.4,17.6-35.2,20-54.1l52.5-3.2l6.5,8.3l60.8-37.4c12.2-7.5,28.3-3.4,35.9,9.1c0.4,0.7,0.8,1.3,1.1,2
	L473.8,674z"/>
<path class="st10" d="M459.1,738.2l-27.5,2.6l-49.9-102.1c-49.5,8.5-96.2,11.2-136.6,0.9c-13.7-3.4-22-17.6-18.7-31.5
	c0.2-0.7,0.3-1.3,0.5-1.9c4.8-14.7,17.5-25.2,27.5-41.4l72.8,1.1l-8.1,28.1l70.7-9.2c14.2-1.8,27.2,8.5,29,23
	c0.1,0.8,0.2,1.5,0.2,2.3L459.1,738.2z"/>
<circle class="st8" cx="282.4" cy="367.6" r="29.6"/>
<path class="st9" d="M265.1,407.8l27.1,3.2c2.3,0.3,4.3,2,4.8,4.3l4.3,19.7l26.9,31.7c0,0,9.7,18.1,6,38.6
	c-3.6,20.5-5.2,35.7-5.2,35.7s-72.1,27-74.5,23.4c-2.4-3.6-3.2-20.1-3.2-20.1L241.6,437c0,0,10.9-18.1,16.9-18.1
	C262.4,418.8,261.9,410,265.1,407.8z"/>
<ellipse class="st3" cx="329.7" cy="539.4" rx="6.9" ry="8.3"/>
<path class="st11" d="M436.2,761.9l21-10.5l3.9,9.2l26.5,5.4c3.4,0.7,5.6,4,4.9,7.4c-0.4,2-1.8,3.7-3.7,4.5l-25.6,11l-8.3-7.2
	l2.2,9.9l-9.7,4.1L436.2,761.9z"/>
<path class="st11" d="M456.7,699.6l20.8-10.9l4.1,9.1l26.6,4.9c3.4,0.6,5.7,3.9,5,7.3c-0.4,2-1.7,3.7-3.6,4.6L484.2,726l-8.4-7.1
	l2.4,9.8l-9.6,4.3L456.7,699.6z"/>
<path class="st12" d="M265.5,358.3c-7.8,0-15.4-2.4-21.8-6.9l-0.2-0.1V351c0-15.7,12.8-28.5,28.5-28.5h12
	c15.7,0,28.5,12.8,28.5,28.5c0,3.6-2.9,6.5-6.5,6.6l-39.8,0.7C266,358.3,265.8,358.3,265.5,358.3z"/>
<ellipse transform="matrix(0.866 -0.5 0.5 0.866 -126.6019 199.5155)" class="st13" cx="309" cy="336" rx="8" ry="11"/>
<ellipse transform="matrix(0.7071 -0.7071 0.7071 0.7071 -163.2432 273.896)" class="st13" cx="249" cy="334" rx="11" ry="8"/>
<path class="st14" d="M516.3,610h-29.5c-1.3,0-2.6,0.6-3.5,1.6c-3.8-0.7-7.5,1.8-8.1,5.6c-0.7,3.8,1.8,7.5,5.6,8.1
	c1.5,0.3,3,0.1,4.3-0.6l2.4,8c0.6,1.9,2.4,3.3,4.4,3.3h19.2c2,0,3.8-1.3,4.4-3.3l5.2-16.8c0.7-2.4-0.6-5-3.1-5.8
	C517.3,610.1,516.8,610,516.3,610z M482.1,623.5c-2.8,0-5-2.2-5-5s2.2-5,5-5c0.1,0,0.2,0,0.3,0c-0.2,0.8-0.2,1.6,0.1,2.4l2.1,6.9
	C483.8,623.3,482.9,623.5,482.1,623.5L482.1,623.5z"/>
<path class="st8" d="M384.6,588.3c-7.6,0.7-14.4-4.9-15.1-12.5c-0.1-0.8-0.1-1.6,0-2.4L271,520.6l21.5-13.8l92.9,53.9
	c7.6,1.2,12.8,8.2,11.7,15.8C396.2,582.9,391,587.7,384.6,588.3L384.6,588.3z"/>
<path class="st9" d="M255.7,423.6c0,0-17.6-2.2-22.1,17.6s26.4,74.8,31.1,83.9s69,28.8,69,28.8l24.7-12.9L303,505.8L255.7,423.6z"/>
<path class="st6" d="M379.5,342h6c6.1,0,11,4.9,11,11l0,0l0,0l0,0h-28l0,0l0,0C368.5,346.9,373.4,342,379.5,342L379.5,342z"/>
<circle class="st15" cx="189.2" cy="77.3" r="59.4"/>
<path class="st16" d="M371.2,74.2c-15.7-16.5-34-31.6-55.6-39.5c-6-2.2-12.3-3.8-18.6-4.7c-0.1,0-0.1,0-0.2,0c-0.1,0-0.2,0-0.3-0.1
	c-8.9-1.1-17.9-0.6-26.6,1.6c-4.3,1.1-8.4,2.5-12.4,4.3c-4,2-7.9,4.2-11.6,6.6c-7.9,4.7-16.6,8-25.7,9.6c-4.6,0.8-9.2,1.3-13.8,1.4
	c-4,0.1-7.8,0.2-11.6,1.7c-8.2,3.1-14.5,9.9-17,18.4c-0.2,0.8,0.1,1.6,0.8,2c1,0.7,2,1.6,3.1,2.2c1,0.4,2,0.7,3,0.8
	c1.7,0.4,3.4,0.7,5.2,1.1c6.4,1.3,12.7,2.4,19.1,3.3c13,2,26,3.3,39.1,4.1c26.2,1.6,52.6,0.8,78.7-2.4c14.7-1.8,29.2-4.3,43.7-7.6
	c0.9-0.3,1.5-1.3,1.2-2.2C371.6,74.7,371.4,74.4,371.2,74.2z"/>
<path class="st16" d="M192.1,114c-6-2.2-12.3-3.8-18.6-4.7c-0.1,0-0.1,0-0.2,0c-0.1,0-0.2,0-0.3-0.1c-8.9-1.1-17.9-0.6-26.6,1.6
	c-4.3,1.1-8.4,2.5-12.4,4.3c-4,2-7.9,4.2-11.6,6.6c-7.9,4.7-16.6,8-25.7,9.6c-4.6,0.8-9.2,1.3-13.8,1.4c-4,0.1-7.8,0.2-11.6,1.7
	c-8.2,3.1-14.5,9.9-17,18.4c-0.2,0.8,0.1,1.6,0.8,2c1,0.7,2,1.6,3.1,2.2c1,0.4,2,0.7,3,0.8c1.7,0.4,3.4,0.7,5.2,1.1
	c6.4,1.3,12.7,2.4,19.1,3.3c13,2,26,3.3,39.1,4.1c26.2,1.6,52.6,0.8,78.7-2.4c14.7-1.8,29.2-4.3,43.7-7.6c0.9-0.3,1.5-1.3,1.2-2.2
	c-0.1-0.3-0.2-0.5-0.4-0.7C232,137,213.7,121.9,192.1,114z"/>
<polygon class="st17" points="620.7,557.1 575,497 538.9,517.4 615.4,608.2 "/>
<path class="st18" d="M726,459.5c1,25.2,4.9,50.1,11.6,74.4c-1.4,3.4-2.9,6.8-4.5,10.1c-5.8,12.7-12.3,25-19.5,36.9
	c-20.1,33.5-45.2,63.8-74.3,89.8c-3.2,2.8-6.4,5.6-9.6,8.3c-18.5-25.5-28.5-53.7-32.5-82.7c-0.5-3.7-0.9-7.4-1.2-11.1v0
	c-0.8-9-1-18-0.7-27c0-0.7,0-1.5,0.1-2.2c0.3-9.6,1.2-19.3,2.5-28.9v0c0.2-1.1,0.3-2.2,0.5-3.3c0.5-3.3,1-6.6,1.6-9.9
	c3.4-18.9,8.2-37.6,14.3-55.8v0c0.2-0.5,0.3-1,0.5-1.6c0.7-2,1.3-3.9,2-5.9c0-0.2,0.1-0.3,0.2-0.5c0.9-2.6,1.8-5.1,2.7-7.6
	c0.2-0.7,0.5-1.4,0.8-2.1c1-2.8,2.1-5.6,3.2-8.4c0.3-0.9,0.7-1.8,1-2.6c0.3-0.7,0.5-1.3,0.8-2v0c1.6-3.9,3.2-7.8,4.8-11.6
	c4.6-10.6,9.3-20.6,13.8-29.8l0,0c19-38.1,36.3-62.9,36.3-62.9l64.9,21c-7.7,13.7-13.7,34-17,57.9C726,421.2,725.1,440.3,726,459.5
	L726,459.5z"/>
<path class="st3" d="M618.2,453.4c-0.4-0.9-0.8-1.8-1.2-2.6c-2.3-4.4-5.2-8.5-8.7-12c-0.5-0.5-1.1-1.1-1.6-1.6
	c-12.2-11.3-29.4-15.5-45.5-11.3l0,0l-0.3,0.1l0.1,0.3c0.3,1.6,0.7,3.1,1.3,4.6c0.2,0.4,0.3,0.8,0.5,1.2c0.1,0.2,0.2,0.3,0.2,0.5
	c0,0,0,0,0,0c0,0,0,0,0,0c0.2,0.4,0.4,0.8,0.6,1.1c-0.4-0.4-0.8-0.8-1.2-1.2c-0.4-0.4-0.7-0.8-1.1-1.2c-1.2-1.4-2.2-2.8-3.2-4.3
	l-0.2-0.3l-0.3,0.1c-3.8,1.3-7.4,3.1-10.7,5.2l-0.4,0.2c-5.2,3.4-11.5,4.4-17.5,2.9c-9.4-2.4-19.4-0.8-27.6,4.5
	c-2.7,1.7-5.1,3.8-7.2,6.3c-0.2,0.2-0.4,0.4-0.5,0.6c-0.4,0.5-0.7,0.9-1.1,1.4c-3.8,5-6.1,11-6.7,17.2l0,0.2l0.2,0.1
	c3.4,2.3,7.2,3.9,11.2,4.7c-2.5,0.4-5.1,0.4-7.6,0.2h0c-1.2-0.1-2.3-0.3-3.4-0.5l-0.2,0h0l-0.3,0l0,0.5c0.3,6.1,2.2,12,5.6,17.2
	l0.1,0.1c0,0.1,0.1,0.1,0.1,0.2c1.4,2.2,2.6,4.5,3.5,6.9c2.3,6,2.9,12.6,1.5,18.9c-3.2,13.8,2.4,28.2,14.1,36.2c5,3.5,10.9,5.5,17,6
	c0.8,0.1,1.7,0.1,2.5,0.1c4.8,0,9.6-1,14-2.9l0.2-0.1l0-0.2c0.8-2.7,2-5.3,3.5-7.8c-0.5,1.9-0.7,3.9-0.7,5.9v0.7l0.6-0.3
	c0.5-0.3,1-0.6,1.4-0.9c2.7-1.8,5.1-3.9,7.3-6.3c0.8-1,1.7-1.9,2.5-2.8l0,0c1.7-1.8,3.5-3.6,5.4-5.3c4-3.6,8.3-6.9,12.8-9.8
	c4.5-2.9,9.2-5.5,14.1-7.7h0c0.5-0.3,1.1-0.5,1.7-0.8c2.4-1.1,4.8-2.3,7-3.8c0.1-0.1,0.2-0.1,0.2-0.1
	C620.2,500.8,627.8,475.2,618.2,453.4L618.2,453.4z"/>
<path class="st19" d="M498.3,528c-0.3,1.2-0.5,2.4-0.6,3.7c-1.9-5.9-2.1-12.2-0.8-18.2c0.2-0.9,0.4-1.9,0.5-2.8
	C499.2,516.3,499.5,522.3,498.3,528z"/>
<path class="st19" d="M499,484.6c-3,0.4-6,0.4-8.9,0c-0.8-1.5-1.4-3-2-4.5C491.4,482.3,495.1,483.9,499,484.6z"/>
<path class="st19" d="M489.9,470.3c-1.1,2.8-1.8,5.7-2.2,8.7c-0.9-2.8-1.5-5.8-1.6-8.8l0-0.5l0.5,0.1
	C487.6,470.1,488.8,470.2,489.9,470.3z"/>
<path class="st19" d="M501.7,439.6c8.1-5.3,18.2-6.9,27.6-4.5c6,1.6,12.4,0.5,17.5-2.9l0.4-0.2c3.3-2.2,6.9-4,10.7-5.3l0.3-0.1
	l0.2,0.3c1.5,2.5,3.3,4.7,5.4,6.7c-1.3-2.4-2.1-4.9-2.6-7.5l-0.1-0.3l0.3-0.1c26-6.9,52.7,8.6,59.6,34.6c1.3,4.9,1.8,10,1.6,15.1
	c-6.6-26.1-33.1-41.9-59.2-35.4c-0.2,0-0.4,0.1-0.6,0.1l-0.3,0.1l0.1,0.3c0.5,2.6,1.4,5.2,2.6,7.5c-2.1-2-3.9-4.3-5.4-6.7l-0.2-0.3
	l-0.3,0.1c-3.8,1.3-7.4,3.1-10.7,5.3l-0.4,0.2c-5.2,3.4-11.5,4.4-17.5,2.9c-16-4.1-32.6,3.6-39.8,18.4c-1.5-0.7-3-1.6-4.5-2.5
	l-0.2-0.1l0-0.2C487.2,454.7,492.9,445.3,501.7,439.6z"/>
<path class="st3" d="M873.5,184l-0.9-0.6l-0.7,0.9c-5.3,6.7-9.6,14.2-12.6,22.3c0.4-9.3,2-18.4,4.8-27.3l0.3-0.9l-0.9-0.5
	c-11.2-6.3-23.1-11.3-35.5-14.7l-1.3-0.4c-19.2-5.3-35.3-18.5-44.2-36.3C761.6,85.1,717.2,61,671.1,66h0c-0.2,0-0.5,0.1-0.7,0.1
	c-0.4,0-0.8,0.1-1.2,0.1c-0.8,0.1-1.6,0.2-2.4,0.3c-0.7,0.1-1.4,0.2-2,0.3c-0.4,0.1-0.7,0.1-1.1,0.2c-0.3,0.1-0.7,0.1-1.1,0.2h0
	c-6.7,1.3-13.3,3.2-19.7,5.7h0v0l-1.6,0.6c-1.7,0.7-3.3,1.4-4.9,2.2c-0.4,0.2-0.7,0.4-1.1,0.5c-0.1,0.1-0.2,0.1-0.3,0.2
	c-1.1,0.5-2.1,1-3.1,1.6c-0.2,0.1-0.3,0.1-0.5,0.2l-1,0.5c-2.1,1.1-4.2,2.4-6.2,3.6c-0.2,0.1-0.3,0.2-0.5,0.3
	c-0.2,0.1-0.4,0.2-0.6,0.4c-0.1,0.1-0.2,0.1-0.3,0.2c-0.3,0.2-0.6,0.4-0.9,0.6c-0.6,0.4-1.2,0.8-1.8,1.2c-0.6,0.4-1.2,0.8-1.8,1.3
	l-0.6,0.4l0.1,0.7c0.1,0.6,0.2,1.2,0.3,1.8c0.1,0.6,0.2,1.2,0.3,1.8c0.2,1,0.4,2,0.5,2.9c0.1,0.6,0.2,1.2,0.4,1.9
	c0.1,0.6,0.3,1.3,0.4,1.9c0.3,1.3,0.6,2.6,0.9,3.8c0.2,0.6,0.3,1.2,0.5,1.9c0.1,0.4,0.2,0.7,0.3,1.1c0.1,0.2,0.2,0.5,0.2,0.8
	c0,0.1,0,0.2,0.1,0.3c0,0.1,0,0.2,0.1,0.2c0.1,0.4,0.2,0.7,0.3,1.1c0.1,0.2,0.1,0.4,0.2,0.6c0.1,0.4,0.3,0.9,0.4,1.3
	c0.2,0.5,0.3,1,0.5,1.4c0,0.1,0.1,0.2,0.1,0.4c0,0.1,0.1,0.2,0.1,0.3c0,0.1,0.1,0.2,0.1,0.3c0.2,0.4,0.3,0.9,0.5,1.4
	c0.1,0.2,0.1,0.3,0.2,0.5c1.6,4.1,3.6,8,6,11.7c-2.6-2.2-5.1-4.6-7.5-7.1c-3.7-3.8-7.1-8-10.2-12.3c-0.2-0.3-0.5-0.7-0.7-1
	c-0.5-0.7-0.9-1.3-1.4-2c-0.5-0.7-0.9-1.4-1.4-2.1c-0.3-0.5-0.6-1-0.9-1.4c-0.3-0.5-0.6-0.9-0.8-1.4l-0.8-1.3h0v0l-1.1,1.1
	c-0.4,0.4-0.9,0.9-1.3,1.3c-13.4,13.5-23.2,30.3-28.3,48.6l-0.2,0.6l-0.2,0.6c-0.3,1-0.6,2-0.9,3v0c-0.3,1-0.6,2-1,3
	c-0.3,0.9-0.6,1.9-1,2.8c-0.1,0.3-0.2,0.6-0.4,0.9c-0.2,0.6-0.4,1.2-0.7,1.8c-0.1,0.3-0.2,0.6-0.3,0.8c-0.3,0.7-0.5,1.3-0.8,2
	c0,0.1-0.1,0.2-0.1,0.3c-0.1,0.2-0.2,0.4-0.2,0.6c-0.2,0.5-0.4,1-0.6,1.4c-0.2,0.3-0.3,0.6-0.4,0.9c-0.1,0.1-0.1,0.3-0.2,0.4
	c-0.4,0.8-0.8,1.6-1.2,2.4c-0.5,0.9-0.9,1.8-1.4,2.7c-0.4,0.8-0.9,1.7-1.3,2.5c-0.8,1.4-1.7,2.9-2.5,4.3c-0.3,0.5-0.7,1.1-1,1.6
	c-0.1,0.1-0.2,0.3-0.2,0.4c-0.3,0.5-0.6,0.9-0.9,1.4c-0.2,0.3-0.4,0.6-0.6,0.9c-0.3,0.5-0.7,1.1-1.1,1.6c-0.1,0.2-0.2,0.3-0.3,0.5
	c-0.6,0.8-1.1,1.5-1.7,2.3c0,0,0,0,0,0c0,0,0,0,0,0c-0.2,0.3-0.5,0.7-0.8,1c-0.3,0.5-0.7,0.9-1.1,1.4c-0.6,0.8-1.2,1.5-1.9,2.3
	c0,0,0,0,0,0.1c-3.3,3.9-6.9,7.5-10.7,10.9c-0.1,0.1-0.1,0.1-0.2,0.2c-0.5,0.5-1.1,0.9-1.6,1.4c-0.2,0.2-0.5,0.4-0.7,0.6
	c-0.4,0.3-0.8,0.6-1.2,0.9c0,0-0.1,0.1-0.2,0.1c-0.3,0.3-0.7,0.5-1,0.8c-0.4,0.3-0.8,0.6-1.2,1c-2,1.5-4,2.9-6.1,4.2
	c-0.3,0.2-0.6,0.4-1,0.6c-0.2,0.1-0.4,0.2-0.6,0.3c-0.8,0.5-1.5,0.9-2.3,1.4c-0.8,0.5-1.5,0.9-2.3,1.3c-1.7,0.9-3.3,1.8-4.9,2.8
	c-0.8,0.5-1.6,1-2.4,1.5c-3.1,2-6.2,4.2-9.1,6.5c-2.9,2.3-5.7,4.8-8.3,7.4c-0.3,0.3-0.7,0.6-1,1c-0.7,0.6-1.3,1.3-1.9,2
	c-1,1-1.9,2-2.8,3.1c-4.9,5.6-9.2,11.6-13,18c-1.9,3.2-3.6,6.5-5.1,9.9c-1.2,2.5-2.2,5.1-3.2,7.7c-0.6,1.8-1.2,3.5-1.8,5.3
	c-0.3,0.9-0.5,1.8-0.8,2.7c-0.8,3-1.6,6.1-2.1,9.2c-0.5,2.5-0.8,5-1.1,7.5c-0.2,1.2-0.3,2.5-0.4,3.7c-0.3,3-0.4,6.1-0.4,9.2
	c0,9.2,1.1,18.3,3.3,27.2c0.5,2,1,3.9,1.6,5.9c0.3,1,0.6,1.9,0.9,2.9c0.8,2.4,1.7,4.8,2.7,7.1c0.6,1.4,1.2,2.8,1.9,4.2
	c4.1,8.8,9.4,17.1,15.7,24.6c1,1.2,2.1,2.4,3.2,3.6c0,0,0,0,0,0c2.7,3,5.6,5.8,8.6,8.4h0c1.2,1.1,2.4,2.1,3.7,3.1c0,0,0,0,0,0
	c1.3,1,2.5,2,3.8,3c0.6,0.5,1.3,0.9,2,1.4c1.3,0.9,2.6,1.8,4,2.7h0c1.4,0.9,2.7,1.7,4.1,2.5c2.8,1.6,5.7,3.1,8.7,4.5l0.5,0.2
	l0.5-0.2c4.7-2.1,9.6-3.9,14.6-5.4c1.1-0.3,2.2-0.6,3.3-0.9c2.8-0.7,5.6-1.3,8.4-1.7c-2.7,1.4-5.4,2.9-7.9,4.7
	c-2,1.3-3.9,2.8-5.9,4.4c-0.7,0.5-1.3,1.1-2,1.6l-1.6,1.4l2,0.7c0.7,0.2,1.5,0.5,2.2,0.7c1,0.3,2,0.6,3,0.9c2.1,0.6,4.3,1.1,6.5,1.6
	c0.5,0.1,1,0.2,1.6,0.3c1,0.2,2.1,0.4,3.1,0.6c0,0,0.1,0,0.1,0c1.1,0.2,2.2,0.4,3.2,0.5c2,0.3,4,0.5,6,0.7c0.2,0,0.4,0,0.7,0
	c0.5,0,1,0.1,1.5,0.1c1.1,0.1,2.2,0.1,3.3,0.2c0.1,0,0.2,0,0.2,0c0.5,0,1.1,0,1.7,0c0,0,0,0,0,0c0.5,0,1.1,0,1.7,0h3
	c0.6,0,1.1,0,1.7,0c0.8,0,1.6,0,2.4,0c0.2,0,0.4,0,0.7,0c1.3,0,2.6,0,3.8,0.1c0.1,0,0.2,0,0.2,0c1.3,0,2.6,0.1,3.8,0.1
	c0.3,0,0.6,0,0.8,0c1.2,0,2.5,0.1,3.7,0.2c0.3,0,0.7,0,1.1,0.1c0.9,0,1.9,0.1,2.8,0.2c0.5,0,1.1,0.1,1.6,0.1
	c2.2,0.2,4.4,0.4,6.7,0.6c0.7,0.1,1.5,0.1,2.2,0.2c2,0.2,4,0.4,6,0.7c0.9,0.1,1.8,0.2,2.7,0.3c0.1,0,0.2,0,0.3,0
	c1.1,0.1,2.2,0.3,3.3,0.5c0.7,0.1,1.4,0.2,2.2,0.3c0.7,0.1,1.5,0.2,2.2,0.4c0.4,0.1,0.8,0.1,1.2,0.2c1,0.1,1.9,0.3,2.9,0.5
	c0.1,0,0.2,0,0.3,0c2.1,0.4,4.1,0.7,6.2,1.1c1.2,0.2,2.4,0.5,3.6,0.7c0.9,0.2,1.9,0.4,2.8,0.6c0.2,0,0.3,0.1,0.5,0.1
	c0,0,0.1,0,0.1,0c1.4,0.3,2.8,0.6,4.3,1c4.9,1.1,9.9,2.4,14.8,3.8c1.1,0.3,2.3,0.6,3.4,1c0.5,0.1,1,0.3,1.4,0.4c1,0.3,2,0.6,2.9,0.9
	c0.9,0.3,1.7,0.5,2.6,0.8c0.5,0.2,1.1,0.3,1.6,0.5c0.8,0.3,1.7,0.5,2.5,0.8c0.7,0.2,1.4,0.5,2.1,0.7c1,0.3,2,0.7,3,1
	c0.3,0.1,0.6,0.2,0.9,0.3c1.2,0.4,2.4,0.9,3.7,1.3c1.2,0.4,2.4,0.9,3.6,1.3c0.8,0.3,1.6,0.6,2.5,0.9c0.9,0.4,1.8,0.7,2.7,1.1
	c1.3,0.5,2.6,1,3.9,1.6c1.2,0.5,2.4,1,3.6,1.5c0.2,0.1,0.5,0.2,0.7,0.3c1,0.4,2.1,0.9,3.1,1.3c0.7,0.3,1.3,0.6,2,0.9
	c2.9,1.3,5.8,2.6,8.6,3.9h0c1.8,0.9,3.6,1.7,5.5,2.4c0.4,0.2,0.9,0.4,1.3,0.5c0.7,0.3,1.5,0.6,2.2,0.9c0.5,0.2,1,0.4,1.5,0.6
	c0.7,0.3,1.4,0.5,2.2,0.8c0.8,0.3,1.5,0.6,2.3,0.8c0.3,0.1,0.5,0.2,0.8,0.3c0.9,0.3,1.8,0.6,2.7,0.9c0.1,0,0.2,0.1,0.3,0.1
	c0.9,0.3,1.9,0.6,2.8,0.9c0.1,0,0.2,0.1,0.2,0.1c1,0.3,2.1,0.6,3.1,0.9c1.5,0.4,3,0.8,4.6,1.2c0.3,0.1,0.6,0.1,0.8,0.2
	c0.8,0.2,1.6,0.4,2.5,0.6c0.9,0.2,1.8,0.4,2.6,0.6c0.9,0.2,1.8,0.4,2.6,0.5c0.5,0.1,0.9,0.2,1.4,0.3l1.2,0.2
	c0.8,0.2,1.7,0.3,2.6,0.4c0,0,0,0,0.1,0c1,0.2,1.9,0.3,2.9,0.4c0.9,0.1,1.9,0.2,2.8,0.3c0.2,0,0.4,0,0.6,0.1
	c0.8,0.1,1.5,0.2,2.3,0.2c0.2,0,0.4,0,0.7,0.1c0.8,0.1,1.5,0.1,2.3,0.2c0.2,0,0.3,0,0.5,0c0.7,0.1,1.4,0.1,2,0.1
	c0.5,0,1,0.1,1.4,0.1c0.2,0,0.5,0,0.7,0c0.7,0,1.3,0.1,2,0.1c0.8,0,1.6,0,2.4,0.1c1,0,1.9,0,2.9,0h0c1,0,1.9,0,2.9,0h0.4l1,0
	c0.5,0,1.1,0,1.6,0c1,0,2-0.1,3-0.2c0.4,0,0.8,0,1.2-0.1c0.2,0,0.4,0,0.6,0c0.6,0,1.2-0.1,1.9-0.1c0.7,0,1.3-0.1,2-0.2
	c0.8-0.1,1.7-0.2,2.5-0.3c0.7-0.1,1.3-0.2,2-0.2c0.1,0,0.2,0,0.3,0c0.6-0.1,1.3-0.2,1.9-0.2c0.7-0.1,1.5-0.2,2.2-0.3
	c0.1,0,0.2,0,0.2,0c1.3-0.2,2.5-0.4,3.8-0.6c1.3-0.2,2.7-0.5,4-0.8c0.5-0.1,1-0.2,1.5-0.3c0.3-0.1,0.5-0.1,0.8-0.2
	c0.4-0.1,0.8-0.2,1.2-0.3c0.1,0,0.2,0,0.2,0c0.6-0.1,1.1-0.3,1.7-0.4c1.1-0.3,2.2-0.6,3.3-0.8c0.5-0.1,1-0.2,1.4-0.4
	c0.1,0,0.3-0.1,0.4-0.1c2-0.6,4-1.2,6-1.8c0.9-0.3,1.8-0.6,2.6-0.9c1.9-0.6,3.7-1.3,5.6-2c0.5-0.2,1-0.4,1.5-0.6
	c0.7-0.3,1.4-0.6,2.1-0.9c0.6-0.3,1.3-0.5,1.9-0.8c0.3-0.1,0.6-0.3,1-0.4c1-0.4,1.9-0.9,2.9-1.3c0.6-0.3,1.3-0.6,1.9-0.9
	c1-0.5,2-1,3-1.5c0.2-0.1,0.5-0.3,0.7-0.4c0.6-0.3,1.3-0.6,1.9-1c1-0.5,2-1.1,3-1.6c0.3-0.2,0.7-0.4,1-0.6c1.1-0.6,2.2-1.2,3.3-1.9
	c2.4-1.4,4.7-2.9,7.1-4.5c0.6-0.4,1.2-0.8,1.7-1.2c1.1-0.7,2.1-1.5,3.2-2.3c0.1-0.1,0.2-0.2,0.3-0.2c0.5-0.4,1.1-0.8,1.6-1.2
	c1.1-0.8,2.2-1.7,3.3-2.5c0,0,0.1,0,0.1-0.1c0.5-0.4,1-0.8,1.5-1.2c1.5-1.2,3-2.4,4.4-3.7c0.7-0.6,1.4-1.2,2.1-1.9
	c0.5-0.5,1-0.9,1.5-1.4c1-1,2-1.9,3-2.9c0.5-0.5,1-1,1.5-1.5c0.5-0.5,1-1,1.5-1.5c0.2-0.2,0.3-0.4,0.5-0.5c0.5-0.5,1-1.1,1.5-1.6
	c0.4-0.5,0.8-0.9,1.3-1.4c0.7-0.8,1.5-1.6,2.2-2.4c0,0,0.1-0.1,0.1-0.1c0,0,0.1-0.1,0.1-0.1h0c56.7-65.6,49.5-164.7-16.1-221.4
	C883.9,191.5,878.8,187.6,873.5,184L873.5,184z"/>
<g class="st20">
	<path d="M671.1,66c2,7.2,5,14,8.9,20.3c-6.6-5.6-12.4-12-17.4-19C665.4,66.8,668.2,66.3,671.1,66z"/>
	<path d="M573.5,176.8c-7.4,4-14.3,8.9-20.6,14.5c10.6-12.6,18.4-27.3,22.8-43.2c0.1-0.2,0.1-0.4,0.2-0.6l0.1-0.5
		c5.3-19,15.5-36.2,29.6-50l1.1-1.1l0.8,1.3c4.3,7.4,9.5,14.2,15.4,20.3C613.8,143.1,596.1,164.4,573.5,176.8z"/>
	<path d="M625.6,108.7l-0.1,0.5c-0.1,0.2-0.1,0.4-0.2,0.6c-0.3,1.1-0.6,2.1-0.9,3.1c-3.2-8.2-5.4-16.7-6.6-25.4l-0.1-0.7l0.6-0.4
		c7.6-5.5,15.9-10,24.6-13.4C635,83.7,629.2,95.8,625.6,108.7z"/>
	<path d="M523.9,215c6.6-3.6,12.7-7.9,18.3-12.8c-40,46.6-34.7,116.7,11.9,156.7c7.7,6.6,16.3,12.2,25.5,16.4l0.5,0.2l0.5-0.2
		c8.4-3.8,17.3-6.5,26.4-8c-5.7,2.9-11,6.5-15.8,10.7l-1.6,1.4l2,0.7c1.8,0.6,3.5,1.1,5.2,1.6c10,2.8,20.4,4.2,30.7,4.1
		c47.2-0.3,94.8,10.6,141.4,32.4c8,3.7,16.3,6.8,24.8,9.2c37.1,10.3,76.6,6.6,111.1-10.4c-39.7,45.9-102.3,64.8-160.7,48.7
		c-8.5-2.4-16.8-5.4-24.8-9.2c-46.6-21.8-94.2-32.7-141.4-32.4c-10.4,0.1-20.7-1.3-30.7-4.1c-1.7-0.5-3.5-1-5.2-1.6l-2-0.7l1.6-1.4
		c4.8-4.2,10.1-7.8,15.8-10.7c-9.1,1.5-18,4.2-26.4,8l-0.5,0.2l-0.5-0.2c-55.7-25.9-79.8-92.1-53.9-147.7
		C486.1,244.2,502.9,226.4,523.9,215L523.9,215z"/>
</g>
</svg>
