<?xml version="1.0" encoding="utf-8"?>
<!-- Generator: Adobe Illustrator 27.5.0, SVG Export Plug-In . SVG Version: 6.00 Build 0)  -->
<svg version="1.1" id="Layer_1" xmlns="http://www.w3.org/2000/svg" xmlns:xlink="http://www.w3.org/1999/xlink" x="0px" y="0px"
	 viewBox="0 0 578 578" style="enable-background:new 0 0 578 578;" xml:space="preserve">
<style type="text/css">
	.st0{fill:#FFDC7A;}
	.st1{fill:#937A34;}
	.st2{fill:#564315;}
	.st3{fill:#2F2E41;}
	.st4{fill:#3F3D56;}
	.st5{fill:#FF953B;}
	.st6{fill:#022709;}
	.st7{fill:#4B97B2;}
	.st8{fill:#C7E588;}
	.st9{fill:#E6E6E6;}
	.st10{fill:#C48EEF;}
	.st11{fill:#996A1D;}
	.st12{fill:#874A21;}
	.st13{fill:#3EBFFF;}
	.st14{fill:#5B3C1A;}
	.st15{fill:url(#SVGID_1_);}
	.st16{opacity:0.2;enable-background:new    ;}
	.st17{fill:#1F1A23;}
</style>
<path class="st0" d="M578,289c0.1,68.2-24,134.3-68.1,186.3c-1.6,1.9-3.2,3.8-4.9,5.6c-19.5,22-42.3,40.8-67.5,56
	c-5.8,3.5-11.7,6.7-17.7,9.8c-0.6,0.3-1.2,0.6-1.8,0.9c-0.7,0.4-1.5,0.7-2.2,1.1c-15.3,7.5-31.2,13.6-47.5,18.2
	c-1.7,0.5-3.4,0.9-5.1,1.4c-21.5,5.7-43.6,8.9-65.8,9.5c-1.2,0-2.3,0-3.4,0.1c-0.4,0-0.8,0-1.2,0c-1.2,0-2.5,0-3.7,0
	c-23.4,0-46.8-2.8-69.5-8.4c-2.3-0.6-4.5-1.1-6.8-1.8c-11.9-3.2-23.6-7.3-35-12c-6-2.5-11.9-5.2-17.7-8.1c-1.3-0.7-2.6-1.3-3.9-2
	c-0.5-0.3-1.1-0.6-1.6-0.8c-30.8-16.3-58.5-38-81.6-64.1c-1.6-1.8-3.2-3.6-4.7-5.4C-34.8,353.3-19.3,171,102.7,68.1
	c4.9-4.1,9.9-8,15-11.8c1.6-1.2,3.3-2.4,5-3.6c0.3-0.2,0.7-0.5,1-0.7c29.3-20.6,62.3-35.4,97.1-43.8c2-0.5,4-0.9,6-1.4
	c37.7-8.3,76.7-8.9,114.7-2c2,0.4,4,0.8,6,1.2c34.5,7.1,67.4,20.4,97.1,39.4c0.7,0.4,1.3,0.8,2,1.3c1.3,0.9,2.7,1.7,4,2.6
	C530.2,102.9,578.1,192.8,578,289z"/>
<path class="st1" d="M216,438.5l-92.4,8.2l-1,0.1V52.7c0.3-0.2,0.7-0.5,1-0.7c19.3-13.5,40.1-24.5,62-32.9l4.7,65.1l0.4,6l4.7,64.6
	l1.4,19.9l18.9,261.7L216,438.5z"/>
<path class="st1" d="M444.4,45.3c0.7,0.4,1.3,0.8,2,1.3v400.2l-2-0.2l-91.4-8.1l0.2-2.3l18.9-261.7l1.4-19.9l4.7-64.6l0.4-6l5-68.3
	C405,23.3,425.4,33.1,444.4,45.3z"/>
<path class="st1" d="M444.4,45.3v406.9c0,7.8-5.4,14.2-12,14.2H135.6c-5.5,0-10.1-4.4-11.5-10.3c-0.3-1.3-0.5-2.6-0.5-3.8V52
	c-0.3,0.2-0.7,0.5-1,0.7c-1.7,1.2-3.3,2.4-5,3.6v396c-0.1,5.9,2.1,11.7,6.2,16c2.1,2.2,4.8,3.8,7.8,4.7c1.3,0.4,2.6,0.5,4,0.5h296.8
	c1.4,0,2.7-0.2,4-0.5c8-2.2,14-10.6,14-20.7v-403c-1.3-0.9-2.6-1.8-4-2.6C445.8,46.2,445.1,45.7,444.4,45.3z"/>
<rect x="120.7" y="84.1" class="st1" width="326.8" height="6"/>
<path class="st1" d="M220.7,8.1c2-0.5,4-0.9,6-1.4v161.8h-6V8.1z"/>
<path class="st1" d="M341.4,4.7c2,0.4,4,0.8,6,1.2v162.7h-6V4.7z"/>
<path class="st1" d="M484.7,436.2H93.3c-14.8,0-26.8,12-26.8,26.8s12,26.8,26.8,26.8h391.3c7.7,0,15-3.3,20.1-9.1
	c1.1-1.3,2.1-2.7,3-4.2c0.7-1.1,1.3-2.3,1.8-3.6c5.5-13.7-1.1-29.3-14.9-34.9C491.5,436.9,488.1,436.2,484.7,436.2L484.7,436.2z"/>
<rect x="122.6" y="154.6" class="st1" width="324.8" height="19.9"/>
<path class="st1" d="M282,148.7h6c6,0,10.9,4.9,10.9,10.9l0,0l0,0h-27.8l0,0l0,0C271.1,153.6,276,148.7,282,148.7z"/>
<path class="st2" d="M509.9,475.3c-8.7,10.3-18.1,20-28.1,29H96.2c-10-9-19.4-18.7-28.1-29H509.9z"/>
<path class="st3" d="M321.3,375.1h-64.9c-0.3,0-0.7,0.1-1,0.2c-1.4,0.4-2.4,1.8-2.4,3.3v102.6h71.8V378.5
	C324.7,376.6,323.2,375.1,321.3,375.1C321.3,375.1,321.3,375.1,321.3,375.1z M296.7,425.7c0,1.7-0.5,3.3-1.6,4.6
	c-2.6,3.4-7.4,4-10.7,1.5c-1.9-1.4-3-3.7-3-6.1v-11.9c0-4.2,3.5-7.6,7.7-7.6c4.2,0,7.6,3.4,7.6,7.6V425.7z"/>
<path class="st4" d="M252.7,477.8v9.9c0,1.1,0.9,1.9,1.9,1.9H323c1.1,0,1.9-0.9,1.9-1.9v-9.9H252.7z"/>
<path class="st5" d="M428.8,215H151.3c-5,0-9,4-9,9v187.3c0,5,4,9,9,9h277.5c5,0,9-4,9-9V224C437.8,219,433.7,215,428.8,215z"/>
<path class="st6" d="M426.5,221.5H153.6c-2.7,0-4.8,2.2-4.8,4.8V409c0,2.7,2.2,4.8,4.8,4.8h272.9c2.7,0,4.8-2.2,4.8-4.8V226.3
	C431.3,223.7,429.1,221.5,426.5,221.5z"/>
<path class="st3" d="M376.2,489.5l-2.5-12c-0.2-1-0.9-1.8-1.9-2.2c-0.3-0.1-0.7-0.2-1.1-0.2H213.5c-0.4,0-0.7,0.1-1.1,0.2
	c-0.9,0.4-1.6,1.2-1.9,2.2l-2.5,12c-0.3,1.6,0.7,3.2,2.3,3.5c0.2,0,0.4,0.1,0.6,0.1h162.3c0.9,0,1.8-0.4,2.3-1.1
	C376.2,491.3,376.4,490.4,376.2,489.5z"/>
<path class="st4" d="M215.1,477.3h4c0.3,0,0.5,0.2,0.5,0.5v2c0,0.3-0.2,0.5-0.5,0.5h-4c-0.3,0-0.5-0.2-0.5-0.5v-2
	C214.6,477.5,214.9,477.3,215.1,477.3z"/>
<path class="st4" d="M225.1,477.3h4c0.3,0,0.5,0.2,0.5,0.5v2c0,0.3-0.2,0.5-0.5,0.5h-4c-0.3,0-0.5-0.2-0.5-0.5v-2
	C224.6,477.5,224.9,477.3,225.1,477.3z"/>
<path class="st4" d="M235.1,477.3h4c0.3,0,0.5,0.2,0.5,0.5v2c0,0.3-0.2,0.5-0.5,0.5h-4c-0.3,0-0.5-0.2-0.5-0.5v-2
	C234.6,477.5,234.9,477.3,235.1,477.3z"/>
<path class="st4" d="M245.1,477.3h4c0.3,0,0.5,0.2,0.5,0.5v2c0,0.3-0.2,0.5-0.5,0.5h-4c-0.3,0-0.5-0.2-0.5-0.5v-2
	C244.6,477.5,244.9,477.3,245.1,477.3z"/>
<path class="st4" d="M255.1,477.3h4c0.3,0,0.5,0.2,0.5,0.5v2c0,0.3-0.2,0.5-0.5,0.5h-4c-0.3,0-0.5-0.2-0.5-0.5v-2
	C254.6,477.5,254.9,477.3,255.1,477.3z"/>
<path class="st4" d="M265.1,477.3h4c0.3,0,0.5,0.2,0.5,0.5v2c0,0.3-0.2,0.5-0.5,0.5h-4c-0.3,0-0.5-0.2-0.5-0.5v-2
	C264.6,477.5,264.9,477.3,265.1,477.3z"/>
<path class="st4" d="M275.1,477.3h4c0.3,0,0.5,0.2,0.5,0.5v2c0,0.3-0.2,0.5-0.5,0.5h-4c-0.3,0-0.5-0.2-0.5-0.5v-2
	C274.6,477.5,274.9,477.3,275.1,477.3z"/>
<path class="st4" d="M285.1,477.3h4c0.3,0,0.5,0.2,0.5,0.5v2c0,0.3-0.2,0.5-0.5,0.5h-4c-0.3,0-0.5-0.2-0.5-0.5v-2
	C284.6,477.5,284.9,477.3,285.1,477.3z"/>
<path class="st4" d="M295.1,477.3h4c0.3,0,0.5,0.2,0.5,0.5v2c0,0.3-0.2,0.5-0.5,0.5h-4c-0.3,0-0.5-0.2-0.5-0.5v-2
	C294.6,477.5,294.9,477.3,295.1,477.3z"/>
<path class="st4" d="M305.1,477.3h4c0.3,0,0.5,0.2,0.5,0.5v2c0,0.3-0.2,0.5-0.5,0.5h-4c-0.3,0-0.5-0.2-0.5-0.5v-2
	C304.6,477.5,304.9,477.3,305.1,477.3z"/>
<path class="st4" d="M315.1,477.3h4c0.3,0,0.5,0.2,0.5,0.5v2c0,0.3-0.2,0.5-0.5,0.5h-4c-0.3,0-0.5-0.2-0.5-0.5v-2
	C314.6,477.5,314.9,477.3,315.1,477.3z"/>
<path class="st4" d="M325.1,477.3h4c0.3,0,0.5,0.2,0.5,0.5v2c0,0.3-0.2,0.5-0.5,0.5h-4c-0.3,0-0.5-0.2-0.5-0.5v-2
	C324.6,477.5,324.9,477.3,325.1,477.3z"/>
<path class="st4" d="M335.1,477.3h4c0.3,0,0.5,0.2,0.5,0.5v2c0,0.3-0.2,0.5-0.5,0.5h-4c-0.3,0-0.5-0.2-0.5-0.5v-2
	C334.6,477.5,334.9,477.3,335.1,477.3z"/>
<path class="st4" d="M345.1,477.3h4c0.3,0,0.5,0.2,0.5,0.5v2c0,0.3-0.2,0.5-0.5,0.5h-4c-0.3,0-0.5-0.2-0.5-0.5v-2
	C344.6,477.5,344.9,477.3,345.1,477.3z"/>
<path class="st4" d="M355.1,477.3h4c0.3,0,0.5,0.2,0.5,0.5v2c0,0.3-0.2,0.5-0.5,0.5h-4c-0.3,0-0.5-0.2-0.5-0.5v-2
	C354.6,477.5,354.9,477.3,355.1,477.3z"/>
<path class="st4" d="M365.1,477.3h4c0.3,0,0.5,0.2,0.5,0.5v2c0,0.3-0.2,0.5-0.5,0.5h-4c-0.3,0-0.5-0.2-0.5-0.5v-2
	C364.6,477.5,364.9,477.3,365.1,477.3z"/>
<path class="st4" d="M215,482.3h4c0.3,0,0.5,0.2,0.5,0.5v2c0,0.3-0.2,0.5-0.5,0.5h-4c-0.3,0-0.5-0.2-0.5-0.5v-2
	C214.5,482.5,214.7,482.3,215,482.3z"/>
<path class="st4" d="M225,482.3h4c0.3,0,0.5,0.2,0.5,0.5v2c0,0.3-0.2,0.5-0.5,0.5h-4c-0.3,0-0.5-0.2-0.5-0.5v-2
	C224.5,482.5,224.7,482.3,225,482.3z"/>
<path class="st4" d="M235,482.3h4c0.3,0,0.5,0.2,0.5,0.5v2c0,0.3-0.2,0.5-0.5,0.5h-4c-0.3,0-0.5-0.2-0.5-0.5v-2
	C234.5,482.5,234.7,482.3,235,482.3z"/>
<path class="st4" d="M245,482.3h4c0.3,0,0.5,0.2,0.5,0.5v2c0,0.3-0.2,0.5-0.5,0.5h-4c-0.3,0-0.5-0.2-0.5-0.5v-2
	C244.5,482.5,244.7,482.3,245,482.3z"/>
<path class="st4" d="M255,482.3h4c0.3,0,0.5,0.2,0.5,0.5v2c0,0.3-0.2,0.5-0.5,0.5h-4c-0.3,0-0.5-0.2-0.5-0.5v-2
	C254.5,482.5,254.7,482.3,255,482.3z"/>
<path class="st4" d="M265,482.3h4c0.3,0,0.5,0.2,0.5,0.5v2c0,0.3-0.2,0.5-0.5,0.5h-4c-0.3,0-0.5-0.2-0.5-0.5v-2
	C264.5,482.5,264.7,482.3,265,482.3z"/>
<path class="st4" d="M275,482.3h4c0.3,0,0.5,0.2,0.5,0.5v2c0,0.3-0.2,0.5-0.5,0.5h-4c-0.3,0-0.5-0.2-0.5-0.5v-2
	C274.5,482.5,274.7,482.3,275,482.3z"/>
<path class="st4" d="M285,482.3h4c0.3,0,0.5,0.2,0.5,0.5v2c0,0.3-0.2,0.5-0.5,0.5h-4c-0.3,0-0.5-0.2-0.5-0.5v-2
	C284.5,482.5,284.7,482.3,285,482.3z"/>
<path class="st4" d="M295,482.3h4c0.3,0,0.5,0.2,0.5,0.5v2c0,0.3-0.2,0.5-0.5,0.5h-4c-0.3,0-0.5-0.2-0.5-0.5v-2
	C294.5,482.5,294.7,482.3,295,482.3z"/>
<path class="st4" d="M305,482.3h4c0.3,0,0.5,0.2,0.5,0.5v2c0,0.3-0.2,0.5-0.5,0.5h-4c-0.3,0-0.5-0.2-0.5-0.5v-2
	C304.5,482.5,304.7,482.3,305,482.3z"/>
<path class="st4" d="M315,482.3h4c0.3,0,0.5,0.2,0.5,0.5v2c0,0.3-0.2,0.5-0.5,0.5h-4c-0.3,0-0.5-0.2-0.5-0.5v-2
	C314.5,482.5,314.7,482.3,315,482.3z"/>
<path class="st4" d="M325,482.3h4c0.3,0,0.5,0.2,0.5,0.5v2c0,0.3-0.2,0.5-0.5,0.5h-4c-0.3,0-0.5-0.2-0.5-0.5v-2
	C324.5,482.5,324.7,482.3,325,482.3z"/>
<path class="st4" d="M335,482.3h4c0.3,0,0.5,0.2,0.5,0.5v2c0,0.3-0.2,0.5-0.5,0.5h-4c-0.3,0-0.5-0.2-0.5-0.5v-2
	C334.5,482.5,334.7,482.3,335,482.3z"/>
<path class="st4" d="M345,482.3h4c0.3,0,0.5,0.2,0.5,0.5v2c0,0.3-0.2,0.5-0.5,0.5h-4c-0.3,0-0.5-0.2-0.5-0.5v-2
	C344.5,482.5,344.7,482.3,345,482.3z"/>
<path class="st4" d="M355,482.3h4c0.3,0,0.5,0.2,0.5,0.5v2c0,0.3-0.2,0.5-0.5,0.5h-4c-0.3,0-0.5-0.2-0.5-0.5v-2
	C354.5,482.5,354.7,482.3,355,482.3z"/>
<path class="st4" d="M365,482.3h4c0.3,0,0.5,0.2,0.5,0.5v2c0,0.3-0.2,0.5-0.5,0.5h-4c-0.3,0-0.5-0.2-0.5-0.5v-2
	C364.5,482.5,364.7,482.3,365,482.3z"/>
<path class="st4" d="M263,488.3h39c0.3,0,0.5,0.2,0.5,0.5v2c0,0.3-0.2,0.5-0.5,0.5h-39c-0.3,0-0.5-0.2-0.5-0.5v-2
	C262.5,488.5,262.7,488.3,263,488.3z"/>
<path class="st5" d="M412.7,246.7H157.4c-0.6,0-1-0.5-1-1c0-0.5,0.4-1,1-1h255.3c0.6,0,1,0.5,1,1
	C413.7,246.2,413.3,246.7,412.7,246.7z"/>
<ellipse class="st5" cx="174.8" cy="233.4" rx="6" ry="6.1"/>
<ellipse class="st5" cx="195.4" cy="233.4" rx="6" ry="6.1"/>
<ellipse class="st5" cx="215.9" cy="233.4" rx="6" ry="6.1"/>
<path class="st5" d="M400.4,228.8h-14.6c-0.6,0-1.1,0.5-1.1,1.1c0,0.6,0.5,1.1,1.1,1.1h14.6c0.6,0,1.1-0.5,1.1-1.1
	C401.5,229.3,401,228.8,400.4,228.8z"/>
<path class="st5" d="M400.4,233h-14.6c-0.6,0-1.1,0.5-1.1,1.1c0,0.6,0.5,1.1,1.1,1.1h14.6c0.6,0,1.1-0.5,1.1-1.1
	C401.5,233.4,401,233,400.4,233z"/>
<path class="st5" d="M400.4,237.1h-14.6c-0.6,0-1.1,0.5-1.1,1.1c0,0.6,0.5,1.1,1.1,1.1h14.6c0.6,0,1.1-0.5,1.1-1.1
	C401.5,237.6,401,237.1,400.4,237.1z"/>
<path class="st7" d="M174.2,270.3h5.2c1.6,0,2.9,1.3,2.9,2.9v0c0,1.6-1.3,2.9-2.9,2.9h-5.2c-1.6,0-2.9-1.3-2.9-2.9v0
	C171.3,271.6,172.6,270.3,174.2,270.3z"/>
<path class="st8" d="M234.2,270.3h5.2c1.6,0,2.9,1.3,2.9,2.9v0c0,1.6-1.3,2.9-2.9,2.9h-5.2c-1.6,0-2.9-1.3-2.9-2.9v0
	C231.3,271.6,232.6,270.3,234.2,270.3z"/>
<path class="st9" d="M251.2,270.3h5.2c1.6,0,2.9,1.3,2.9,2.9v0c0,1.6-1.3,2.9-2.9,2.9h-5.2c-1.6,0-2.9-1.3-2.9-2.9v0
	C248.3,271.6,249.6,270.3,251.2,270.3z"/>
<path class="st10" d="M190.5,269.8h32.6c1.6,0,2.9,1.3,2.9,2.9v0c0,1.6-1.3,2.9-2.9,2.9h-32.6c-1.6,0-2.9-1.3-2.9-2.9v0
	C187.6,271.1,188.9,269.8,190.5,269.8z"/>
<path class="st9" d="M270.5,269.8h32.6c1.6,0,2.9,1.3,2.9,2.9v0c0,1.6-1.3,2.9-2.9,2.9h-32.6c-1.6,0-2.9-1.3-2.9-2.9v0
	C267.6,271.1,268.9,269.8,270.5,269.8z"/>
<path class="st7" d="M190.2,283.3h5.2c1.6,0,2.9,1.3,2.9,2.9v0c0,1.6-1.3,2.9-2.9,2.9h-5.2c-1.6,0-2.9-1.3-2.9-2.9v0
	C187.3,284.6,188.6,283.3,190.2,283.3z"/>
<path class="st9" d="M250.2,283.3h5.2c1.6,0,2.9,1.3,2.9,2.9v0c0,1.6-1.3,2.9-2.9,2.9h-5.2c-1.6,0-2.9-1.3-2.9-2.9v0
	C247.3,284.6,248.6,283.3,250.2,283.3z"/>
<path class="st9" d="M267.2,283.3h5.2c1.6,0,2.9,1.3,2.9,2.9v0c0,1.6-1.3,2.9-2.9,2.9h-5.2c-1.6,0-2.9-1.3-2.9-2.9v0
	C264.3,284.6,265.6,283.3,267.2,283.3z"/>
<path class="st10" d="M206.5,282.8h32.6c1.6,0,2.9,1.3,2.9,2.9v0c0,1.6-1.3,2.9-2.9,2.9h-32.6c-1.6,0-2.9-1.3-2.9-2.9v0
	C203.6,284.1,204.9,282.8,206.5,282.8z"/>
<path class="st9" d="M286.5,282.8h32.6c1.6,0,2.9,1.3,2.9,2.9v0c0,1.6-1.3,2.9-2.9,2.9h-32.6c-1.6,0-2.9-1.3-2.9-2.9v0
	C283.6,284.1,284.9,282.8,286.5,282.8z"/>
<path class="st11" d="M206.2,296.3h5.2c1.6,0,2.9,1.3,2.9,2.9v0c0,1.6-1.3,2.9-2.9,2.9h-5.2c-1.6,0-2.9-1.3-2.9-2.9v0
	C203.3,297.6,204.6,296.3,206.2,296.3z"/>
<path class="st9" d="M266.2,296.3h5.2c1.6,0,2.9,1.3,2.9,2.9v0c0,1.6-1.3,2.9-2.9,2.9h-5.2c-1.6,0-2.9-1.3-2.9-2.9v0
	C263.3,297.6,264.6,296.3,266.2,296.3z"/>
<path class="st9" d="M283.2,296.3h5.2c1.6,0,2.9,1.3,2.9,2.9v0c0,1.6-1.3,2.9-2.9,2.9h-5.2c-1.6,0-2.9-1.3-2.9-2.9v0
	C280.3,297.6,281.6,296.3,283.2,296.3z"/>
<path class="st10" d="M222.5,295.8h32.6c1.6,0,2.9,1.3,2.9,2.9v0c0,1.6-1.3,2.9-2.9,2.9h-32.6c-1.6,0-2.9-1.3-2.9-2.9v0
	C219.6,297.1,220.9,295.8,222.5,295.8z"/>
<path class="st9" d="M302.5,295.8h32.6c1.6,0,2.9,1.3,2.9,2.9v0c0,1.6-1.3,2.9-2.9,2.9h-32.6c-1.6,0-2.9-1.3-2.9-2.9v0
	C299.6,297.1,300.9,295.8,302.5,295.8z"/>
<path class="st12" d="M222.2,309.3h5.2c1.6,0,2.9,1.3,2.9,2.9v0c0,1.6-1.3,2.9-2.9,2.9h-5.2c-1.6,0-2.9-1.3-2.9-2.9v0
	C219.3,310.6,220.6,309.3,222.2,309.3z"/>
<path class="st9" d="M282.2,309.3h5.2c1.6,0,2.9,1.3,2.9,2.9v0c0,1.6-1.3,2.9-2.9,2.9h-5.2c-1.6,0-2.9-1.3-2.9-2.9v0
	C279.3,310.6,280.6,309.3,282.2,309.3z"/>
<path class="st9" d="M299.2,309.3h5.2c1.6,0,2.9,1.3,2.9,2.9v0c0,1.6-1.3,2.9-2.9,2.9h-5.2c-1.6,0-2.9-1.3-2.9-2.9v0
	C296.3,310.6,297.6,309.3,299.2,309.3z"/>
<path class="st10" d="M238.5,308.8h32.6c1.6,0,2.9,1.3,2.9,2.9v0c0,1.6-1.3,2.9-2.9,2.9h-32.6c-1.6,0-2.9-1.3-2.9-2.9v0
	C235.6,310.1,236.9,308.8,238.5,308.8z"/>
<path class="st8" d="M234.2,361h5.2c1.6,0,2.9,1.3,2.9,2.9v0c0,1.6-1.3,2.9-2.9,2.9h-5.2c-1.6,0-2.9-1.3-2.9-2.9v0
	C231.3,362.3,232.6,361,234.2,361z"/>
<path class="st8" d="M251.2,361h5.2c1.6,0,2.9,1.3,2.9,2.9v0c0,1.6-1.3,2.9-2.9,2.9h-5.2c-1.6,0-2.9-1.3-2.9-2.9v0
	C248.3,362.3,249.6,361,251.2,361z"/>
<path class="st8" d="M270.5,361.4h32.6c1.6,0,2.9,1.3,2.9,2.9v0c0,1.6-1.3,2.9-2.9,2.9h-32.6c-1.6,0-2.9-1.3-2.9-2.9v0
	C267.6,362.7,268.9,361.4,270.5,361.4z"/>
<path class="st7" d="M174.2,361h5.2c1.6,0,2.9,1.3,2.9,2.9v0c0,1.6-1.3,2.9-2.9,2.9h-5.2c-1.6,0-2.9-1.3-2.9-2.9v0
	C171.3,362.3,172.6,361,174.2,361z"/>
<path class="st10" d="M190.5,361.4h32.6c1.6,0,2.9,1.3,2.9,2.9v0c0,1.6-1.3,2.9-2.9,2.9h-32.6c-1.6,0-2.9-1.3-2.9-2.9v0
	C187.6,362.7,188.9,361.4,190.5,361.4z"/>
<path class="st7" d="M190.2,348h5.2c1.6,0,2.9,1.3,2.9,2.9v0c0,1.6-1.3,2.9-2.9,2.9h-5.2c-1.6,0-2.9-1.3-2.9-2.9v0
	C187.3,349.3,188.6,348,190.2,348z"/>
<path class="st8" d="M250.2,348h5.2c1.6,0,2.9,1.3,2.9,2.9v0c0,1.6-1.3,2.9-2.9,2.9h-5.2c-1.6,0-2.9-1.3-2.9-2.9v0
	C247.3,349.3,248.6,348,250.2,348z"/>
<path class="st8" d="M267.2,348h5.2c1.6,0,2.9,1.3,2.9,2.9v0c0,1.6-1.3,2.9-2.9,2.9h-5.2c-1.6,0-2.9-1.3-2.9-2.9v0
	C264.3,349.3,265.6,348,267.2,348z"/>
<path class="st10" d="M206.5,348.4h32.6c1.6,0,2.9,1.3,2.9,2.9v0c0,1.6-1.3,2.9-2.9,2.9h-32.6c-1.6,0-2.9-1.3-2.9-2.9v0
	C203.6,349.7,204.9,348.4,206.5,348.4z"/>
<path class="st11" d="M206.2,335h5.2c1.6,0,2.9,1.3,2.9,2.9v0c0,1.6-1.3,2.9-2.9,2.9h-5.2c-1.6,0-2.9-1.3-2.9-2.9v0
	C203.3,336.3,204.6,335,206.2,335z"/>
<path class="st9" d="M266.2,335h5.2c1.6,0,2.9,1.3,2.9,2.9v0c0,1.6-1.3,2.9-2.9,2.9h-5.2c-1.6,0-2.9-1.3-2.9-2.9v0
	C263.3,336.3,264.6,335,266.2,335z"/>
<path class="st8" d="M283.2,335h5.2c1.6,0,2.9,1.3,2.9,2.9v0c0,1.6-1.3,2.9-2.9,2.9h-5.2c-1.6,0-2.9-1.3-2.9-2.9v0
	C280.3,336.3,281.6,335,283.2,335z"/>
<path class="st10" d="M222.5,335.4h32.6c1.6,0,2.9,1.3,2.9,2.9v0c0,1.6-1.3,2.9-2.9,2.9h-32.6c-1.6,0-2.9-1.3-2.9-2.9v0
	C219.6,336.7,220.9,335.4,222.5,335.4z"/>
<path class="st12" d="M222.2,322h5.2c1.6,0,2.9,1.3,2.9,2.9v0c0,1.6-1.3,2.9-2.9,2.9h-5.2c-1.6,0-2.9-1.3-2.9-2.9v0
	C219.3,323.3,220.6,322,222.2,322z"/>
<path class="st9" d="M282.2,322h5.2c1.6,0,2.9,1.3,2.9,2.9v0c0,1.6-1.3,2.9-2.9,2.9h-5.2c-1.6,0-2.9-1.3-2.9-2.9v0
	C279.3,323.3,280.6,322,282.2,322z"/>
<path class="st9" d="M299.2,322h5.2c1.6,0,2.9,1.3,2.9,2.9v0c0,1.6-1.3,2.9-2.9,2.9h-5.2c-1.6,0-2.9-1.3-2.9-2.9v0
	C296.3,323.3,297.6,322,299.2,322z"/>
<path class="st10" d="M238.5,322.4h32.6c1.6,0,2.9,1.3,2.9,2.9v0c0,1.6-1.3,2.9-2.9,2.9h-32.6c-1.6,0-2.9-1.3-2.9-2.9v0
	C235.6,323.7,236.9,322.4,238.5,322.4z"/>
<path class="st13" d="M415.8,548.8c-0.6,0.3-1.2,0.6-1.8,0.9c-15.8,7.9-28.4,12.4-45.7,17.3c-1.5-16.3-2.9-45-4.2-62.7
	c-0.4-4.6-0.7-8.5-1.1-11.2c-0.1-1.5-0.4-2.9-0.9-4.2l0.1,4.2l0.2,11.2l0.9,64.1c-21.5,5.7-43.6,8.9-65.8,9.5c-1.2,0-2.3,0-3.4,0.1
	c-0.4,0-0.8,0-1.2,0c-1.2,0-2.5,0-3.7,0c-23.4,0-46.8-2.8-69.5-8.4c0.5-16.1,1-44.5,1.5-65.3c0.1-4.1,0.2-7.9,0.3-11.2
	c0.2-7.2,0.4-12.3,0.6-14c-0.2,0.3-0.3,0.6-0.4,1c-0.9,4.3-1.6,8.7-1.9,13.1c-0.3,3.3-0.7,7.1-1,11.2c-1.9,21.6-3.8,51-5.8,63.5
	c-11.9-3.2-23.6-7.3-35-12c-6-2.5-11.9-5.2-17.7-8.1c1.1-7.2,2.2-15.3,3.4-23.6c0.9-6.5,1.9-13.2,2.8-19.8c1.5-10.2,3-20.2,4.6-29
	c2.3-12.8,4.6-23.2,6.9-27.9c2.2-4.5,4.4-8.9,6.5-13.2c0.7-1.5,1.5-3,2.2-4.4c0.2-0.3,0.3-0.7,0.5-1c1.5-3,3-5.9,4.4-8.6
	c1.2-2.3,2.4-4.5,3.5-6.5c2.6-4.9,4.9-8.8,6.5-11.2c6.9-10.5,17.3-18.4,29.3-22.2l0.3-0.1l0.2,0.1l20.5-6.3l3-0.9l2-0.6l7.1-5.4
	l3.8-2.9l3.6-2.8l7.1-5.4l43.7,2.7l8.5,20.5l19.1,7l0.3-0.2l0.3-0.1l0.3,0.1c12,3.8,22.3,11.7,29.3,22.2c0.9,1.4,2.1,3.3,3.4,5.5
	c1.1,1.9,2.3,4.1,3.6,6.5c1.8,3.4,3.9,7.3,6,11.5c0.5,0.9,1,1.9,1.4,2.8c0.9,1.8,1.8,3.6,2.7,5.4c2.1,4.2,4.3,8.7,6.5,13.2
	c1.9,3.9,3.8,12,5.7,22.2c1.6,8.5,3.1,18.5,4.6,29c2,13.5-0.1,29.7,1.7,42.2C415.6,547.2,415.7,548,415.8,548.8z"/>
<circle class="st14" cx="289.6" cy="288.9" r="50.8"/>
<linearGradient id="SVGID_1_" gradientUnits="userSpaceOnUse" x1="231.1716" y1="319.6711" x2="380.0688" y2="242.0528">
	<stop  offset="6.407077e-04" style="stop-color:#000000"/>
	<stop  offset="1.507683e-02" style="stop-color:#04060B"/>
	<stop  offset="4.022250e-02" style="stop-color:#0E1527"/>
	<stop  offset="7.283729e-02" style="stop-color:#1E2E55"/>
	<stop  offset="0.1" style="stop-color:#2E4681"/>
	<stop  offset="0.1167" style="stop-color:#334E90"/>
	<stop  offset="0.1487" style="stop-color:#4163B6"/>
	<stop  offset="0.1922" style="stop-color:#5885F3"/>
	<stop  offset="0.2" style="stop-color:#5C8BFF"/>
	<stop  offset="0.3082" style="stop-color:#2A3C84"/>
	<stop  offset="0.3261" style="stop-color:#253477"/>
	<stop  offset="0.3804" style="stop-color:#161D53"/>
	<stop  offset="0.4265" style="stop-color:#0F1140"/>
	<stop  offset="0.46" style="stop-color:#0C0C39"/>
	<stop  offset="0.55" style="stop-color:#0C0C16"/>
	<stop  offset="0.65" style="stop-color:#000000"/>
	<stop  offset="0.7354" style="stop-color:#000000"/>
	<stop  offset="0.8179" style="stop-color:#000000"/>
	<stop  offset="0.8961" style="stop-color:#000064"/>
	<stop  offset="1" style="stop-color:#0000FF"/>
</linearGradient>
<path class="st15" d="M373.5,221.5c-1-2.3-2.3-4.5-4-6.5c-7.7-9.4-21.8-13.6-36.2-2.4c-2.8-0.6-5.7-0.5-8.3,0.5
	c-1.3,0.5-2.5,1.1-3.5,1.9c-2.2,1.7-3.9,3.9-4.9,6.5c-0.6,1.4-0.9,2.8-1.1,4.2c-3.6-1.9-7.3-3.3-11.2-4.2c-9.6-2.4-19.6-2.4-29.1,0
	c-3.1,0.8-6,1.9-8.8,3.5c-4.7,2.7-7.4,6.1-7.8,9.9c-6.8,0.4-13.8,3.9-19,9.8c-0.6,0.6-1.2,1.3-1.7,2c-4.4,5.8-6.8,12.8-6.7,20.1v1.3
	h1.3c3.5,0,6.9,0.7,10.2,2c2.1,0.8,4.1,1.9,5.9,3.2c1.2,0.8,2.3,1.8,3.4,2.8c2.4,2.4,4.5,5.1,6.1,8c4.2,7.5,5.6,16.2,4.1,24.7
	c-0.3,2-0.9,3.9-1.5,5.8c-0.9,2.7-2.2,5.2-3.7,7.6c-0.1,0.1-0.1,0.2-0.2,0.3c-0.7,1.1-1.3,2.2-1.9,3.3c-0.5,0.8-0.9,1.7-1.3,2.5
	c-1.1,2.3-2.1,4.8-2.9,7.2c-1.4,4.4-2.2,8.9-2.4,13.5c-0.1,1.2-0.1,2.4,0,3.7c0.1,3.1,0.4,6.3,1,9.4c0.1,0.4,0.2,0.8,0.3,1.2
	l0.7,3.2l1.7,7.6l1.2,5.2l1.1,4.9l1.6-2.3c0.6-0.8,2-3.3,3.9-6.7c1.2-2.3,2.7-5,4.3-7.9c2.2-4.2,4.6-8.8,6.9-13.4
	c1-1.9,1.9-3.7,2.8-5.5c1.7-3.5,3.3-6.8,4.7-9.7c1.3-2.7,2.4-5.1,3.2-7.1c0.2,1.3,0.5,2.6,0.6,3.9c0.2,1.3,0.3,2.7,0.4,4
	c0,0.2,0,0.4,0,0.6l0,0.8l0,0.2l1.1,0.1c6.1,0.7,12.3,0.7,18.4,0.1h0c8.1-0.6,16.1-2.5,23.6-5.7c4.3-1.8,8.2-4.3,11.8-7.2
	c1.7-1.4,3.2-2.9,4.7-4.5c0.4-0.4,0.7-0.8,1-1.2c2-2.4,3.7-5.1,5-7.9c0.9-1.9,1.7-3.8,2.3-5.8c3.8-11.6,3.6-26.1-0.7-43.4
	c1.2-0.2,2.3-0.6,3.3-1.3c3.1-1.9,5.3-5.6,6-10.2l1.1,0.3c3.8-1.8,7.2-4.4,10-7.5c0.5-0.6,1.1-1.3,1.5-2
	C376.6,237.5,376.6,228.8,373.5,221.5z"/>
<polygon class="st16" points="206.3,475.3 214.8,442.5 222.3,470.8 "/>
<path class="st17" d="M432.4,453.9c-3,41.9,0.1,60.3-16.7,94.8c-15.3,7.5-31.2,13.6-47.5,18.2c-1.7,0.5-3.4,0.9-5.1,1.4
	c-21.5,5.7-43.6,8.9-65.8,9.5c-1.2,0-2.3,0-3.4,0.1c-0.4,0-0.8,0-1.2,0c-1.2,0-2.5,0-3.7,0c-23.4,0-46.8-2.8-69.5-8.4
	c-2.3-0.6-4.5-1.1-6.8-1.8c-11.9-3.2-23.6-7.3-35-12c-6-2.5-11.9-5.2-17.7-8.1c-1.3-0.7-2.6-1.3-3.9-2
	c-6.6-11.7-10.4-25.8-10.5-42.9C150.2,473.4,422.3,428.6,432.4,453.9z"/>
<path class="st16" d="M432.4,461.1c0.2-2.6,0.3-5.3,0.5-8.1c-10.1-25.3-282.2,19.5-286.8,48.9c0,2.7,0.1,5.3,0.3,7.9
	C157.6,480.8,416.1,438.2,432.4,461.1z"/>
<path d="M163.1,342.2c0.3-3.5-2.4-6.6-5.9-6.8c-0.3,0-0.6,0-0.9,0c-0.3,0-0.7,0.1-1,0.1l-39.8,9c-1.8,0.4-3.3,1.6-4.2,3.2
	c-0.6,0-1.2,0.1-1.7,0.3c-5.2,1.2-8.5,6.4-7.3,11.6c1.2,5.2,6.4,8.5,11.6,7.3c1.4-0.3,2.8-1,3.9-1.9l13.5,37.9
	c1.4,2.4,4.2,3.7,6.9,3l25.8-5.8c2.7-0.6,4.7-2.9,4.9-5.7L163.1,342.2z M113.3,364.1c-3.7,0.8-7.4-1.5-8.3-5.2
	c-0.8-3.7,1.5-7.4,5.2-8.3c0.1,0,0.3,0,0.4,0c0,1.1,0.3,2.3,0.8,3.3l4.9,8.6C115.5,363.3,114.5,363.8,113.3,364.1z"/>
<path class="st17" d="M156.3,335.3c0.4,5-8.2,10.8-19.8,13.1c-10.6,2.2-20.1,0.7-22.7-3.3c0.5-0.3,1.1-0.6,1.7-0.7l39.8-9
	C155.7,335.4,156,335.3,156.3,335.3z"/>
<path class="st14" d="M128.8,462.9l22.3-11.2l-18.6-50.3l-4.9-25.3c-2-10.4-12.1-17.2-22.5-15.2c-3.3,0.6-6.3,2.1-8.8,4.3l0,0
	c-7.8,6.7-8.9,18.5-2.5,26.5l18.2,22.8L128.8,462.9z"/>
<path class="st13" d="M151.2,442.4l-29.8,14.9l22.6,70.8c3.3,10.3,11.8,18.2,22.3,20.7l0,0c13.1,3.1,26.8-2.6,33.7-14.2L260,431.9
	c8.8-14.7,4.3-33.8-10.2-43l0,0c-14.8-9.3-34.3-5-43.6,9.8c-0.6,1-1.2,2-1.7,3l-36.6,77.9L151.2,442.4z"/>
<path class="st0" d="M142,378.4c-0.1,0-0.1,0-0.2,0l-6.5-2.2c-0.3-0.1-0.4-0.4-0.3-0.6c0-0.1,0.1-0.1,0.1-0.2l4.8-5.3
	c0.2-0.2,0.5-0.2,0.7,0c0.2,0.2,0.2,0.5,0,0.7c0,0,0,0,0,0l-4.3,4.7l5.8,2c0.3,0.1,0.4,0.4,0.3,0.6
	C142.4,378.3,142.2,378.4,142,378.4z"/>
<path class="st0" d="M150.9,376.6c-0.3,0-0.5-0.2-0.5-0.5c0-0.1,0.1-0.3,0.2-0.4l4.4-4.2l-5.9-2.4c-0.3-0.1-0.4-0.4-0.3-0.7
	c0.1-0.3,0.4-0.4,0.7-0.3c0,0,0,0,0,0l6.6,2.7c0.3,0.1,0.4,0.4,0.3,0.7c0,0.1-0.1,0.1-0.1,0.2l-4.9,4.8
	C151.1,376.6,151,376.6,150.9,376.6z"/>
<path class="st0" d="M143.3,381.5c0,0-0.1,0-0.1,0c-0.3-0.1-0.4-0.4-0.3-0.6c0,0,0,0,0,0l4.6-15c0.1-0.3,0.4-0.4,0.6-0.3
	c0.3,0.1,0.4,0.4,0.3,0.6l-4.6,15C143.7,381.4,143.6,381.5,143.3,381.5z"/>
</svg>
