<?xml version="1.0" encoding="utf-8"?>
<!-- Generator: Adobe Illustrator 27.5.0, SVG Export Plug-In . SVG Version: 6.00 Build 0)  -->
<svg version="1.1" id="Layer_1" xmlns="http://www.w3.org/2000/svg" xmlns:xlink="http://www.w3.org/1999/xlink" x="0px" y="0px"
	 viewBox="0 0 1093.9 755.9" style="enable-background:new 0 0 1093.9 755.9;" xml:space="preserve">
<style type="text/css">
	.st0{fill:#022709;}
	.st1{fill:#4C5429;}
	.st2{fill:#99FF33;}
	.st3{fill:#6666CC;}
	.st4{fill:#C0E259;}
	.st5{fill:#3F3D56;}
	.st6{fill:url(#SVGID_1_);}
	.st7{fill:#BC9C69;}
	.st8{fill:#333300;}
	.st9{fill:#6633FF;}
	.st10{fill:#99FF99;}
	.st11{fill:url(#SVGID_00000033370264699736530180000017430740325804196749_);}
	.st12{fill:#1F003D;}
	.st13{fill:#BDF1F2;}
	.st14{opacity:0.15;enable-background:new    ;}
</style>
<path class="st0" d="M296.2,689.2H29.3c0,0-5.4-79.3,26.6-80.2s28.4,35.2,68.5-14.4s88.8-46.9,95.1-17.6s-12.2,52.7,21.6,45.5
	S323.7,634.2,296.2,689.2z"/>
<path class="st1" d="M158.3,689.2h-0.9c2.1-52.2,13-85.8,21.8-104.8c9.6-20.6,18.8-28.9,18.9-29l0.6,0.7c-0.1,0.1-9.2,8.3-18.7,28.8
	C171.2,603.8,160.3,637.2,158.3,689.2z"/>
<path class="st1" d="M254.8,689.4l-0.9-0.3c10.4-35.8,35-58.4,35.2-58.6l0.6,0.7C289.5,631.4,265.2,653.8,254.8,689.4z"/>
<path class="st1" d="M71.4,689.3l-0.9-0.1c3.5-25.5-2.9-45.3-8.8-57.4c-6.5-13.1-13.9-20.3-13.9-20.3l0.6-0.7
	c0.1,0.1,7.6,7.3,14.1,20.6C68.5,643.6,74.9,663.6,71.4,689.3z"/>
<path class="st2" d="M332.4,690.4H0.5l-0.1-1.1c-0.2-2.8-4.4-68.8,17-92.3c4.8-5.3,10.5-8,17.1-8.2c13.9-0.4,22.7,4.8,29.8,9
	c13.3,7.9,22.1,13.1,54.1-26.4c34.6-42.8,72-52,93.5-46.9c13.9,3.3,23.4,12.7,26.2,25.7c2.7,12.3,1.8,23.9,1.1,33.2
	c-0.7,9.9-1.3,17.8,2.8,21.4c3.4,3,10.2,3.2,21.4,0.8c22.8-4.9,54.6-0.7,70.5,19.9c8.6,11.1,15.3,31.2-1.2,64.3L332.4,690.4z
	 M2.8,688h328.1c12.3-25,12.7-46.1,1.1-61.1c-14.6-18.9-45.3-23.9-68.1-19c-12.2,2.6-19.4,2.2-23.5-1.4c-5-4.4-4.4-12.7-3.6-23.4
	c0.7-9.1,1.5-20.5-1.1-32.5c-2.6-12.1-11.5-20.7-24.4-23.8c-20.8-5-57.1,4.1-91.1,46.1c-33.3,41.1-43.3,35.2-57.2,27
	c-7.1-4.2-15.3-9-28.5-8.7c-5.9,0.2-11.1,2.7-15.4,7.4C0,619.8,2.3,679.1,2.8,688z"/>
<path class="st0" d="M1047.2,689.2H780.3c0,0-5.4-79.3,26.6-80.2s28.4,35.2,68.5-14.4s88.8-46.9,95.1-17.6s-12.2,52.7,21.6,45.5
	S1074.7,634.2,1047.2,689.2z"/>
<path class="st3" d="M909.3,689.2h-0.9c2.1-52.2,13-85.8,21.8-104.8c9.6-20.6,18.8-28.9,18.9-29l0.6,0.7c-0.1,0.1-9.2,8.3-18.7,28.8
	C922.2,603.8,911.3,637.2,909.3,689.2z"/>
<path class="st3" d="M1005.8,689.4l-0.9-0.3c10.4-35.8,35-58.4,35.2-58.6l0.6,0.7C1040.5,631.4,1016.2,653.8,1005.8,689.4z"/>
<path class="st3" d="M822.4,689.3l-0.9-0.1c3.5-25.5-2.9-45.3-8.8-57.4c-6.5-13.1-13.9-20.3-13.9-20.3l0.6-0.7
	c0.1,0.1,7.6,7.3,14.1,20.6C819.5,643.6,825.9,663.6,822.4,689.3z"/>
<path class="st4" d="M1083.4,690.4H751.5l-0.1-1.1c-0.2-2.8-4.4-68.8,17-92.3c4.8-5.3,10.5-8,17.1-8.2c13.9-0.4,22.7,4.8,29.8,9
	c13.3,7.9,22.1,13.1,54.1-26.4c34.6-42.8,72-52,93.5-46.9c13.9,3.3,23.4,12.7,26.2,25.7c2.7,12.3,1.8,23.9,1.1,33.2
	c-0.7,9.9-1.3,17.8,2.8,21.4c3.4,3,10.2,3.2,21.4,0.8c22.8-4.9,54.6-0.7,70.5,19.9c8.6,11.1,15.3,31.2-1.2,64.3L1083.4,690.4z
	 M753.8,688h328.1c12.3-25,12.7-46.1,1.1-61.1c-14.6-18.9-45.3-23.9-68.1-19c-12.2,2.6-19.4,2.2-23.5-1.4c-5-4.4-4.4-12.7-3.6-23.4
	c0.7-9.1,1.5-20.5-1.1-32.5c-2.6-12.1-11.5-20.7-24.4-23.8c-20.8-5-57.1,4.1-91.1,46.1c-33.3,41.1-43.3,35.2-57.2,27
	c-7.1-4.2-15.3-9-28.5-8.7c-5.9,0.2-11.1,2.7-15.4,7.4C751,619.8,753.3,679.1,753.8,688L753.8,688z"/>
<path class="st2" d="M514.3,463.9c-23.4,0-43.9,24.4-55.2,60.9c-0.8,2.6-1.5,5.2-2.2,7.9c-4.8,18.7-7.1,37.9-7,57.2
	c0,69.5,28.9,126,64.5,126s64.5-56.5,64.5-126S549.9,463.9,514.3,463.9z M514.3,713.9c-34.5,0-62.5-55.6-62.5-124
	c-0.1-19.4,2.3-38.7,7.1-57.5c0.7-2.5,1.4-5,2.1-7.4c11-35.5,30.8-59.2,53.2-59.2c34.5,0,62.5,55.6,62.5,124
	S548.8,713.9,514.3,713.9z"/>
<path class="st2" d="M529.8,662.8c-12.3,0-22-32-22-72.9s9.7-72.9,22-72.9s22,32,22,72.9S542.2,662.8,529.8,662.8z M529.8,519.1
	c-10.8,0-20,32.4-20,70.9s9.2,70.9,20,70.9s20-32.4,20-70.9S540.7,519.1,529.8,519.1z"/>
<ellipse class="st1" cx="532.3" cy="589.9" rx="8.5" ry="16.7"/>
<polygon class="st5" points="513.8,362.9 650.8,362.4 650.8,416.4 513.8,421.9 "/>
<polygon class="st4" points="396.8,546 394.8,545.9 400.9,435.9 524.8,435.9 524.8,437.9 402.8,437.9 "/>
<polygon class="st5" points="396.6,723.9 326.6,711.9 327,709.9 397,721.9 "/>
<rect x="452.2" y="708.9" transform="matrix(8.208349e-02 -0.9966 0.9966 8.208349e-02 -333.029 1141.4729)" class="st5" width="2" height="85.3"/>
<path class="st4" d="M608.1,546.1c-0.8,2.4-1.5,4.9-2.1,7.4l-2.1,0.2l-65,7.2l-149-15l155-8l61.3,7.9L608.1,546.1z"/>
<linearGradient id="SVGID_1_" gradientUnits="userSpaceOnUse" x1="502.8" y1="7.4673" x2="666.8" y2="7.4673" gradientTransform="matrix(1 0 0 1 0 232)">
	<stop  offset="0" style="stop-color:#9E691D"/>
	<stop  offset="0.2242" style="stop-color:#000000"/>
	<stop  offset="0.3259" style="stop-color:#5C456A"/>
	<stop  offset="0.4372" style="stop-color:#000000"/>
	<stop  offset="0.5552" style="stop-color:#604942"/>
	<stop  offset="0.7567" style="stop-color:#000000"/>
</linearGradient>
<path class="st6" d="M574,188.2c0,0-21.7-7.7-35.6,23.2s-35.6,65-35.6,65l12.4,3.1c0,0,3.1-21.7,10.8-24.8l-3.1,27.8
	c0,0,92.8,32.5,134.6-3.1l-1.5-10.8c0,0,6.2,1.5,6.2,10.8l4.6-4.6c0,0-4.6-9.3-18.6-21.7c-9.1-8.1-12.3-23.6-13.4-33.2
	c-0.8-8.1-4-15.7-9.3-21.9C616.4,187.3,599.5,175.9,574,188.2z"/>
<path class="st7" d="M454.3,217.4l-9-94c0,0-18-51,9-47s11,43,11,43l15,98H454.3z"/>
<polygon class="st7" points="384.3,644.4 374.3,678.4 393.3,694.4 407.3,651.4 "/>
<path class="st7" d="M461.3,669.4l-10,36l35,22c0,0,1-41,6-49L461.3,669.4z"/>
<path class="st8" d="M504.3,477.4l-5,10c0,0-57-26-72,10s-48,150-48,150l29,12l53-121l121-3l5-67L504.3,477.4z"/>
<path class="st8" d="M546.3,494.4c0,0-82-17-88,24s3,119,4,121s-4,39-4,39l36,5c0,0,23-109,13-137l67.7-4.2
	c23.4-1.4,42.4-19.9,43.8-43.3c0.5-8.9-1.7-17.1-9.4-21.6c-24-14-68-14-68-14L546.3,494.4z"/>
<path class="st9" d="M387.3,677.4c0,0-7-15-17-8s-33,22-33,22s-35.6,12.5-4,21c28.1,7.5,35,6,35,6s23,4,26,2s5-34,5-34
	S385.3,683.4,387.3,677.4z"/>
<path class="st9" d="M465.3,708.4c0,0-10-14-17-8s-32,23-32,23s-42,12-5,23s78,9,79,5s-2-33-2-33S467.3,717.4,465.3,708.4z"/>
<circle class="st7" cx="585.3" cy="251.4" r="36"/>
<path class="st7" d="M559.3,267.4c0,0-2,41-12,44s-38,36-25,46s88,3,88,3l-7-52c0,0-16-11-3-30L559.3,267.4z"/>
<path class="st10" d="M558.3,335.4l-7-33l-23-9l-19,44c0,0-21.5,142.5-15.5,144.5c3.4,1.2,6.9,1.7,10.5,1.5c0,0,32-10,42-5
	s62,9,62,9s36-19,34-36s0-112,0-112l-4.5-42.5l-39.5,6.2L558.3,335.4z"/>
<polygon class="st10" points="529.3,298.4 528.3,292.4 500.3,258.4 484.3,201.4 445.3,216.4 473.3,285.4 513.3,336.4 "/>
<linearGradient id="SVGID_00000116230932070935112830000016842831435036391333_" gradientUnits="userSpaceOnUse" x1="536.5" y1="-1.8" x2="626.5095" y2="-1.8" gradientTransform="matrix(1 0 0 1 0 232)">
	<stop  offset="3.759507e-02" style="stop-color:#000000"/>
	<stop  offset="3.876851e-02" style="stop-color:#030201"/>
	<stop  offset="5.657335e-02" style="stop-color:#322109"/>
	<stop  offset="7.436897e-02" style="stop-color:#593B10"/>
	<stop  offset="9.186888e-02" style="stop-color:#774F16"/>
	<stop  offset="0.109" style="stop-color:#8D5D1A"/>
	<stop  offset="0.1255" style="stop-color:#9A661C"/>
	<stop  offset="0.1409" style="stop-color:#9E691D"/>
	<stop  offset="0.2676" style="stop-color:#604942"/>
	<stop  offset="0.4065" style="stop-color:#000000"/>
	<stop  offset="0.4425" style="stop-color:#5C456A"/>
	<stop  offset="0.5646" style="stop-color:#3C2D45"/>
	<stop  offset="0.7529" style="stop-color:#1B1520"/>
	<stop  offset="0.9047" style="stop-color:#070608"/>
	<stop  offset="1" style="stop-color:#000000"/>
</linearGradient>
<path style="fill:url(#SVGID_00000116230932070935112830000016842831435036391333_);" d="M538,255.7c0,0,12.4-17,23.2-20.1
	s12.4-18.6,12.4-18.6s27.8,30.9,44.9,32.5s1.5-37.1,1.5-37.1l-30.9-7.7l-29.4,3.1l-23.2,15.5L538,255.7z"/>
<polygon class="st4" points="653.8,487 652.9,445.9 559.8,445.9 556.8,556 554.8,555.9 557.8,443.9 654.8,443.9 654.8,444.9 
	655.8,486.9 "/>
<polygon class="st4" points="651.8,430.9 649.8,430.9 649.8,354.6 682.1,364 681.5,365.9 651.8,357.3 "/>
<path class="st2" d="M661.3,484.9c-23.4,0-43.9,24.4-55.2,60.9c-0.8,2.6-1.5,5.2-2.2,7.9c-4.8,18.7-7.1,37.9-7,57.2
	c0,69.5,28.9,126,64.5,126s64.5-56.5,64.5-126S696.9,484.9,661.3,484.9z M661.3,734.9c-34.5,0-62.5-55.6-62.5-124
	c-0.1-19.4,2.3-38.7,7.1-57.5c0.7-2.5,1.4-5,2.1-7.4c11-35.5,30.8-59.2,53.2-59.2c34.5,0,62.5,55.6,62.5,124
	S695.8,734.9,661.3,734.9z"/>
<path class="st2" d="M676.8,683.8c-12.3,0-22-32-22-72.9s9.7-72.9,22-72.9s22,32,22,72.9S689.2,683.8,676.8,683.8z M676.8,540.1
	c-10.8,0-20,32.4-20,70.9s9.2,70.9,20,70.9s20-32.4,20-70.9S687.7,540.1,676.8,540.1z"/>
<ellipse class="st1" cx="679.3" cy="610.9" rx="8.5" ry="16.7"/>
<polygon class="st4" points="665.8,352.9 686.8,360.9 682.8,371.9 665.8,364.9 "/>
<polygon class="st4" points="582.8,438.9 582.8,454.9 642.4,454.9 642.4,440 "/>
<polygon class="st4" points="429.8,430.9 429.8,446.9 489.4,446.9 489.4,432 "/>
<path class="st2" d="M633.5,92.3H225.8V0h407.6L633.5,92.3L633.5,92.3z M228.2,89.9H631V2.4H228.2V89.9z"/>
<rect x="258.2" y="31.2" class="st0" width="45.6" height="45.6"/>
<path class="st2" d="M297.8,70.7h-48v-48h48V70.7z M252.2,68.3h43.2V25.2h-43.2V68.3z"/>
<rect x="373.3" y="32.4" class="st2" width="213.4" height="2.4"/>
<rect x="373.3" y="49.2" class="st2" width="213.4" height="2.4"/>
<rect x="373.3" y="65.9" class="st2" width="213.4" height="2.4"/>
<path class="st12" d="M538.8,392.1h-0.5v-13.3c0-4.3-3.5-7.7-7.7-7.7l0,0h-28.2c-4.3,0-7.7,3.5-7.7,7.7l0,0v73.1
	c0,4.3,3.5,7.7,7.7,7.7l0,0h28.2c4.3,0,7.7-3.5,7.7-7.7l0,0v-50.3h0.5V392.1z"/>
<circle class="st13" cx="516.8" cy="393.8" r="4.7"/>
<path class="st7" d="M636.4,439.9l-94.4-1.8c0,0-52.7,12.1-45.7-14.3s44-6,44-6l99.1-3.7L636.4,439.9z"/>
<path class="st10" d="M626.8,303.9l9-7c0,0,15-8,18,20s25,121,3,122s-78,2-78,2l6-31l46-3L626.8,303.9z"/>
<polygon class="st14" points="629.8,346.9 626.8,403.9 582.8,412.9 622.8,396.9 "/>
</svg>
